<?xml version="1.0" encoding="utf-8"?>
<!-- Generator: Adobe Illustrator 16.0.0, SVG Export Plug-In . SVG Version: 6.00 Build 0)  -->
<!DOCTYPE svg PUBLIC "-//W3C//DTD SVG 1.1//EN" "http://www.w3.org/Graphics/SVG/1.1/DTD/svg11.dtd">
<svg version="1.1" id="Layer_1" xmlns="http://www.w3.org/2000/svg" xmlns:xlink="http://www.w3.org/1999/xlink" x="0px" y="0px"
	  viewBox="-0.092 0.047 19.626 19.628" enable-background="new -0.092 0.047 19.626 19.628"
	 xml:space="preserve">
<path d="M9.722,0.047c-5.42,0-9.814,4.394-9.814,9.814s4.394,9.814,9.814,9.814s9.812-4.395,9.812-9.814
	C19.537,4.441,15.142,0.047,9.722,0.047z M8.571,3.705c0-0.635,0.515-1.15,1.15-1.15c0.635,0,1.15,0.515,1.15,1.15v8.884
	c0,0.635-0.516,1.15-1.15,1.15c-0.635,0-1.15-0.516-1.15-1.15V3.705z M9.721,17.248c-0.707,0-1.279-0.573-1.279-1.279
	s0.573-1.279,1.279-1.279c0.706,0,1.279,0.573,1.279,1.279S10.427,17.248,9.721,17.248z"/>
</svg>
