<?xml version="1.0" encoding="utf-8"?>
<!-- Generator: Adobe Illustrator 16.0.0, SVG Export Plug-In . SVG Version: 6.00 Build 0)  -->
<!DOCTYPE svg PUBLIC "-//W3C//DTD SVG 1.1//EN" "http://www.w3.org/Graphics/SVG/1.1/DTD/svg11.dtd">
<svg version="1.1" id="Layer_1" xmlns="http://www.w3.org/2000/svg" xmlns:xlink="http://www.w3.org/1999/xlink" x="0px" y="0px"
	 width="22.375px" height="22.375px" viewBox="0 0 22.375 22.375" enable-background="new 0 0 22.375 22.375" xml:space="preserve">
<path fill="#41464B" d="M10.042,21.375c0,0.552-0.448,1-1,1H1c-0.552,0-1-0.448-1-1v-8.043c0-0.552,0.448-1,1-1h8.042
	c0.552,0,1,0.448,1,1V21.375z"/>
<path fill="#41464B" d="M21.375,13.332v8.043h-8.042v-8.043H21.375 M21.375,12.332h-8.042c-0.552,0-1,0.448-1,1v8.043
	c0,0.552,0.448,1,1,1h8.042c0.553,0,1-0.448,1-1v-8.043C22.375,12.78,21.928,12.332,21.375,12.332L21.375,12.332z"/>
<path fill="#41464B" d="M21.375,1v8.043h-8.042V1H21.375 M21.375,0h-8.042c-0.552,0-1,0.448-1,1v8.043c0,0.552,0.448,1,1,1h8.042
	c0.553,0,1-0.448,1-1V1C22.375,0.448,21.928,0,21.375,0L21.375,0z"/>
<path fill="#41464B" d="M9.042,1v8.043H1V1H9.042 M9.042,0H1C0.448,0,0,0.448,0,1v8.043c0,0.552,0.448,1,1,1h8.042
	c0.553,0,1-0.448,1-1V1C10.042,0.448,9.595,0,9.042,0L9.042,0z"/>
</svg>
