<?xml version="1.0" encoding="utf-8"?>
<!-- Generator: Adobe Illustrator 16.0.0, SVG Export Plug-In . SVG Version: 6.00 Build 0)  -->
<!DOCTYPE svg PUBLIC "-//W3C//DTD SVG 1.1//EN" "http://www.w3.org/Graphics/SVG/1.1/DTD/svg11.dtd">
<svg version="1.1" id="Layer_1" xmlns="http://www.w3.org/2000/svg" xmlns:xlink="http://www.w3.org/1999/xlink" x="0px" y="0px"
	 width="19.684px" height="22.79px" viewBox="0 0 19.684 22.79" enable-background="new 0 0 19.684 22.79" xml:space="preserve">
<path fill="#41464B" d="M9.842,21.781l-8.528-3.933c0.028,0.019-0.755-0.337-1.312-0.656c0,0.476,0.119,1.347,0.562,1.582
	l8.351,3.755c0.738,0.348,1.057,0.348,1.856,0l8.351-3.755c0.412-0.192,0.562-1.095,0.562-1.582
	c-0.537,0.269-1.298,0.652-1.312,0.655L9.842,21.781z"/>
<path fill="#41464B" d="M9.842,17.584l-8.528-3.932c0.028,0.018-0.755-0.337-1.312-0.656c0,0.477,0.119,1.348,0.562,1.584
	l8.351,3.754c0.738,0.348,1.057,0.348,1.856,0l8.351-3.754c0.412-0.193,0.562-1.097,0.562-1.584
	c-0.537,0.27-1.298,0.652-1.312,0.656L9.842,17.584z"/>
<path fill="#41464B" d="M0.562,10.479l8.351,3.754c0.738,0.348,1.057,0.348,1.856,0l8.351-3.754
	c0.412-0.192,0.562-1.095,0.562-1.582c-0.537,0.269-1.298,0.651-1.312,0.655l-8.529,3.932L1.312,9.553
	C1.341,9.571,0.557,9.216,0,8.897C0,9.373,0.119,10.244,0.562,10.479z"/>
<g>
	<polygon fill="none" points="1.312,5.62 9.841,9.214 18.37,5.62 9.841,1.033 	"/>
	<path fill="#41464B" d="M19.12,4.693l-8.35-4.409c-0.656-0.389-1.118-0.369-1.856,0L0.562,4.693c-0.636,0.41-0.655,1.506,0,1.854
		l8.351,3.754c0.738,0.348,1.057,0.348,1.856,0l8.351-3.754C19.735,6.26,19.755,5.041,19.12,4.693z M9.841,9.214L1.312,5.62
		l8.528-4.587L18.37,5.62L9.841,9.214z"/>
</g>
</svg>
