<?xml version="1.0" encoding="utf-8"?>
<!-- Generator: Adobe Illustrator 16.0.0, SVG Export Plug-In . SVG Version: 6.00 Build 0)  -->
<!DOCTYPE svg PUBLIC "-//W3C//DTD SVG 1.1//EN" "http://www.w3.org/Graphics/SVG/1.1/DTD/svg11.dtd">
<svg version="1.1" id="Layer_1" xmlns="http://www.w3.org/2000/svg" xmlns:xlink="http://www.w3.org/1999/xlink" x="0px" y="0px"
	 width="51.197px" height="17.215px" viewBox="0 0 51.197 17.215" enable-background="new 0 0 51.197 17.215" xml:space="preserve">
<g>
	<g>
		<path d="M2.426,8.15l33.09,5.833l4.077-0.825l0.568-0.207c0,0,0.826,0.311,0.258,0.619c-0.567,0.311-4.026,0.672-4.026,0.672
			s-1.071,0.635-0.519,1.604c0,0,0.3,0.377,0.852,0.309l2.022-0.309c0,0,0.165,0.01,0.106,0.067
			c-0.058,0.058-2.478,0.503-2.478,0.503s-0.61,0.252,0.019,0.301c0,0,0.057,0.083-0.092,0.127
			c-0.146,0.043-0.439,0.183-0.779,0.211c-0.338,0.029-1.268-0.096-1.548-0.164c-0.281-0.068-1.927-0.319-1.927-0.319l-11.169-1.897
			l-4.607,0.969c0,0-0.252,0.122-0.355-0.046c-0.103-0.167-0.116-0.342,0.11-0.38c0.226-0.039,0.433-0.02,0.316-0.156l-0.826-0.711
			v1.52l0.397-0.005l-0.213,0.848c0,0,0.416,0.053,0.537,0.228c0.121,0.174-0.465,0.275-0.799,0.275s-1.016,0.039-0.697-0.305
			c0,0,0.581-0.049,0.489-0.982L15.2,13.88l-8.024-1.627l-5.807,1.008v-0.439l0.522-0.104c0,0,0.097-0.123-0.032-0.168L1.51,12.441
			c0,0-0.258-0.025-0.291-0.342s-0.348-0.078-0.341,0.006c0,0-0.065,0.961,0.019,1.156c0.084,0.193,0.348,0.193,0.348,0.193
			s-0.167,0.631-0.155,0.651c0.013,0.019,0.452,0.361,0.51,0.387c0.058,0.026,0.039,0.161-0.09,0.168S0,14.699,0,14.699
			s-0.013-0.142,0.142-0.238c0,0,0.484-0.271,0.503-0.395c0.02-0.121,0.007-2.863,0.007-2.863s0.181-0.588,0.677-0.613h0.522
			l0.033-2.188C1.884,8.401,1.871,8.015,2.426,8.15z"/>
		<path d="M17.667,3.426c0,0-0.619-0.774,0.426-1.239c1.045-0.465,1.66-0.397,1.863-0.373c0.203,0.024,1.142,0.44,1.142,0.44
			L51.197,0l-0.252,1.336l-0.097,0.135l-8.847,0.756c0,0-1.182-0.097-1.297,0.638c-0.117,0.736-1.046,6.543-1.046,6.543
			s-0.399,3.001-0.917,3.75l-2.58,0.645c0,0-1.304-0.864-1.517-0.891c0,0,1.819-3.774,2.574-7.008c0,0,0.581-2.38,0.175-3.31
			c0,0-0.291-0.135-1.568,0.02L19.449,3.853l-0.891,0.116l-0.542,0.104c0,0-0.697,0.135-0.426-0.362
			C17.59,3.71,17.648,3.639,17.667,3.426z"/>
		<path d="M18.455,5.336l1.497,5.033c0,0,0.232,0.413,0.645,0.49l-1.265-0.104l-0.349-0.748c0,0,0.446-0.175,0.291-0.735
			c-0.154-0.562-1.026-3.698-1.026-3.698L17.59,5.613l0.02-0.232l0.445-0.077l-0.368-0.813l0.252-0.271l0.426,0.426l0.387-0.078
			l0.077,0.078l-0.677,0.271l0.91,0.078L19.333,4.8l0.129,0.084l0.013,0.49h-0.11c0,0-0.045-0.261-0.258-0.284
			c-0.213-0.022-0.594-0.006-0.703,0.087C18.404,5.178,18.449,5.291,18.455,5.336z"/>
		<path d="M37.332,15.423c0,0-0.127-0.619,0.207-0.678l2.168-0.328c0,0,0.15,0,0.17,0.106s0.067,0.469,0.067,0.469
			s-1.446,0.296-1.48,0.306s-0.484,0.062-0.484,0.062s-0.082-0.17-0.193-0.193c-0.11-0.024-0.241,0.033-0.305,0.135
			S37.332,15.423,37.332,15.423z"/>
		<path d="M3.608,7.835l0.806-1.635c1.148,0.413,0.929,2.052,0.929,2.052L3.601,8.046C3.573,7.992,3.608,7.835,3.608,7.835z
			 M2.481,6.388l1.335-0.184c0,0,0.208-0.039,0.145,0.058L3.018,8.058c0,0,3.451,0.479,3.683,0.519
			c0.232,0.038,1.026,0.145,1.346,0.232C8.366,8.895,6.759,8.42,6.527,8.16c-0.233-0.262,0.406-0.087,0.6-0.058
			c0,0,1.48,0.319,1.568,0.3c0.087-0.02,1.694,0.175,0.484-0.223c0,0-0.765-0.039-1.675-0.668c0,0-0.271-0.097-1.171-0.048
			c0,0-1.268-0.678-0.929-1.472l1.374-0.31c0,0,0.136-0.135-0.067-0.155C6.508,5.507,5.007,5.769,5.007,5.769s0.048-0.3,0.165-0.378
			S4.243,5.556,3.953,5.256c0,0-0.175-0.045-0.017,0.207c0,0,0.213,0.313-0.064,0.467c0,0-1.271,0.252-1.329,0.278
			S2.381,6.311,2.481,6.388z"/>
	</g>
	<path d="M20.707,10.086l7.318,1.296c0,0,1.335,0.078,1.51,0c0,0,0.716-0.232,1.238,0c0,0,0.619-0.115,0.949,0.136l0.271,0.251
		c0,0,0.31-0.27,0.542,0.098l0.619,0.29l-0.059-0.388c0,0,0.037-0.09,0.238,0.098c0,0,1.356,0.206,1.666,0.181
		c0,0,0.116,0.22-0.31,0.381s-2.494,0.019-2.901-0.185l-5.022-0.842l-5.76-0.919l-0.116,0.009L20.707,10.086z"/>
	<path d="M16.661,9.253c0,0-0.329,0.106,0.106,0.194c0.436,0.087,2.275,0.396,2.275,0.396l0.019,0.406l-2.12-0.348l-3.93-0.929
		L8.027,7.656c0,0-0.048-0.261,0.329-0.271s0.745,0.281,0.823,0.31c0,0,0.193,0.087,0.155-0.106c-0.039-0.193-0.9-0.522-1.036-1.394
		l-0.01-0.978c0,0,0.087-0.106,0.184,0.039c0.097,0.145,0.31,0.474,0.31,0.474s-0.261-0.117-0.261,0c0,0.116-0.02,1.22,1.026,1.8
		c0,0,0.155,0.155,0.204-0.106c0.048-0.261-0.136-0.522-0.175-0.62C9.538,6.708,9.382,6.388,9.382,6.388s0.203,0.068,0.3,0.213
		c0.097,0.146,0.029-0.958,0.029-0.958s0.097-0.165,0.193-0.029c0.097,0.136,0.223,0.281,0.223,0.281L9.924,6.04l0.029,0.59
		c0,0,0.871,1.21,1.171,1.288c0.3,0.078,0.562,0.184,0.562,0.184s0.339,0.203,0.106-0.165c-0.232-0.368-0.474-0.726-0.474-0.726
		L12.18,8.13l0.542,0.233c0,0,1.191,0.667,1.675,0.658c0.484-0.009,0.958-0.474,2.555,0.039c0,0,0.396,0.193-0.01,0.193
		C16.535,9.253,16.661,9.253,16.661,9.253z"/>
</g>
</svg>
