<?xml version="1.0" encoding="utf-8"?>
<!-- Generator: Adobe Illustrator 16.0.0, SVG Export Plug-In . SVG Version: 6.00 Build 0)  -->
<!DOCTYPE svg PUBLIC "-//W3C//DTD SVG 1.1//EN" "http://www.w3.org/Graphics/SVG/1.1/DTD/svg11.dtd">
<svg version="1.1" id="Layer_1" xmlns="http://www.w3.org/2000/svg" xmlns:xlink="http://www.w3.org/1999/xlink" x="0px" y="0px"
	  viewBox="0 0 15.391 15.217" enable-background="new 0 0 15.391 15.217" xml:space="preserve">
<path d="M1,15.216c-0.258,0-0.516-0.1-0.712-0.298c-0.388-0.393-0.384-1.026,0.009-1.414L13.689,0.289
	c0.392-0.387,1.027-0.384,1.414,0.009c0.388,0.394,0.384,1.026-0.01,1.415L1.703,14.928C1.508,15.121,1.254,15.216,1,15.216z"/>
<path d="M14.391,15.217c-0.254,0-0.508-0.096-0.702-0.288L0.298,1.712c-0.393-0.388-0.397-1.021-0.009-1.415
	c0.389-0.394,1.022-0.397,1.415-0.009l13.39,13.217c0.394,0.388,0.397,1.021,0.01,1.414C14.907,15.118,14.649,15.217,14.391,15.217z
	"/>
</svg>
