<?xml version="1.0" encoding="utf-8"?>
<!-- Generator: Adobe Illustrator 16.0.0, SVG Export Plug-In . SVG Version: 6.00 Build 0)  -->
<!DOCTYPE svg PUBLIC "-//W3C//DTD SVG 1.1//EN" "http://www.w3.org/Graphics/SVG/1.1/DTD/svg11.dtd">
<svg version="1.1" id="Layer_1" xmlns="http://www.w3.org/2000/svg" xmlns:xlink="http://www.w3.org/1999/xlink" x="0px" y="0px"
	 width="30.082px" height="30.084px" viewBox="0 0 30.082 30.084" enable-background="new 0 0 30.082 30.084" xml:space="preserve">
<g>
	<path d="M15.041,29.184C7.244,29.184,0.9,22.841,0.9,15.043C0.9,7.245,7.244,0.9,15.041,0.9c7.798,0,14.141,6.345,14.141,14.143
		C29.182,22.841,22.839,29.184,15.041,29.184z"/>
	<path fill="#FFFFFF" d="M15.041,1.8c7.301,0,13.241,5.941,13.241,13.243c0,7.301-5.94,13.241-13.241,13.241
		C7.74,28.284,1.8,22.344,1.8,15.043C1.8,7.741,7.74,1.8,15.041,1.8 M15.041,0C6.734,0,0,6.734,0,15.043
		c0,8.308,6.734,15.041,15.041,15.041c8.308,0,15.041-6.733,15.041-15.041C30.082,6.734,23.349,0,15.041,0L15.041,0z"/>
</g>
<path fill="#FFFFFF" d="M24.703,12.134v5.48c0,0,0.118,0.979-0.566,1.267l-8.18,3.875c-0.793,0.352-1.109,0.352-1.842,0
	l-8.268-3.931c-0.558-0.217-0.48-0.732-0.465-1.207l-0.009-5.576c0.037-0.466,0.119-0.949,0.688-1.199l8.07-3.506
	c0.732-0.373,1.11-0.354,1.842,0l8.053,3.499C24.618,11.108,24.695,11.605,24.703,12.134z M6.595,17.903
	c-0.093-0.057,7.712,3.604,7.712,3.604v-4.992c0.11,0.075-7.712-3.35-7.712-3.35V17.903z M14.984,8.325l-7.846,3.496l8.094,3.458
	l7.846-3.354L14.984,8.325z M23.463,13.185c0,0-7.816,3.414-7.665,3.314v5.011c0,0,7.808-3.666,7.665-3.591V13.185z"/>
</svg>
