<?xml version="1.0" encoding="utf-8"?>
<!-- Generator: Adobe Illustrator 16.0.0, SVG Export Plug-In . SVG Version: 6.00 Build 0)  -->
<!DOCTYPE svg PUBLIC "-//W3C//DTD SVG 1.1//EN" "http://www.w3.org/Graphics/SVG/1.1/DTD/svg11.dtd">
<svg version="1.1" id="Layer_1" xmlns="http://www.w3.org/2000/svg" xmlns:xlink="http://www.w3.org/1999/xlink" x="0px" y="0px"
	 width="30.082px" height="30.083px" viewBox="0 0 30.082 30.083" enable-background="new 0 0 30.082 30.083" xml:space="preserve">
<g>
	<path d="M15.041,29.183C7.244,29.183,0.9,22.84,0.9,15.042C0.9,7.244,7.244,0.9,15.041,0.9c7.798,0,14.141,6.344,14.141,14.143
		C29.182,22.84,22.839,29.183,15.041,29.183z"/>
	<path fill="#FFFFFF" d="M15.041,1.8c7.301,0,13.241,5.941,13.241,13.243c0,7.301-5.94,13.241-13.241,13.241
		C7.74,28.284,1.8,22.343,1.8,15.042C1.8,7.741,7.74,1.8,15.041,1.8 M15.041,0C6.734,0,0,6.734,0,15.042
		c0,8.308,6.734,15.041,15.041,15.041c8.308,0,15.041-6.733,15.041-15.041C30.082,6.734,23.349,0,15.041,0L15.041,0z"/>
</g>
<g>
	<path fill="#fff" d="M7.54,12.545c-0.191,0-0.354,0.025-0.5,0.066V9.545h-1v11.001h1v-3.068c0.146,0.041,0.309,0.068,0.5,0.068
		c1.381,0,2.5-1.119,2.5-2.5C10.04,13.665,8.921,12.545,7.54,12.545z"/>
	<path fill="#fff" d="M13.39,11.865l-1.352,1.038c0.688,0.479,1.137,1.263,1.137,2.147c0,0.805-0.369,1.523-0.953,2.008
		l1.131,1.207c0.922-0.783,1.553-1.934,1.553-3.215C14.905,13.784,14.29,12.647,13.39,11.865z"/>
	<path fill="#fff" d="M15.806,10.67c1.174,1.11,1.904,2.662,1.904,4.378c0,1.684-0.701,3.207-1.836,4.312l1.359,1.064
		c1.375-1.398,2.217-3.293,2.217-5.377c0-2.123-0.875-4.048-2.293-5.454L15.806,10.67z"/>
	<path fill="#fff" d="M21.11,7.541l-1.396,1.085c1.598,1.693,2.57,3.947,2.57,6.423c0,2.479-0.977,4.736-2.576,6.43l1.416,1.064
		c1.816-1.992,2.918-4.617,2.918-7.494C24.042,12.165,22.937,9.534,21.11,7.541z"/>
</g>
</svg>
