<?xml version="1.0" encoding="utf-8"?>
<svg xmlns="http://www.w3.org/2000/svg"
	xmlns:xlink="http://www.w3.org/1999/xlink"
	width="23px" height="27px" viewBox="0 0 23 27">
<clipPath id="clip0"><path fillRule="evenodd" d="M-1.97 29.03C-1.97 29.03-1.97-1.13-1.97-1.13-1.97-1.13 24.88-1.13 24.88-1.13 24.88-1.13 24.88 29.03 24.88 29.03 24.88 29.03-1.97 29.03-1.97 29.03ZM 22.88 17.37C 22.88 17.06 22.63 16.81 22.33 16.81 22.03 16.81 21.78 17.06 21.78 17.37 21.78 17.37 21.78 24.31 21.78 24.31 21.78 24.31 17.25 24.31 17.25 24.31 17.25 24.31 17.25 15.74 17.25 15.74 17.25 15.74 17.25 15.74 17.25 15.74 17.25 15.74 17.25 14.67 17.25 14.67 17.25 14.67 22.33 14.67 22.33 14.67 22.63 14.67 22.88 14.42 22.88 14.11 22.88 13.8 22.63 13.55 22.33 13.55 22.33 13.55 16.7 13.55 16.7 13.55 16.39 13.55 16.15 13.8 16.15 14.11 16.15 14.11 16.15 14.39 16.15 14.39 16.15 14.39 12.65 10.84 12.65 10.84 12.12 10.29 11.34 10.15 10.68 10.4 11.82 9.29 12.46 7.77 12.46 6.14 12.46 3.98 11.3 1.98 9.43 0.95 9.26 0.85 9.05 0.86 8.88 0.96 8.72 1.06 8.62 1.24 8.62 1.44 8.62 1.44 8.62 6.41 8.62 6.41 8.62 6.41 4.68 6.41 4.68 6.41 4.68 6.41 4.68 1.44 4.68 1.44 4.68 1.24 4.58 1.06 4.41 0.96 4.24 0.86 4.04 0.85 3.87 0.95 2 1.98 0.83 3.98 0.83 6.14 0.83 7.9 1.58 9.53 2.91 10.66 2.91 10.66 2.91 12.12 2.91 12.12 2.91 12.12 1.91 12.12 1.91 12.12 0.88 12.12 0.04 12.97 0.04 14.02 0.04 14.02 0.04 14.04 0.04 14.04 0.04 14.57 0.25 15.04 0.59 15.39 0.25 15.73 0.04 16.2 0.04 16.73 0.04 16.73 0.04 16.75 0.04 16.75 0.04 17.28 0.25 17.75 0.59 18.1 0.25 18.44 0.04 18.91 0.04 19.44 0.04 19.44 0.04 19.46 0.04 19.46 0.04 19.99 0.25 20.46 0.59 20.81 0.25 21.15 0.04 21.62 0.04 22.15 0.04 22.15 0.04 22.17 0.04 22.17 0.04 23.22 0.88 24.07 1.91 24.07 1.91 24.07 2.99 24.07 2.99 24.07 3.37 25.78 4.87 27.02 6.62 27.02 6.62 27.02 6.68 27.02 6.68 27.02 8.45 27.02 9.93 25.76 10.3 24.07 10.3 24.07 14.69 24.07 14.69 24.07 14.99 24.07 15.23 23.82 15.23 23.52 15.23 23.21 14.99 22.96 14.69 22.96 14.69 22.96 10.39 22.96 10.39 22.96 10.39 22.96 10.39 18.35 10.39 18.35 10.39 18.04 10.14 17.79 9.84 17.79 9.54 17.79 9.29 18.04 9.29 18.35 9.29 18.35 9.29 23.25 9.29 23.25 9.29 24.72 8.12 25.91 6.68 25.91 6.68 25.91 6.62 25.91 6.62 25.91 5.47 25.91 4.48 25.15 4.13 24.07 4.13 24.07 5 24.07 5 24.07 6.03 24.07 6.86 23.22 6.86 22.17 6.86 22.17 6.86 22.15 6.86 22.15 6.86 21.62 6.66 21.15 6.32 20.81 6.66 20.46 6.86 19.99 6.86 19.46 6.86 19.46 6.86 19.44 6.86 19.44 6.86 18.91 6.66 18.44 6.32 18.1 6.66 17.75 6.86 17.28 6.86 16.75 6.86 16.75 6.86 16.73 6.86 16.73 6.86 16.2 6.66 15.73 6.32 15.39 6.66 15.04 6.86 14.57 6.86 14.04 6.86 14.04 6.86 14.02 6.86 14.02 6.86 12.97 6.03 12.12 5 12.12 5 12.12 4 12.12 4 12.12 4 12.12 4 10.39 4 10.39 4 10.22 3.92 10.06 3.79 9.95 2.61 9.03 1.93 7.64 1.93 6.14 1.93 4.72 2.55 3.4 3.58 2.5 3.58 2.5 3.58 6.97 3.58 6.97 3.58 7.28 3.83 7.53 4.13 7.53 4.13 7.53 9.17 7.53 9.17 7.53 9.47 7.53 9.71 7.28 9.71 6.97 9.71 6.97 9.71 2.5 9.71 2.5 10.75 3.4 11.36 4.72 11.36 6.14 11.36 7.64 10.69 9.03 9.51 9.95 9.37 10.06 9.29 10.22 9.29 10.39 9.29 10.39 9.29 11.57 9.29 11.57 9.29 11.57 7.83 13.05 7.83 13.05 7.48 13.41 7.28 13.89 7.28 14.4 7.28 14.9 7.48 15.38 7.83 15.74 7.83 15.74 7.85 15.76 7.85 15.76 8.21 16.13 8.69 16.32 9.17 16.32 9.65 16.32 10.13 16.13 10.49 15.76 10.49 15.76 11.58 14.65 11.58 14.65 11.8 14.43 11.8 14.08 11.58 13.86 11.37 13.64 11.02 13.64 10.81 13.86 10.81 13.86 9.71 14.97 9.71 14.97 9.41 15.27 8.92 15.27 8.62 14.97 8.62 14.97 8.61 14.95 8.61 14.95 8.46 14.8 8.38 14.61 8.38 14.4 8.38 14.19 8.46 13.99 8.61 13.84 8.61 13.84 10.79 11.63 10.79 11.63 11.09 11.32 11.57 11.32 11.87 11.62 11.87 11.63 11.87 11.63 11.87 11.63 11.87 11.63 16.15 15.97 16.15 15.97 16.15 15.97 16.15 24.87 16.15 24.87 16.15 25.18 16.39 25.43 16.7 25.43 16.7 25.43 22.33 25.43 22.33 25.43 22.63 25.43 22.88 25.18 22.88 24.87 22.88 24.87 22.88 17.37 22.88 17.37ZM 5.77 14.02C 5.77 14.02 5.77 14.04 5.77 14.04 5.77 14.48 5.42 14.83 5 14.83 5 14.83 1.91 14.83 1.91 14.83 1.49 14.83 1.14 14.48 1.14 14.04 1.14 14.04 1.14 14.02 1.14 14.02 1.14 13.59 1.49 13.23 1.91 13.23 1.91 13.23 5 13.23 5 13.23 5.42 13.23 5.77 13.59 5.77 14.02ZM 1.91 15.94C 1.91 15.94 5 15.94 5 15.94 5.42 15.94 5.77 16.3 5.77 16.73 5.77 16.73 5.77 16.75 5.77 16.75 5.77 17.19 5.42 17.54 5 17.54 5 17.54 1.91 17.54 1.91 17.54 1.49 17.54 1.14 17.19 1.14 16.75 1.14 16.75 1.14 16.73 1.14 16.73 1.14 16.3 1.49 15.94 1.91 15.94ZM 1.91 18.65C 1.91 18.65 5 18.65 5 18.65 5.42 18.65 5.77 19.01 5.77 19.44 5.77 19.44 5.77 19.46 5.77 19.46 5.77 19.9 5.42 20.25 5 20.25 5 20.25 1.91 20.25 1.91 20.25 1.49 20.25 1.14 19.9 1.14 19.46 1.14 19.46 1.14 19.44 1.14 19.44 1.14 19.01 1.49 18.65 1.91 18.65ZM 1.91 21.36C 1.91 21.36 5 21.36 5 21.36 5.42 21.36 5.77 21.72 5.77 22.15 5.77 22.15 5.77 22.17 5.77 22.17 5.77 22.17 5.77 22.17 5.77 22.17 5.77 22.61 5.42 22.96 5 22.96 5 22.96 1.91 22.96 1.91 22.96 1.49 22.96 1.14 22.61 1.14 22.17 1.14 22.17 1.14 22.15 1.14 22.15 1.14 21.72 1.49 21.36 1.91 21.36Z"/></clipPath><defs>
<symbol id="symbol0"><path fillRule="evenodd" d="M 22.33 16.81C 22.03 16.81 21.78 17.06 21.78 17.37 21.78 17.37 21.78 24.31 21.78 24.31 21.78 24.31 17.25 24.31 17.25 24.31 17.25 24.31 17.25 15.74 17.25 15.74 17.25 15.74 17.25 15.74 17.25 15.74 17.25 15.74 17.25 14.67 17.25 14.67 17.25 14.67 22.33 14.67 22.33 14.67 22.63 14.67 22.88 14.42 22.88 14.11 22.88 13.8 22.63 13.55 22.33 13.55 22.33 13.55 16.7 13.55 16.7 13.55 16.39 13.55 16.15 13.8 16.15 14.11 16.15 14.11 16.15 14.39 16.15 14.39 16.15 14.39 12.65 10.84 12.65 10.84 12.12 10.29 11.34 10.15 10.68 10.4 11.82 9.29 12.46 7.77 12.46 6.14 12.46 3.98 11.3 1.98 9.43 0.95 9.26 0.85 9.05 0.86 8.88 0.96 8.72 1.06 8.62 1.24 8.62 1.44 8.62 1.44 8.62 6.41 8.62 6.41 8.62 6.41 4.68 6.41 4.68 6.41 4.68 6.41 4.68 1.44 4.68 1.44 4.68 1.24 4.58 1.06 4.41 0.96 4.24 0.86 4.04 0.85 3.87 0.95 2 1.98 0.83 3.98 0.83 6.14 0.83 7.9 1.58 9.53 2.91 10.66 2.91 10.66 2.91 12.12 2.91 12.12 2.91 12.12 1.91 12.12 1.91 12.12 0.88 12.12 0.04 12.97 0.04 14.02 0.04 14.02 0.04 14.04 0.04 14.04 0.04 14.57 0.25 15.04 0.59 15.39 0.25 15.73 0.04 16.2 0.04 16.73 0.04 16.73 0.04 16.75 0.04 16.75 0.04 17.28 0.25 17.75 0.59 18.1 0.25 18.44 0.04 18.91 0.04 19.44 0.04 19.44 0.04 19.46 0.04 19.46 0.04 19.99 0.25 20.46 0.59 20.81 0.25 21.15 0.04 21.62 0.04 22.15 0.04 22.15 0.04 22.17 0.04 22.17 0.04 23.22 0.88 24.07 1.91 24.07 1.91 24.07 2.99 24.07 2.99 24.07 3.37 25.78 4.87 27.02 6.62 27.02 6.62 27.02 6.68 27.02 6.68 27.02 8.45 27.02 9.93 25.76 10.3 24.07 10.3 24.07 14.69 24.07 14.69 24.07 14.99 24.07 15.23 23.82 15.23 23.52 15.23 23.21 14.99 22.96 14.69 22.96 14.69 22.96 10.39 22.96 10.39 22.96 10.39 22.96 10.39 18.35 10.39 18.35 10.39 18.04 10.14 17.79 9.84 17.79 9.54 17.79 9.29 18.04 9.29 18.35 9.29 18.35 9.29 23.25 9.29 23.25 9.29 24.72 8.12 25.91 6.68 25.91 6.68 25.91 6.62 25.91 6.62 25.91 5.47 25.91 4.48 25.15 4.13 24.07 4.13 24.07 5 24.07 5 24.07 6.03 24.07 6.86 23.22 6.86 22.17 6.86 22.17 6.86 22.15 6.86 22.15 6.86 21.62 6.66 21.15 6.32 20.81 6.66 20.46 6.86 19.99 6.86 19.46 6.86 19.46 6.86 19.44 6.86 19.44 6.86 18.91 6.66 18.44 6.32 18.1 6.66 17.75 6.86 17.28 6.86 16.75 6.86 16.75 6.86 16.73 6.86 16.73 6.86 16.2 6.66 15.73 6.32 15.39 6.66 15.04 6.86 14.57 6.86 14.04 6.86 14.04 6.86 14.02 6.86 14.02 6.86 12.97 6.03 12.12 5 12.12 5 12.12 4 12.12 4 12.12 4 12.12 4 10.39 4 10.39 4 10.22 3.92 10.06 3.79 9.95 2.61 9.03 1.93 7.64 1.93 6.14 1.93 4.72 2.55 3.4 3.58 2.5 3.58 2.5 3.58 6.97 3.58 6.97 3.58 7.28 3.83 7.53 4.13 7.53 4.13 7.53 9.17 7.53 9.17 7.53 9.47 7.53 9.71 7.28 9.71 6.97 9.71 6.97 9.71 2.5 9.71 2.5 10.75 3.4 11.36 4.72 11.36 6.14 11.36 7.64 10.69 9.03 9.51 9.95 9.37 10.06 9.29 10.22 9.29 10.39 9.29 10.39 9.29 11.57 9.29 11.57 9.29 11.57 7.83 13.05 7.83 13.05 7.48 13.41 7.28 13.89 7.28 14.4 7.28 14.9 7.48 15.38 7.83 15.74 7.83 15.74 7.85 15.76 7.85 15.76 8.21 16.13 8.69 16.32 9.17 16.32 9.65 16.32 10.13 16.13 10.49 15.76 10.49 15.76 11.58 14.65 11.58 14.65 11.8 14.43 11.8 14.08 11.58 13.86 11.37 13.64 11.02 13.64 10.81 13.86 10.81 13.86 9.71 14.97 9.71 14.97 9.41 15.27 8.92 15.27 8.62 14.97 8.62 14.97 8.61 14.95 8.61 14.95 8.46 14.8 8.38 14.61 8.38 14.4 8.38 14.19 8.46 13.99 8.61 13.84 8.61 13.84 10.79 11.63 10.79 11.63 11.09 11.32 11.57 11.32 11.87 11.62 11.87 11.62 11.87 11.62 11.87 11.62 11.87 11.63 11.87 11.63 11.87 11.63 11.87 11.63 16.15 15.97 16.15 15.97 16.15 15.97 16.15 24.87 16.15 24.87 16.15 25.18 16.39 25.43 16.7 25.43 16.7 25.43 22.33 25.43 22.33 25.43 22.63 25.43 22.88 25.18 22.88 24.87 22.88 24.87 22.88 17.37 22.88 17.37 22.88 17.06 22.63 16.81 22.33 16.81ZM 5.77 16.73C 5.77 16.73 5.77 16.75 5.77 16.75 5.77 17.19 5.42 17.54 5 17.54 5 17.54 1.91 17.54 1.91 17.54 1.49 17.54 1.14 17.19 1.14 16.75 1.14 16.75 1.14 16.73 1.14 16.73 1.14 16.3 1.49 15.94 1.91 15.94 1.91 15.94 5 15.94 5 15.94 5.42 15.94 5.77 16.3 5.77 16.73ZM 5.77 19.44C 5.77 19.44 5.77 19.46 5.77 19.46 5.77 19.9 5.42 20.25 5 20.25 5 20.25 1.91 20.25 1.91 20.25 1.49 20.25 1.14 19.9 1.14 19.46 1.14 19.46 1.14 19.44 1.14 19.44 1.14 19.01 1.49 18.65 1.91 18.65 1.91 18.65 5 18.65 5 18.65 5.42 18.65 5.77 19.01 5.77 19.44ZM 5.77 22.17C 5.77 22.61 5.42 22.96 5 22.96 5 22.96 1.91 22.96 1.91 22.96 1.49 22.96 1.14 22.61 1.14 22.17 1.14 22.17 1.14 22.15 1.14 22.15 1.14 21.72 1.49 21.36 1.91 21.36 1.91 21.36 5 21.36 5 21.36 5.42 21.36 5.77 21.72 5.77 22.15 5.77 22.15 5.77 22.17 5.77 22.17 5.77 22.17 5.77 22.17 5.77 22.17ZM 5.77 14.02C 5.77 14.02 5.77 14.04 5.77 14.04 5.77 14.48 5.42 14.83 5 14.83 5 14.83 1.91 14.83 1.91 14.83 1.49 14.83 1.14 14.48 1.14 14.04 1.14 14.04 1.14 14.02 1.14 14.02 1.14 13.59 1.49 13.23 1.91 13.23 1.91 13.23 5 13.23 5 13.23 5.42 13.23 5.77 13.59 5.77 14.02Z"/></symbol></defs>
<g><use xlink:href="#symbol0" x="0" y="0" width="23" height="27" fill="rgb(0,57,69)"/><use xlink:href="#symbol0" x="0" y="0" width="23" height="27" fill="none" stroke="rgb(0,57,69)" stroke-width="1.00px" clip-path="url(#clip0)"/></g></svg>