<?xml version="1.0" encoding="utf-8"?>
<!-- Generator: Adobe Illustrator 16.0.0, SVG Export Plug-In . SVG Version: 6.00 Build 0)  -->
<!DOCTYPE svg PUBLIC "-//W3C//DTD SVG 1.1//EN" "http://www.w3.org/Graphics/SVG/1.1/DTD/svg11.dtd">
<svg version="1.1" id="Layer_1" xmlns="http://www.w3.org/2000/svg" xmlns:xlink="http://www.w3.org/1999/xlink" x="0px" y="0px"
	 width="22.835px" height="26.146px" viewBox="0 0 22.835 26.146" enable-background="new 0 0 22.835 26.146" xml:space="preserve">
<path fill="#41464B" d="M22.287,15.937c-0.304,0-0.549,0.25-0.549,0.559v6.937h-4.535v-8.567c0,0,0,0,0,0v-1.073h5.084
	c0.303,0,0.549-0.25,0.549-0.559s-0.246-0.559-0.549-0.559h-5.633c-0.303,0-0.549,0.25-0.549,0.559v0.283l-3.498-3.558
	c-0.533-0.542-1.311-0.687-1.976-0.436c1.143-1.112,1.787-2.63,1.787-4.258c0-2.166-1.163-4.157-3.035-5.195
	c-0.17-0.094-0.376-0.09-0.543,0.01c-0.167,0.101-0.269,0.283-0.269,0.48v4.974H4.635V0.559c0-0.197-0.103-0.38-0.269-0.48
	s-0.373-0.104-0.543-0.01C1.951,1.106,0.788,3.098,0.788,5.264c0,1.759,0.751,3.391,2.072,4.52v1.456H1.868
	c-1.03,0-1.868,0.852-1.868,1.9v0.027c0,0.523,0.209,0.998,0.546,1.342C0.209,14.852,0,15.326,0,15.849v0.027
	c0,0.523,0.209,0.998,0.546,1.342C0.209,17.562,0,18.036,0,18.559v0.027c0,0.523,0.209,0.998,0.546,1.342
	C0.209,20.271,0,20.746,0,21.269v0.027c0,1.048,0.838,1.9,1.868,1.9h1.081c0.373,1.704,1.874,2.95,3.622,2.95h0.064
	c1.768,0,3.25-1.264,3.621-2.95h4.385c0.304,0,0.549-0.25,0.549-0.559s-0.246-0.559-0.549-0.559h-4.295v-4.61
	c0-0.309-0.246-0.559-0.549-0.559c-0.303,0-0.549,0.25-0.549,0.559v4.904c0,1.465-1.171,2.657-2.612,2.657H6.571
	c-1.146,0-2.141-0.76-2.484-1.833h0.865c1.03,0,1.868-0.853,1.868-1.9v-0.027c0-0.523-0.209-0.998-0.546-1.341
	c0.337-0.344,0.546-0.818,0.546-1.342v-0.027c0-0.523-0.209-0.998-0.546-1.341c0.337-0.344,0.546-0.818,0.546-1.342v-0.027
	c0-0.523-0.209-0.998-0.546-1.341c0.337-0.344,0.546-0.818,0.546-1.342v-0.027c0-1.048-0.838-1.9-1.868-1.9H3.959V9.516
	c0-0.174-0.08-0.338-0.215-0.444c-1.18-0.918-1.857-2.307-1.857-3.808c0-1.418,0.614-2.743,1.65-3.645v4.472
	c0,0.309,0.246,0.559,0.549,0.559H9.12c0.304,0,0.549-0.25,0.549-0.559V1.619c1.035,0.902,1.65,2.227,1.65,3.645
	c0,1.502-0.677,2.89-1.857,3.808c-0.136,0.106-0.216,0.27-0.216,0.444v1.172l-1.462,1.488c-0.353,0.359-0.547,0.836-0.547,1.344
	c0,0.507,0.194,0.984,0.547,1.343l0.019,0.02c0.364,0.37,0.843,0.555,1.321,0.555c0.478,0,0.957-0.185,1.321-0.555l1.093-1.112
	c0.215-0.218,0.215-0.572,0-0.79c-0.215-0.218-0.562-0.218-0.777,0l-1.094,1.112c-0.3,0.306-0.789,0.306-1.088,0l-0.019-0.019
	c-0.146-0.147-0.226-0.344-0.226-0.553c0-0.209,0.08-0.406,0.226-0.554l2.18-2.218c0.3-0.305,0.788-0.305,1.088,0l0,0c0,0,0,0,0,0
	l4.274,4.348v8.895c0,0.309,0.246,0.559,0.549,0.559h5.633c0.303,0,0.549-0.25,0.549-0.559v-7.495
	C22.835,16.187,22.59,15.937,22.287,15.937z M5.721,15.849v0.027c0,0.432-0.345,0.783-0.77,0.783H1.868
	c-0.424,0-0.77-0.351-0.77-0.783v-0.027c0-0.431,0.345-0.782,0.77-0.782h3.083C5.376,15.066,5.721,15.417,5.721,15.849z
	 M5.721,18.559v0.027c0,0.432-0.345,0.783-0.77,0.783H1.868c-0.424,0-0.77-0.351-0.77-0.783v-0.027c0-0.432,0.345-0.783,0.77-0.783
	h3.083C5.376,17.776,5.721,18.127,5.721,18.559z M5.721,21.296c0,0.432-0.345,0.783-0.77,0.783H1.868
	c-0.424,0-0.77-0.351-0.77-0.783v-0.027c0-0.432,0.345-0.783,0.77-0.783h3.083c0.424,0,0.77,0.351,0.77,0.783V21.296L5.721,21.296z
	 M5.721,13.139v0.027c0,0.432-0.345,0.783-0.77,0.783H1.868c-0.424,0-0.77-0.351-0.77-0.783v-0.027c0-0.432,0.345-0.783,0.77-0.783
	h3.083C5.376,12.356,5.721,12.708,5.721,13.139z"/>
</svg>
