<?xml version="1.0" encoding="utf-8"?>
<!-- Generator: Adobe Illustrator 16.0.0, SVG Export Plug-In . SVG Version: 6.00 Build 0)  -->
<!DOCTYPE svg PUBLIC "-//W3C//DTD SVG 1.1//EN" "http://www.w3.org/Graphics/SVG/1.1/DTD/svg11.dtd">
<svg version="1.1" id="Layer_1" xmlns="http://www.w3.org/2000/svg" xmlns:xlink="http://www.w3.org/1999/xlink" x="0px" y="0px"
	 viewBox="6.5 -4 27.999 32" enable-background="new 6.5 -4 27.999 32" xml:space="preserve">
<path d="M33.826,15.504c-0.372,0-0.673,0.307-0.673,0.684v8.49h-5.561V14.192c0-0.001,0-0.001,0-0.001v-1.312h6.233
	c0.372,0,0.674-0.307,0.674-0.685c0-0.377-0.302-0.684-0.674-0.684h-6.906c-0.372,0-0.673,0.306-0.673,0.684v0.347l-4.289-4.354
	c-0.654-0.664-1.607-0.841-2.422-0.533c1.401-1.361,2.191-3.22,2.191-5.212c0-2.651-1.426-5.087-3.721-6.358
	c-0.208-0.116-0.462-0.111-0.667,0.012c-0.204,0.124-0.33,0.347-0.33,0.588v6.087h-4.826v-6.087c0-0.241-0.125-0.465-0.33-0.588
	c-0.204-0.123-0.458-0.128-0.666-0.012C8.893-2.646,7.467-0.209,7.467,2.442c0,2.153,0.922,4.15,2.542,5.532v1.781H8.792
	c-1.263,0-2.291,1.043-2.291,2.326v0.033c0,0.64,0.256,1.22,0.67,1.642c-0.414,0.42-0.67,1.001-0.67,1.641v0.033
	c0,0.641,0.256,1.222,0.67,1.643c-0.414,0.421-0.67,1.002-0.67,1.642v0.033c0,0.64,0.256,1.221,0.67,1.642
	C6.757,20.81,6.5,21.391,6.5,22.03v0.033c0,1.282,1.028,2.325,2.291,2.325h1.325C10.574,26.475,12.414,28,14.558,28h0.078
	c2.167,0,3.985-1.547,4.439-3.611h5.377c0.371,0,0.673-0.306,0.673-0.684c0-0.377-0.302-0.684-0.673-0.684h-5.267v-5.643
	c0-0.378-0.301-0.684-0.673-0.684s-0.673,0.306-0.673,0.684v6.002c0,1.793-1.437,3.252-3.203,3.252h-0.078
	c-1.405,0-2.625-0.931-3.046-2.244h1.06c1.263,0,2.291-1.043,2.291-2.325V22.03c0-0.64-0.256-1.221-0.67-1.642
	c0.414-0.421,0.67-1.002,0.67-1.642v-0.033c0-0.64-0.256-1.221-0.67-1.642c0.414-0.421,0.67-1.002,0.67-1.643v-0.033
	c0-0.64-0.256-1.221-0.67-1.641c0.414-0.422,0.67-1.002,0.67-1.642v-0.033c0-1.282-1.027-2.326-2.291-2.326h-1.217V7.646
	c0-0.213-0.098-0.414-0.264-0.543C9.644,5.979,8.814,4.28,8.814,2.442c0-1.735,0.753-3.357,2.023-4.461v5.473
	c0,0.378,0.302,0.684,0.674,0.684h6.172c0.372,0,0.673-0.306,0.673-0.684v-5.473c1.27,1.104,2.023,2.726,2.023,4.461
	c0,1.838-0.83,3.537-2.277,4.661c-0.167,0.129-0.264,0.33-0.264,0.543V9.08l-1.793,1.821c-0.433,0.439-0.671,1.023-0.671,1.644
	c0,0.621,0.238,1.205,0.671,1.645l0.023,0.023c0.447,0.453,1.033,0.68,1.62,0.68s1.173-0.227,1.619-0.68l1.341-1.361
	c0.263-0.267,0.263-0.7,0-0.967c-0.263-0.267-0.689-0.267-0.953,0l-1.341,1.361c-0.368,0.373-0.966,0.373-1.334,0l-0.023-0.023
	c-0.178-0.181-0.276-0.422-0.276-0.678c0-0.255,0.098-0.496,0.276-0.677l2.673-2.714c0.368-0.374,0.967-0.374,1.334-0.001l0,0
	c0,0,0,0,0,0.001l5.242,5.321v10.887c0,0.377,0.301,0.684,0.673,0.684h6.906c0.372,0,0.674-0.307,0.674-0.684v-9.174
	C34.5,15.811,34.198,15.504,33.826,15.504z M13.516,15.396v0.033c0,0.529-0.423,0.959-0.944,0.959h-3.78
	c-0.521,0-0.944-0.43-0.944-0.959v-0.033c0-0.527,0.423-0.957,0.944-0.957h3.78C13.092,14.439,13.516,14.869,13.516,15.396z
	 M13.516,18.714v0.033c0,0.528-0.423,0.958-0.944,0.958h-3.78c-0.521,0-0.944-0.43-0.944-0.958v-0.033
	c0-0.528,0.423-0.958,0.944-0.958h3.78C13.092,17.756,13.516,18.186,13.516,18.714z M13.516,22.063c0,0.528-0.423,0.958-0.944,0.958
	h-3.78c-0.521,0-0.944-0.43-0.944-0.958V22.03c0-0.528,0.423-0.958,0.944-0.958h3.78c0.521,0,0.944,0.43,0.944,0.958V22.063
	L13.516,22.063z M13.516,12.081v0.033c0,0.528-0.423,0.958-0.944,0.958h-3.78c-0.521,0-0.944-0.43-0.944-0.958v-0.033
	c0-0.528,0.423-0.958,0.944-0.958h3.78C13.092,11.122,13.516,11.552,13.516,12.081z"/>
</svg>
