<?xml version="1.0" encoding="utf-8"?>
<!-- Generator: Adobe Illustrator 16.0.0, SVG Export Plug-In . SVG Version: 6.00 Build 0)  -->
<!DOCTYPE svg PUBLIC "-//W3C//DTD SVG 1.1//EN" "http://www.w3.org/Graphics/SVG/1.1/DTD/svg11.dtd">
<svg version="1.1" id="Layer_1" xmlns="http://www.w3.org/2000/svg" xmlns:xlink="http://www.w3.org/1999/xlink" x="0px" y="0px"
	  viewBox="-0.113 0.068 19.626 19.628" enable-background="new -0.113 0.068 19.626 19.628"
	 xml:space="preserve">
<path d="M9.701,0.068c-5.42,0-9.813,4.394-9.813,9.814c0,5.419,4.394,9.814,9.813,9.814s9.812-4.395,9.812-9.814
	C19.515,4.462,15.121,0.068,9.701,0.068z M14.915,13.682c0.391,0.391,0.391,1.023,0,1.414c-0.195,0.195-0.451,0.293-0.707,0.293
	s-0.512-0.098-0.707-0.293l-3.8-3.8l-3.8,3.8c-0.195,0.195-0.451,0.293-0.707,0.293s-0.512-0.098-0.707-0.293
	c-0.391-0.391-0.391-1.023,0-1.414l3.8-3.8l-3.8-3.8c-0.391-0.391-0.391-1.023,0-1.414s1.023-0.391,1.414,0l3.8,3.8l3.8-3.8
	c0.391-0.391,1.023-0.391,1.414,0s0.391,1.023,0,1.414l-3.8,3.8L14.915,13.682z"/>
</svg>
