<?xml version="1.0" encoding="utf-8"?>
<svg xmlns="http://www.w3.org/2000/svg"
	xmlns:xlink="http://www.w3.org/1999/xlink"
	width="23px" height="18px" viewBox="0 0 23 18">
<path fillRule="evenodd" d="M 11.83 17.53C 5.83 17.53 1.57 12.09 0.96 9.07 1.57 6.05 5.83 0.62 11.83 0.62 17.84 0.62 22.1 6.05 22.7 9.07 22.1 12.09 17.84 17.53 11.83 17.53ZM 11.83 2.43C 7.09 2.43 3.57 6.62 2.83 9.07 3.57 11.52 7.09 15.71 11.83 15.71 16.57 15.71 20.1 11.52 20.84 9.07 20.1 6.62 16.57 2.43 11.83 2.43ZM 11.83 12.69C 9.83 12.69 8.21 11.07 8.21 9.07 8.21 7.07 9.83 5.45 11.83 5.45 13.84 5.45 15.46 7.07 15.46 9.07 15.46 11.07 13.84 12.69 11.83 12.69ZM 11.83 7.26C 10.84 7.26 10.02 8.07 10.02 9.07 10.02 10.07 10.84 10.88 11.83 10.88 12.83 10.88 13.65 10.07 13.65 9.07 13.65 8.07 12.83 7.26 11.83 7.26Z" fill="rgb(0,57,69)" opacity="0.60"/></svg>