<?xml version="1.0" encoding="utf-8"?>
<!-- Generator: Adobe Illustrator 16.0.0, SVG Export Plug-In . SVG Version: 6.00 Build 0)  -->
<!DOCTYPE svg PUBLIC "-//W3C//DTD SVG 1.1//EN" "http://www.w3.org/Graphics/SVG/1.1/DTD/svg11.dtd">
<svg version="1.1" id="Layer_1" xmlns="http://www.w3.org/2000/svg" xmlns:xlink="http://www.w3.org/1999/xlink" x="0px" y="0px"
	 width="51.099px" height="38.621px" viewBox="0 0 51.099 38.621" enable-background="new 0 0 51.099 38.621" xml:space="preserve">
<path d="M19.22,38.621c-0.171,0-0.341-0.044-0.495-0.131L1.016,28.404c-0.208-0.118-0.366-0.308-0.447-0.533l-0.465-1.303
	c-0.038-0.105-0.057-0.216-0.058-0.327L0,20.756c0-0.078,0.008-0.156,0.025-0.232l0.511-2.23c0.065-0.283,0.25-0.524,0.507-0.661
	l3.951-2.092c0.287-0.153,0.63-0.155,0.921-0.008l2.345,1.192l2.528-1.503l0.058-0.642c0.008-0.091,0.029-0.178,0.06-0.261
	c-0.11-0.339-0.188-0.744-0.138-1.137c0.023-0.18,0.095-0.724,2.58-5.213c0.017-0.03,0.035-0.059,0.055-0.087l3.045-4.37
	c0.029-0.042,0.062-0.082,0.097-0.119C19.224,0.589,21.631,0,23.178,0c0.591,0,1.021,0.083,1.251,0.127
	c0.655,0.127,1.3,0.503,1.656,0.739c0.697,0.049,1.386,0.224,1.803,0.332c0.328-0.164,0.923-0.481,1.426-0.756
	c0.198-0.108,0.43-0.148,0.649-0.108c1.035,0.178,1.515,1.013,1.635,1.479c0.018,0.068,0.028,0.137,0.031,0.207l0.069,1.602
	l13.298,7.388c0.507-0.436,1.16-0.86,1.786-0.86c0.984,0,1.575,0.718,1.769,1.142c0.059,0.127,0.09,0.267,0.091,0.407l0.02,2.293
	c3.104,2.192,2.39,6.191,2.249,6.841c-0.604,6.665-6.878,11.248-7.146,11.44c-0.043,0.031-0.089,0.059-0.136,0.082
	c-3.44,1.726-7.724,3.798-8.595,3.868c-0.719,0.056-1.433-0.26-1.903-0.564l-2.536,1.458c-0.316,0.182-0.707,0.177-1.018-0.013
	l-0.326-0.198c-0.032-0.02-0.063-0.041-0.093-0.064l-1.395-1.081c-0.257-0.198-0.4-0.508-0.387-0.832
	c0.007-0.174,0.06-0.34,0.148-0.484l-1.355-0.835l-0.244,0.329c-0.069,0.093-0.153,0.173-0.25,0.237L24.98,34.64
	c-0.281,0.188-0.636,0.221-0.946,0.088l-0.051,0.816c-0.021,0.337-0.21,0.641-0.504,0.807l-3.765,2.139
	C19.561,38.577,19.391,38.621,19.22,38.621z M2.328,26.849l16.893,9.621l2.8-1.591l0.106-1.69c0.007-0.116,0.035-0.231,0.082-0.338
	c0.219-0.502,0.925-1.379,2.189-1.244c0.22,0.025,0.418,0.12,0.571,0.264l0.14-0.19c0.309-0.418,0.886-0.53,1.329-0.257l3.393,2.092
	c0.292,0.181,0.472,0.497,0.476,0.84c0.003,0.245-0.084,0.479-0.239,0.66l0.072,0.057l2.573-1.479
	c0.384-0.218,0.864-0.162,1.187,0.142c0.222,0.206,0.68,0.496,0.951,0.496c0.604-0.124,4.433-1.934,7.805-3.623
	c0.611-0.463,5.808-4.551,6.27-10.013c0.004-0.053,0.013-0.104,0.025-0.155c0.033-0.141,0.812-3.55-1.778-5.028
	c-0.31-0.176-0.502-0.504-0.505-0.86l-0.02-2.287c-0.223,0.152-0.529,0.415-0.763,0.662c-0.313,0.334-0.813,0.411-1.214,0.189
	L30.239,5.098c-0.305-0.169-0.499-0.483-0.514-0.831L29.65,2.536c-1.324,0.712-1.431,0.712-1.668,0.712
	c-0.158,0-0.274-0.03-0.555-0.103c-0.365-0.095-1.125-0.292-1.608-0.292c-0.22,0-0.502-0.071-0.677-0.205
	C24.907,2.469,24.4,2.159,24.05,2.091C23.874,2.057,23.578,2,23.178,2c-1.147,0-2.966,0.474-5.134,2.72l-2.971,4.263
	c-1.034,1.87-2.215,4.122-2.337,4.534c0.009,0.042,0.138,0.392,0.245,0.58c0.149,0.265,0.17,0.582,0.057,0.864
	c-0.056,0.141-0.143,0.264-0.251,0.364l-0.053,0.586c-0.029,0.319-0.209,0.605-0.485,0.769l-3.44,2.046
	c-0.294,0.176-0.659,0.188-0.964,0.032l-2.373-1.207l-3.088,1.635l-0.382,1.671l0.043,5.198L2.328,26.849z"/>
<ellipse cx="7.81" cy="20.707" rx="1.435" ry="0.93"/>
<ellipse cx="11.25" cy="22.798" rx="1.436" ry="0.929"/>
<ellipse cx="18.035" cy="26.563" rx="1.435" ry="0.93"/>
<ellipse cx="14.642" cy="24.471" rx="1.435" ry="0.93"/>
<ellipse cx="21.475" cy="28.655" rx="1.435" ry="0.93"/>
<path d="M19.014,6.837l-2.865,3.533c0,0-0.566,1.237,0.242,1.679c0,0,0.968,0.795,2.099-0.265c1.13-1.06,2.946-3.357,2.946-3.357
	s0.404-1.237-0.363-1.723C20.306,6.219,19.578,6.66,19.014,6.837z"/>
<path d="M22.742,9.286l-2.866,3.534c0,0-0.564,1.237,0.242,1.679c0,0,0.969,0.795,2.099-0.265s2.946-3.357,2.946-3.357
	S25.566,9.64,24.8,9.153C24.034,8.667,23.307,9.109,22.742,9.286z"/>
<path d="M26.064,11.726l-2.866,3.534c0,0-0.565,1.237,0.242,1.679c0,0,0.969,0.794,2.099-0.266c1.129-1.06,2.946-3.357,2.946-3.357
	s0.403-1.236-0.362-1.723C27.357,11.108,26.629,11.55,26.064,11.726z"/>
<path d="M29.711,14.002l-2.865,3.534c0,0-0.565,1.237,0.242,1.678c0,0,0.97,0.795,2.099-0.265c1.129-1.06,2.946-3.356,2.946-3.356
	s0.403-1.237-0.363-1.722C31.003,13.384,30.277,13.826,29.711,14.002z"/>
<path d="M33.132,16.224l-2.864,3.534c0,0-0.565,1.235,0.242,1.677c0,0,0.969,0.796,2.098-0.266c1.131-1.058,2.946-3.354,2.946-3.354
	s0.403-1.237-0.363-1.723C34.424,15.605,33.699,16.047,33.132,16.224z"/>
<path d="M4.365,24.779C3.946,25.43,4.69,26.545,4.69,26.545c1.302,1.208,1.627,0.324,1.627,0.324
	c0.511-1.301-0.884-2.276-0.884-2.276C4.876,24.268,4.365,24.779,4.365,24.779z"/>
<path d="M7.758,26.731c-0.419,0.65,0.325,1.767,0.325,1.767c1.302,1.209,1.626,0.325,1.626,0.325
	c0.512-1.301-0.883-2.277-0.883-2.277C8.27,26.22,7.758,26.731,7.758,26.731z"/>
<path d="M11.197,28.637c-0.418,0.65,0.326,1.766,0.326,1.766c1.301,1.209,1.627,0.325,1.627,0.325
	c0.511-1.302-0.883-2.277-0.883-2.277C11.709,28.125,11.197,28.637,11.197,28.637z"/>
<path d="M14.59,30.635c-0.418,0.651,0.326,1.766,0.326,1.766c1.301,1.209,1.627,0.326,1.627,0.326
	c0.512-1.302-0.883-2.277-0.883-2.277C15.102,30.124,14.59,30.635,14.59,30.635z"/>
<path d="M17.983,32.68c-0.418,0.65,0.326,1.767,0.326,1.767c1.301,1.209,1.626,0.325,1.626,0.325
	c0.512-1.301-0.883-2.277-0.883-2.277C18.495,32.169,17.983,32.68,17.983,32.68z"/>
<path fill="none" stroke="#000000" stroke-width="0.5" stroke-linecap="round" stroke-linejoin="round" stroke-miterlimit="10" d="
	M42.099,10.744"/>
<path d="M33.911,24.412c-0.396,0-0.772-0.237-0.929-0.629c-0.205-0.513,0.045-1.095,0.558-1.3l0.737-0.295l9.601-9.971
	c0.385-0.397,1.02-0.409,1.414-0.026c0.398,0.383,0.41,1.016,0.027,1.414l-9.75,10.125c-0.099,0.103-0.218,0.183-0.35,0.235
	l-0.938,0.375C34.161,24.389,34.035,24.412,33.911,24.412z"/>
<path d="M41.475,24.119c-0.367,0-0.721-0.202-0.896-0.553c-0.247-0.494-0.047-1.095,0.447-1.342l8.625-4.312
	c0.494-0.248,1.095-0.046,1.342,0.447c0.247,0.494,0.047,1.095-0.447,1.341l-8.625,4.312C41.778,24.084,41.625,24.119,41.475,24.119
	z"/>
</svg>
