<?xml version="1.0" encoding="utf-8"?>
<!-- Generator: Adobe Illustrator 21.0.2, SVG Export Plug-In . SVG Version: 6.00 Build 0)  -->
<svg version="1.1" id="Layer_1" xmlns="http://www.w3.org/2000/svg" xmlns:xlink="http://www.w3.org/1999/xlink" x="0px" y="0px"
	 viewBox="0 0 512 512" style="enable-background:new 0 0 512 512;" xml:space="preserve">
<style type="text/css">
	.st0{fill:#none;}
</style>
<g>
	<path d="M84,302c1.1-1.4,2.2-2.8,3.4-4.3c-0.8-0.3-1.8-0.7-2.9-1.2c0.8-0.5,1.4-0.9,2.4-1.5c-1.1-0.4-1.8-0.7-1.9-0.8
		c0.5-1.5,1.3-2.8,1.3-4.1c-0.1-10.2-0.8-20.4-0.3-30.6c0.3-6.6,2.4-13.1,3.8-19.5c0.1-0.7,1.1-1.3,1.8-1.7
		c7.3-4,14.7-7.9,21.9-12.1c2.9-1.7,5.1-2.1,8.1-0.1c4.7,3.1,9.3,6.8,14.5,8.4c8.8,2.7,14.9,9.3,22.4,13.7c1.5,0.9,2.5,2.6,4.3,4.7
		c2.6-0.1,6.6-4.4,9.7,1.4c0.1-3.5-1-4.6-4.4-4.7c-4-0.1-7.3-1.5-10.5-3.7c-2.4-1.7-3.4-3.4-2.1-6.2c0.5-1.2,0.8-2.5,1.1-3.8
		c-0.4-0.2-0.7-0.3-1.1-0.5c-0.9,2.1-1.9,4.3-2.8,6.4c-0.2,0-0.4-0.1-0.7-0.1c0-1.1,0-2.2,0-3.7c-4.4,2.5-6.6-1.4-10.3-3.3
		c4-2.4,7.7-4.4,11.1-6.6c1.3-0.8,2.7-2,3.1-3.4c3.2-10.1,6.2-20.2,9.3-30.6c1.3,0.6,2.2,1.1,3.1,1.6c2.8-2.8,0.9-4.4-1.2-6
		c-1.3-1-2.5-2.3-3.7-3.4c0.4-0.4,0.9-0.7,1.3-1.1c0.5,0.7,0.9,1.5,1.7,2.7c1.1,0.3,3.2,0.8,6,1.4c1.8-0.8,4.3-2,7.7-3.6
		c-4.6-1-11.6,0.7-9.7-6.4c2.3,0.3,5.1,1.7,6.7,0.8c3.8-2.1,3.6-6.1,2.2-10c0.4,0,0.7-0.1,1.1-0.1c0.5,2.6,0.9,5.1,1.6,8.6
		c1.1-1.1,2.3-1.8,2.5-2.7c0.9-3.4-0.5-6.1-3.5-7.9c6.7-14.3,15.7-26.8,27.7-37.7c19.7,15,39.6,30.2,59.5,45.3
		c0.4-0.5,0.8-1.1,1.1-1.6c-1.3-0.8-2.6-1.6-3.8-2.4c-1.6-1.1-3.3-2.3-4.8-3.5c-16.6-12.6-33.2-25.2-49.8-37.8
		c-0.3-0.2-0.7-0.3-1.7-0.7c13.4-10.8,26.9-20.1,44-14.6c8,2.6,15.9,5.1,24.1,7c1.5,0.4,3.4,0.3,4.8-0.3c2.5-1.1,4.7-2.8,7.1-4.1
		c5.1-2.8,9.2-0.4,9.3,5.4c0,3.4,0.2,6.8,0,10.1c-0.2,2.7,1,4.2,3.3,5.6c22.5,12.9,44.9,25.9,67.3,38.8c0.8,0.5,1.6,1.1,2.7,1.7
		c-1.4,3.3-2.7,6.5-4,9.7c0.4,0.2,0.9,0.4,1.3,0.5c4.5-1.4,1.3-6.7,4.8-9.2c3.7,2.1,7.8,4.5,12.4,7.1c-25.7,26.3-50.2,53-75.9,78.7
		c2.2,0.4,4,1.1,4.7-2.2c0.4-1.8,2.5-3.3,4-4.8c16.3-16.9,32.6-33.8,48.8-50.8c2.4-2.5,4.2-2.7,6.9-0.7c2.6,1.9,5.5,3.5,8.4,5
		c1.2,0.6,2.6,0.6,3.9,0.9c0.1-0.4,0.3-0.8,0.4-1.2c-4.7-2.8-9.5-5.6-14.7-8.7c4.9-5.2,9.7-10.3,14.1-15c4.8,1.5,9.2,3.1,13.7,4.4
		c1,0.3,2.4,0,3.5-0.5c2.6-1.3,5-2.8,7.5-4.2c4.9-2.7,9.1-0.3,9.2,5.2c0.1,4.5,0,9-0.2,13.5c-0.1,2.1,0.3,3.6,2.3,5
		c11.1,7.6,14.1,19,14.1,31.6c0,0.9-1.1,2.1-2.1,2.6c-14,7.2-28.1,14.2-42.1,21.3c-2,1-5.4,0-5.7,4c1.7,0.2,3.6,1.6,4.7-1.4
		c0.2-0.5,1.2-0.8,1.9-1.1c13.8-7,27.6-13.9,41.4-20.9c0.5-0.3,1.1-0.4,2-0.8c0,8.6-1.8,16.6-4.4,24.4c-6.7,20-17.3,37.6-33.2,51.7
		c-4.4,4-9.3,7.8-14.5,10.5c-15.5,8-31.3,15.3-46.9,23c-6.3,3.1-12.2,3.2-17.9-1.1c-2.2-1.7-4-1.6-6.3-0.1
		c-5.4,3.4-10.9,6.5-16.3,9.9c-2.3,1.5-4.3,1.5-6.6,0c-2.4-1.6-4.9-2.9-7.4-4.3c-2.4-1.4-2.7-2.8-0.1-4.3c1.8-1,3.6-2.2,5.5-3.3
		c-6.9-7.7-16-11.7-24.5-16.5c-2.4-1.4-5.6,1.2-5.4,4.5c0.2,3.3-1,5.3-4,6.2c-1.1,0.3-2.6,0.3-3.5-0.2c-3.3-1.8-8.2,0.3-7.6,4
		c1.4,8-2.8,11.6-9.2,14.6c-5.4,2.6-10.6,5.8-15.7,9.1c-2.3,1.5-3.9,0.8-5.8-0.3c-12.7-7.4-25.5-14.7-38.2-22
		c-1-0.6-2.1-1.1-3.2-1.7c-0.3,0.2-0.6,0.4-0.8,0.7c1,1.8,2,3.6,3,5.5c-1.2,0.3-2.8,0.8-5.7,1.5c2.4,2,4.3,3.5,6,5.1
		c0.8,0.7,1.2,1.9,2,2.5c0.6,0.4,1.6,0.4,2.4,0.4c1.1-0.1,2.1-0.5,3.2,0c-1.3,1.2-2.5,2.3-3.3,3c-2.5-2.1-4.9-4.6-7.7-6.4
		c-2.8-1.8-5.7-4.5-9.8-2.1c0.7,0.8,1.2,1.4,1.6,1.9c-2.1,1.1-4.1,2.2-6.3,3.3c-2.1-2-4.2-4.1-6.4-6.2c0.3-0.4,0.6-0.8,1-1.2
		c1.8,1.1,3.6,2.3,5.4,3.4c1.7-1.1,4.2-1.7,4.8-3.2c0.5-1.3-1-3.5-1.5-5.1c0.6,0.3,1.6,0.9,3.1,1.7c0.1-1.3,0-2.4,0.4-3.2
		c0.3-0.7,1-1.2,1.6-1.8c1.6,0.9,3.5,2,5.4,3.1c0.3-0.1,0.6-0.3,0.9-0.4c-0.3-1.2-0.3-3.1-1.1-3.6c-5.5-3.5-11.3-6.6-17.4-10.2
		c0,1.9,0,3.1,0,4.2c-0.3,0.2-0.6,0.5-0.9,0.7c-0.2-0.6-0.8-1.2-0.6-1.7c1.4-4-1.5-5.1-4.2-6.5c-2.8-1.5-5.5-3.2-9.2-5.4
		c10.1-1,19.2-1.9,27.8-2.7c2.2,3.2,3.9,6.1,6,8.6c1.9,2.2,4.6,4,7.6,2.1c2.8-1.8,2.7-4.8,1.7-7.7c-0.5-1.4-0.9-2.8-1.4-4.3
		c2.5-2.2,6.8,2.5,8.9-2.3c-1.6-1.4-2.9-2.1-5.3-0.7c-2.1,1.2-5.1,2.2-7.1-1.1c-0.6-1.1-2.1-1.7-3.4-2.2c-3.6-1.6-5.4-0.2-6.8,5.6
		c-9.6,1.1-19.2,2.3-28.8,3.3c-1.1,0.1-2.4-0.5-3.4-1c-9.7-5.5-19.4-11.1-30-16.2c0.8,1.8,1.5,3.6,2.4,5.6c-1,0.3-2.5,0.8-4.2,1.3
		c-0.1,2.2,4,2.8,2.2,5.6c1.2-0.1,2.4-0.3,3.6-0.4c0-0.3,0-0.6,0-0.8c0.8,0.5,1.6,1,2.4,1.5c-1.2,0.7-2.5,1.5-4,2.4
		c-2.7-2.3-5.8-4.8-8.9-7.4c0.6,0,1.3,0,2.6,0c-1-1.8-1.8-3.3-3-5.4c2.1-0.1,3.8-0.2,5.8-0.3c1.1-2.2,0.3-3.7-2.1-4.9
		c-2.7-1.3-5.2-2.9-7.8-4.5c-0.8-0.5-2.1-1-2.3-1.8C88.7,298.5,86.3,300.5,84,302C84,301.9,84,302,84,302z M176.6,257.3
		c-2.3-0.7-3.2,0-2.8,2.6c0.2,1.5-0.6,3-0.9,4.6c-0.4-0.1-0.9-0.2-1.3-0.2c0-0.5,0.1-0.9,0.1-1.4c-0.1-0.6-0.2-1.2-0.3-1.5
		c-2.7-0.2-5.1-0.4-7.6-0.6c7.1-0.5,8.7-1.5,7.6-3.8c-4-0.7-7.3-1.3-10.9-1.9c-0.3,0.3-1.5,1.2-2.1,2.3c-0.9,1.7-1.4,3.6-2,5.5
		c-0.2,0.7,0.3,1.7,0,2.3c-1.4,3.1,0.1,5.1,2.6,6.5c4.7,2.7,9.5,2.6,14.4,0.5c2-0.9,2.7-2.5,1.6-4.6c-0.9-0.1-1.8-0.1-3.1-0.2
		C178.7,263.5,179.2,262.2,176.6,257.3c0.8-1,1.9-1.9,2.4-3c0.3-0.7-0.1-1.9-0.6-2.6c-0.3-0.4-1.6-0.5-2.2-0.2
		c-0.8,0.5-2.1,1.7-2,2.2C174.7,255.1,175.8,256.1,176.6,257.3z M272.6,248.6c3.3-1.7,7.4-3,10.6-5.6c2.6-2.1,4.6-5,7.1-7.4
		c2.8-2.7,5.4-5.7,8-8.6c0.6-0.7,1.1-1.6,1.7-2.4c0.5-0.7,1-1.5,1.6-2.2c1.5-1.7,3.3-3.2,4.7-5c0.5-0.7-0.2-2.2,0.3-3
		c2.1-3.1,0.6-5.6-1.4-7.6c-3.6-3.5-11.5-4-15.5-0.9c-3.3,2.5-6.3,5.4-9.1,8.4c-5.4,5.7-10.7,11.5-15.9,17.4
		c-2.7,3-4.1,6.8-2.3,10.6C264,246.1,268,247.2,272.6,248.6z M190.2,194.9c-0.6,1.3-1.3,2.3-1.4,3.3c-0.1,4.3,3.7,5.8,6.5,6.9
		c2.4,1,5.7,0.1,8.6-0.3c1.1-0.1,2.2-0.8,3.1-1.4c1.9-1.5,4.6-2.8,5.3-4.7c0.5-1.4,1.1-1.9,2-2.7c1.8-1.6,3.6-3.2,5.3-4.9
		c1-1,1.9-2.1,2.8-3.1c1.6-1.7,3.2-3.4,4.7-5.2c0.5-0.6,0.4-1.6,1-2.1c2-1.9,4.1-3.6,6.4-5.6c-1.6-0.8-2.2-1.1-3-1.5
		c4-1.9,4-6.5,0.4-9c-4.7-3.3-11.1-3.5-16,0c-2.4,1.7-4.3,4.2-6.5,6.3c-2.6,2.5-5.3,4.9-8.1,7.5c1.2,0.5,1.7,0.7,3.2,1.3
		c-4.8-0.2-12.9,8.3-15.2,15C189.8,194.9,190.4,195,190.2,194.9z M221,201.1c0,0.2,0,0.3-0.1,0.5c-1.1,0.1-2.5-0.2-3.2,0.3
		c-1.3,0.9-2.4,2.3-3,3.7c-0.5,1.1-0.2,2.7-0.4,4c-0.2,1.3-1.1,2.7-0.9,4c0.7,3.9,4.4,5,7.4,5.9c5.6,1.7,10.6-1.2,14.3-4.8
		c2.4-2.4,5.6-4.6,7.1-7.6c1.7-3.3,4.8-4.7,6.9-7.3c1.1-1.3,1.4-3.7,2.7-4.4c3.4-1.9,5.2-4,6-8.2c1-4.8,1.5-5.7-2.2-8.8
		c-0.7,0.4-1.5,0.9-3,1.8c1-1.3,1.4-1.8,1.8-2.3c-6-4.4-16.5,0.3-20.9,7.2c0.6,0.2,1.2,0.5,1.1,0.4c-1.2,0.8-2.7,1.3-3.7,2.3
		c-4,4.1-7.9,8.4-12,12.9C219.7,200.7,220.3,200.9,221,201.1z M266.9,193.3c-0.2-0.3-0.4-0.6-0.6-0.9c-1.8,0.9-3.8,1.5-5.3,2.8
		c-1.3,1.2-1.9,3.2-3.1,4.5c-5.7,6-11.7,11.7-17.3,17.8c-2.8,3.1-4.6,7-2.4,11.2c0.8,1.6,3.2,2.2,4.7,3.5c2.8,2.4,7.5,2.4,10.1-0.1
		c0.5-0.5,1.4-1.3,1.9-1.2c3.7,0.8,4.6-2.4,6.3-4.4c0.7-0.8,1.3-1.7,2-2.4c1.7-1.7,3.4-3.2,5.1-4.9c1-1,1.8-2,2.7-3.1
		c1.6-2,3.1-4,4.7-6c0.4-0.6,0.8-1.6,1.3-1.7c5.6-1.5,4.8-6.8,6.1-10.6c1-3-3.1-6.5-7.3-7.6C271.6,189.3,268.6,190.3,266.9,193.3z
		 M315.9,219.6c-0.4-0.3-0.8-0.7-1.2-1c-10.7,9.5-20.2,20.1-28.9,31.4c0.2,0.3,0.5,0.5,0.7,0.8c0.7-0.1,1.3-0.2,2.5-0.4
		c-3.8,2.3-4.4,4.9-1.5,7.6c1.6,1.5,3.4,4.2,6.6,2.7c2.5-1.2,5-3.2,7.6-3.3c6.8-0.4,10-5.5,14.2-9.4c0.9-0.8,0.8-2.9,1.7-3.3
		c5.8-2.6,8.2-8.2,11.3-12.8c4.1-6.3,3.5-7.6-0.2-11.6c-0.9,0.4-1.7,0.8-3,1.5c0.7-1.1,1.1-1.6,1.6-2.5c-4.7-1.4-9.2-3.4-12.5,2
		C315.1,220.8,315.5,220.2,315.9,219.6z M190.4,338.7c0.8,6.5,3,11.1,7.9,13.9c4.1,2.4,7.6,0.4,7.4-4.4c-0.2-5.6-2.7-10.1-7.5-13
		c-1.4-0.9-3.9-1.3-5.2-0.6C191.5,335.5,190.9,337.7,190.4,338.7z M93.3,282.6c0.6,6.3,2.8,10.7,7.1,13.6c1.5,1,4.4,1.6,5.7,0.8
		c1.4-0.8,2.4-3.5,2.3-5.3c-0.3-5.2-2.9-9.5-7.4-12.3c-1.4-0.9-3.8-1.3-5.1-0.7C94.5,279.4,93.9,281.6,93.3,282.6z M314.6,267.8
		c-1,2.6-2.1,5.1-3,7.7c-0.3,0.9-0.2,2.5,0.4,2.8c4.3,2.7,8.7,5.1,13.3,7.8c1.6-4,3-7.5,4.4-10.8c1.4-0.1,2.6-0.2,3.9-0.4
		c0-0.4,0.1-0.7,0.1-1.1c-2.3-0.4-4.7-0.7-6.9-1.4c-1.3-0.4-3.2-1.2-3.4-2c-0.4-2.7-2.2-2.7-4-2.8
		C317.9,267.5,316.4,267.7,314.6,267.8z M143.1,247.2c-3.2,1.1-6.1,1.8-8.6,3.2c-2.4,1.4-3.4,4-1.2,6.3c5.1,5.2,14.4,5.1,19.4-0.2
		c1.8-2,1.3-4.3-0.8-5.5C149.2,249.4,146.1,248.4,143.1,247.2z M191.5,288.9c2.8-1,5.6-1.5,8-2.9c3.6-2.1,3.5-5.3,0.2-7.7
		c-4.1-3-12.5-3.1-16.7,0c-3.3,2.4-3.3,5.9,0.3,7.8C185.8,287.3,188.6,287.9,191.5,288.9z M215.9,303.1c3-1.2,6.1-1.9,8.6-3.5
		c2.9-1.9,2.7-4.5,0.1-6.8c-4-3.5-13.4-3.6-17.5-0.2c-2.9,2.4-2.9,5.5,0.3,7.3C209.9,301.3,212.8,302,215.9,303.1z M118.7,233.5
		c-2.8,0.8-5.4,1.2-7.7,2.4c-4,2-4.1,5.7-0.5,8.3c4.1,2.9,12.2,2.9,16.4-0.1c3.2-2.3,3.3-5.9-0.2-7.8
		C124.3,234.9,121.4,234.3,118.7,233.5z M157.3,319.5c-0.8-5.3-3.2-10.2-8.7-12.9c-3.4-1.7-6.1-0.1-6.5,3.8
		c-0.6,5.2,3.1,12,7.7,14.4C154,326.8,157.4,324.7,157.3,319.5z M133,307.1c-0.6-6.5-3.1-10.9-7.6-13.8c-1.4-0.9-4-1.4-5.1-0.7
		c-1.4,0.8-2.5,3.2-2.5,4.9c0.1,5.4,2.7,9.9,7.3,12.8c1.4,0.9,4,1.3,5.4,0.7C131.9,310.3,132.5,308,133,307.1z M228.4,337.1
		c0.1-5.8,3.4-10.3,8.8-13.7c-1.1-0.4-2.1-1.1-2.6-0.9c-2.2,0.9-4,0-6-0.6c-1.7-0.5-5.2-0.1-5.6,0.8c-1.1,2.7-1.1,5.8-1.4,8.8
		c0,0.3,0.9,0.7,1.4,1.1c0.8,0.6,1.6,1.1,1.8,1.3c-0.3,2.2-0.6,4-0.9,6.2C225.7,338.8,226.8,338.2,228.4,337.1z M228.7,312.9
		c-6.6-0.5-10.2,3.5-12.9,8.4c-2.7,4.8-4.8,9.8-1.2,15.8c0.5-3.9,1-7.1,1.5-11.3c0.6,1.9,0.9,2.7,1.1,3.5c0.9-2,5.3-3.7,0-5.7
		c2.2-2.8,4.2-5.2,6.5-8.1c0.3,2,0.5,3.3,0.7,4.6c0.3,0,0.7,0,1,0c0.5-1.7,1.1-3.4,1.6-5.1c-0.3-0.1-0.7-0.3-1-0.4
		C226.9,314,227.8,313.5,228.7,312.9z M277.9,299.5c-4.2,2.4-8.2,4.7-12.2,7c-0.3,0.2-0.9,0.3-0.9,0.6c-0.4,1.3-0.7,2.5-1,3.8
		c1,0.1,2.3,0.6,3.1,0.2c3.5-1.8,6.9-3.9,10.4-5.9C279.8,303.8,280.2,302,277.9,299.5z M338.7,335.6c-0.6,4.2,3.6,7.6,13.6,11.4
		c-1-2.2-1.3-4.1-2.3-4.8C346.5,339.9,342.7,338,338.7,335.6z M163.4,205.4c-2,6.8-3.7,12.6-5.5,18.4c0.3,0.2,0.6,0.4,0.9,0.6
		c0.7-0.6,1.8-1.1,2.1-1.9c0.9-2.3,1.4-4.7,2.1-7.1c0.5-2,1.1-3.9,1.8-6.7C164.8,208.6,164.4,207.6,163.4,205.4z M358.9,336
		c-6.8-5.3-12.1-7.8-15-6.9C348.5,331.2,352.1,335.8,358.9,336z M238.2,330c-1.5-1.2-2.4-2.3-2.9-2.1c-3,0.9-3.8,3.7-4.3,6.3
		c-0.1,0.5,0.9,1.1,1.3,1.7C234.1,334,235.9,332.2,238.2,330z M231.3,339.5c4.4,0.4,6.4-1.8,7.8-4.3c1.4-2.5,2.8-5.2,0.5-8.1
		C239.9,332.8,237,336.6,231.3,339.5z M226.8,119.6c-0.2,0.3-0.4,0.5-0.6,0.8c4.1,2.4,8.1,4.7,12.2,7.1c0.2-0.3,0.4-0.6,0.6-1
		C234.8,124.3,230.8,122,226.8,119.6z M260.8,311.7c0.6-0.2,1.3-0.4,1.9-0.5c-0.7-2-1.3-4.1-2-6.1c-0.5,0.1-1,0.3-1.5,0.4
		C259.8,307.5,260.3,309.6,260.8,311.7z M294.5,121.9c-0.6-0.4-1.2-0.7-1.8-1.1c-1.1,1.9-2.2,3.8-3.3,5.6c0.5,0.3,1,0.6,1.4,0.9
		C292.1,125.6,293.3,123.8,294.5,121.9z"/>
	<path d="M234.5,394.9c7.7,2.5,12.7-1.2,11.7-8.8c3,2.7,3.8,7.1,1.9,10.3c-3,5-6.6,5.8-12.1,3.6C235.4,397.8,235,396.3,234.5,394.9z
		"/>
	<path d="M141.4,346.9c-0.3-0.2-1.1-0.7-2.6-1.7c-0.2,1.5-0.4,2.8-0.7,4.6c-0.7,0-2.3,0.2-4,0.3c-0.1-0.3-0.1-0.6-0.2-0.9
		c-1.1,1.2-2.2,2.4-3.3,3.7c-1.9-2.8-3.7-5.5-5.6-8.2c0.2-0.2,0.3-0.5,0.5-0.7c1.5,1.2,3,2.4,4.6,3.5c0.8,0.5,1.7,0.7,2.6,1.1
		c0.3-0.8,0.7-1.7,0.8-2.1c1.1-0.1,2.3-0.3,3.4-0.4c-0.8-2.3-1.5-4.6-2.2-6.4c0.7,0.4,2.1,1.2,4.2,2.5c-0.3-1.8-0.4-2.8-0.6-3.7
		c0.2-0.1,0.4-0.2,0.7-0.3c0.3,0.9,0.7,1.8,1,2.7C140.6,342.8,141,344.8,141.4,346.9z"/>
	<path d="M178.6,380.1c-1.3-1.9-3.2-4.8-5.1-7.6c0.1-0.2,0.2-0.4,0.4-0.5c2.3,1.5,4.7,3,7.4,4.7c0.6-2.9,6.9-1.6,4.5-6.2
		c0.8-1.4,1.5-2.5,2.7-4.3c1.5,3.9-1.3,7.4-1.6,11.1C184.8,377.9,182.3,378.8,178.6,380.1z"/>
	<path d="M84,301.9c-1.8,3.6-1.9,7.3,0.1,11c-3.6,0.6-6.8,0.5-8.9-2.6c-0.6-0.9,0.2-2.6,0.8-3.9c0.3,1.6,0.6,3.1,0.9,4.7
		c0.2,0,0.4-0.1,0.5-0.1c0.3-2.5,0.6-4.9,0.9-8.2c0.5,3.4,0.9,6,1.3,8.6C81.3,307.9,82.7,304.9,84,301.9C84,302,84,301.9,84,301.9z"
		/>
	<path d="M103.7,334.8c4.1-0.3,7.7-0.5,11.2-0.7c0,0.3-0.1,0.6-0.1,0.8c-1.1,0.6-2.3,1.1-3.2,1.9
		C108.8,339.1,106.4,338.8,103.7,334.8z"/>
	<path d="M157.7,352.2c-1.3,1.5-2.4,2.7-3.6,4c-1.2-0.2-2.6-0.3-4.1-0.5c0.4-1.6,0.8-3.1,1.3-5.3
		C152.6,355.7,155.8,350.5,157.7,352.2z"/>
	<path d="M111.9,327.1c1,0,1.8,0,2.6,0c-0.2-1.1-0.4-2.2-0.7-3.9c0.9,1.2,2.2,2.3,2.1,3c-0.5,1.9,1.9,5-2.3,5.7
		C113,330.3,112.5,328.8,111.9,327.1z"/>
	<path class="st0" d="M272.6,248.6c-4.6-1.4-8.6-2.5-10.4-6.1c-1.8-3.8-0.4-7.6,2.3-10.6c5.2-5.9,10.5-11.7,15.9-17.4
		c2.9-3,5.9-5.9,9.1-8.4c4-3.1,11.9-2.5,15.5,0.9c2.1,2,3.6,4.5,1.4,7.6c-0.5,0.7,0.2,2.3-0.3,3c-1.4,1.8-3.1,3.3-4.7,5
		c-0.6,0.6-1,1.4-1.6,2.2c-0.6,0.8-1,1.7-1.7,2.4c-2.6,2.9-5.2,5.9-8,8.6c-2.5,2.4-4.5,5.3-7.1,7.4
		C280,245.5,275.9,246.9,272.6,248.6z"/>
	<path class="st0" d="M190.2,194.9c0.2,0-0.4-0.1-0.9-0.2c2.3-6.7,10.4-15.2,15.2-15c-1.4-0.6-2-0.8-3.2-1.3c2.8-2.6,5.5-5,8.1-7.5
		c2.2-2.1,4.1-4.6,6.5-6.3c4.9-3.5,11.3-3.4,16,0c3.6,2.5,3.5,7-0.4,9c0.8,0.4,1.4,0.7,3,1.5c-2.3,2-4.4,3.8-6.4,5.6
		c-0.5,0.5-0.5,1.5-1,2.1c-1.5,1.8-3.1,3.5-4.7,5.2c-0.9,1-1.8,2.1-2.8,3.1c-1.7,1.7-3.5,3.3-5.3,4.9c-0.9,0.8-1.5,1.3-2,2.7
		c-0.7,2-3.4,3.3-5.3,4.7c-0.9,0.7-2,1.3-3.1,1.4c-2.9,0.3-6.2,1.2-8.6,0.3c-2.8-1.1-6.6-2.6-6.5-6.9
		C188.9,197.2,189.6,196.2,190.2,194.9z"/>
	<path class="st0" d="M221,201.1c-0.7-0.2-1.3-0.3-2.2-0.5c4.1-4.5,8-8.8,12-12.9c1-1,2.5-1.6,3.7-2.3c0.1,0-0.5-0.2-1.1-0.4
		c4.4-6.9,14.9-11.6,20.9-7.2c-0.4,0.5-0.8,1.1-1.8,2.3c1.5-0.9,2.2-1.3,3-1.8c3.7,3.1,3.2,4,2.2,8.9c-0.8,4.1-2.6,6.3-6,8.2
		c-1.3,0.7-1.6,3.1-2.7,4.4c-2.1,2.6-5.2,4-6.9,7.3c-1.5,3-4.7,5.2-7.1,7.6c-3.7,3.7-8.7,6.6-14.3,4.8c-2.9-0.9-6.6-2-7.4-5.9
		c-0.2-1.2,0.7-2.6,0.9-4c0.2-1.3-0.1-2.8,0.4-4c0.7-1.4,1.8-2.8,3-3.7c0.7-0.6,2.1-0.2,3.2-0.3C221,201.4,221,201.2,221,201.1z"/>
	<path class="st0" d="M266.9,193.3c1.7-3,4.6-4,8.7-3c4.3,1.1,8.3,4.6,7.3,7.6c-1.3,3.7-0.5,9.1-6.1,10.6c-0.6,0.1-0.9,1.1-1.3,1.7
		c-1.6,2-3.1,4-4.7,6c-0.9,1.1-1.7,2.1-2.7,3.1c-1.7,1.7-3.4,3.2-5.1,4.9c-0.7,0.7-1.3,1.7-2,2.4c-1.7,1.9-2.6,5.1-6.3,4.4
		c-0.5-0.1-1.4,0.7-1.9,1.2c-2.6,2.5-7.2,2.5-10.1,0.1c-1.5-1.3-3.9-1.9-4.7-3.5c-2.2-4.1-0.4-8.1,2.4-11.2
		c5.6-6.1,11.6-11.8,17.3-17.8c1.3-1.3,1.8-3.4,3.1-4.5c1.5-1.3,3.5-1.9,5.3-2.8C266.5,192.7,266.7,193,266.9,193.3z"/>
	<path class="st0" d="M315.9,219.6c-0.4,0.6-0.8,1.2-1.2,1.8c3.3-5.5,7.8-3.4,12.5-2c-0.6,0.8-0.9,1.4-1.6,2.5c1.3-0.6,2.2-1,3-1.5
		c3.7,4,4.4,5.3,0.2,11.6c-3.1,4.7-5.5,10.3-11.3,12.8c-0.9,0.4-0.8,2.5-1.7,3.3c-4.2,3.8-7.5,9-14.2,9.4c-2.6,0.1-5.1,2.1-7.6,3.3
		c-3.2,1.5-5-1.2-6.6-2.7c-2.9-2.6-2.3-5.2,1.5-7.6c-1.1,0.2-1.8,0.3-2.5,0.4c-0.2-0.3-0.5-0.5-0.7-0.8
		c8.7-11.3,18.2-21.9,28.9-31.4C315.1,219,315.5,219.3,315.9,219.6z M322.1,228.7c-0.3-0.2-0.5-0.4-0.8-0.6
		c-0.7,0.8-1.4,1.6-2.3,2.6c1.6,0.9,2.9,1.6,4.3,2.5c0.4-1.5,0.6-2.5,1-4.1c-1.3,0.8-2.1,1.3-3.4,2.1
		C321.5,229.9,321.8,229.3,322.1,228.7z"/>
	<path class="st0" d="M176.5,257.2c2.7,5,2.1,6.3-4.6,10.1c1.2,0.1,2.2,0.1,3.1,0.2c1.1,2.1,0.5,3.7-1.6,4.6
		c-4.8,2.2-9.7,2.2-14.4-0.5c-2.5-1.4-4-3.4-2.6-6.5c0.3-0.6-0.2-1.6,0-2.3c0.5-1.9,1.1-3.8,2-5.5c0.6-1.1,1.8-2,2.1-2.3
		c3.5,0.6,6.9,1.2,10.9,1.9c1.1,2.3-0.6,3.3-7.6,3.8c2.4,0.2,4.9,0.4,7.6,0.6c0.1,0.4,0.2,0.9,0.3,1.5c0,0.5,0,0.9-0.1,1.4
		c0.4,0.1,0.9,0.2,1.3,0.2c0.3-1.5,1.1-3.1,0.9-4.6C173.5,257.3,174.3,256.6,176.5,257.2L176.5,257.2z"/>
	<path class="st0" d="M190.4,338.7c0.6-1,1.2-3.2,2.6-4c1.3-0.7,3.8-0.3,5.2,0.6c4.8,2.9,7.3,7.4,7.5,13c0.2,4.7-3.3,6.8-7.4,4.4
		C193.4,349.8,191.1,345.2,190.4,338.7z"/>
	<path class="st0" d="M93.3,282.6c0.6-0.9,1.2-3.2,2.6-3.9c1.3-0.7,3.7-0.2,5.1,0.7c4.5,2.8,7.1,7.1,7.4,12.3
		c0.1,1.8-0.9,4.6-2.3,5.3c-1.4,0.8-4.2,0.2-5.7-0.8C96.1,293.3,93.9,288.9,93.3,282.6z"/>
	<path class="st0" d="M314.6,267.8c1.8-0.1,3.2-0.2,4.7-0.2c1.9,0.1,3.7,0,4,2.8c0.1,0.8,2.1,1.7,3.4,2c2.2,0.7,4.6,0.9,6.9,1.4
		c0,0.4-0.1,0.7-0.1,1.1c-1.2,0.1-2.5,0.2-3.9,0.4c-1.4,3.4-2.7,6.8-4.4,10.8c-4.6-2.7-9-5.1-13.3-7.8c-0.5-0.3-0.6-2-0.4-2.8
		C312.5,272.9,313.6,270.4,314.6,267.8z M319.8,278.7c2,0.1,3.5,0.2,5.1,0.2C321.7,275.6,321.7,275.6,319.8,278.7z"/>
	<path class="st0" d="M143.1,247.2c3,1.3,6.1,2.2,8.8,3.8c2,1.2,2.6,3.5,0.8,5.5c-5,5.4-14.3,5.5-19.4,0.2c-2.2-2.3-1.2-4.9,1.2-6.3
		C137,249,140,248.3,143.1,247.2z M145.5,257.2c0-0.4,0-0.8,0-1.2c-2.3-0.4-4.6-0.8-7-1.2c-0.1,0.5-0.1,1-0.2,1.6
		C140.7,256.6,143.1,256.9,145.5,257.2z"/>
	<path class="st0" d="M191.5,288.9c-2.9-1-5.8-1.6-8.2-2.9c-3.6-2-3.5-5.4-0.3-7.8c4.1-3,12.6-3,16.7,0c3.3,2.5,3.4,5.7-0.2,7.7
		C197.1,287.4,194.3,287.9,191.5,288.9z M194.5,284c-3.1-0.6-5.7-1.1-8.2-1.6c-0.1,0.3-0.2,0.6-0.3,0.9c2,0.7,4,1.6,6,1.9
		C192.8,285.4,193.8,284.3,194.5,284z"/>
	<path class="st0" d="M215.9,303.1c-3.1-1.1-6-1.8-8.5-3.2c-3.2-1.9-3.2-4.9-0.3-7.3c4.1-3.5,13.5-3.4,17.5,0.2
		c2.6,2.3,2.8,4.9-0.1,6.8C222,301.1,218.9,301.9,215.9,303.1z M210.5,296.4c2.7,3.3,5.7,3.7,7.6,1.7
		C215.8,297.6,213.4,297,210.5,296.4z"/>
	<path class="st0" d="M118.7,233.5c2.7,0.9,5.6,1.4,8,2.7c3.5,1.9,3.4,5.5,0.2,7.8c-4.2,2.9-12.3,3-16.4,0.1
		c-3.6-2.6-3.5-6.3,0.5-8.3C113.2,234.7,115.9,234.3,118.7,233.5z M121.5,241.8c-2.4-0.2-4.7-0.4-7-0.6
		C118.1,243.9,120,243.8,121.5,241.8z"/>
	<path class="st0" d="M157.3,319.5c0.1,5.2-3.3,7.3-7.5,5.2c-4.6-2.4-8.2-9.1-7.7-14.4c0.4-3.9,3.1-5.5,6.5-3.8
		C154.2,309.3,156.5,314.2,157.3,319.5z M147.1,311.1c0.9,2.9,6,2.5,4.8,6.9c0.6-0.8,1.2-1.9,0.9-2.6
		C151.7,313,150.2,310.8,147.1,311.1z"/>
	<path class="st0" d="M133,307.1c-0.5,0.9-1.1,3.2-2.5,3.9c-1.4,0.7-4,0.3-5.4-0.7c-4.6-2.9-7.1-7.4-7.3-12.8c0-1.7,1.1-4.1,2.5-4.9
		c1.2-0.7,3.8-0.2,5.1,0.7C129.9,296.2,132.4,300.6,133,307.1z M127.3,304.4c0.5-0.8,1.3-1.6,1.3-2.4c-0.2-2.7-3-4.8-5.4-4.6
		C122.6,300.4,128.9,299.5,127.3,304.4z"/>
	<path class="st0" d="M228.4,337.1c-1.7,1.1-2.7,1.8-4.5,3c0.3-2.2,0.6-4,0.9-6.2c-0.3-0.2-1.1-0.7-1.8-1.3
		c-0.5-0.4-1.5-0.8-1.4-1.1c0.3-3,0.3-6.2,1.4-8.8c0.4-1,3.9-1.4,5.6-0.8c2,0.6,3.8,1.5,6,0.6c0.6-0.2,1.5,0.5,2.6,0.9
		C231.8,326.8,228.5,331.3,228.4,337.1z"/>
	<path class="st0" d="M228.7,312.9c-0.9,0.5-1.8,1.1-2.6,1.6c0.3,0.1,0.7,0.3,1,0.4c-0.5,1.7-1.1,3.4-1.6,5.1c-0.3,0-0.7,0-1,0
		c-0.2-1.3-0.4-2.6-0.7-4.6c-2.3,2.8-4.3,5.3-6.5,8.1c5.4,1.9,0.9,3.7,0,5.7c-0.3-0.8-0.5-1.6-1.1-3.5c-0.6,4.3-1,7.5-1.5,11.3
		c-3.6-6-1.5-11,1.2-15.8C218.5,316.4,222.1,312.4,228.7,312.9z"/>
	<path class="st0" d="M277.9,299.5c2.3,2.5,1.9,4.3-0.6,5.7c-3.4,2-6.9,4.1-10.4,5.9c-0.8,0.4-2-0.1-3.1-0.2c0.3-1.3,0.6-2.6,1-3.8
		c0.1-0.3,0.6-0.4,0.9-0.6C269.7,304.2,273.7,301.9,277.9,299.5z"/>
	<path class="st0" d="M338.7,335.6c4,2.3,7.8,4.3,11.3,6.6c1,0.7,1.3,2.6,2.3,4.8C342.2,343.3,338.1,339.8,338.7,335.6z"/>
	<path class="st0" d="M163.4,205.4c1,2.1,1.4,3.2,1.5,3.4c-0.8,2.8-1.3,4.7-1.8,6.7c-0.7,2.4-1.2,4.8-2.1,7.1
		c-0.3,0.8-1.4,1.3-2.1,1.9c-0.3-0.2-0.6-0.4-0.9-0.6C159.7,218,161.4,212.2,163.4,205.4z"/>
	<path class="st0" d="M358.9,336c-6.7-0.2-10.3-4.7-15-6.9C346.8,328.2,352.1,330.7,358.9,336z"/>
	<path class="st0" d="M238.2,330c-2.3,2.3-4.1,4.1-5.9,5.9c-0.5-0.6-1.4-1.2-1.3-1.7c0.5-2.7,1.3-5.4,4.3-6.3
		C235.8,327.7,236.7,328.8,238.2,330z"/>
	<path class="st0" d="M231.3,339.5c5.7-2.8,8.6-6.7,8.3-12.5c2.3,2.9,0.9,5.6-0.5,8.1C237.7,337.7,235.7,339.9,231.3,339.5z"/>
	<path class="st0" d="M176.6,257.3c-0.8-1.2-1.9-2.2-2.3-3.5c-0.2-0.5,1.1-1.7,2-2.2c0.5-0.3,1.9-0.2,2.2,0.2
		c0.5,0.7,0.9,1.9,0.6,2.6C178.5,255.4,177.4,256.3,176.6,257.3C176.5,257.2,176.6,257.3,176.6,257.3z"/>
	<path class="st0" d="M226.8,119.6c4,2.3,8,4.6,12.1,7c-0.2,0.3-0.4,0.6-0.6,1c-4.1-2.4-8.1-4.7-12.2-7.1
		C226.4,120.2,226.6,119.9,226.8,119.6z"/>
	<path class="st0" d="M260.8,311.7c-0.5-2.1-1-4.2-1.5-6.2c0.5-0.1,1-0.3,1.5-0.4c0.7,2,1.3,4.1,2,6.1
		C262.1,311.3,261.4,311.5,260.8,311.7z"/>
	<path class="st0" d="M294.5,121.9c-1.2,1.8-2.4,3.6-3.6,5.5c-0.5-0.3-1-0.6-1.4-0.9c1.1-1.9,2.2-3.8,3.3-5.6
		C293.3,121.2,293.9,121.6,294.5,121.9z"/>
	<path d="M322.1,228.7c-0.3,0.6-0.5,1.2-1.1,2.5c1.3-0.8,2-1.3,3.4-2.1c-0.4,1.6-0.7,2.6-1,4.1c-1.4-0.8-2.7-1.6-4.3-2.5
		c0.9-1,1.6-1.8,2.3-2.6C321.6,228.3,321.8,228.5,322.1,228.7z"/>
	<path d="M319.8,278.7c1.9-3,1.9-3,5.1,0.2C323.3,278.8,321.8,278.8,319.8,278.7z"/>
	<path d="M145.5,257.2c-2.4-0.3-4.8-0.5-7.2-0.8c0.1-0.5,0.1-1,0.2-1.6c2.3,0.4,4.6,0.8,7,1.2C145.4,256.4,145.4,256.8,145.5,257.2z
		"/>
	<path d="M194.5,284c-0.7,0.4-1.7,1.4-2.5,1.2c-2.1-0.4-4-1.3-6-1.9c0.1-0.3,0.2-0.6,0.3-0.9C188.8,282.9,191.4,283.4,194.5,284z"/>
	<path d="M210.5,296.4c2.9,0.6,5.3,1.2,7.6,1.7C216.2,300.1,213.2,299.7,210.5,296.4z"/>
	<path d="M121.5,241.8c-1.4,2-3.4,2.1-7-0.6C116.7,241.4,119,241.6,121.5,241.8z"/>
	<path d="M147.1,311.1c3.2-0.3,4.6,1.9,5.7,4.2c0.3,0.7-0.3,1.8-0.9,2.6C153,313.5,148,314,147.1,311.1z"/>
	<path d="M127.3,304.4c1.6-4.9-4.8-4-4.1-6.9c2.4-0.2,5.2,1.9,5.4,4.6C128.7,302.8,127.8,303.6,127.3,304.4z"/>
</g>
</svg>
