<?xml version="1.0" encoding="utf-8"?>
<!-- Generator: Adobe Illustrator 16.0.0, SVG Export Plug-In . SVG Version: 6.00 Build 0)  -->
<!DOCTYPE svg PUBLIC "-//W3C//DTD SVG 1.1//EN" "http://www.w3.org/Graphics/SVG/1.1/DTD/svg11.dtd">
<svg version="1.1" id="Layer_1" xmlns="http://www.w3.org/2000/svg" xmlns:xlink="http://www.w3.org/1999/xlink" x="0px" y="0px"
	 width="77px" height="77px" viewBox="0 0 77 77" enable-background="new 0 0 77 77" xml:space="preserve">
<g>
	<g>
		<path fill="#020202" d="M38.5,0.5c-20.987,0-38,17.014-38,38.001c0,20.986,17.013,37.999,38,37.999c20.986,0,38-17.013,38-37.999
			C76.5,17.514,59.486,0.5,38.5,0.5z M54.445,46.898c-0.026,1.164-0.996,2.868-3.05,2.868c-2.183,0-2.913-1.843-2.979-2.818
			l-0.001-0.051v-5.443H46.48v13.037h4.994v0.997H26.447v-0.997h4.012V21.123c0-1.441,1.191-2.611,2.661-2.611h10.699
			c1.471,0,2.661,1.17,2.663,2.611v18.351h3.975v7.392c0.025,0.269-0.193,1.378,1.002,1.378c1.168,0,0.977-1.116,0.99-1.438v-9.86
			l-4.338-2.975v-4.605l-0.555-0.741l-0.546-1.82l-0.524-0.645l0.002-1.112l2.48,3.513v4.152l5.477,3.506V46.898z M48.01,28.525
			l0.598-0.014l-0.972-1.178L48.01,28.525z M33.426,29.428h10.021v-7.904H33.426V29.428z"/>
	</g>
	<g>
		<path fill="none" stroke="#FFFFFF" stroke-miterlimit="10" d="M38.5,0.5c-20.987,0-38,17.014-38,38.001
			c0,20.986,17.013,37.999,38,37.999c20.986,0,38-17.013,38-37.999C76.5,17.514,59.486,0.5,38.5,0.5z M54.445,46.898
			c-0.026,1.164-0.996,2.868-3.05,2.868c-2.183,0-2.913-1.843-2.979-2.818l-0.001-0.051v-5.443H46.48v13.037h4.994v0.997H26.447
			v-0.997h4.012V21.123c0-1.441,1.191-2.611,2.661-2.611h10.699c1.471,0,2.661,1.17,2.663,2.611v18.351h3.975v7.392
			c0.025,0.269-0.193,1.378,1.002,1.378c1.168,0,0.977-1.116,0.99-1.438v-9.86l-4.338-2.975v-4.605l-0.555-0.741l-0.546-1.82
			l-0.524-0.645l0.002-1.112l2.48,3.513v4.152l5.477,3.506V46.898z M48.01,28.525l0.598-0.014l-0.972-1.178L48.01,28.525z
			 M33.426,29.428h10.021v-7.904H33.426V29.428z"/>
	</g>
</g>
</svg>
