<?xml version="1.0" encoding="iso-8859-1"?>
<!-- Generator: Adobe Illustrator 16.0.0, SVG Export Plug-In . SVG Version: 6.00 Build 0)  -->
<!DOCTYPE svg PUBLIC "-//W3C//DTD SVG 1.1//EN" "http://www.w3.org/Graphics/SVG/1.1/DTD/svg11.dtd">
<svg version="1.1" id="Layer_1" xmlns="http://www.w3.org/2000/svg" xmlns:xlink="http://www.w3.org/1999/xlink" x="0px" y="0px"
	 width="15.988px" height="15.994px" viewBox="0 0 15.988 15.994" style="enable-background:new 0 0 15.988 15.994;"
	 xml:space="preserve">
<g>
	<g>
		<path style="fill-rule:evenodd;clip-rule:evenodd;" d="M10.706,5.982l4.292-4.277l-0.014,2.424
			c-0.004,0.202,0.156,0.378,0.357,0.374l0.256,0c0.202-0.005,0.369-0.125,0.373-0.328l0.011-3.613c0-0.003-0.013-0.006-0.013-0.01
			l0.02-0.183c0.002-0.102-0.021-0.192-0.088-0.257c-0.064-0.065-0.154-0.105-0.256-0.103l-0.182,0.004
			c-0.004,0-0.007,0.001-0.01,0.002L11.873,0c-0.201,0.005-0.367,0.172-0.373,0.374v0.257c0.031,0.239,0.218,0.378,0.419,0.374
			l2.358,0.006L10,5.274C9.805,5.47,9.805,5.787,10,5.982C10.195,6.178,10.511,6.178,10.706,5.982z M5.297,10.012l-4.293,4.266
			l0.014-2.412c0.005-0.203-0.155-0.379-0.357-0.374L0.39,11.492c-0.202,0.004-0.369,0.125-0.373,0.326l-0.01,3.613
			c0,0.004,0.013,0.007,0.013,0.01L0,15.625c-0.002,0.102,0.021,0.191,0.087,0.257c0.064,0.065,0.155,0.105,0.256,0.103l0.183-0.004
			c0.003,0,0.006-0.002,0.01-0.002l3.595,0.016c0.202-0.005,0.368-0.172,0.373-0.375l0-0.256c-0.031-0.238-0.218-0.379-0.419-0.374
			l-2.359-0.006l4.278-4.264c0.195-0.195,0.195-0.513,0-0.708S5.492,9.816,5.297,10.012z M15.981,15.432l-0.011-3.613
			c-0.004-0.201-0.171-0.322-0.373-0.326l-0.256-0.001c-0.201-0.005-0.361,0.171-0.357,0.374l0.014,2.425l-4.292-4.278
			c-0.194-0.195-0.511-0.195-0.706,0c-0.194,0.195-0.194,0.513,0,0.708l4.277,4.264l-2.358,0.006
			c-0.201-0.005-0.388,0.136-0.419,0.374v0.256c0.006,0.203,0.172,0.37,0.373,0.375l3.58-0.016c0.003,0,0.006,0.002,0.01,0.002
			l0.182,0.004c0.102,0.003,0.191-0.037,0.256-0.103c0.066-0.065,0.09-0.155,0.088-0.257l-0.02-0.184
			C15.968,15.438,15.981,15.436,15.981,15.432z M1.726,1.011l2.359-0.006C4.286,1.009,4.473,0.87,4.503,0.631l0-0.257
			C4.498,0.172,4.332,0.005,4.13,0L0.535,0.016c-0.003,0-0.006-0.002-0.01-0.002L0.343,0.01C0.242,0.007,0.151,0.047,0.087,0.112
			C0.021,0.177-0.002,0.268,0,0.369l0.02,0.183c0,0.003-0.013,0.006-0.013,0.01l0.01,3.613C0.021,4.377,0.188,4.498,0.39,4.502
			l0.271,0c0.202,0.004,0.362-0.172,0.357-0.374L1.004,1.717l4.293,4.266c0.195,0.195,0.511,0.195,0.706,0
			c0.195-0.196,0.195-0.513,0-0.708L1.726,1.011z"/>
	</g>
</g>
</svg>
