<?xml version="1.0" encoding="UTF-8" standalone="no"?>
<!-- Created with Inkscape (http://www.inkscape.org/) -->

<svg
   xmlns:dc="http://purl.org/dc/elements/1.1/"
   xmlns:cc="http://creativecommons.org/ns#"
   xmlns:rdf="http://www.w3.org/1999/02/22-rdf-syntax-ns#"
   xmlns:svg="http://www.w3.org/2000/svg"
   xmlns="http://www.w3.org/2000/svg"
   xmlns:sodipodi="http://sodipodi.sourceforge.net/DTD/sodipodi-0.dtd"
   xmlns:inkscape="http://www.inkscape.org/namespaces/inkscape"
   width="75"
   height="45"
   viewBox="0 0 75.000001 45.000001"
   id="svg4152"
   version="1.1"
   inkscape:version="0.91 r13725"
   sodipodi:docname="good.svg">
  <defs
     id="defs4154" />
  <sodipodi:namedview
     id="base"
     pagecolor="#ffffff"
     bordercolor="#666666"
     borderopacity="1.0"
     inkscape:pageopacity="0.0"
     inkscape:pageshadow="2"
     inkscape:zoom="11.92"
     inkscape:cx="23.489933"
     inkscape:cy="22.5"
     inkscape:document-units="px"
     inkscape:current-layer="layer1"
     showgrid="false"
     units="px"
     inkscape:window-width="1366"
     inkscape:window-height="705"
     inkscape:window-x="-8"
     inkscape:window-y="-8"
     inkscape:window-maximized="1" />
  <metadata
     id="metadata4157">
    <rdf:RDF>
      <cc:Work
         rdf:about="">
        <dc:format>image/svg+xml</dc:format>
        <dc:type
           rdf:resource="http://purl.org/dc/dcmitype/StillImage" />
        <dc:title />
      </cc:Work>
    </rdf:RDF>
  </metadata>
  <g
     inkscape:label="Layer 1"
     inkscape:groupmode="layer"
     id="layer1"
     transform="translate(0,-1007.3622)">
    <path
       class="st0"
       d="m 68.750352,1041.3336 -2.664822,0.688 -28.424766,-6.6841 c 6.217918,-10.4193 2.664822,-21.7233 -7.007494,-25.8518 -1.973942,-0.8846 -3.849187,-1.0812 -5.033552,-1.1795 -0.592183,0 -0.197395,0 -6.810101,0.1966 -2.072639,0.098 -1.973942,0.098 -2.270033,0.098 -2.171336,0.098 -4.342673,0.7864 -6.217917,1.7693 -10.26449907,5.5046 -12.5345324,20.5438 -4.1452787,28.2109 l 0.4934855,5.8977 6.1192202,4.7182 7.303586,-1.7693 0.0987,0 4.540067,2.7523 7.096255,-3.7959 24.289423,4.8771 c 1.184366,0.6881 2.566125,0.7864 3.849187,0.3932 l 7.106192,-2.1625 c 1.776548,-0.5898 3.158307,-2.0642 3.355701,-3.9318 l 0.493486,-3.637 z m -46.288942,-29.4888 4.046581,-0.098 0,3.2438 -4.046581,0.2949 z m -8.685345,33.1257 c -1.875245,0 -3.355701,-1.4744 -3.355701,-3.3421 0,-1.8676 1.480456,-3.342 3.355701,-3.342 1.875245,0 3.355702,1.4744 3.355702,3.342 0.0987,1.7694 -1.480457,3.3421 -3.355702,3.3421 z m 42.735846,-0.6881 -1.973942,2.4574 c 0,0 -29.707828,-6.4875 -33.359621,-8.4534 -3.849187,-2.0642 -6.908797,-5.7995 -6.119221,-11.7955 0.789577,-6.0943 5.82313,-10.4193 11.152773,-9.7313 5.230947,0.6881 9.080134,5.7012 8.19186,12.287 -0.394789,2.8506 -1.677851,5.2097 -3.355702,6.979 l 32.471347,6.5858 z"
       id="path12"
       inkscape:connector-curvature="0"
       style="fill:none;stroke:#b7b7b7;stroke-width:0.99999994;stroke-opacity:1"
       sodipodi:nodetypes="ccccccccccccccccccccccccccssscsccccccccc" />
    <circle
       style="fill:none;fill-opacity:1;stroke:#b7b7b7;stroke-width:1;stroke-miterlimit:4;stroke-dasharray:none;stroke-opacity:1"
       id="path4715"
       cx="45.238258"
       cy="1017.6944"
       r="9.5" />
    <rect
       style="fill:none;fill-opacity:1;stroke:#b7b7b7;stroke-width:1.00002754;stroke-linejoin:round;stroke-miterlimit:4;stroke-dasharray:none;stroke-opacity:1"
       id="rect4717"
       width="0.65135169"
       height="4.9174175"
       x="-619.96454"
       y="802.07263"
       transform="matrix(0.76202527,-0.64754728,0.63950809,0.76878436,0,0)" />
    <rect
       style="fill:none;fill-opacity:1;stroke:#b7b7b7;stroke-width:1.00002134;stroke-linejoin:round;stroke-miterlimit:4;stroke-dasharray:none;stroke-opacity:1"
       id="rect4722"
       width="11.196534"
       height="0.55059272"
       x="-690.89679"
       y="759.98822"
       transform="matrix(0.71425749,-0.69988302,0.70645062,0.70776233,0,0)" />
  </g>
</svg>
