<?xml version="1.0" encoding="utf-8"?>
<!-- Generator: Adobe Illustrator 16.0.0, SVG Export Plug-In . SVG Version: 6.00 Build 0)  -->
<!DOCTYPE svg PUBLIC "-//W3C//DTD SVG 1.1//EN" "http://www.w3.org/Graphics/SVG/1.1/DTD/svg11.dtd">
<svg version="1.1" id="Layer_1" xmlns="http://www.w3.org/2000/svg" xmlns:xlink="http://www.w3.org/1999/xlink" x="0px" y="0px"
	 width="19.718px" height="20.025px" viewBox="0 0 19.718 20.025" enable-background="new 0 0 19.718 20.025" xml:space="preserve">
<g>
	<g>
		<path fill-rule="evenodd" clip-rule="evenodd" fill="#41464B" d="M8.261,11.757l-2.546-2.42l-1.333,1.282l3.427,3.319l0.013-0.012
			l0.559,0.537l6.098-7.539L13.354,5.78L8.261,11.757z M19.641,8.707C19.004,3.759,14.901,0,9.862,0C4.371,0,0,4.541,0,10.051
			c0,3.551,1.81,6.655,4.565,8.421c-0.111-0.071,2.075,1.397,5.297,1.544c5.31,0.242,9.717-4.229,9.855-9.691L19.641,8.707z
			 M9.862,18.477c-4.616,0-8.274-3.807-8.274-8.434c0-4.619,3.658-8.433,8.274-8.433c4.533,0,8.275,3.728,8.275,8.433
			S14.479,18.477,9.862,18.477z"/>
	</g>
</g>
</svg>
