<?xml version="1.0" encoding="utf-8"?>
<!-- Generator: Adobe Illustrator 16.0.0, SVG Export Plug-In . SVG Version: 6.00 Build 0)  -->
<!DOCTYPE svg PUBLIC "-//W3C//DTD SVG 1.1//EN" "http://www.w3.org/Graphics/SVG/1.1/DTD/svg11.dtd">
<svg version="1.1" id="Layer_1" xmlns="http://www.w3.org/2000/svg" xmlns:xlink="http://www.w3.org/1999/xlink" x="0px" y="0px"
	 viewBox="0 0 38 24" enable-background="new 0 0 38 24" xml:space="preserve">
<g>
	<g>
		<g>
			<path id="SVGID_1_" d="M36.02,17.211h-0.043c0,0.014,0,0.027,0,0.042c0,3.722-3.008,6.747-6.701,6.747
				c-3.008,0-5.557-2.003-6.402-4.752H15.86c0.63-0.374,1.227-0.798,1.78-1.273h4.174h0.797c-0.024-0.235-0.038-0.479-0.038-0.722
				c0-0.479,0.051-0.948,0.145-1.399h-3.124c0.299-0.408,0.578-0.83,0.825-1.271h0.806v-1.777C21.718,11.458,22,10.014,22,8.5
				s-0.283-2.958-0.775-4.302V3.631h-0.209c-0.185-0.439-0.404-0.86-0.637-1.272h0.846V2.315C21.225,1.59,21.811,1,22.529,1h11.468
				c0.351,0,0.631,0.286,0.631,0.637c0,0.351-0.28,0.637-0.631,0.637H22.529c-0.022,0-0.041,0.019-0.041,0.042v4.796h1.435V4.353
				c0-0.353,0.281-0.637,0.632-0.637h6.844c1.013,0,1.922,0.567,2.375,1.479l1.39,2.795l0.983,0.66
				c0.737,0.497,1.183,1.328,1.183,2.224v2.351c0.014-0.002,0.026-0.002,0.041-0.002c0.351,0,0.633,0.284,0.633,0.635v1.359
				C38,16.316,37.111,17.211,36.02,17.211L36.02,17.211z M23.922,13.18V8.385h-1.434v6.195h0.633
				c0.213-0.494,0.482-0.959,0.801-1.383C23.922,13.191,23.922,13.186,23.922,13.18L23.922,13.18z M23.838,17.253
				c0,3.019,2.438,5.474,5.438,5.474c2.998,0,5.438-2.455,5.438-5.474s-2.438-5.473-5.438-5.473S23.838,14.234,23.838,17.253
				L23.838,17.253z M36.061,10.874c0-0.469-0.229-0.904-0.619-1.165L33,8h-5V7.001h5c0,0-0.234-2.011-1.604-2.011h-6.211v6.922
				c1.133-0.88,2.551-1.405,4.09-1.405c2.195,0,4.146,1.068,5.371,2.716c0.008,0,0.016,0,0.021,0h1.393V10.874L36.061,10.874z
				 M36.734,14.493c-0.014,0.001-0.026,0.001-0.041,0.001h-1.305c0.202,0.457,0.36,0.939,0.459,1.443h0.172
				c0.396,0,0.715-0.323,0.715-0.723V14.493L36.734,14.493z M29.275,13.9c1.834,0,3.328,1.504,3.328,3.353
				c0,1.851-1.494,3.353-3.328,3.353c-1.836,0-3.33-1.502-3.33-3.353C25.945,15.404,27.439,13.9,29.275,13.9L29.275,13.9z
				 M29.275,19.332c1.138,0,2.063-0.932,2.063-2.079c0-1.146-0.928-2.08-2.063-2.08c-1.139,0-2.065,0.935-2.065,2.08
				C27.209,18.4,28.137,19.332,29.275,19.332L29.275,19.332z M2.525,18.875c0.691,2.227,2.733,3.852,5.167,3.852
				c1.659,0,3.128-0.766,4.126-1.947c0.643-0.121,1.264-0.297,1.869-0.512C12.586,22.479,10.314,24,7.692,24
				c-3.552,0-6.44-2.803-6.661-6.323C1.5,18.109,1.995,18.518,2.525,18.875L2.525,18.875z"/>
		</g>
	</g>
	<g>
		<g>
			<path id="SVGID_3_" d="M9.005,17.992c-2.942-0.133-4.938-1.453-4.835-1.389C1.653,15.018,0,12.226,0,9.034
				C0,4.082,3.991,0,9.005,0c4.599,0,8.345,3.379,8.925,7.826L18,9.281C17.875,14.189,13.851,18.21,9.005,17.992L9.005,17.992z
				 M9.005,1.448c-4.216,0-7.555,3.427-7.555,7.58c0,4.16,3.339,7.58,7.555,7.58c4.214,0,7.553-3.352,7.553-7.58
				C16.558,4.798,13.142,1.448,9.005,1.448L9.005,1.448z"/>
			<path d="M7.11,12.911c-0.192,0-0.384-0.074-0.53-0.22L3.504,9.615c-0.293-0.293-0.293-0.768,0-1.061
				c0.293-0.293,0.768-0.293,1.061,0l2.572,2.572l5.728-5.168c0.307-0.278,0.78-0.254,1.059,0.054
				c0.278,0.308,0.253,0.782-0.054,1.059l-6.257,5.646C7.47,12.848,7.29,12.911,7.11,12.911z"/>
		</g>
	</g>
</g>
</svg>
