<?xml version="1.0" encoding="iso-8859-1"?>
<!-- Generator: Adobe Illustrator 16.0.0, SVG Export Plug-In . SVG Version: 6.00 Build 0)  -->
<!DOCTYPE svg PUBLIC "-//W3C//DTD SVG 1.1//EN" "http://www.w3.org/Graphics/SVG/1.1/DTD/svg11.dtd">
<svg version="1.1" id="Layer_1" xmlns="http://www.w3.org/2000/svg" xmlns:xlink="http://www.w3.org/1999/xlink" x="0px" y="0px"
	 width="16px" height="16px" viewBox="0 0 16 16" style="enable-background:new 0 0 16 16;" xml:space="preserve">
<path d="M8,16c-4.411,0-8-3.589-8-8s3.589-8,8-8s8,3.589,8,8S12.411,16,8,16z M8,1C4.14,1,1,4.14,1,8c0,3.859,3.14,7,7,7
	c3.859,0,7-3.141,7-7C15,4.14,11.859,1,8,1z"/>
<path d="M10.208,10.127c-0.144,0.118-0.31,0.26-0.496,0.425s-0.379,0.325-0.575,0.479c-0.195,0.154-0.389,0.287-0.58,0.396
	c-0.192,0.108-0.366,0.163-0.522,0.163c-0.135,0-0.224-0.058-0.268-0.173s-0.065-0.271-0.065-0.467c0-0.2,0.022-0.425,0.065-0.676
	S7.864,9.768,7.93,9.504s0.135-0.526,0.209-0.789c0.074-0.264,0.144-0.51,0.209-0.738c0.065-0.229,0.12-0.433,0.163-0.614
	s0.065-0.319,0.065-0.415c0-0.113-0.033-0.203-0.098-0.271C8.413,6.61,8.289,6.576,8.106,6.576c-0.1,0-0.212,0.012-0.336,0.036
	S7.526,6.673,7.411,6.723s-0.219,0.115-0.31,0.196S6.948,7.096,6.918,7.209C6.839,7.536,6.749,7.893,6.647,8.28
	C6.544,8.668,6.448,9.056,6.356,9.445s-0.169,0.766-0.232,1.129S6.03,11.257,6.03,11.531c0,0.195,0.021,0.375,0.062,0.539
	c0.041,0.162,0.11,0.301,0.206,0.414s0.221,0.201,0.375,0.264c0.155,0.063,0.345,0.096,0.571,0.096c0.252,0,0.519-0.047,0.8-0.138
	S8.6,12.5,8.87,12.363c0.27-0.137,0.521-0.287,0.753-0.45c0.233-0.163,0.428-0.317,0.585-0.46V10.127z M7.564,5.463
	c0.183,0.18,0.466,0.271,0.849,0.271c0.222,0,0.413-0.034,0.571-0.102s0.291-0.155,0.395-0.264S9.56,5.136,9.607,4.997
	S9.68,4.714,9.68,4.565c0-0.161-0.029-0.3-0.088-0.417C9.532,4.03,9.453,3.936,9.354,3.864C9.252,3.792,9.135,3.739,9,3.704
	C8.865,3.669,8.722,3.651,8.569,3.651c-0.244,0-0.447,0.039-0.61,0.115S7.666,3.936,7.567,4.047C7.47,4.158,7.398,4.276,7.355,4.402
	C7.312,4.529,7.29,4.642,7.29,4.742C7.29,5.042,7.381,5.283,7.564,5.463z"/>
</svg>
