<?xml version="1.0" encoding="utf-8"?>
<!-- Generator: Adobe Illustrator 16.0.0, SVG Export Plug-In . SVG Version: 6.00 Build 0)  -->
<!DOCTYPE svg PUBLIC "-//W3C//DTD SVG 1.1//EN" "http://www.w3.org/Graphics/SVG/1.1/DTD/svg11.dtd">
<svg version="1.1" id="Layer_1" xmlns="http://www.w3.org/2000/svg" xmlns:xlink="http://www.w3.org/1999/xlink" x="0px" y="0px"
	 width="32.27px" height="37.994px" viewBox="0 0 32.27 37.994" enable-background="new 0 0 32.27 37.994" xml:space="preserve">
<path d="M32.27,21.646v-1.325h-8.366v1.034h-0.896c-0.074,0.435-0.249,0.75-0.458,0.793v0.006h-4.697v-0.006
	c-0.28-0.053-0.5-0.596-0.5-1.26c0-0.665,0.22-1.208,0.5-1.261v-0.005h4.697v0.005c0.191,0.039,0.354,0.312,0.437,0.693h0.917
	v-3.423h-1.752v2.032h-4.413v-1.681H13.22v1.681h-1.618l0.312-4.22H18.5v-5.48h-0.552V8.514h5.898v1.928h-4.042v4.268h4.042v1.501
	h1.278v-3.875h-0.671V9.844h0.922V7.372l-7.938-6.011h-2.22V0H2.191v1.151L0.93,1.044c0,0-1.287,0.025-0.833,1.539L0.93,4.778
	c0,0,0,0.202,0.328,0.126l1.912,6.141v14.764l1.24,0.56v2.349h1.802v-1.535l1.01,0.456v3.173h1.802v-2.273
	c0.29,0.263,0.636,0.729,0.862,1.545l1.388,4.44L9.558,33.26c0,0-0.354-0.429-0.934-0.202c0,0-1.867,1.414,0.378,3.255l0.432,0.063
	v1.617h1.802v-1.352l0.843,0.125c0,0,0.674-0.151,0.479-1.279l10.487-1.104l3.855,0.373h1.258l0.365-0.27
	c0.432-0.667-0.091-1.136-0.091-1.136l-0.72-2.271h1.73v-4.048l-2.004,0.142v-5.529H32.27z M7.704,1.654h2.865l0.984,0.21v3.183
	h6.577l4.607,2.279H11.203l-0.989-0.959l-2.51-2.01V1.654z M4.111,1.464V1.48L4.09,1.463L4.111,1.464z M1.779,4.172
	c0-0.727,0.424-1.315,0.946-1.315c0.522,0,0.946,0.589,0.946,1.315S3.247,5.487,2.725,5.487C2.203,5.487,1.779,4.898,1.779,4.172z
	 M3.941,9.869c-0.399,0.078-0.81-0.308-0.918-0.863C2.915,8.451,3.15,7.938,3.549,7.86s0.81,0.308,0.918,0.863
	S4.341,9.791,3.941,9.869z M11.86,32.96C9.893,26.059,4.058,5.635,4.058,5.635L4.31,5.282l0.076-0.429l6.509,3.845l-0.723,11.339
	l2.993,12.786L11.86,32.96z M13.64,23.062h8.512h1.121h0.631v4.267l-2.514-0.837l-2.963,1.711l-4.787-0.752V23.062z M22.028,31.151
	l-5.41,0.604l3.441-1.982l1.969,0.35V31.151z M22.641,30.217h3.55l0.892,3.478L22.641,30.217z"/>
</svg>
