<?xml version="1.0" encoding="utf-8"?>
<!-- Generator: Adobe Illustrator 16.0.0, SVG Export Plug-In . SVG Version: 6.00 Build 0)  -->
<!DOCTYPE svg PUBLIC "-//W3C//DTD SVG 1.1//EN" "http://www.w3.org/Graphics/SVG/1.1/DTD/svg11.dtd">
<svg version="1.1" id="Layer_1" xmlns="http://www.w3.org/2000/svg" xmlns:xlink="http://www.w3.org/1999/xlink" x="0px" y="0px"
	  viewBox="0 0 13 18" enable-background="new 0 0 13 18" xml:space="preserve">
<path fill-rule="evenodd" clip-rule="evenodd" fill="#C4C8CC" d="M6.5,18C6.5,18,0,10.16,0,6.546C0,2.931,2.91,0,6.5,0
	S13,2.931,13,6.546C13,10.16,6.5,18,6.5,18z M6.5,1.169c-3.003,0-5.438,2.452-5.438,5.476c0,3.024,5.438,9.778,5.438,9.778
	s5.438-6.754,5.438-9.778C11.938,3.621,9.503,1.169,6.5,1.169z M6.5,9.206c-1.675,0-3.033-1.314-3.033-2.935
	c0-1.621,1.358-2.935,3.033-2.935c1.676,0,3.033,1.314,3.033,2.935C9.533,7.892,8.176,9.206,6.5,9.206z M6.5,4.371
	c-1.084,0-1.964,0.851-1.964,1.9s0.879,1.9,1.964,1.9c1.085,0,1.964-0.851,1.964-1.9S7.585,4.371,6.5,4.371z"/>
</svg>
