<?xml version="1.0" encoding="utf-8"?>
<!-- Generator: Adobe Illustrator 16.0.0, SVG Export Plug-In . SVG Version: 6.00 Build 0)  -->
<!DOCTYPE svg PUBLIC "-//W3C//DTD SVG 1.1//EN" "http://www.w3.org/Graphics/SVG/1.1/DTD/svg11.dtd">
<svg version="1.1" id="Layer_1" xmlns="http://www.w3.org/2000/svg" xmlns:xlink="http://www.w3.org/1999/xlink" x="0px" y="0px"
	  viewBox="0 0 49 49" enable-background="new 0 0 49 49" xml:space="preserve">
<g>
	<g>
		<path fill-rule="evenodd" clip-rule="evenodd" d="M25.248,22.062l-1.932,2.768h3.863L25.248,22.062z M18.477,22.062l-1.932,2.768
			h3.863L18.477,22.062z M32.777,17.553h-2.54l-0.355,7.277h3.298L32.777,17.553z M24.5,0C10.969,0,0,10.969,0,24.5
			C0,38.031,10.969,49,24.5,49S49,38.031,49,24.5C49,10.969,38.031,0,24.5,0z M26.584,12h4.647c0.483,0,0.878,0.395,0.878,0.88
			c0,0.484-0.395,0.88-0.878,0.88h-4.647c-0.483,0-0.878-0.396-0.878-0.88C25.706,12.395,26.101,12,26.584,12z M35,32.15
			C34.957,32.597,34.555,33,34.066,33H14.909c-0.488,0-0.891-0.403-0.891-0.893v-6.2c-0.047-0.224-0.005-0.468,0.133-0.674
			l3.605-5.179c0.416-0.537,1.105-0.42,1.427,0l2.686,3.819l2.664-3.819c0.368-0.438,0.984-0.51,1.426,0l2.27,3.227l0.36-6.664
			c0.042-0.446,0.402-0.85,0.891-0.85h4.188c0.445,0,0.848,0.36,0.891,0.85L35,25.723V32.15z M15.757,31.258h17.466v-4.686H15.757
			V31.258z"/>
	</g>
</g>
</svg>
