<?xml version="1.0" encoding="utf-8"?>
<!-- Generator: Adobe Illustrator 16.0.0, SVG Export Plug-In . SVG Version: 6.00 Build 0)  -->
<!DOCTYPE svg PUBLIC "-//W3C//DTD SVG 1.1//EN" "http://www.w3.org/Graphics/SVG/1.1/DTD/svg11.dtd">
<svg version="1.1" id="Layer_1" xmlns="http://www.w3.org/2000/svg" xmlns:xlink="http://www.w3.org/1999/xlink" x="0px" y="0px"
	 width="27.457px" height="43.883px" viewBox="0 0 27.457 43.883" enable-background="new 0 0 27.457 43.883" xml:space="preserve">
<g>
	<g>
		<path fill-rule="evenodd" clip-rule="evenodd" fill="#003946" d="M25.682,20.515l-0.024-0.01c1.14-2,1.799-4.31,1.799-6.777
			C27.457,6.146,21.31,0,13.728,0C6.146,0,0,6.146,0,13.728c0,2.841,0.863,5.479,2.341,7.67c0.015,0.04,0.024,0.08,0.05,0.12
			c1.842,2.808,3.514,5.704,5.069,7.793c4.838,6.498,6.306,14.572,6.306,14.572c1.296-6.981,2.707-9.244,6.144-14.547
			c2.637-4.068,4.197-6.446,5.019-7.689c0.145-0.203,0.28-0.412,0.413-0.623C25.575,20.674,25.682,20.515,25.682,20.515z"/>
	</g>
</g>
<path fill-rule="evenodd" clip-rule="evenodd" fill="inherit" d="M13.729,7.062c3.682,0,6.667,2.985,6.667,6.667
	s-2.984,6.666-6.667,6.666c-3.683,0-6.667-2.984-6.667-6.666S10.046,7.062,13.729,7.062z"/>
</svg>
