<?xml version="1.0" encoding="utf-8"?>
<!-- Generator: Adobe Illustrator 16.0.0, SVG Export Plug-In . SVG Version: 6.00 Build 0)  -->
<!DOCTYPE svg PUBLIC "-//W3C//DTD SVG 1.1//EN" "http://www.w3.org/Graphics/SVG/1.1/DTD/svg11.dtd">
<svg version="1.1" id="Layer_1" xmlns="http://www.w3.org/2000/svg" xmlns:xlink="http://www.w3.org/1999/xlink" x="0px" y="0px"
	 width="18.467px" height="19.062px" viewBox="0 0 18.467 19.062" enable-background="new 0 0 18.467 19.062" xml:space="preserve">
<path fill-rule="evenodd" clip-rule="evenodd" fill="#41464B" d="M16.084,15.488h-4.17v2.383h1.191c0.329,0,0.596,0.267,0.596,0.596
	s-0.267,0.596-0.596,0.596H5.957c-0.329,0-0.596-0.267-0.596-0.596s0.267-0.596,0.596-0.596h1.191v-2.383H2.383
	C1.067,15.488,0,14.421,0,13.105V2.383C0,1.067,1.067,0,2.383,0h13.701c1.316,0,2.383,1.067,2.383,2.383v10.723
	C18.467,14.421,17.4,15.488,16.084,15.488z M10.723,17.871v-2.383H8.34v2.383H10.723z M17.275,2.383
	c0-0.658-0.533-1.191-1.191-1.191H2.383c-0.658,0-1.191,0.533-1.191,1.191v8.34h16.084V2.383z M17.275,11.914H1.191v1.191
	c0,0.658,0.533,1.191,1.191,1.191h13.701c0.658,0,1.191-0.533,1.191-1.191V11.914z"/>
</svg>
