<?xml version="1.0" encoding="utf-8"?>
<!-- Generator: Adobe Illustrator 16.0.0, SVG Export Plug-In . SVG Version: 6.00 Build 0)  -->
<!DOCTYPE svg PUBLIC "-//W3C//DTD SVG 1.1//EN" "http://www.w3.org/Graphics/SVG/1.1/DTD/svg11.dtd">
<svg version="1.1" id="Layer_1" xmlns="http://www.w3.org/2000/svg" xmlns:xlink="http://www.w3.org/1999/xlink" x="0px" y="0px"
	 viewBox="0 0 49 49" enable-background="new 0 0 49 49" xml:space="preserve">
<g>
	<g>
		<path fill-rule="evenodd" clip-rule="evenodd" d="M24.5,0C10.969,0,0,10.969,0,24.5C0,38.031,10.969,49,24.5,49S49,38.031,49,24.5
			C49,10.969,38.031,0,24.5,0z M33.963,36c-1.125,0-2.037-0.929-2.037-2.072c0-0.546,0.211-1.037,0.549-1.408l-1.592-3.703
			l-3.137,3.928c0.23,0.336,0.368,0.742,0.368,1.184c0,1.145-0.912,2.072-2.037,2.072c-1.125,0-2.037-0.929-2.037-2.072
			c0-0.53,0.201-1.008,0.522-1.374l-6.656-14.309l-1.109,2.621c0.172,0.304,0.278,0.651,0.278,1.026
			c0,1.145-0.913,2.073-2.038,2.073S13,23.037,13,21.893s0.912-2.072,2.037-2.072c0.02,0,0.037,0.005,0.056,0.006l1.363-3.204
			c-0.423-0.379-0.696-0.93-0.696-1.549c0-1.145,0.912-2.072,2.037-2.072s2.037,0.928,2.037,2.072c0,0.558-0.219,1.062-0.571,1.435
			l6.97,14.967l3.247-4.073c-0.197-0.317-0.314-0.692-0.314-1.096c0-1.145,0.912-2.073,2.037-2.073s2.037,0.928,2.037,2.073
			c0,0.593-0.248,1.124-0.641,1.502l1.758,4.087C35.294,32.082,36,32.92,36,33.928C36,35.072,35.088,36,33.963,36z"/>
	</g>
</g>
</svg>
