<?xml version="1.0" encoding="utf-8"?>
<!-- Generator: Adobe Illustrator 16.0.0, SVG Export Plug-In . SVG Version: 6.00 Build 0)  -->
<!DOCTYPE svg PUBLIC "-//W3C//DTD SVG 1.1//EN" "http://www.w3.org/Graphics/SVG/1.1/DTD/svg11.dtd">
<svg version="1.1" id="Layer_1" xmlns="http://www.w3.org/2000/svg" xmlns:xlink="http://www.w3.org/1999/xlink" x="0px" y="0px"
	 viewBox="0 0 76 76" enable-background="new 0 0 76 76" xml:space="preserve">
<g>
	<g>
		<path fill-rule="evenodd" clip-rule="evenodd" fill="inherit" d="M38,0C17.013,0,0,17.014,0,38c0,20.987,17.013,38,38,38
			c20.986,0,38-17.013,38-38C76,17.014,58.986,0,38,0z M21.792,27.126h1.5l1.961-2.03h2.193l2.856-3.383h2.683l1.818,2.707h2.077
			l0.722,1.705l-1.93,3.345h-15.51L21.792,27.126z M25.586,51.185c-2.677,0-4.847-2.12-4.847-4.735c0-2.616,2.17-4.736,4.847-4.736
			s4.847,2.12,4.847,4.736C30.433,49.064,28.263,51.185,25.586,51.185z M37.225,44.979h-4.653
			c-1.515-5.371-13.959-7.755-13.959-7.755v-4.653h-1.551v-1.551h20.164l1.994-4.571h15.579l-2.063,3.021H40.326v10.856
			C37.644,41.257,37.225,44.979,37.225,44.979z M43.59,51.185c-2.678,0-4.847-2.12-4.847-4.735c0-2.616,2.169-4.736,4.847-4.736
			c2.178,0,4.019,1.403,4.631,3.334c0.121,0.385,0.188,0.792,0.205,1.213c0.003,0.063,0.01,0.125,0.01,0.189
			C48.436,49.064,46.268,51.185,43.59,51.185z M43.429,40.326c-1.335,0-1.552,0-1.552,0v-9.306h10.857l2.41,3.886v7.104h-4.848
			c-0.589,0-1.119,0.244-1.497,0.63C48.076,41.536,46.405,40.326,43.429,40.326z M55.837,45.394c0,0.373-0.312,0.288-0.692,0.288
			h-4.848c-0.382,0-0.691,0.085-0.691-0.288V44.04c0-0.058,0.02-0.109,0.033-0.163c0.076-0.293,0.336-0.514,0.658-0.514h4.848
			c0.381,0,0.692,0.304,0.692,0.677V45.394z M53.066,34.695l-1.385-2.157h-4.154v5.413h5.539V34.695z"/>
	</g>
</g>
</svg>
