<?xml version="1.0" encoding="utf-8"?>
<svg xmlns="http://www.w3.org/2000/svg"
	xmlns:xlink="http://www.w3.org/1999/xlink"
	width="22px" height="22px" viewBox="0 0 22 22">
<path fillRule="evenodd" d="M 2.29 18.95C 2.29 18.95 1.48 18.95 1.48 18.95 1.08 18.95 0.75 18.38 0.75 17.97 0.75 17.57 1.08 16.99 1.48 16.99 1.48 16.99 2.29 16.99 2.29 16.99 2.63 15.32 4.11 14.06 5.88 14.06 7.65 14.06 9.13 15.32 9.47 16.99 9.47 16.99 20.54 16.99 20.54 16.99 20.94 16.99 21.27 17.57 21.27 17.97 21.27 18.38 20.94 18.95 20.54 18.95 20.54 18.95 9.47 18.95 9.47 18.95 9.13 20.63 7.65 21.89 5.88 21.89 4.11 21.89 2.63 20.63 2.29 18.95ZM 8.08 17.97C 8.08 16.76 7.09 15.77 5.88 15.77 4.67 15.77 3.68 16.76 3.68 17.97 3.68 19.19 4.67 20.17 5.88 20.17 7.09 20.17 8.08 19.19 8.08 17.97ZM 12.55 12C 12.55 12 1.48 12 1.48 12 1.08 12 0.75 11.42 0.75 11.02 0.75 10.61 1.08 10.04 1.48 10.04 1.48 10.04 12.55 10.04 12.55 10.04 12.89 8.36 14.37 7.1 16.14 7.1 17.91 7.1 19.39 8.36 19.73 10.04 19.73 10.04 20.54 10.04 20.54 10.04 20.94 10.04 21.27 10.61 21.27 11.02 21.27 11.42 20.94 12 20.54 12 20.54 12 19.73 12 19.73 12 19.39 13.67 17.91 14.93 16.14 14.93 14.37 14.93 12.89 13.67 12.55 12ZM 18.34 11.08C 18.34 9.87 17.35 8.82 16.14 8.82 14.92 8.82 13.94 9.87 13.94 11.08 13.94 12.3 14.92 13.22 16.14 13.22 17.35 13.22 18.34 12.3 18.34 11.08ZM 5.22 4.86C 5.22 4.86 1.48 4.86 1.48 4.86 1.08 4.86 0.75 4.41 0.75 4 0.75 3.6 1.08 3.08 1.48 3.08 1.48 3.08 5.22 3.08 5.22 3.08 5.56 1.41 7.04 0.15 8.81 0.15 10.58 0.15 12.06 1.41 12.4 3.08 12.4 3.08 20.54 3.08 20.54 3.08 20.94 3.08 21.27 3.6 21.27 4 21.27 4.41 20.94 4.86 20.54 4.86 20.54 4.86 12.4 4.86 12.4 4.86 12.06 6.53 10.58 7.79 8.81 7.79 7.04 7.79 5.56 6.53 5.22 4.86ZM 11.01 4.13C 11.01 2.91 10.02 1.87 8.81 1.87 7.6 1.87 6.61 2.91 6.61 4.13 6.61 5.34 7.6 6.26 8.81 6.26 10.02 6.26 11.01 5.34 11.01 4.13Z" fill="inherit" opacity="0.60"/></svg>