<?xml version="1.0" encoding="utf-8"?>
<!-- Generator: Adobe Illustrator 16.0.0, SVG Export Plug-In . SVG Version: 6.00 Build 0)  -->
<!DOCTYPE svg PUBLIC "-//W3C//DTD SVG 1.1//EN" "http://www.w3.org/Graphics/SVG/1.1/DTD/svg11.dtd">
<svg version="1.1" id="Layer_1" xmlns="http://www.w3.org/2000/svg" xmlns:xlink="http://www.w3.org/1999/xlink" x="0px" y="0px"
	  viewBox="0 0 8.786 9.988" enable-background="new 0 0 8.786 9.988" xml:space="preserve">
<path d="M4.01,8.02C1.799,8.02,0,6.221,0,4.01S1.799,0,4.01,0s4.01,1.799,4.01,4.01S6.221,8.02,4.01,8.02z M4.01,0.959
	c-1.682,0-3.05,1.369-3.05,3.05s1.369,3.05,3.05,3.05s3.05-1.369,3.05-3.05S5.691,0.959,4.01,0.959z"/>
<path d="M8.326,9.988C8.174,9.996,8.022,9.933,7.92,9.806L5.834,7.184C5.668,6.973,5.703,6.668,5.913,6.5
	c0.21-0.166,0.515-0.131,0.683,0.078L8.68,9.201c0.167,0.21,0.132,0.516-0.078,0.683C8.52,9.948,8.422,9.983,8.326,9.988z"/>
</svg>
