<?xml version="1.0" encoding="utf-8"?>
<!-- Generator: Adobe Illustrator 16.0.0, SVG Export Plug-In . SVG Version: 6.00 Build 0)  -->
<!DOCTYPE svg PUBLIC "-//W3C//DTD SVG 1.1//EN" "http://www.w3.org/Graphics/SVG/1.1/DTD/svg11.dtd">
<svg version="1.1" id="Layer_1" xmlns="http://www.w3.org/2000/svg" xmlns:xlink="http://www.w3.org/1999/xlink" x="0px" y="0px"
	 width="18.002px" height="15.001px" viewBox="0 0 18.002 15.001" enable-background="new 0 0 18.002 15.001" xml:space="preserve">
<g>
	<g>
		<path fill-rule="evenodd" clip-rule="evenodd" d="M1.5,5.004c-0.191,0-0.354,0.026-0.5,0.067V2.004H0v11h1V9.938
			c0.146,0.04,0.309,0.066,0.5,0.066c1.381,0,2.5-1.119,2.5-2.5S2.881,5.004,1.5,5.004z M7.349,4.323L5.998,5.361
			c0.688,0.48,1.137,1.264,1.137,2.148c0,0.803-0.369,1.522-0.953,2.007l1.131,1.207C8.234,9.94,8.865,8.79,8.865,7.508
			C8.865,6.243,8.249,5.106,7.349,4.323z M9.766,3.13c1.175,1.11,1.905,2.661,1.905,4.377c0,1.684-0.702,3.207-1.837,4.312
			l1.36,1.065c1.373-1.399,2.217-3.292,2.217-5.377c0-2.122-0.875-4.047-2.294-5.453L9.766,3.13z M15.071,0l-1.396,1.085
			c1.597,1.692,2.57,3.947,2.57,6.422c0,2.479-0.977,4.736-2.577,6.43l1.416,1.064c1.817-1.992,2.918-4.617,2.918-7.494
			C18.002,4.624,16.896,1.993,15.071,0z"/>
	</g>
</g>
</svg>
