<?xml version="1.0" encoding="utf-8"?>
<svg xmlns="http://www.w3.org/2000/svg"
	xmlns:xlink="http://www.w3.org/1999/xlink"
	width="21px" height="20px" viewBox="0 0 21 20">
<clipPath id="clip0"><path fillRule="evenodd" d="M-1.19 22C-1.19 22-1.19-2.03-1.19-2.03-1.19-2.03 22.53-2.03 22.53-2.03 22.53-2.03 22.53 22 22.53 22 22.53 22-1.19 22-1.19 22ZM 20.46 8.68C 19.83 3.73 15.72-0.03 10.69-0.03 5.19-0.03 0.82 4.52 0.82 10.03 0.82 13.58 2.63 16.68 5.39 18.45 5.28 18.37 7.46 19.84 10.69 19.99 16 20.23 20.4 15.76 20.54 10.3 20.54 10.3 20.46 8.68 20.46 8.68ZM 10.69 18.45C 6.07 18.45 2.41 14.64 2.41 10.02 2.41 5.4 6.07 1.58 10.69 1.58 15.22 1.58 18.96 5.31 18.96 10.02 18.96 14.72 15.3 18.45 10.69 18.45ZM 14.18 5.75C 14.18 5.75 9.08 11.73 9.08 11.73 9.08 11.73 6.54 9.31 6.54 9.31 6.54 9.31 5.2 10.59 5.2 10.59 5.2 10.59 8.63 13.91 8.63 13.91 8.63 13.91 8.64 13.9 8.64 13.9 8.64 13.9 9.2 14.44 9.2 14.44 9.2 14.44 15.3 6.9 15.3 6.9 15.3 6.9 14.18 5.75 14.18 5.75Z"/></clipPath><defs>
<symbol id="symbol0"><path fillRule="evenodd" d="M 10.69 19.99C 7.46 19.84 5.28 18.37 5.39 18.45 2.63 16.68 0.82 13.58 0.82 10.03 0.82 4.52 5.19-0.03 10.69-0.03 15.72-0.03 19.83 3.73 20.46 8.68 20.46 8.68 20.54 10.3 20.54 10.3 20.4 15.76 16 20.23 10.69 19.99ZM 10.69 1.58C 6.07 1.58 2.41 5.4 2.41 10.02 2.41 14.64 6.07 18.45 10.69 18.45 15.3 18.45 18.96 14.72 18.96 10.02 18.96 5.31 15.22 1.58 10.69 1.58ZM 8.64 13.9C 8.64 13.9 8.63 13.91 8.63 13.91 8.63 13.91 5.2 10.59 5.2 10.59 5.2 10.59 6.54 9.31 6.54 9.31 6.54 9.31 9.08 11.73 9.08 11.73 9.08 11.73 14.18 5.75 14.18 5.75 14.18 5.75 15.3 6.9 15.3 6.9 15.3 6.9 9.2 14.44 9.2 14.44 9.2 14.44 8.64 13.9 8.64 13.9Z"/></symbol></defs>
<g><use xlink:href="#symbol0" x="0" y="0" width="21" height="20" fill="rgb(0,57,69)"/><use xlink:href="#symbol0" x="0" y="0" width="21" height="20" fill="none" stroke="rgb(0,57,69)" stroke-width="1.00px" clip-path="url(#clip0)"/></g></svg>