<?xml version="1.0" encoding="utf-8"?>
<!-- Generator: Adobe Illustrator 16.0.0, SVG Export Plug-In . SVG Version: 6.00 Build 0)  -->
<!DOCTYPE svg PUBLIC "-//W3C//DTD SVG 1.1//EN" "http://www.w3.org/Graphics/SVG/1.1/DTD/svg11.dtd">
<svg version="1.1" id="Layer_1" xmlns="http://www.w3.org/2000/svg" xmlns:xlink="http://www.w3.org/1999/xlink" x="0px" y="0px"
	 viewBox="0 0 36 20.996" enable-background="new 0 0 36 20.996" xml:space="preserve">
<g>
	<g>
		<g>
			<path id="SVGID_1_" fill="inherit" d="M35.428,15.997H0.575C0.258,15.997,0,15.739,0,15.422c0-0.314,0.258-0.572,0.575-0.572
				h1.296l1.354-3.238c0.059-0.145,0.175-0.256,0.32-0.312c0.145-0.059,0.306-0.053,0.447,0.014l0.753,0.345l1.774-4.473
				c0.087-0.217,0.295-0.36,0.529-0.362l2.051-0.017l-0.03-2.412c0.121-0.237,0.388-0.36,0.646-0.298l1.456,0.354l0.5-1.69
				c0.167-0.199,3.016-2.863,3.252-2.754l1.836,0.857l-0.711,0.893c0.276-0.151,0.624-0.05,0.776,0.227l4.164,0.799h1.16
				c0.233,0,0.442,0.14,0.528,0.354l2.355,5.732h1.715c0.244,0,0.463,0.156,0.543,0.386l6.867,5.599h1.27
				c0.316,0,0.572,0.258,0.572,0.571C36,15.739,35.745,15.997,35.428,15.997L35.428,15.997z M30.217,14.85l-0.676-1.418
				l-1.008,0.201l-0.607,1.217H30.217L30.217,14.85z M10.146,14.85l-0.86-1.438L7.777,13.65L7.029,14.85H10.146L10.146,14.85z
				 M26.338,10.011h-0.877l0.445,1.244c0.105,0.3-0.049,0.627-0.348,0.731c-0.062,0.021-0.129,0.033-0.191,0.033
				c-0.236,0-0.457-0.146-0.541-0.379l-3.062-7.718h-3.621c-0.316,0-0.573-0.256-0.573-0.573c0-0.18,0.088-0.335,0.219-0.439
				l-1.695,0.12l-1.026-0.004c-0.101,0.051-0.211,0.07-0.316,0.061c-0.188-0.019-0.363,0.521-0.455,0.341
				c-0.146-0.281-0.034-0.627,0.247-0.771l0.933-1.13l-0.641-0.3l-2.43,3.531l1.16,0.297c0.306,0.079,0.491,0.391,0.413,0.698
				c-0.067,0.259-0.3,0.43-0.556,0.43c-0.047,0-0.095-0.005-0.143-0.017l-3.393-0.85L8.51,10.734
				c-0.096,0.208-0.303,0.329-0.519,0.329c-0.082,0-0.165-0.018-0.244-0.055c-0.286-0.133-0.41-0.475-0.275-0.762l1.074-2.29
				L7.442,7.965l-1.854,4.676c-0.059,0.146-0.174,0.26-0.32,0.318c-0.146,0.061-0.309,0.055-0.452-0.01L4.053,12.6l-0.939,2.25
				h2.564l1.264-2.024c0.088-0.144,0.233-0.236,0.396-0.265l2.15-0.346c0.231-0.035,0.462,0.072,0.583,0.273l1.41,2.359h0.427
				h13.767h0.974l0.985-1.979c0.08-0.16,0.228-0.271,0.4-0.308l1.407-0.281L26.338,10.011L26.338,10.011z M30.706,13.208
				l0.782,1.642h1.457L30.706,13.208L30.706,13.208z M23.702,15.334h-0.474l-0.265-0.484h2.709L23.702,15.334L23.702,15.334z
				 M21.482,14.85l-0.692-1.285l-1.677,0.297l-0.559,0.988h-1.501l1.131-2.008c0.1-0.174,0.258-0.293,0.441-0.322l2.389-0.424
				c0.256-0.047,0.514,0.086,0.648,0.336l1.303,2.418H21.482L21.482,14.85z M21.745,15.334h-3.463l0.272-0.484h2.928L21.745,15.334
				L21.745,15.334z M3.114,14.85h13.939l-0.273,0.484L3.114,14.85L3.114,14.85z"/>
		</g>
		<g>
			<g>
				<defs>
					<path id="SVGID_2_" d="M35.428,15.997H0.575C0.258,15.997,0,15.739,0,15.422c0-0.314,0.258-0.572,0.575-0.572h1.296
						l1.354-3.238c0.059-0.145,0.175-0.256,0.32-0.312c0.145-0.059,0.306-0.053,0.447,0.014l0.753,0.345l1.774-4.473
						c0.087-0.217,0.295-0.36,0.529-0.362l2.051-0.017l-0.03-2.412c0.121-0.237,0.388-0.36,0.646-0.298l1.456,0.354l0.5-1.69
						c0.167-0.199,3.016-2.863,3.252-2.754l1.836,0.857l-0.711,0.893c0.276-0.151,0.624-0.05,0.776,0.227l4.164,0.799h1.16
						c0.233,0,0.442,0.14,0.528,0.354l2.355,5.732h1.715c0.244,0,0.463,0.156,0.543,0.386l6.867,5.599h1.27
						c0.316,0,0.572,0.258,0.572,0.571C36,15.739,35.745,15.997,35.428,15.997L35.428,15.997z M30.217,14.85l-0.676-1.418
						l-1.008,0.201l-0.607,1.217H30.217L30.217,14.85z M10.146,14.85l-0.86-1.438L7.777,13.65L7.029,14.85H10.146L10.146,14.85z
						 M26.338,10.011h-0.877l0.445,1.244c0.105,0.3-0.049,0.627-0.348,0.731c-0.062,0.021-0.129,0.033-0.191,0.033
						c-0.236,0-0.457-0.146-0.541-0.379l-3.062-7.718h-3.621c-0.316,0-0.573-0.256-0.573-0.573c0-0.18,0.088-0.335,0.219-0.439
						l-1.695,0.12l-1.026-0.004c-0.101,0.051-0.211,0.07-0.316,0.061c-0.188-0.019-0.363,0.521-0.455,0.341
						c-0.146-0.281-0.034-0.627,0.247-0.771l0.933-1.13l-0.641-0.3l-2.43,3.531l1.16,0.297c0.306,0.079,0.491,0.391,0.413,0.698
						c-0.067,0.259-0.3,0.43-0.556,0.43c-0.047,0-0.095-0.005-0.143-0.017l-3.393-0.85L8.51,10.734
						c-0.096,0.208-0.303,0.329-0.519,0.329c-0.082,0-0.165-0.018-0.244-0.055c-0.286-0.133-0.41-0.475-0.275-0.762l1.074-2.29
						L7.442,7.965l-1.854,4.676c-0.059,0.146-0.174,0.26-0.32,0.318c-0.146,0.061-0.309,0.055-0.452-0.01L4.053,12.6l-0.939,2.25
						h2.564l1.264-2.024c0.088-0.144,0.233-0.236,0.396-0.265l2.15-0.346c0.231-0.035,0.462,0.072,0.583,0.273l1.41,2.359h0.427
						h13.767h0.974l0.985-1.979c0.08-0.16,0.228-0.271,0.4-0.308l1.407-0.281L26.338,10.011L26.338,10.011z M30.706,13.208
						l0.782,1.642h1.457L30.706,13.208L30.706,13.208z M23.702,15.334h-0.474l-0.265-0.484h2.709L23.702,15.334L23.702,15.334z
						 M21.482,14.85l-0.692-1.285l-1.677,0.297l-0.559,0.988h-1.501l1.131-2.008c0.1-0.174,0.258-0.293,0.441-0.322l2.389-0.424
						c0.256-0.047,0.514,0.086,0.648,0.336l1.303,2.418H21.482L21.482,14.85z M21.745,15.334h-3.463l0.272-0.484h2.928
						L21.745,15.334L21.745,15.334z M3.114,14.85h13.939l-0.273,0.484L3.114,14.85L3.114,14.85z"/>
				</defs>
				<clipPath id="SVGID_4_">
					<use xlink:href="#SVGID_2_"  overflow="visible"/>
				</clipPath>
				<g clip-path="url(#SVGID_4_)">
				</g>
			</g>
		</g>
	</g>
	<g>
		<g>
			<path id="SVGID_3_" d="M8,16.997c0,0-7.424,1.485-7,4"/>
		</g>
	</g>
	<g>
		<g>
			<polyline id="SVGID_5_" fill="inherit" points="9,18.997 9,17.997 24,17.997 24,18.997 9,18.997 			"/>
		</g>
	</g>
	<g>
		<g>
			<polyline id="SVGID_7_" fill="inherit" points="15,20.997 15,19.997 30,19.997 30,20.997 15,20.997 			"/>
		</g>
	</g>
</g>
</svg>
