<?xml version="1.0" encoding="utf-8"?>
<!-- Generator: Adobe Illustrator 16.0.0, SVG Export Plug-In . SVG Version: 6.00 Build 0)  -->
<!DOCTYPE svg PUBLIC "-//W3C//DTD SVG 1.1//EN" "http://www.w3.org/Graphics/SVG/1.1/DTD/svg11.dtd">
<svg version="1.1" id="Layer_1" xmlns="http://www.w3.org/2000/svg" xmlns:xlink="http://www.w3.org/1999/xlink" x="0px" y="0px"
	 viewBox="5.499 2.102 39.001 24.898" enable-background="new 5.499 2.102 39.001 24.898"
	 xml:space="preserve">
<g>
	<g>
		<path fill-rule="evenodd" clip-rule="evenodd" d="M43.867,16.222c-0.014,0-0.027,0.001-0.042,0.002v-2.349
			c0-0.896-0.441-1.728-1.183-2.225l-0.982-0.66l-1.389-2.796c-0.453-0.912-1.363-1.478-2.375-1.478h-6.843
			c-0.35,0-0.633,0.285-0.633,0.637v8.827c0,0.006,0.001,0.012,0.001,0.018c-0.318,0.425-0.587,0.889-0.8,1.383h-0.634v-1.727
			c-0.131,0.986,0.363,0.898-1.265,0.699v1.027h-5.139c-0.487,0-0.967-0.168-1.351-0.471l-1.027-0.811
			c-0.679,0.013-1.408,0.033-2.197,0.062c0.999,0.993,1.62,2.371,1.62,3.893c0,3.019-2.439,5.474-5.438,5.474
			c-2.999,0-5.438-2.455-5.438-5.474c0-1.216,0.401-2.337,1.069-3.247c-0.475-0.029-0.938-0.1-1.377-0.209
			C7.844,17.81,7.49,18.989,7.49,20.253c0,3.72,3.006,6.747,6.702,6.747c3.006,0,5.556-2.003,6.403-4.753h8.775
			C30.218,24.997,32.769,27,35.774,27c3.695,0,6.702-3.027,6.702-6.747c0-0.015-0.001-0.028-0.001-0.042h0.043
			c1.093,0,1.981-0.896,1.981-1.995v-1.358C44.5,16.507,44.217,16.222,43.867,16.222z M29.111,20.975h-8.256
			c0.025-0.237,0.039-0.479,0.039-0.722c0-0.714-0.111-1.402-0.316-2.049c0.582,0.419,1.289,0.648,2.007,0.648h6.634
			c-0.096,0.452-0.146,0.92-0.146,1.4C29.072,20.496,29.086,20.737,29.111,20.975z M31.686,7.989h6.211
			C39.267,7.989,39.5,10,39.5,10h-5v1h5l2.441,1.709c0.388,0.261,0.619,0.696,0.619,1.166v2.347H41.17
			c-0.008,0-0.016,0.001-0.023,0.001c-1.224-1.648-3.176-2.717-5.372-2.717c-1.538,0-2.956,0.525-4.089,1.406V7.989z M35.774,25.727
			c-2.998,0-5.438-2.455-5.438-5.474s2.439-5.474,5.438-5.474s5.438,2.455,5.438,5.474S38.772,25.727,35.774,25.727z M43.235,18.216
			c0,0.397-0.321,0.722-0.717,0.722h-0.171c-0.099-0.504-0.255-0.986-0.459-1.443h1.305c0.014,0,0.028-0.001,0.042-0.002V18.216z
			 M35.774,16.9c-1.836,0-3.33,1.504-3.33,3.353s1.494,3.353,3.33,3.353s3.33-1.504,3.33-3.353S37.61,16.9,35.774,16.9z
			 M35.774,22.332c-1.139,0-2.065-0.933-2.065-2.079s0.927-2.079,2.065-2.079s2.065,0.933,2.065,2.079S36.913,22.332,35.774,22.332z
			 M14.192,23.605c1.836,0,3.33-1.504,3.33-3.353s-1.494-3.353-3.33-3.353c-1.837,0-3.33,1.504-3.33,3.353
			S12.355,23.605,14.192,23.605z M14.192,18.174c1.139,0,2.065,0.933,2.065,2.079s-0.927,2.079-2.065,2.079
			s-2.065-0.933-2.065-2.079S13.054,18.174,14.192,18.174z"/>
	</g>
</g>
<g>
	<rect x="10.132" y="12.262" width="1.6" height="1.777"/>
	<rect x="24.688" y="12.262" width="1.6" height="1.777"/>
	<path d="M9.056,14.301c-0.047-0.379-0.079-0.762-0.079-1.154c0-5.074,4.082-9.264,9.233-9.264c5.057,0,9.232,4.096,9.232,9.264
		c0,0.393-0.031,0.775-0.077,1.154h1.776c0.028-0.279,0.057-0.561,0.063-0.846l-0.085-1.776c-0.71-5.436-5.288-9.565-10.91-9.565
		c-6.127,0-11.005,4.989-11.005,11.042c0,0.389,0.035,0.768,0.074,1.145H9.056z"/>
	<rect x="17.319" y="5.05" width="1.771" height="1.605"/>
	<polygon points="20.205,14.113 21.205,7.114 20.205,7.114 17.205,14.113 	"/>
</g>
<rect x="5.5" y="15.812" width="25.375" height="1.188"/>
</svg>
