<?xml version="1.0" encoding="UTF-8" standalone="no"?>
<!-- Created with Inkscape (http://www.inkscape.org/) -->

<svg
   xmlns:dc="http://purl.org/dc/elements/1.1/"
   xmlns:cc="http://creativecommons.org/ns#"
   xmlns:rdf="http://www.w3.org/1999/02/22-rdf-syntax-ns#"
   xmlns:svg="http://www.w3.org/2000/svg"
   xmlns="http://www.w3.org/2000/svg"
   xmlns:sodipodi="http://sodipodi.sourceforge.net/DTD/sodipodi-0.dtd"
   xmlns:inkscape="http://www.inkscape.org/namespaces/inkscape"
   width="75"
   height="45"
   viewBox="0 0 75.000001 45.000001"
   id="svg4152"
   version="1.1"
   inkscape:version="0.91 r13725"
   sodipodi:docname="stable.svg">
  <defs
     id="defs4154" />
  <sodipodi:namedview
     id="base"
     pagecolor="#ffffff"
     bordercolor="#666666"
     borderopacity="1.0"
     inkscape:pageopacity="0.0"
     inkscape:pageshadow="2"
     inkscape:zoom="11.92"
     inkscape:cx="23.489933"
     inkscape:cy="23.987578"
     inkscape:document-units="px"
     inkscape:current-layer="layer1"
     showgrid="false"
     units="px"
     inkscape:window-width="1366"
     inkscape:window-height="705"
     inkscape:window-x="-8"
     inkscape:window-y="-8"
     inkscape:window-maximized="1" />
  <metadata
     id="metadata4157">
    <rdf:RDF>
      <cc:Work
         rdf:about="">
        <dc:format>image/svg+xml</dc:format>
        <dc:type
           rdf:resource="http://purl.org/dc/dcmitype/StillImage" />
        <dc:title />
      </cc:Work>
    </rdf:RDF>
  </metadata>
  <g
     inkscape:label="Layer 1"
     inkscape:groupmode="layer"
     id="layer1"
     transform="translate(0,-1007.3622)">
    <path
       class="st0"
       d="m 68.753003,1041.3133 -2.661624,0.6894 -28.390653,-6.697 c 6.210455,-10.4394 2.661624,-21.7652 -6.999085,-25.9016 -1.971573,-0.8864 -3.844567,-1.0833 -5.027511,-1.1818 -0.591472,0 -0.197158,0 -6.801928,0.1969 -2.070152,0.098 -1.971573,0.098 -2.267309,0.098 -2.16873,0.099 -4.337461,0.7879 -6.210455,1.7728 -10.25218062,5.5151 -12.5194898,20.5833 -4.1403038,28.2652 l 0.4928933,5.9091 6.1118765,4.7273 7.294821,-1.7728 0.09858,0 4.534618,2.7576 7.087739,-3.8032 24.260274,4.8866 c 1.182944,0.6894 2.563045,0.7878 3.844568,0.3939 l 7.097663,-2.1667 c 1.774416,-0.5909 3.154517,-2.0682 3.351674,-3.9394 l 0.492894,-3.6439 z m -46.23339,-29.5456 4.041725,-0.098 0,3.25 -4.041725,0.2954 z m -8.674922,33.1895 c -1.872995,0 -3.351675,-1.4773 -3.351675,-3.3485 0,-1.8712 1.47868,-3.3485 3.351675,-3.3485 1.872994,0 3.351674,1.4773 3.351674,3.3485 0.09858,1.7728 -1.47868,3.3485 -3.351674,3.3485 z m 42.684559,-0.6894 -1.971574,2.4621 c 0,0 -29.672176,-6.5 -33.319586,-8.4697 -3.844568,-2.0682 -6.900506,-5.8106 -6.111877,-11.8182 0.78863,-6.1061 5.816141,-10.4394 11.139389,-9.75 5.224669,0.6894 9.069236,5.7121 8.182028,12.3106 -0.394314,2.8561 -1.675837,5.2197 -3.351674,6.9925 l 32.432378,6.5985 z"
       id="path12"
       inkscape:connector-curvature="0"
       style="fill:none;stroke:#B7B7B7;stroke-width:1;stroke-opacity:1"
       sodipodi:nodetypes="ccccccccccccccccccccccccccssscsccccccccc" />
    <path
       sodipodi:type="star"
       style="fill:none;fill-opacity:1;stroke:#B7B7B7;stroke-width:0.59939426;stroke-linejoin:round;stroke-miterlimit:4;stroke-dasharray:none;stroke-opacity:1"
       id="path4724"
       sodipodi:sides="3"
       sodipodi:cx="45.218121"
       sodipodi:cy="1015.0299"
       sodipodi:r1="6.7114096"
       sodipodi:r2="3.337651"
       sodipodi:arg1="-1.5707963"
       sodipodi:arg2="-0.52359878"
       inkscape:flatsided="false"
       inkscape:rounded="0"
       inkscape:randomized="0"
       d="m 45.218121,1008.3185 2.89049,5.0426 2.921761,5.0245 -5.812251,-0.018 -5.812252,0.018 2.921761,-5.0245 z"
       inkscape:transform-center-y="-2.7125512"
       transform="matrix(1.7216885,0,0,1.6166659,-28.438769,-621.79567)" />
    <text
       xml:space="preserve"
       style="font-style:normal;font-weight:normal;font-size:40px;line-height:125%;font-family:sans-serif;letter-spacing:0px;word-spacing:0px;fill:#B7B7B7;fill-opacity:1;stroke:#B7B7B7;stroke-width:1px;stroke-linecap:butt;stroke-linejoin:miter;stroke-opacity:1;"
       x="46.728188"
       y="1022.9292"
       id="text4726"
       sodipodi:linespacing="125%"><tspan
         sodipodi:role="line"
         id="tspan4728"
         x="46.728188"
         y="1022.9292"
         style="font-style:normal;font-variant:normal;font-weight:normal;font-stretch:normal;font-size:15px;font-family:'Arial Rounded MT Bold';-inkscape-font-specification:'Arial Rounded MT Bold, ';stroke:#B7B7B7;stroke-opacity:1;fill:#B7B7B7;fill-opacity:1;">!</tspan></text>
  </g>
</svg>
