<?xml version="1.0" encoding="utf-8"?>
<!-- Generator: Adobe Illustrator 16.0.0, SVG Export Plug-In . SVG Version: 6.00 Build 0)  -->
<!DOCTYPE svg PUBLIC "-//W3C//DTD SVG 1.1//EN" "http://www.w3.org/Graphics/SVG/1.1/DTD/svg11.dtd">
<svg version="1.1" id="Layer_1" xmlns="http://www.w3.org/2000/svg" xmlns:xlink="http://www.w3.org/1999/xlink" x="0px" y="0px"
	 width="29.688px" height="29.688px" viewBox="0 0 29.688 29.688" enable-background="new 0 0 29.688 29.688" xml:space="preserve">
<path fill="#42464B" d="M9.452,6.848c-1.625,0-2.942,1.318-2.942,2.943s1.317,2.942,2.942,2.942c1.626,0,2.943-1.317,2.943-2.942
	S11.078,6.848,9.452,6.848z M9.452,11.291c-0.828,0-1.5-0.672-1.5-1.5c0-0.829,0.672-1.5,1.5-1.5c0.829,0,1.501,0.671,1.501,1.5
	C10.953,10.619,10.281,11.291,9.452,11.291z"/>
<path fill="#42464B" d="M20.192,6.848c-1.625,0-2.942,1.318-2.942,2.943s1.317,2.942,2.942,2.942s2.942-1.317,2.942-2.942
	S21.817,6.848,20.192,6.848z M20.192,11.291c-0.829,0-1.5-0.672-1.5-1.5c0-0.829,0.671-1.5,1.5-1.5c0.828,0,1.5,0.671,1.5,1.5
	C21.692,10.619,21.021,11.291,20.192,11.291z"/>
<path fill="#42464B" d="M23.521,13.797c0,0.101-0.082,0.183-0.183,0.183H6.349c-0.101,0-0.183-0.082-0.183-0.183v-0.881
	c0-0.101,0.082-0.183,0.183-0.183h16.99c0.101,0,0.183,0.082,0.183,0.183V13.797z"/>
<polygon fill="#42464B" points="14.822,13.979 9.081,23.346 11.565,23.346 14.822,18.032 18.079,23.346 20.563,23.346 "/>
<path fill="#42464B" d="M14.844,29.688C6.659,29.688,0,23.028,0,14.844S6.659,0,14.844,0s14.844,6.659,14.844,14.844
	S23.028,29.688,14.844,29.688z M14.844,1.112c-7.571,0-13.731,6.159-13.731,13.731s6.16,13.731,13.731,13.731
	c7.572,0,13.731-6.159,13.731-13.731S22.416,1.112,14.844,1.112z"/>
</svg>
