<?xml version="1.0" encoding="utf-8"?>
<!-- Generator: Adobe Illustrator 21.0.2, SVG Export Plug-In . SVG Version: 6.00 Build 0)  -->
<svg version="1.1" id="Layer_1" xmlns="http://www.w3.org/2000/svg" xmlns:xlink="http://www.w3.org/1999/xlink" x="0px" y="0px"
	 viewBox="0 0 512 200" style="enable-background:new 0 0 512 200;" xml:space="preserve">
<style type="text/css">
	.st0{fill:none;}
</style>
<path class="st0" d="M384.6,229.1c-1.2,0.6-2.3,1.7-3.6,2c-6.7,1.2-13.4,2.2-20,3.3c-1.6,0.2-3.1,1-4.6,1.5c0,0.4,0,0.9,0,1.2
	c1.4,0.4,2.6,0.7,4.1,1.1c-5.8,3-11.7,3.7-18.2,2.3c-8.2-1.7-16.3-3.2-24.6-4.1c-3.5-0.4-7.2,1-10.6,2c-4.9,1.6-7.3,0.2-7.4-5.1
	c-5.9-1.2-11.9-2.6-17.9-3.6c-19.2-3.2-38.3-6.2-57.4-9.3c-5.8-1-11.5-1.9-17.3-2.7c-1.1-0.1-2.3,0.6-3.5,0.7
	c-5.4,0.7-10.8,1.2-16.2,2.1c-1.5,0.2-2.7,1.5-4.1,1.6c-4.3,0.2-8.8,2.5-12.5,2.3c-4.8-0.2-7.9,4.1-12.7,2.6c0-1.4,0-3,0-4.6
	c2-0.2,3.8-0.6,4.9-0.7c-2.6-2.2-5.3-4.7-8.4-7.4c0,5.3,0,9.9,0,14.6c1.6,0,3,0,4,0c-0.7,2.8-1.4,5.6-2,8.3c2,1,3.6,1.7,5.2,2.6
	c-0.1,0.5-0.2,1-0.5,1.5c-4.9,0.9-10,2.8-15.5,0c0.5-1,0.7-1.9,1.1-1.9c5.8-1.4,5.3-5.1,4.7-9.9c-0.7-5.4-0.2-11.1,0.1-16.7
	c0.2-4.1-1.4-5.7-5.2-6.3c-13.6-2.1-27.1-4.3-40.7-6.7c-11.5-2-23-4.8-34.5-6.2c-5.8-0.6-11.7,1.2-17.7,1.7
	c-3.2,0.4-6.6,0.1-9.8,0.6c-4,0.6-7.8,1.7-11.7,2.7c-5.8,1.4-11.5,2.8-17.6,4.3c0-1.9,0-3.1,0-4.7c2.1-0.4,4.2-0.9,6.2-1.2
	c0-0.2,0.1-0.5,0.1-0.7c-1-0.4-2-0.7-3.1-1c-2.1-0.4-4-0.7-4-3.6c0-0.5-1.1-1.1-1.7-1.6c-0.5,0.6-1.4,1.4-1.4,2
	c-0.1,3.3-0.4,6.8,0.1,10.1c0.1,1.1,2.2,1.9,3.7,3c-0.5,1.7-1.2,4.2-2,6.4c2,1.4,3.7,2.5,5.4,3.6c-0.1,0.6-0.4,1.2-0.5,1.9
	c-4.9,0.2-9.9,0.5-16.1,0.7c1.2-2.2,1.6-3.6,2.1-3.6c5.3-0.7,4.6-4.5,4.5-8.3c-0.2-6.4,0-13,0-19.4c0-6.8,2.3-9.5,9.2-10.4
	c0.9-0.1,1.7-0.1,3.1-0.2c0-6.9-0.1-13.6,0-20.4c0-3.6,2.6-4.7,6.2-3.8c5.7,1.4,11.6,1.9,17.4,3.1c4.7,1,9.2,2.5,13.9,3.3
	c10,1.9,20,3.3,30.3,5.1c-2.1-4.8-5.9-4.9-10.1-5.1c-2.1,0-4.1-1-6.2-1.2c-12.4-1.7-24.7-3.2-37.2-4.9c-1.6-0.2-3.1-0.6-3.5-0.6
	c3.3-6.3,6.7-12.5,10.4-19.2c-5.3,0.9-10.4,1.6-15.3,2.5c-0.1-0.7-0.2-1.4-0.4-2.1c3.2-0.6,6.4-1.4,9.5-1.9c6.9-1.1,7.4-1.9,4.2-7.9
	c2.3,0.7,4.3,1.7,6.3,1.9c2.2,0.1,4.5-0.5,7.2-0.9c-0.5,1.1-1,2-1.9,4.1c6.4-0.7,12.1-1.5,17.8-2.1c0,0.5,0.1,1,0.1,1.5
	c-3.2,0.5-6.6,0.9-9.6,1.6c-6.1,1.4-6.7,2.6-3.5,7.7c1.2,2,2.1,4.3,3.8,5.7c1.9,1.5,4.8,3.3,6.8,2.8c5.2-1.2,9-0.2,13.2,3
	c2.7,2,6.6,2.7,9.9,3.5c7.8,1.6,15.7,3.2,23.6,4.1c3.8,0.4,7.7-1,11.6-1.4c1.1-0.1,2.3,0.4,3.3,0.9c5.8,3,11.7,6.9,18.6,4.6
	c7.5-2.6,14.5-0.4,21.5,1c1,0.1,1.7,0.9,3.5,1.7c-3.2,0.2-5.4,0.4-7.7,0.5c0,0.5-0.1,0.9-0.1,1.4c4.9,1,10,2,15,3
	c3.8,0.7,7.5,1.4,11.4,1.7c0.6,0,2.2-1.7,2.1-2.5c-1-4.3-2.2-8.7-3.3-12.9c-2.5-9.2-5.1-18.3-7.5-27.3c-2.2,0-4.1,0-6.1-0.1
	c-0.1,0-0.2-1.5-0.1-1.5c1.1-0.4,2.3-0.6,4.6-1.1c-1.1-2.5-2.3-4.9-4.1-8.7c0.2-0.2,1.6-1.5,3.2-3c-3.7-0.5-6.9-1.1-3.6-5.8
	c0.6-0.7-1.1-3.1-1.4-4.7c-0.2-1.5-0.7-4,0.1-4.6c4.1-3,8.3-5.8,12.7-8c1.6-0.9,4.1-0.1,6.1-0.2c2.5-0.1,4.8-0.7,7.3,0.6
	c2.3,1.4,4.9,2.1,7.4,3c1.6,0.5,3.2,1.2,4.8,1.1c8-0.7,16.1-1.9,24.1-2.6c12.6-1.2,25.4-2.3,38-3.5c2-0.1,4,0.1,6.1,0
	c15.5-1.2,30.9-2.6,46.4-3.7c15.5-1.1,31-1.9,46.5-3c19.5-1.4,39-3,58.5-4.5c14.6-1.1,29.2-2,43.8-3c9.8-0.7,19.5-1.5,29.4-2.2
	c1.4-0.1,2.7,0,5.2,0c-5.3,4-12.7,4.2-12.2,13.6c2-2.7,3.2-4.7,4.3-6.3c0.4,6.6,0.4,6.8-6.4,8c-5.4,1-10.9,1.7-16.4,2.1
	c-14.3,1-28.8,1.9-43.3,2.7c-9.4,0.6-18.7,1.4-28.1,2.1c-4.2,0.2-5.8,2.6-6.4,7.9c-1.1,9-2.5,17.9-4,26.8c-3,18.8-5.9,37.6-9.4,56.4
	c-1.1,5.7-3.8,11.1-5.8,16.9c0.6,0.1,2.1,0.2,3.6,0.4c0.1,0.2,0.2,0.5,0.4,0.9c-1.6,0.6-3.3,1.1-4.9,1.7c0,0.2,0.1,0.5,0.1,0.6
	c3.1-0.7,6.1-1.5,7.7-1.9c-0.7-0.1-2.1-0.5-3.5-0.7c0.9-1,1.7-1.9,2.6-2.8c5.8-1.1,11.4,5.4,17.1-0.4c1,4.8-1.6,7.7-6.9,8.4
	c-13.1,1.9-26.2,3.6-39.3,5.8c-1.9,0.4-4.1,2.5-4.9,4.3c-1.9,4-2.7,9,0.7,12.1c2.3,2.1,6.8,2.7,10.1,2.5
	C372,231.4,378.3,230.1,384.6,229.1L384.6,229.1z M492.9,75.4c-2.2,0.7-4.6,1.6-6.8,2.3c0.1,1.1-0.1,2.2,0.4,3
	c0.7,1.4,1.9,2.5,2.8,3.7c1.1-0.9,2.3-1.6,3.1-2.8c1.4-2.1,2.5-4.5,4.1-7.5c-1.7,0.6-2.7,1-3.7,1.4c-2.5-0.5-5.1-1.6-7.5-1.5
	c-17.7,1.5-35.4,3.3-53.2,4.9c-7.7,0.6-15.2,1-22.9,1.5c-0.9,0-1.6,0.7-2.3,1.1c8.7,0.5,16.9,0.1,25.2-0.5c4.5-0.2,8.8-1.1,13.2-1.4
	c1.2,0,3.6,1.4,3.6,2c-0.4,4.5,2.5,3.2,4.8,3.3c-0.1-2.3-0.2-4.5-0.4-6.2c8.4-0.9,16.4-1.6,24.2-2.3c-0.7,2.3-1.2,4-1.7,5.6
	c2.3,0.5,5.1,1.7,6.8,1c1.1-0.5,1-4.1,1.6-7.2C486.4,76,489.7,75.6,492.9,75.4z M208,177.7c1.4,0.6,2.7,1.5,4.2,1.7
	c10.4,1.9,20.9,3.2,31.3,5.3c9.4,2,19.2,2,28.6,4.7c6.3,1.9,13,2.5,19.5,3.5c1.4,0.2,3-0.2,4.5-0.4c0-0.5,0-1-0.1-1.5
	c-1.5-0.4-2.8-0.7-4.3-1c-14.6-2.6-29.1-5.2-43.7-7.7c-11.9-2.1-23.7-4.2-35.6-6.1C211,175.9,208.3,173.7,208,177.7
	c-1-1.7-2-3.5-3.6-5.9c9.6,1.5,18.2,2.5,26.6,4c14.8,2.7,29.7,5.6,44.5,8.5c5.4,1.1,10.9,1.5,16.4,0.1c3-0.7,6.6-2,9.2-1
	c5.1,1.7,11.4-0.4,15.3,4.8c0.1,0.1,0.6,0.1,0.7,0c2.8-3.5,3.6,0.7,5.2,1.4c1.7,0.7,3.5,1.5,5.9,2.7c-0.6-2.3-0.7-3.1-1.1-4.5
	c1.7,1,2.7,2,3.8,2.1c4.7,0.6,9.4,1,14.1,1.4c1,0,2.7-0.6,3-1.5c2-5.3,3.6-10.9,5.6-17.1c-2.2,0.6-3.5,1-4.7,1.4
	c-0.2-0.4-0.5-0.9-0.7-1.2c0.9-0.6,1.9-1.7,2.7-1.6c3.5,0.2,4.6-2.1,5.6-4.6c0.6-1.4,0.7-3,1.4-4.5c8-17.8,10.5-36.9,13.6-55.9
	c0.2-1.4-0.1-2.7-0.4-4.1c-0.4-1.9-0.9-3.7-1.5-6.3c-1.4,0-3.5-0.1-5.6,0c-16.2,1.5-32.4,3.1-48.6,4.5c-11.9,1-23.6,1.2-35.5,2
	c-15.2,1.1-30.3,2.5-45.5,3.7c-12.1,1-24.1,2.1-36.2,2.7c-6.8,0.4-6.8-0.1-5.4,6.2c0.1,0.7,0.1,1.5,0.2,2.3c-4.5,0-8.9,0.4-12.7,3.1
	c4.2-1.1,9.5,2,12.6-3.2c0.2,2.5,0.5,4.8,0.6,7.3c-0.5,0.1-1,0.4-1.5,0.5c-1.7-5.8-5.2-3.5-8.9-2.3c5.1,17.8,10,35.5,15.2,53.1
	c0.2,1,1.9,1.9,3,2.5c1.1,0.6,2.3,0.7,4.3,1.4c-1.2,0.7-1.7,1.1-2,1c-6.7-1.4-13.4-3-20-4.3c-8.7-1.7-17.3-3.3-26.1-4.8
	c-6.6-1.1-13.2-2-19.9-2.7c-3.6-0.4-7.3-0.1-10.9-0.1c0,0.5-0.1,1.1-0.1,1.6c2.5,0.5,4.9,1,7.5,1.5c10.1,1.6,20.4,3.1,30.7,4.8
	c12.1,2.1,24.2,4.5,36.4,6.6c14,2.5,27.8,4.9,41.8,7c4.3,0.6,8.9,0.1,13.4,0.1c0-0.4,0-0.7,0-1.2c-1.5-0.2-3-0.6-4.5-0.9
	c-11-1.9-22.3-3.2-33.1-5.6C215.4,182,210,183.1,208,177.7z M288.9,195.2c-0.1,0.7-0.2,1.5-0.4,2.2c21.4,4.8,42.9,8.3,64.8,10.4
	c-7.5-6.7-18.3-1.6-26.1-6.9c17.8-1.6,17.8-1.6,18.9-6.9c-11.7,6.8-23.1-0.6-35.4-0.4c2.5,5.6,9,1.5,11.4,6.6
	C310.8,198.4,299.9,196.8,288.9,195.2z M123.8,162.7c0-0.6,0.1-1.1,0.1-1.7c-19.2-3.3-38.2-6.6-57.4-9.9c-0.2,0.5-0.4,1-0.6,1.6
	c1.5,0.9,3,2,4.6,2.5c8,2.7,16.6,1.6,24.7,4.2c4.6,1.5,9.5,2,14.3,3c-5.4,5.3-11.4-2.7-16.4,2.8c6.6,0.5,13.1,0.9,20.2,1.4
	c-0.9-2-1.1-2.7-1.6-3.8C116.1,162.7,120,162.7,123.8,162.7z M36.7,150.9c6.6,0.6,12.2,1.1,17.8,1.7c1.6-7.9-2.8-17.4-9.5-20.2
	C42.3,138.6,39.6,144.6,36.7,150.9z M136.5,203.6c0.5-0.4,1.5-1,2.5-1.7c-0.9-1-1.6-2.7-2.7-2.8c-14-2.6-27.9-4.9-42-7.2
	c-1-0.1-2.2,0.9-3.3,1.4c0.9,1,1.6,2.6,2.7,2.8C107.7,198.7,121.7,201,136.5,203.6z M271.2,226.6c1.7-3.7,0-4.7-2.7-5.1
	c-10-1.6-20-3.5-30.1-5.1c-3-0.5-6.1-0.9-9-1c-0.9,0-1.9,1.1-2.7,1.7c0.9,0.7,1.6,2,2.5,2.1C243.1,221.9,257.1,224.3,271.2,226.6z
	 M285.8,224.6c-1.2,3.7,0.2,4.6,2.8,4.9c11.4,1.9,22.6,4,34,5.8c0.4,0.1,0.7-0.1,1.5-0.4c-1-0.9-1.7-1.6-2.6-2.3
	c1.2-0.4,2-0.6,2.7-0.9c-3.7-1.4-7.5-2-11.3-2.7c-2.6-0.5-5.9-0.2-7.4-1.7c-1.4-1.4-0.7-4.8-1.2-7.2c-0.1-0.9-1-1.6-1.7-2.2
	c-0.2-0.2-1.5,0.2-1.5,0.5c0,1,0,2.1,0.4,3c0.7,1.7,1.6,3.3,3.1,6.2C297.3,226.5,291.6,225.5,285.8,224.6z M259.6,93.7
	c0-0.5,0-1.1,0-1.6c-0.6-0.1-1.4-0.5-2-0.4c-17.1,1.2-34.1,2.3-51.1,3.6c-1.4,0.1-3,0.1-4.1,0.7c-1,0.6-1.7,2-2.1,3.2
	c-0.1,0.5,0.9,2,1.4,1.9c1-0.1,2-0.9,3-1.2c1.9-0.9,3.7-2.1,5.7-2.2c9.8-0.9,19.7-1.4,29.4-2.1C246.2,94.9,252.9,94.3,259.6,93.7z
	 M358.4,207.5c0.4-2.3,0.2-4,1-5.2c1.7-3.3,4-6.6,5.8-9.9c3.3-5.9,2.6-8.3-1.9-9.3c-2.7,2.7-6.6,4.9-3.8,9.2
	c-3.2,0.6-8.7,6.1-7.5,8.2C353.5,203.1,356.3,205.2,358.4,207.5z M361.7,157.6c-5.1,14.6-10.3,29.2-15.3,43.8
	C356.8,189.5,361.5,176,361.7,157.6z M383.1,179.8c-8.5,6.2-8.5,15.3-11,23.9c2.1-0.7,4.5-1.7,5.7-3.5c2.5-3.5,4.6-7.2,6.7-10.9
	C387.6,183.8,386.8,181,383.1,179.8z M338.2,87.9c0-0.7-0.1-1.5-0.1-2.2c-18.3,1.4-36.7,2.8-55,4.2c0,0.7,0.1,1.5,0.1,2.2
	C301.6,90.7,319.9,89.2,338.2,87.9z M164.6,171.1c9.9,1.7,19.8,3.6,30.4,5.4C192.6,172,168.3,167.4,164.6,171.1z M385.9,130.4
	c-4,0.4-6.8,1-6.6,5.8c0.1,2.5-0.9,5.1-1.2,7.7c-0.4,2.3-0.6,4.8-1,7.9C381.5,148.6,385.5,138.4,385.9,130.4z M373.4,112.6
	c-0.7,4-1.1,7.7-2,11.1c-1,4.2,1,5.4,4.6,5.8C379.9,117.7,379.5,115.1,373.4,112.6z M373.4,147.4c0.7-3.7,1.1-7.2,2-10.6
	c1.1-4.2-0.7-5.9-4.6-6.3C367.3,144.8,367.3,146,373.4,147.4z M387.3,144.5c-4.1,11-3.6,15.2,2,16.8
	C393.3,151.9,392.8,146.4,387.3,144.5z M386.5,178.5c4.1-10.8,3.6-14.5-1.9-16.6C380.4,171.2,381,176.9,386.5,178.5z M364.8,164.8
	c-0.7,3.8-1.1,7.5-2,11c-1,4.2,1,5.4,4.6,5.8C371.3,170.7,370.9,167.1,364.8,164.8z M361.9,83.9c5.7,2.6,33.3,0.9,40.7-2.7
	C388.4,82.1,375.5,82.9,361.9,83.9z M390.3,126.9c-4.1,11.7-3.7,15.1,2,16.7C396.2,134.6,395.7,128.9,390.3,126.9z M395.3,126.3
	c4-11.6,3.5-15.1-2.2-16.7C389.1,120,389.6,124.5,395.3,126.3z M376.5,95.4c-3.1,15.6-4,15.5,2.3,16.6
	C382.8,102,382.3,97.1,376.5,95.4z M370.5,164.5c0.6-3.8,1-7.3,1.9-10.6c1.1-4.3-1-5.7-4.6-6.3C364.6,162.9,364.1,162.8,370.5,164.5
	z M401.1,94.9c-3-0.7-5.7-1.6-6.3,2c-1.5,9.2-3.2,10.5,3.8,12.4C399.5,104.4,400.2,99.7,401.1,94.9z M331.7,229.2
	c0.6-1.2,1.1-2.6,1.9-3.8c0.5-0.7,1.2-1.9,1.7-1.9c4.9,0.4,7-3.7,10-6.2c0.7-0.6,0.6-2.1,1.2-4.5c-5.1,3.5-8.7,6.9-12.9,8.5
	C328.6,223.2,330.2,225.9,331.7,229.2z M149.8,197.9c0.1-0.4,0.2-0.9,0.4-1.2c-4.7-2.6-23.4-5.1-26.1-2.2
	C132.7,195.6,141.2,196.8,149.8,197.9z M142.8,200.2c-0.4,0.4-0.7,0.6-1.1,1c0.6,1.1,1,3.2,1.7,3.3c2.5,0.4,5.1,0.1,7.7,0.1
	c1.5,0,3.1-0.2,4.5,0.1c1,0.2,1.9,1.4,2.7,2.1c0.2-0.6,1-1.6,0.9-1.9c-0.7-1-1.7-2.2-2.7-2.5C151.9,201.5,147.3,200.9,142.8,200.2z
	 M388.9,110.5c-6.8,2.7-7.3,3.6-6.8,11.1C388.4,122,389.4,120.4,388.9,110.5z M371.9,189.3c2.6-4.5,6.9-8.2,6.3-14.2
	C372.4,176.5,371.1,179.4,371.9,189.3z M177.2,209.8c0.1-0.6,0.2-1.2,0.4-1.9c-5.6-1.1-11.1-2.2-17.7-3.6c1.1,1.5,1.7,3.3,2.7,3.6
	C167.5,208.7,172.3,209.2,177.2,209.8z M342.2,238.7c0.1-1.6,0.1-3,0.2-4.3c-2.7-0.5-5.1-1.1-7.4-1.2c-0.9,0-2.3,1.1-2.3,1.7
	c0,0.9,1,2.3,1.7,2.5C336.8,238,339.4,238.2,342.2,238.7z M273.3,223c0.1,4.3,2.3,5.3,8.9,4.7C282.6,223.5,281.2,222.9,273.3,223z
	 M375.3,170.7c0.2,0.4,0.4,0.9,0.6,1.2c1.1-0.5,3.2-0.9,3.3-1.6c1.1-4.9,1.9-10,2.6-15.1c-0.4-0.1-0.7-0.1-1.1-0.2
	C378.9,160.2,377.1,165.5,375.3,170.7z M475.6,86c-0.5-1.9-0.7-3.5-1.5-4.7c-0.6-1.1-1.6-2.1-2.5-3.1c-0.6,1.2-1.7,2.5-1.6,3.6
	c0.6,3,0.1,4.6-3.7,4.2C469.7,86,472.5,86,475.6,86z M188.1,109.9c-3.3,0.5-5.7,1-8,1.4c-0.2,0.5-0.6,0.9-0.9,1.4
	c1.4,1.6,2.7,4.3,4.2,4.6C188.2,117.5,186.4,113,188.1,109.9z M89,190.3c-3.7,0.6-7,1.2-11.4,2C85.5,196.4,89.2,195.8,89,190.3z
	 M296.6,191.4c3.7,4.7,8.5,2.7,13.1,5.2C306.3,190.5,301.8,191.5,296.6,191.4z M143.7,166.2c0.1-0.5,0.2-1.1,0.2-1.6
	c-5.1-0.9-10.3-1.7-15.3-2.7c-0.1,0.6-0.2,1.2-0.4,1.9C133.6,164.5,138.6,165.4,143.7,166.2z M390.3,205.8c0-0.4,0-0.7,0-1.1
	c-6.6,1.1-13,2.2-19.5,3.3c0.1,0.4,0.1,0.7,0.2,1.1C377.4,208.1,383.9,207,390.3,205.8z M381.5,95c2.3-4.5-0.1-5.8-3.8-6.9
	C375.3,92.7,378.3,93.8,381.5,95z M37.8,183.1c0-0.4,0-0.6,0-1c-3-0.5-5.9-1-9-1.5c0,1.6,0,2.8,0,4.5C32,184.3,35,183.7,37.8,183.1z
	 M26.2,181.4c-2.6-0.7-5.2-1.5-8.2-2.3C19.8,183.8,20.9,184.3,26.2,181.4z M319.7,225c0.5,0.6,0.9,1.2,2,2.8c0-2.7,0-4.2,0-5.8
	c-5.3-0.4-5.7,0.1-3.8,5.9C318.8,226.6,319.3,225.8,319.7,225z M391.3,100.7c0-0.5,0-1-0.1-1.5c-1-0.5-2.2-1.6-3-1.4
	c-1.2,0.5-2.1,1.9-3.2,2.8c0.9,0.6,1.7,2,2.5,1.9C388.8,102.5,390.1,101.5,391.3,100.7z M20.9,187.2c0.1-0.4,0.2-0.7,0.4-1.2
	c-2.8-1.5-5.8-3.1-9.4-5.1c2.1,2.8,3.5,4.8,5.1,7C18.1,187.8,19.4,187.4,20.9,187.2z M299.3,218.2c-2.6,0.7-6.6-0.6-4.5,4.7
	C297.3,222.3,300.6,223.2,299.3,218.2z M269.9,194.7c4.2,0.9,8,1.6,11.7,2.3C278,194.3,274.7,191,269.9,194.7z M280.1,91.6
	c0-0.1,0-0.2-0.1-0.4c-3.7,0-7.4,0-11.1,0c0,0.6,0.1,1.1,0.1,1.7C272.8,92.4,276.5,92,280.1,91.6z"/>
<path class="st0" d="M93.5,133.9c1.1,0.7,2.1,1.5,4.1,2.8c0-4.2,0-7.3,0-10.4c0.5-0.2,0.9-0.4,1.4-0.6c1.1,1.6,2.1,3.2,3.2,4.7
	c-1,0.2-2.7,0.6-2.6,0.7c0.4,2.5,0.4,5.4,1.6,7.4c2.5,3.8,5.6,7.4,9,10.4c2,1.7,5.2,2.1,7.8,3.2c0.2-0.4,0.4-0.9,0.6-1.2
	c-2.1-3.2-4.2-6.4-6.4-9.6c3.2,3.6,6.4,7.3,9.6,10.9c-0.4,0.5-0.7,1-1.1,1.5c-13.2-3.3-27-3.5-40.2-6.4c0-0.5,0.1-1,0.1-1.5
	c1.4-0.6,2.7-1.2,4.1-1.9c-0.1,0.4-0.2,0.7-0.4,1.1c2.8,1,5.8,1.9,8.7,2.8c0.4-0.5,0.6-1,1-1.4c-3.2-3.3-7.4-6.2-9.3-10.1
	c-1.7-3.8-1.1-8.8-1.5-13.4c0.6-0.1,1.1-0.4,1.7-0.5c1.4,2.2,2.7,4.5,4.1,6.7c-1-0.7-1.9-1.4-3-2.1c-1.4,6.7,3.6,15.2,11.1,19.5
	C99.2,141.5,95.6,138,93.5,133.9z"/>
<path class="st0" d="M372.7,221.9c-0.9,0.7-2.1,1.7-3.3,2.7c-1.2-6.3-1-6.7,4.9-7.5c3.3-0.5,6.6-1.1,9.9-1.5
	c3.1-0.4,6.2-0.5,9.6-0.9c0.4,1.9,0.7,3.6,1.2,5.9c-6.2,1.4-12,2.8-17.9,3.7C376,224.6,374.5,222.9,372.7,221.9z"/>
<path class="st0" d="M112.1,141.3c2.1,3.2,4.2,6.4,6.4,9.6c-0.2,0.4-0.4,0.9-0.6,1.2c-2.6-1-5.8-1.5-7.8-3.2c-3.5-3-6.4-6.6-9-10.4
	c-1.4-2-1.2-4.9-1.6-7.4c0-0.1,1.7-0.5,2.6-0.7C105.4,134.1,108.7,137.7,112.1,141.3z"/>
<path class="st0" d="M93.5,133.9c2.1,4,5.7,7.7,3.6,12.9c-7.5-4.3-12.5-12.9-11.1-19.5c1,0.7,2,1.5,3,2.1
	C90.4,130.9,91.9,132.4,93.5,133.9z"/>
<path class="st0" d="M376.1,235c9.8-1.6,19.7-3.3,29.4-4.9c0.1,0.6,0.1,1.1,0.2,1.7c-10,1.4-20,2.6-29.9,4
	C376,235.5,376.1,235.3,376.1,235z"/>
<path class="st0" d="M384.7,229.1c6.1-1.1,12.1-2.3,18.2-3.5c0.1,0.6,0.1,1.4,0.2,2C397.1,228.1,390.9,228.6,384.7,229.1
	C384.6,229.1,384.7,229.1,384.7,229.1z"/>
<path class="st0" d="M193.3,117.3c0-0.7,0-1.6-0.2-2.3c-1.4-6.3-1.4-5.8,5.4-6.2c12.1-0.6,24.2-1.9,36.2-2.7
	c15.2-1.2,30.3-2.6,45.5-3.7c11.9-0.9,23.7-1.1,35.5-2c16.2-1.2,32.4-3,48.6-4.5c2.1-0.2,4.2,0,5.6,0c0.6,2.5,1.1,4.3,1.5,6.3
	c0.2,1.4,0.6,2.8,0.4,4.1c-3.1,18.9-5.6,38.1-13.6,55.9c-0.6,1.4-0.7,3-1.4,4.5c-1,2.5-2.2,4.8-5.6,4.6c-0.9-0.1-1.9,1.1-2.7,1.6
	c0.2,0.4,0.5,0.9,0.7,1.2c1.2-0.4,2.3-0.6,4.7-1.4c-2,6.2-3.7,11.6-5.6,17.1c-0.2,0.7-2,1.5-3,1.5c-4.7-0.2-9.4-0.7-14.1-1.4
	c-1.1-0.1-2.1-1.1-3.8-2.1c0.4,1.4,0.5,2.2,1.1,4.5c-2.6-1.1-4.2-2-5.9-2.7c-1.7-0.6-2.5-4.8-5.2-1.4c-0.1,0.1-0.6,0.1-0.7,0
	c-4-5.2-10.3-3.1-15.3-4.8c-2.6-0.9-6.2,0.2-9.2,1c-5.6,1.4-11,1-16.4-0.1c-14.8-2.8-29.7-5.8-44.5-8.5c-8.4-1.5-16.9-2.6-26.6-4
	c1.5,2.5,2.5,4.2,3.6,5.9l0,0c2,5.4,7.4,4.3,11.3,5.2c10.9,2.3,22.1,3.8,33.1,5.6c1.5,0.2,3,0.5,4.5,0.9c0,0.4,0,0.7,0,1.2
	c-4.5,0-9,0.5-13.4-0.1c-14-2.1-27.9-4.6-41.8-7c-12.1-2.1-24.2-4.5-36.4-6.6c-10.1-1.7-20.4-3.2-30.7-4.8c-2.5-0.4-5.1-1-7.5-1.5
	c0-0.5,0.1-1.1,0.1-1.6c3.6,0,7.3-0.2,10.9,0.1c6.7,0.6,13.4,1.6,19.9,2.7c8.7,1.5,17.4,3.1,26.1,4.8c6.7,1.4,13.4,2.8,20,4.3
	c0.2,0.1,0.7-0.4,2-1c-2-0.6-3.2-0.9-4.3-1.4c-1.1-0.6-2.7-1.5-3-2.5c-5.2-17.6-10.1-35.2-15.2-53.1c3.7-1.1,7.2-3.5,8.9,2.3
	c0.5-0.1,1-0.4,1.5-0.5c-0.2-2.5-0.5-4.8-0.6-7.3L193.3,117.3z"/>
<path class="st0" d="M288.9,195.2c10.9,1.6,21.8,3.1,33.1,4.7c-2.3-5.1-8.9-1-11.4-6.6c12.2-0.2,23.6,7.3,35.4,0.4
	c-1,5.4-1,5.4-18.9,6.9c7.8,5.3,18.6,0.2,26.1,6.9c-21.9-2.1-43.4-5.7-64.8-10.4C288.6,196.7,288.8,196,288.9,195.2z"/>
<path class="st0" d="M208,177.7L208,177.7c0.2-4,3-1.7,4.3-1.6c11.9,1.9,23.7,4,35.6,6.1c14.6,2.6,29.1,5.1,43.7,7.7
	c1.5,0.2,2.8,0.6,4.3,1c0,0.5,0,1,0.1,1.5c-1.5,0.1-3,0.6-4.5,0.4c-6.6-1-13.2-1.6-19.5-3.5c-9.4-2.7-19-2.7-28.6-4.7
	c-10.4-2.2-20.9-3.6-31.3-5.3C210.7,179.1,209.4,178.3,208,177.7z"/>
<path class="st0" d="M492.9,75.4c-3.2,0.2-6.6,0.6-8.7,0.7c-0.6,3.1-0.5,6.7-1.6,7.2c-1.7,0.7-4.5-0.5-6.8-1c0.5-1.6,1-3.2,1.7-5.6
	c-7.8,0.7-15.7,1.5-24.2,2.3c0.1,1.7,0.2,3.7,0.4,6.2c-2.5-0.1-5.2,1-4.8-3.3c0-0.6-2.3-2.1-3.6-2c-4.5,0.2-8.8,1-13.2,1.4
	c-8.3,0.6-16.7,0.9-25.2,0.5c0.7-0.4,1.6-1.1,2.3-1.1c7.7-0.5,15.3-0.7,22.9-1.5c17.7-1.6,35.4-3.5,53.2-4.9c2.5-0.2,5.1,1,7.5,1.5
	L492.9,75.4z"/>
<path class="st0" d="M123.8,162.7c-3.8,0-7.7,0-12,0c0.5,1.1,0.7,1.9,1.6,3.8c-7.2-0.5-13.7-1-20.2-1.4c5.1-5.6,11,2.5,16.4-2.8
	c-4.8-1-9.8-1.5-14.3-3c-8-2.6-16.7-1.4-24.7-4.2c-1.6-0.6-3.1-1.6-4.6-2.5c0.2-0.5,0.4-1,0.6-1.6c19.2,3.3,38.2,6.6,57.4,9.9
	C123.9,161.6,123.8,162.1,123.8,162.7z"/>
<path class="st0" d="M36.7,150.9c2.8-6.3,5.6-12.4,8.3-18.4c6.8,2.6,11.1,12.2,9.5,20.2C48.9,152.2,43.3,151.6,36.7,150.9z"/>
<path class="st0" d="M136.5,203.6c-14.8-2.6-28.8-4.9-42.8-7.5c-1-0.2-1.9-1.9-2.7-2.8c1.1-0.5,2.3-1.5,3.3-1.4
	c14,2.2,28.1,4.7,42,7.2c1,0.2,1.9,1.9,2.7,2.8C138,202.6,137,203.3,136.5,203.6z"/>
<path class="st0" d="M271.2,226.6c-14.1-2.5-28.1-4.8-41.9-7.3c-1-0.1-1.7-1.4-2.5-2.1c0.9-0.6,1.9-1.7,2.7-1.7c3,0.1,6.1,0.5,9,1
	c10,1.6,20,3.3,30.1,5.1C271.2,222,272.9,222.9,271.2,226.6z"/>
<path class="st0" d="M285.8,224.6c5.8,1,11.5,1.9,18.8,3c-1.5-2.8-2.3-4.5-3.1-6.2c-0.4-0.9-0.4-2-0.4-3c0-0.2,1.2-0.6,1.5-0.5
	c0.7,0.6,1.5,1.4,1.7,2.2c0.5,2.5-0.1,5.8,1.2,7.2c1.6,1.5,4.9,1.2,7.4,1.7c3.7,0.6,7.5,1.2,11.3,2.7c-0.7,0.2-1.5,0.5-2.7,0.9
	c0.9,0.9,1.6,1.5,2.6,2.3c-0.7,0.1-1.1,0.4-1.5,0.4c-11.4-2-22.6-4-34-5.8C286.1,229.2,284.6,228.4,285.8,224.6z"/>
<path class="st0" d="M259.6,93.7c-6.7,0.6-13.2,1.2-19.9,1.7c-9.8,0.7-19.7,1.2-29.4,2.1c-2,0.1-3.7,1.5-5.7,2.2c-1,0.4-2,1.1-3,1.2
	c-0.4,0-1.5-1.5-1.4-1.9c0.4-1.2,1.1-2.6,2.1-3.2c1.1-0.6,2.7-0.6,4.1-0.7c17.1-1.2,34-2.5,51.1-3.6c0.6,0,1.4,0.2,2,0.4
	C259.5,92.6,259.5,93.1,259.6,93.7z"/>
<path class="st0" d="M358.4,207.5c-2.1-2.2-5.1-4.2-6.4-7c-1-2.1,4.3-7.5,7.5-8.2c-2.7-4.2,1-6.4,3.8-9.2c4.5,0.9,5.2,3.3,1.9,9.3
	c-1.9,3.3-4.1,6.4-5.8,9.9C358.8,203.4,358.9,205,358.4,207.5z"/>
<path class="st0" d="M361.7,157.6c-0.2,18.4-4.9,31.9-15.3,43.8C351.5,186.8,356.7,172.2,361.7,157.6z"/>
<path class="st0" d="M383.1,179.8c3.7,1.2,4.5,4.1,1.4,9.5c-2.1,3.7-4.2,7.4-6.7,10.9c-1.2,1.7-3.6,2.7-5.7,3.5
	C374.6,195.1,374.6,185.8,383.1,179.8z"/>
<path class="st0" d="M338.2,87.9c-18.3,1.4-36.6,2.8-54.9,4.2c0-0.7-0.1-1.5-0.1-2.2c18.3-1.4,36.7-2.8,55-4.2
	C338.1,86.4,338.2,87.1,338.2,87.9z"/>
<path class="st0" d="M164.6,171.1c3.7-3.6,27.8,0.9,30.4,5.4C184.4,174.6,174.5,172.8,164.6,171.1z"/>
<path class="st0" d="M385.9,130.4c-0.5,8-4.3,18.2-8.7,21.3c0.4-3.1,0.6-5.4,1-7.9c0.4-2.6,1.4-5.2,1.2-7.7
	C379,131.4,381.9,130.8,385.9,130.4z"/>
<path class="st0" d="M373.4,112.6c6.2,2.5,6.6,5.2,2.6,16.9c-3.6-0.4-5.6-1.6-4.6-5.8C372.2,120.1,372.6,116.6,373.4,112.6z"/>
<path class="st0" d="M373.4,147.4c-6.1-1.4-6.1-2.5-2.6-16.9c4,0.4,5.7,2.1,4.6,6.3C374.6,140.1,374.1,143.6,373.4,147.4z"/>
<path class="st0" d="M387.3,144.5c5.3,2,5.8,7.4,2,16.8C383.9,159.6,383.4,155.4,387.3,144.5z"/>
<path class="st0" d="M386.5,178.5c-5.6-1.6-6.2-7.3-1.9-16.6C390.2,164,390.6,167.8,386.5,178.5z"/>
<path class="st0" d="M364.8,164.8c6.1,2.2,6.4,5.8,2.5,16.9c-3.6-0.4-5.6-1.6-4.6-5.8C363.6,172.3,364.1,168.7,364.8,164.8z"/>
<path class="st0" d="M361.9,83.9c13.6-1,26.5-1.9,40.7-2.7C395.1,84.7,367.5,86.5,361.9,83.9z"/>
<path class="st0" d="M390.3,126.9c5.4,2,5.9,7.5,2,16.7C386.6,142.2,386.1,138.7,390.3,126.9z"/>
<path class="st0" d="M395.3,126.3c-5.7-1.9-6.2-6.3-2.2-16.7C398.8,111.2,399.2,114.7,395.3,126.3z"/>
<path class="st0" d="M376.5,95.4c5.7,1.9,6.3,6.6,2.3,16.6C372.5,110.9,373.4,110.9,376.5,95.4z"/>
<path class="st0" d="M370.5,164.5c-6.6-1.7-5.9-1.6-2.7-16.9c3.6,0.6,5.7,2,4.6,6.3C371.5,157.2,371.1,160.7,370.5,164.5z"/>
<path class="st0" d="M401.1,94.9c-0.9,4.8-1.6,9.5-2.5,14.3c-7-1.9-5.3-3.2-3.8-12.4C395.4,93.3,398.1,94.1,401.1,94.9z"/>
<path class="st0" d="M331.7,229.2c-1.6-3.5-3.1-6.1,2-7.9c4.2-1.5,7.8-5.1,12.9-8.5c-0.6,2.3-0.5,3.8-1.2,4.5c-3,2.5-5.1,6.7-10,6.2
	c-0.5,0-1.4,1.1-1.7,1.9C332.9,226.6,332.3,228,331.7,229.2z"/>
<path class="st0" d="M149.8,197.9c-8.5-1.1-17.2-2.2-25.7-3.5c2.6-2.8,21.4-0.5,26.1,2.2C150,197.1,149.9,197.6,149.8,197.9z"/>
<path class="st0" d="M142.8,200.2c4.6,0.7,9.2,1.4,13.6,2.3c1.1,0.2,2,1.5,2.7,2.5c0.2,0.2-0.5,1.2-0.9,1.9
	c-0.9-0.7-1.7-1.9-2.7-2.1c-1.4-0.4-3-0.1-4.5-0.1c-2.6,0-5.2,0.2-7.7-0.1c-0.7-0.1-1.2-2.2-1.7-3.3
	C142.1,200.8,142.5,200.5,142.8,200.2z"/>
<path class="st0" d="M388.9,110.5c0.5,9.9-0.5,11.5-6.8,11.1C381.8,114,382.1,113.2,388.9,110.5z"/>
<path class="st0" d="M495.7,75.5c1-0.4,1.9-0.7,3.7-1.4c-1.6,3.1-2.7,5.5-4.1,7.6c-0.7,1.1-2.1,1.9-3.1,2.9c-1-1.2-2.1-2.4-2.9-3.7
	c-0.4-0.7-0.2-1.9-0.4-3c2.4-0.7,4.6-1.6,6.8-2.4C495.8,75.4,495.7,75.5,495.7,75.5z"/>
<path class="st0" d="M371.9,189.3c-0.9-9.9,0.5-12.7,6.3-14.2C378.8,181.1,374.6,184.8,371.9,189.3z"/>
<path class="st0" d="M177.2,209.8c-4.9-0.6-9.8-1-14.7-2c-1-0.1-1.6-2.1-2.7-3.6c6.6,1.4,12.1,2.5,17.7,3.6
	C177.5,208.6,177.3,209.2,177.2,209.8z"/>
<path class="st0" d="M342.2,238.7c-2.8-0.5-5.4-0.6-7.9-1.4c-0.9-0.2-1.7-1.7-1.7-2.5c0-0.6,1.6-1.7,2.3-1.7
	c2.3,0.1,4.8,0.7,7.4,1.2C342.3,235.8,342.2,237,342.2,238.7z"/>
<path class="st0" d="M273.3,223c8-0.2,9.3,0.5,8.9,4.7C275.5,228.5,273.4,227.4,273.3,223z"/>
<path class="st0" d="M375.3,170.7c1.9-5.3,3.6-10.5,5.4-15.8c0.4,0.1,0.7,0.1,1.1,0.2c-0.9,5.1-1.5,10.1-2.6,15.1
	c-0.1,0.7-2.2,1.1-3.3,1.6C375.7,171.6,375.5,171.2,375.3,170.7z"/>
<path class="st0" d="M478.4,86.1c-3.1,0-5.8,0-9.2,0c3.9,0.4,4.4-1.2,3.7-4.2c-0.2-1,1-2.4,1.6-3.6c0.9,1,1.9,1.9,2.5,3.1
	C477.5,82.6,477.8,84.2,478.4,86.1z"/>
<path class="st0" d="M188.1,109.9c-1.7,3.2,0.1,7.7-4.7,7.2c-1.6-0.1-2.8-3-4.2-4.6c0.2-0.5,0.6-0.9,0.9-1.4
	C182.4,110.7,184.8,110.4,188.1,109.9z"/>
<path class="st0" d="M89,190.3c0.1,5.4-3.6,6.1-11.4,2C82,191.5,85.3,191,89,190.3z"/>
<path class="st0" d="M296.6,191.4c5.2,0.1,9.8-0.9,13.1,5.2C305.1,194.1,300.3,196.1,296.6,191.4z"/>
<path class="st0" d="M143.7,166.2c-5.1-0.9-10.3-1.6-15.3-2.5c0.1-0.6,0.2-1.2,0.4-1.9c5.1,0.9,10.3,1.7,15.3,2.7
	C144,165,143.8,165.7,143.7,166.2z"/>
<path class="st0" d="M390.3,205.8c-6.4,1.1-12.9,2.2-19.4,3.3c-0.1-0.4-0.1-0.7-0.2-1.1c6.6-1.1,13-2.2,19.5-3.3
	C390.3,205.1,390.3,205.5,390.3,205.8z"/>
<path class="st0" d="M381.5,95c-3.2-1.2-6.3-2.3-3.8-6.9C381.4,89.2,383.9,90.6,381.5,95z"/>
<path class="st0" d="M193.2,117.2c-3.1,5.2-8.4,2.1-12.6,3.2c3.8-2.7,8.2-3.1,12.7-3.1C193.3,117.3,193.2,117.2,193.2,117.2z"/>
<path class="st0" d="M37.8,183.1c-2.8,0.6-5.8,1.4-9,2c0-1.6,0-2.8,0-4.5c3.1,0.5,6.1,1,9,1.5C37.8,182.5,37.8,182.7,37.8,183.1z"/>
<path class="st0" d="M26.2,181.4c-5.3,3-6.4,2.6-8.2-2.3C21,179.8,23.6,180.5,26.2,181.4z"/>
<path class="st0" d="M319.7,225c-0.4,0.7-0.9,1.6-1.7,3.1c-1.9-5.9-1.5-6.3,3.8-5.9c0,1.5,0,3.1,0,5.8
	C320.7,226.4,320.2,225.8,319.7,225z"/>
<path class="st0" d="M391.3,100.7c-1.2,0.6-2.5,1.7-3.7,1.9c-0.7,0.1-1.6-1.2-2.5-1.9c1-1,2-2.3,3.2-2.8c0.6-0.2,2,0.9,3,1.4
	C391.2,99.7,391.2,100.2,391.3,100.7z"/>
<path class="st0" d="M20.9,187.2c-1.5,0.2-3,0.6-4,0.7c-1.6-2.2-3-4.2-5.1-7c3.7,2,6.6,3.5,9.4,5.1C21.2,186.4,21,186.8,20.9,187.2z
	"/>
<path class="st0" d="M299.3,218.2c1.2,5.1-2.1,4.1-4.5,4.7C292.9,217.6,296.7,218.8,299.3,218.2z"/>
<path class="st0" d="M269.9,194.7c4.8-3.7,8.3-0.2,11.7,2.3C277.8,196.2,274.1,195.5,269.9,194.7z"/>
<path class="st0" d="M280.1,91.6c-3.7,0.5-7.4,0.9-11,1.4c0-0.6-0.1-1.1-0.1-1.7c3.7,0,7.4,0,11.1,0
	C280.1,91.3,280.1,91.5,280.1,91.6z"/>
<g>
	<path class="st1" d="M469.7,100.1h-1.6l-8.3-65.7c-0.7-5.4-1.1-9.6-1.1-12.5c0-3.9,1-6.9,2.9-9.1c1.9-2.2,4.6-3.3,8-3.3
		c3.2,0,5.8,1.1,7.6,3.2c1.9,2.1,2.9,5,2.9,8.7c0,2.6-0.4,6.3-1.1,11.2L469.7,100.1z M468.8,111c2.9,0,5.4,1.1,7.5,3.2
		c2.1,2.1,3.2,4.6,3.2,7.6c0,2.9-1.1,5.4-3.2,7.6c-2.1,2.1-4.5,3.1-7.5,3.1s-5.4-1-7.6-3.1c-2.1-2.1-3.1-4.6-3.1-7.6
		c0-3,1-5.5,3.1-7.6C463.3,112,465.8,111,468.8,111z"/>
</g>
</svg>
