<?xml version="1.0" encoding="utf-8"?>
<!-- Generator: Adobe Illustrator 16.0.0, SVG Export Plug-In . SVG Version: 6.00 Build 0)  -->
<!DOCTYPE svg PUBLIC "-//W3C//DTD SVG 1.1//EN" "http://www.w3.org/Graphics/SVG/1.1/DTD/svg11.dtd">
<svg version="1.1" id="Layer_1" xmlns="http://www.w3.org/2000/svg" xmlns:xlink="http://www.w3.org/1999/xlink" x="0px" y="0px"
	 width="19.628px" height="19.628px" viewBox="0 0 19.628 19.628" enable-background="new 0 0 19.628 19.628" xml:space="preserve">
<path d="M9.814,0C4.394,0,0,4.394,0,9.814c0,5.42,4.394,9.814,9.814,9.814c5.42,0,9.813-4.394,9.813-9.814
	C19.628,4.394,15.234,0,9.814,0z M15.439,7.136L8.7,13.659c-0.156,0.152-0.364,0.235-0.584,0.235s-0.427-0.083-0.584-0.236
	l-3.344-3.237c-0.161-0.155-0.251-0.366-0.251-0.59s0.09-0.434,0.252-0.591c0.312-0.301,0.854-0.303,1.169,0l2.763,2.674
	l6.151-5.954c0.312-0.303,0.854-0.304,1.167,0c0.161,0.155,0.25,0.363,0.25,0.586C15.689,6.771,15.601,6.979,15.439,7.136z"/>
</svg>
