<?xml version="1.0" encoding="utf-8"?>
<!-- Generator: Adobe Illustrator 16.0.0, SVG Export Plug-In . SVG Version: 6.00 Build 0)  -->
<!DOCTYPE svg PUBLIC "-//W3C//DTD SVG 1.1//EN" "http://www.w3.org/Graphics/SVG/1.1/DTD/svg11.dtd">
<svg version="1.1" id="Layer_1" xmlns="http://www.w3.org/2000/svg" xmlns:xlink="http://www.w3.org/1999/xlink" x="0px" y="0px"
	 viewBox="0 0 18.663 18.973" enable-background="new 0 0 18.663 18.973" xml:space="preserve">
<path fill-rule="evenodd" clip-rule="evenodd" fill="#3BA9B1" d="M4.128,18.973V8.282C2.503,9.424,1.443,9.992,0,10.05
	C2.489,7.454,3.786,4.079,5.005,0c1.168,4.079,2.593,7.305,5.007,10.05C8.442,9.875,7.495,9.402,5.768,8.247v10.726H4.128z"/>
<path fill-rule="evenodd" clip-rule="evenodd" fill="#C4C8CC" d="M16.075,7.078v6.702c1.02-0.716,1.684-1.072,2.588-1.108
	c-1.561,1.627-2.373,3.744-3.138,6.301c-0.731-2.557-1.625-4.58-3.139-6.301c0.984,0.109,1.578,0.406,2.661,1.13V7.078H16.075z"/>
</svg>
