<?xml version="1.0" encoding="utf-8"?>
<!-- Generator: Adobe Illustrator 16.0.0, SVG Export Plug-In . SVG Version: 6.00 Build 0)  -->
<!DOCTYPE svg PUBLIC "-//W3C//DTD SVG 1.1//EN" "http://www.w3.org/Graphics/SVG/1.1/DTD/svg11.dtd">
<svg version="1.1" id="Layer_1" xmlns="http://www.w3.org/2000/svg" xmlns:xlink="http://www.w3.org/1999/xlink" x="0px" y="0px"
	  viewBox="0 0 18.663 18.973" enable-background="new 0 0 18.663 18.973" xml:space="preserve">
<path fill-rule="evenodd" clip-rule="evenodd" fill="#3BA9B1" d="M14.536,0v10.69c1.625-1.142,2.685-1.71,4.128-1.768
	c-2.489,2.596-3.786,5.972-5.005,10.05c-1.168-4.078-2.593-7.305-5.007-10.05c1.569,0.175,2.517,0.648,4.244,1.803V0H14.536z"/>
<path fill-rule="evenodd" clip-rule="evenodd" fill="#C4C8CC" d="M2.589,18.973v-6.702c-1.02,0.716-1.684,1.072-2.588,1.108
	c1.561-1.627,2.373-3.744,3.138-6.301c0.731,2.557,1.625,4.58,3.139,6.301c-0.984-0.109-1.578-0.406-2.661-1.13v6.724H2.589z"/>
</svg>
