<?xml version="1.0" encoding="utf-8"?>
<!-- Generator: Adobe Illustrator 21.0.2, SVG Export Plug-In . SVG Version: 6.00 Build 0)  -->
<svg version="1.1" id="Layer_1" xmlns="http://www.w3.org/2000/svg" xmlns:xlink="http://www.w3.org/1999/xlink" x="0px" y="0px"
	 viewBox="0 0 841.9 595.3" style="enable-background:new 0 0 841.9 595.3;" xml:space="preserve">
<style type="text/css">
	.st0{fill:#FFFFFF;}
</style>
<g>
	<path d="M530.6,367.8c-1,0.5-1.9,1.4-2.9,1.6c-5.4,1-10.8,1.8-16.2,2.7c-1.3,0.2-2.5,0.8-3.7,1.2c0,0.3,0,0.7,0,1
		c1.1,0.3,2.1,0.6,3.3,0.9c-4.7,2.4-9.5,3-14.7,1.9c-6.6-1.4-13.2-2.6-19.9-3.3c-2.8-0.3-5.8,0.8-8.6,1.6c-4,1.3-5.9,0.2-6-4.1
		c-4.8-1-9.6-2.1-14.5-2.9c-15.5-2.6-31-5-46.4-7.5c-4.7-0.8-9.3-1.5-14-2.2c-0.9-0.1-1.9,0.5-2.8,0.6c-4.4,0.6-8.7,1-13.1,1.7
		c-1.2,0.2-2.2,1.2-3.3,1.3c-3.5,0.2-7.1,2-10.1,1.9c-3.9-0.2-6.4,3.3-10.3,2.1c0-1.1,0-2.4,0-3.7c1.6-0.2,3.1-0.5,4-0.6
		c-2.1-1.8-4.3-3.8-6.8-6c0,4.3,0,8,0,11.8c1.3,0,2.4,0,3.2,0c-0.6,2.3-1.1,4.5-1.6,6.7c1.6,0.8,2.9,1.4,4.2,2.1
		c-0.1,0.4-0.2,0.8-0.4,1.2c-4,0.7-8.1,2.3-12.5,0c0.4-0.8,0.6-1.5,0.9-1.5c4.7-1.1,4.3-4.1,3.8-8c-0.6-4.4-0.2-9,0.1-13.5
		c0.2-3.3-1.1-4.6-4.2-5.1c-11-1.7-21.9-3.5-32.9-5.4c-9.3-1.6-18.6-3.9-27.9-5c-4.7-0.5-9.5,1-14.3,1.4c-2.6,0.3-5.3,0.1-7.9,0.5
		c-3.2,0.5-6.3,1.4-9.5,2.2c-4.7,1.1-9.3,2.3-14.2,3.5c0-1.5,0-2.5,0-3.8c1.7-0.3,3.4-0.7,5-1c0-0.2,0.1-0.4,0.1-0.6
		c-0.8-0.3-1.6-0.6-2.5-0.8c-1.7-0.3-3.2-0.6-3.2-2.9c0-0.4-0.9-0.9-1.4-1.3c-0.4,0.5-1.1,1.1-1.1,1.6c-0.1,2.7-0.3,5.5,0.1,8.2
		c0.1,0.9,1.8,1.5,3,2.4c-0.4,1.4-1,3.4-1.6,5.2c1.6,1.1,3,2,4.4,2.9c-0.1,0.5-0.3,1-0.4,1.5c-4,0.2-8,0.4-13,0.6
		c1-1.8,1.3-2.9,1.7-2.9c4.3-0.6,3.7-3.6,3.6-6.7c-0.2-5.2,0-10.5,0-15.7c0-5.5,1.9-7.7,7.4-8.4c0.7-0.1,1.4-0.1,2.5-0.2
		c0-5.6-0.1-11,0-16.5c0-2.9,2.1-3.8,5-3.1c4.6,1.1,9.4,1.5,14.1,2.5c3.8,0.8,7.4,2,11.2,2.7c8.1,1.5,16.2,2.7,24.5,4.1
		c-1.7-3.9-4.8-4-8.2-4.1c-1.7,0-3.3-0.8-5-1c-10-1.4-20-2.6-30.1-4c-1.3-0.2-2.5-0.5-2.8-0.5c2.7-5.1,5.4-10.1,8.4-15.5
		c-4.3,0.7-8.4,1.3-12.4,2c-0.1-0.6-0.2-1.1-0.3-1.7c2.6-0.5,5.2-1.1,7.7-1.5c5.6-0.9,6-1.5,3.4-6.4c1.9,0.6,3.5,1.4,5.1,1.5
		c1.8,0.1,3.6-0.4,5.8-0.7c-0.4,0.9-0.8,1.6-1.5,3.3c5.2-0.6,9.8-1.2,14.4-1.7c0,0.4,0.1,0.8,0.1,1.2c-2.6,0.4-5.3,0.7-7.8,1.3
		c-4.9,1.1-5.4,2.1-2.8,6.2c1,1.6,1.7,3.5,3.1,4.6c1.5,1.2,3.9,2.7,5.5,2.3c4.2-1,7.3-0.2,10.7,2.4c2.2,1.6,5.3,2.2,8,2.8
		c6.3,1.3,12.7,2.6,19.1,3.3c3.1,0.3,6.2-0.8,9.4-1.1c0.9-0.1,1.9,0.3,2.7,0.7c4.7,2.4,9.5,5.6,15,3.7c6.1-2.1,11.7-0.3,17.4,0.8
		c0.8,0.1,1.4,0.7,2.8,1.4c-2.6,0.2-4.4,0.3-6.2,0.4c0,0.4-0.1,0.7-0.1,1.1c4,0.8,8.1,1.6,12.1,2.4c3.1,0.6,6.1,1.1,9.2,1.4
		c0.5,0,1.8-1.4,1.7-2c-0.8-3.5-1.8-7-2.7-10.4c-2-7.4-4.1-14.8-6.1-22.1c-1.8,0-3.3,0-4.9-0.1c-0.1,0-0.2-1.2-0.1-1.2
		c0.9-0.3,1.9-0.5,3.7-0.9c-0.9-2-1.9-4-3.3-7c0.2-0.2,1.3-1.2,2.6-2.4c-3-0.4-5.6-0.9-2.9-4.7c0.5-0.6-0.9-2.5-1.1-3.8
		c-0.2-1.2-0.6-3.2,0.1-3.7c3.3-2.4,6.7-4.7,10.3-6.5c1.3-0.7,3.3-0.1,4.9-0.2c2-0.1,3.9-0.6,5.9,0.5c1.9,1.1,4,1.7,6,2.4
		c1.3,0.4,2.6,1,3.9,0.9c6.5-0.6,13-1.5,19.5-2.1c10.2-1,20.5-1.9,30.7-2.8c1.6-0.1,3.2,0.1,4.9,0c12.5-1,25-2.1,37.5-3
		c12.5-0.9,25.1-1.5,37.6-2.4c15.8-1.1,31.5-2.4,47.3-3.6c11.8-0.9,23.6-1.6,35.4-2.4c7.9-0.6,15.8-1.2,23.8-1.8
		c1.1-0.1,2.2,0,4.2,0c-4.3,3.2-10.3,3.4-9.9,11c1.6-2.2,2.6-3.8,3.5-5.1c0.3,5.3,0.3,5.5-5.2,6.5c-4.4,0.8-8.8,1.4-13.3,1.7
		c-11.6,0.8-23.3,1.5-35,2.2c-7.6,0.5-15.1,1.1-22.7,1.7c-3.4,0.2-4.7,2.1-5.2,6.4c-0.9,7.3-2,14.5-3.2,21.7
		c-2.4,15.2-4.8,30.4-7.6,45.6c-0.9,4.6-3.1,9-4.7,13.7c0.5,0.1,1.7,0.2,2.9,0.3c0.1,0.2,0.2,0.4,0.3,0.7c-1.3,0.5-2.7,0.9-4,1.4
		c0,0.2,0.1,0.4,0.1,0.5c2.5-0.6,4.9-1.2,6.2-1.5c-0.6-0.1-1.7-0.4-2.8-0.6c0.7-0.8,1.4-1.5,2.1-2.3c4.7-0.9,9.2,4.4,13.8-0.3
		c0.8,3.9-1.3,6.2-5.6,6.8c-10.6,1.5-21.2,2.9-31.8,4.7c-1.5,0.3-3.3,2-4,3.5c-1.5,3.2-2.2,7.3,0.6,9.8c1.9,1.7,5.5,2.2,8.2,2
		C520.4,369.7,525.5,368.6,530.6,367.8L530.6,367.8z M618.2,243.5c-1.8,0.6-3.7,1.3-5.5,1.9c0.1,0.9-0.1,1.8,0.3,2.4
		c0.6,1.1,1.5,2,2.3,3c0.9-0.7,1.9-1.3,2.5-2.3c1.1-1.7,2-3.6,3.3-6.1c-1.4,0.5-2.2,0.8-3,1.1c-2-0.4-4.1-1.3-6.1-1.2
		c-14.3,1.2-28.6,2.7-43,4c-6.2,0.5-12.3,0.8-18.5,1.2c-0.7,0-1.3,0.6-1.9,0.9c7,0.4,13.7,0.1,20.4-0.4c3.6-0.2,7.1-0.9,10.7-1.1
		c1,0,2.9,1.1,2.9,1.6c-0.3,3.6,2,2.6,3.9,2.7c-0.1-1.9-0.2-3.6-0.3-5c6.8-0.7,13.3-1.3,19.6-1.9c-0.6,1.9-1,3.2-1.4,4.5
		c1.9,0.4,4.1,1.4,5.5,0.8c0.9-0.4,0.8-3.3,1.3-5.8C612.9,244,615.6,243.7,618.2,243.5z M387.8,326.2c1.1,0.5,2.2,1.2,3.4,1.4
		c8.4,1.5,16.9,2.6,25.3,4.3c7.6,1.6,15.5,1.6,23.1,3.8c5.1,1.5,10.5,2,15.8,2.8c1.1,0.2,2.4-0.2,3.6-0.3c0-0.4,0-0.8-0.1-1.2
		c-1.2-0.3-2.3-0.6-3.5-0.8c-11.8-2.1-23.5-4.2-35.3-6.2c-9.6-1.7-19.2-3.4-28.8-4.9C390.2,324.8,388,323,387.8,326.2
		c-0.8-1.4-1.6-2.8-2.9-4.8c7.8,1.2,14.7,2,21.5,3.2c12,2.2,24,4.5,36,6.9c4.4,0.9,8.8,1.2,13.3,0.1c2.4-0.6,5.3-1.6,7.4-0.8
		c4.1,1.4,9.2-0.3,12.4,3.9c0.1,0.1,0.5,0.1,0.6,0c2.3-2.8,2.9,0.6,4.2,1.1c1.4,0.6,2.8,1.2,4.8,2.2c-0.5-1.9-0.6-2.5-0.9-3.6
		c1.4,0.8,2.2,1.6,3.1,1.7c3.8,0.5,7.6,0.8,11.4,1.1c0.8,0,2.2-0.5,2.4-1.2c1.6-4.3,2.9-8.8,4.5-13.8c-1.8,0.5-2.8,0.8-3.8,1.1
		c-0.2-0.3-0.4-0.7-0.6-1c0.7-0.5,1.5-1.4,2.2-1.3c2.8,0.2,3.7-1.7,4.5-3.7c0.5-1.1,0.6-2.4,1.1-3.6c6.5-14.4,8.5-29.8,11-45.2
		c0.2-1.1-0.1-2.2-0.3-3.3c-0.3-1.5-0.7-3-1.2-5.1c-1.1,0-2.8-0.1-4.5,0c-13.1,1.2-26.2,2.5-39.3,3.6c-9.6,0.8-19.1,1-28.7,1.6
		c-12.3,0.9-24.5,2-36.8,3c-9.8,0.8-19.5,1.7-29.3,2.2c-5.5,0.3-5.5-0.1-4.4,5c0.1,0.6,0.1,1.2,0.2,1.9c-3.6,0-7.2,0.3-10.3,2.5
		c3.4-0.9,7.7,1.6,10.2-2.6c0.2,2,0.4,3.9,0.5,5.9c-0.4,0.1-0.8,0.3-1.2,0.4c-1.4-4.7-4.2-2.8-7.2-1.9c4.1,14.4,8.1,28.7,12.3,42.9
		c0.2,0.8,1.5,1.5,2.4,2c0.9,0.5,1.9,0.6,3.5,1.1c-1,0.6-1.4,0.9-1.6,0.8c-5.4-1.1-10.8-2.4-16.2-3.5c-7-1.4-14-2.7-21.1-3.9
		c-5.3-0.9-10.7-1.6-16.1-2.2c-2.9-0.3-5.9-0.1-8.8-0.1c0,0.4-0.1,0.9-0.1,1.3c2,0.4,4,0.8,6.1,1.2c8.2,1.3,16.5,2.5,24.8,3.9
		c9.8,1.7,19.6,3.6,29.4,5.3c11.3,2,22.5,4,33.8,5.7c3.5,0.5,7.2,0.1,10.8,0.1c0-0.3,0-0.6,0-1c-1.2-0.2-2.4-0.5-3.6-0.7
		c-8.9-1.5-18-2.6-26.8-4.5C393.8,329.7,389.4,330.6,387.8,326.2z M453.2,340.4c-0.1,0.6-0.2,1.2-0.3,1.8
		c17.3,3.9,34.7,6.7,52.4,8.4c-6.1-5.4-14.8-1.3-21.1-5.6c14.4-1.3,14.4-1.3,15.3-5.6c-9.5,5.5-18.7-0.5-28.6-0.3
		c2,4.5,7.3,1.2,9.2,5.3C470.9,343,462.1,341.7,453.2,340.4z M319.7,314.1c0-0.5,0.1-0.9,0.1-1.4c-15.5-2.7-30.9-5.3-46.4-8
		c-0.2,0.4-0.3,0.8-0.5,1.3c1.2,0.7,2.4,1.6,3.7,2c6.5,2.2,13.4,1.3,20,3.4c3.7,1.2,7.7,1.6,11.6,2.4c-4.4,4.3-9.2-2.2-13.3,2.3
		c5.3,0.4,10.6,0.7,16.3,1.1c-0.7-1.6-0.9-2.2-1.3-3.1C313.5,314.1,316.6,314.1,319.7,314.1z M249.3,304.6c5.3,0.5,9.9,0.9,14.4,1.4
		c1.3-6.4-2.3-14.1-7.7-16.3C253.8,294.6,251.6,299.5,249.3,304.6z M330,347.2c0.4-0.3,1.2-0.8,2-1.4c-0.7-0.8-1.3-2.2-2.2-2.3
		c-11.3-2.1-22.6-4-34-5.8c-0.8-0.1-1.8,0.7-2.7,1.1c0.7,0.8,1.3,2.1,2.2,2.3C306.7,343.2,318,345.1,330,347.2z M438.9,365.8
		c1.4-3,0-3.8-2.2-4.1c-8.1-1.3-16.2-2.8-24.3-4.1c-2.4-0.4-4.9-0.7-7.3-0.8c-0.7,0-1.5,0.9-2.2,1.4c0.7,0.6,1.3,1.6,2,1.7
		C416.2,362,427.5,363.9,438.9,365.8z M450.7,364.2c-1,3,0.2,3.7,2.3,4c9.2,1.5,18.3,3.2,27.5,4.7c0.3,0.1,0.6-0.1,1.2-0.3
		c-0.8-0.7-1.4-1.3-2.1-1.9c1-0.3,1.6-0.5,2.2-0.7c-3-1.1-6.1-1.6-9.1-2.2c-2.1-0.4-4.8-0.2-6-1.4c-1.1-1.1-0.6-3.9-1-5.8
		c-0.1-0.7-0.8-1.3-1.4-1.8c-0.2-0.2-1.2,0.2-1.2,0.4c0,0.8,0,1.7,0.3,2.4c0.6,1.4,1.3,2.7,2.5,5C460,365.7,455.4,364.9,450.7,364.2
		z M429.5,258.3c0-0.4,0-0.9,0-1.3c-0.5-0.1-1.1-0.4-1.6-0.3c-13.8,1-27.6,1.9-41.3,2.9c-1.1,0.1-2.4,0.1-3.3,0.6
		c-0.8,0.5-1.4,1.6-1.7,2.6c-0.1,0.4,0.7,1.6,1.1,1.5c0.8-0.1,1.6-0.7,2.4-1c1.5-0.7,3-1.7,4.6-1.8c7.9-0.7,15.9-1.1,23.8-1.7
		C418.7,259.3,424.1,258.8,429.5,258.3z M509.4,350.3c0.3-1.9,0.2-3.2,0.8-4.2c1.4-2.7,3.2-5.3,4.7-8c2.7-4.8,2.1-6.7-1.5-7.5
		c-2.2,2.2-5.3,4-3.1,7.4c-2.6,0.5-7,4.9-6.1,6.6C505.4,346.8,507.7,348.5,509.4,350.3z M512.1,310c-4.1,11.8-8.3,23.6-12.4,35.4
		C508.1,335.8,511.9,324.9,512.1,310z M529.4,327.9c-6.9,5-6.9,12.4-8.9,19.3c1.7-0.6,3.6-1.4,4.6-2.8c2-2.8,3.7-5.8,5.4-8.8
		C533,331.2,532.4,328.9,529.4,327.9z M493.1,253.6c0-0.6-0.1-1.2-0.1-1.8c-14.8,1.1-29.7,2.3-44.5,3.4c0,0.6,0.1,1.2,0.1,1.8
		C463.5,255.9,478.3,254.7,493.1,253.6z M352.7,320.9c8,1.4,16,2.9,24.6,4.4C375.3,321.6,355.7,317.9,352.7,320.9z M531.6,288
		c-3.2,0.3-5.5,0.8-5.3,4.7c0.1,2-0.7,4.1-1,6.2c-0.3,1.9-0.5,3.9-0.8,6.4C528.1,302.7,531.3,294.5,531.6,288z M521.5,273.6
		c-0.6,3.2-0.9,6.2-1.6,9c-0.8,3.4,0.8,4.4,3.7,4.7C526.8,277.7,526.5,275.6,521.5,273.6z M521.5,301.7c0.6-3,0.9-5.8,1.6-8.6
		c0.9-3.4-0.6-4.8-3.7-5.1C516.6,299.6,516.6,300.6,521.5,301.7z M532.8,299.4c-3.3,8.9-2.9,12.3,1.6,13.6
		C537.6,305.4,537.2,300.9,532.8,299.4z M532.1,326.9c3.3-8.7,2.9-11.7-1.5-13.4C527.2,321,527.7,325.6,532.1,326.9z M514.6,315.8
		c-0.6,3.1-0.9,6.1-1.6,8.9c-0.8,3.4,0.8,4.4,3.7,4.7C519.8,320.6,519.5,317.7,514.6,315.8z M512.2,250.4c4.6,2.1,26.9,0.7,32.9-2.2
		C533.7,248.9,523.2,249.6,512.2,250.4z M535.2,285.2c-3.3,9.5-3,12.2,1.6,13.5C540,291.4,539.6,286.8,535.2,285.2z M539.2,284.7
		c3.2-9.4,2.8-12.2-1.8-13.5C534.2,279.6,534.6,283.2,539.2,284.7z M524,259.7c-2.5,12.6-3.2,12.5,1.9,13.4
		C529.1,265,528.7,261.1,524,259.7z M519.2,315.6c0.5-3.1,0.8-5.9,1.5-8.6c0.9-3.5-0.8-4.6-3.7-5.1
		C514.4,314.3,514,314.2,519.2,315.6z M543.9,259.3c-2.4-0.6-4.6-1.3-5.1,1.6c-1.2,7.4-2.6,8.5,3.1,10
		C542.6,267,543.2,263.2,543.9,259.3z M487.8,367.9c0.5-1,0.9-2.1,1.5-3.1c0.4-0.6,1-1.5,1.4-1.5c4,0.3,5.7-3,8.1-5
		c0.6-0.5,0.5-1.7,1-3.6c-4.1,2.8-7,5.6-10.4,6.9C485.3,363,486.6,365.2,487.8,367.9z M340.7,342.6c0.1-0.3,0.2-0.7,0.3-1
		c-3.8-2.1-18.9-4.1-21.1-1.8C326.9,340.7,333.8,341.7,340.7,342.6z M335.1,344.4c-0.3,0.3-0.6,0.5-0.9,0.8c0.5,0.9,0.8,2.6,1.4,2.7
		c2,0.3,4.1,0.1,6.2,0.1c1.2,0,2.5-0.2,3.6,0.1c0.8,0.2,1.5,1.1,2.2,1.7c0.2-0.5,0.8-1.3,0.7-1.5c-0.6-0.8-1.4-1.8-2.2-2
		C342.4,345.5,338.7,345,335.1,344.4z M534.1,271.9c-5.5,2.2-5.9,2.9-5.5,9C533.7,281.2,534.5,279.9,534.1,271.9z M520.3,335.6
		c2.1-3.6,5.6-6.6,5.1-11.5C520.7,325.3,519.7,327.6,520.3,335.6z M362.9,352.2c0.1-0.5,0.2-1,0.3-1.5c-4.5-0.9-9-1.8-14.3-2.9
		c0.9,1.2,1.4,2.7,2.2,2.9C355,351.3,358.9,351.7,362.9,352.2z M496.3,375.6c0.1-1.3,0.1-2.4,0.2-3.5c-2.2-0.4-4.1-0.9-6-1
		c-0.7,0-1.9,0.9-1.9,1.4c0,0.7,0.8,1.9,1.4,2C491.9,375,494,375.2,496.3,375.6z M440.6,362.9c0.1,3.5,1.9,4.3,7.2,3.8
		C448.1,363.3,447,362.8,440.6,362.9z M523.1,320.6c0.2,0.3,0.3,0.7,0.5,1c0.9-0.4,2.6-0.7,2.7-1.3c0.9-4,1.5-8.1,2.1-12.2
		c-0.3-0.1-0.6-0.1-0.9-0.2C526,312.1,524.5,316.4,523.1,320.6z M604.2,252.1c-0.4-1.5-0.6-2.8-1.2-3.8c-0.5-0.9-1.3-1.7-2-2.5
		c-0.5,1-1.4,2-1.3,2.9c0.5,2.4,0.1,3.7-3,3.4C599.4,252.1,601.7,252.1,604.2,252.1z M371.7,271.4c-2.7,0.4-4.6,0.8-6.5,1.1
		c-0.2,0.4-0.5,0.7-0.7,1.1c1.1,1.3,2.2,3.5,3.4,3.7C371.8,277.6,370.3,273.9,371.7,271.4z M291.6,336.4c-3,0.5-5.7,1-9.2,1.6
		C288.7,341.4,291.7,340.9,291.6,336.4z M459.4,337.3c3,3.8,6.9,2.2,10.6,4.2C467.3,336.6,463.6,337.4,459.4,337.3z M335.8,316.9
		c0.1-0.4,0.2-0.9,0.2-1.3c-4.1-0.7-8.3-1.4-12.4-2.2c-0.1,0.5-0.2,1-0.3,1.5C327.6,315.6,331.7,316.3,335.8,316.9z M535.2,349
		c0-0.3,0-0.6,0-0.9c-5.3,0.9-10.5,1.8-15.8,2.7c0.1,0.3,0.1,0.6,0.2,0.9C524.8,350.8,530,349.9,535.2,349z M528.1,259.4
		c1.9-3.6-0.1-4.7-3.1-5.6C523.1,257.5,525.5,258.4,528.1,259.4z M250.2,330.6c0-0.3,0-0.5,0-0.8c-2.4-0.4-4.8-0.8-7.3-1.2
		c0,1.3,0,2.3,0,3.6C245.5,331.6,247.9,331.1,250.2,330.6z M240.8,329.2c-2.1-0.6-4.2-1.2-6.6-1.9
		C235.6,331.2,236.5,331.6,240.8,329.2z M478.1,364.5c0.4,0.5,0.7,1,1.6,2.3c0-2.2,0-3.4,0-4.7c-4.3-0.3-4.6,0.1-3.1,4.8
		C477.4,365.8,477.8,365.1,478.1,364.5z M536,264c0-0.4,0-0.8-0.1-1.2c-0.8-0.4-1.8-1.3-2.4-1.1c-1,0.4-1.7,1.5-2.6,2.3
		c0.7,0.5,1.4,1.6,2,1.5C534,265.4,535,264.6,536,264z M236.5,333.9c0.1-0.3,0.2-0.6,0.3-1c-2.3-1.2-4.7-2.5-7.6-4.1
		c1.7,2.3,2.8,3.9,4.1,5.7C234.2,334.4,235.3,334.1,236.5,333.9z M461.6,359c-2.1,0.6-5.3-0.5-3.6,3.8
		C460,362.3,462.7,363,461.6,359z M437.8,340c3.4,0.7,6.5,1.3,9.5,1.9C444.4,339.7,441.7,337,437.8,340z M446.1,256.6
		c0-0.1,0-0.2-0.1-0.3c-3,0-6,0-9,0c0,0.5,0.1,0.9,0.1,1.4C440.2,257.3,443.2,256.9,446.1,256.6z"/>
	<path d="M295.2,290.8c0.9,0.6,1.7,1.2,3.3,2.3c0-3.4,0-5.9,0-8.4c0.4-0.2,0.7-0.3,1.1-0.5c0.9,1.3,1.7,2.6,2.6,3.8
		c-0.8,0.2-2.2,0.5-2.1,0.6c0.3,2,0.3,4.4,1.3,6c2,3.1,4.5,6,7.3,8.4c1.6,1.4,4.2,1.7,6.3,2.6c0.2-0.3,0.3-0.7,0.5-1
		c-1.7-2.6-3.4-5.2-5.2-7.8c2.6,2.9,5.2,5.9,7.8,8.8c-0.3,0.4-0.6,0.8-0.9,1.2c-10.7-2.7-21.8-2.8-32.5-5.2c0-0.4,0.1-0.8,0.1-1.2
		c1.1-0.5,2.2-1,3.3-1.5c-0.1,0.3-0.2,0.6-0.3,0.9c2.3,0.8,4.7,1.5,7,2.3c0.3-0.4,0.5-0.8,0.8-1.1c-2.6-2.7-6-5-7.5-8.2
		c-1.4-3.1-0.9-7.1-1.2-10.8c0.5-0.1,0.9-0.3,1.4-0.4c1.1,1.8,2.2,3.6,3.3,5.4c-0.8-0.6-1.5-1.1-2.4-1.7c-1.1,5.4,2.9,12.3,9,15.8
		C299.8,297,296.9,294.1,295.2,290.8z"/>
	<path d="M521,362c-0.7,0.6-1.7,1.4-2.7,2.2c-1-5.1-0.8-5.4,4-6.1c2.7-0.4,5.3-0.9,8-1.2c2.5-0.3,5-0.4,7.8-0.7
		c0.3,1.5,0.6,2.9,1,4.8c-5,1.1-9.7,2.3-14.5,3C523.6,364.2,522.4,362.8,521,362z"/>
	<path d="M523.7,372.6c7.9-1.3,15.9-2.7,23.8-4c0.1,0.5,0.1,0.9,0.2,1.4c-8.1,1.1-16.2,2.1-24.2,3.2
		C523.6,373,523.7,372.8,523.7,372.6z"/>
	<path d="M530.7,367.8c4.9-0.9,9.8-1.9,14.7-2.8c0.1,0.5,0.1,1.1,0.2,1.6C540.7,367,535.7,367.4,530.7,367.8
		C530.6,367.8,530.7,367.8,530.7,367.8z"/>
	
</g>
</svg>
