<?xml version="1.0" encoding="utf-8"?>
<!-- Generator: Adobe Illustrator 21.0.2, SVG Export Plug-In . SVG Version: 6.00 Build 0)  -->
<svg version="1.1" id="Layer_1" xmlns="http://www.w3.org/2000/svg" xmlns:xlink="http://www.w3.org/1999/xlink" x="0px" y="0px"
	 viewBox="0 0 181.4 181.4" style="enable-background:new 0 0 181.4 181.4;" xml:space="preserve">
<style type="text/css">
	.st0{fill:#FFFFFF;}
</style>
<g>
	<path d="M-102,129.6c0-1.3,0-2.5,0-3.8c1.7-0.4,3.4-0.7,5-1.1c0-0.2,0-0.3,0-0.5c-0.9-0.3-1.8-0.7-2.7-0.8
		c-1.7-0.3-2.9-0.8-3.1-2.7c-0.1-0.5-0.7-0.9-1.1-1.4c-1,0.6-1.3,1.3-1.3,2.3c0,2.1,0.1,4.1,0,6.2c-0.1,1.4,0.6,2.3,1.8,2.8
		c1.1,0.5,1.4,1.2,0.9,2.3c-0.2,0.3-0.2,0.7-0.3,1c-0.9,2.8-0.9,2.8,1.5,4.3c0.4,0.3,0.9,0.5,1.3,0.9c0.3,0.3,0.6,0.8,0.5,1.1
		c-0.1,0.4-0.6,0.8-1,0.9c-1.5,0.2-3.1,0.2-4.7,0.2c-2.4,0-4.9,0-7.3,0c0.6-1.1,0.8-2.7,2.8-3c1.5-0.2,2.3-1.5,2.3-3
		c0.1-1.6-0.1-3.1-0.1-4.7c0-5.6-0.1-11.1,0.2-16.7c0.2-3.7,2.5-5.5,6.6-6c1-0.1,2-0.2,3.1-0.3c0-0.4,0-0.8,0-1.3c0-5,0-10,0-15
		c0-2.6,1.5-3.9,4.1-3.4c8.6,1.5,17.2,3.1,25.6,5.1c5.3,1.3,10.8,1.9,16.2,2.8c2.8,0.5,5.6,0.9,8.6,1.4c-0.3-1.5-1.2-2.4-2.4-3
		c-1.1-0.5-2.4-0.8-3.6-1c-2.4-0.4-4.9-0.8-7.3-1.1c-3.9-0.5-7.8-1.1-11.7-1.6c-4.7-0.6-9.3-1.2-14-1.9c-2.2-0.3-4.5-0.6-6.9-1
		c2.8-5.2,5.5-10.2,8.4-15.5c-4.2,0.7-8.3,1.3-12.4,1.9c-0.1-0.6-0.1-1.1-0.2-1.7c2.8-0.5,5.5-1,8.3-1.6c1-0.2,2-0.4,3-0.8
		c1.3-0.4,1.6-1.2,1.1-2.4c-0.3-1-0.8-1.9-1.3-3.2c3.6,1.9,7.1,1.9,10.9,0.8c-0.5,1.2-1,2.2-1.5,3.4c4.9-0.6,9.5-1.1,14.3-1.7
		c0.1,0.4,0.1,0.8,0.1,1.1c-0.2,0.1-0.3,0.1-0.4,0.2c-3,0.6-6,1.1-9,1.7c-0.5,0.1-1.1,0.3-1.6,0.6c-1,0.5-1.5,1.4-1,2.4
		c1.7,3.4,3,7,6.7,8.9c1.3,0.6,2.5,1,4,0.7c3.1-0.7,6.1-0.3,8.7,1.7c3,2.2,6.3,3.1,9.8,3.8c5,1,10.1,1.8,15.2,2.8
		c3.7,0.7,7.2,0.4,10.8-0.4c2.1-0.5,3.9,0,5.8,0.9c2.7,1.3,5.5,2.6,8.3,3.5c1.3,0.4,3,0.4,4.4,0C8.8,93,14,93.4,19.2,94.7
		c1.7,0.4,3.3,1,5,1.5c0.2,0.1,0.3,0.2,0.7,0.5c-1.9,0.1-3.6,0.2-5.2,0.4c-0.3,0-0.6,0.4-0.9,0.6c0.3,0.2,0.5,0.6,0.8,0.7
		c6.4,1.2,12.9,2.4,19.3,3.5c2,0.4,3.1-0.9,2.6-2.9c-2.4-9-4.9-18-7.3-27c-0.3-1.1-0.6-2.2-0.9-3.3c-0.2-0.9-0.6-1.4-1.6-1.2
		c-1,0.1-2,0.1-3,0c-0.3,0-0.7-0.4-0.7-0.6c-0.1-0.2,0.3-0.6,0.6-0.7c0.9-0.3,1.9-0.5,3.1-0.8c-1.1-2.4-2.2-4.6-3.3-6.9
		c0.7-0.7,1.5-1.4,2.4-2.3c-0.8-0.2-1.6-0.4-2.2-0.6c-1.6-0.5-2.2-1.4-1.3-2.7c1-1.6,0.7-2.8,0-4.3c-0.4-0.9-0.5-1.9-0.6-2.9
		c-0.2-0.9,0.1-1.7,1-2.2c3-1.9,6-3.8,9-5.7c0.8-0.5,1.8-0.5,2.7-0.7c0.2,0,0.3,0,0.5,0c5.4-0.9,10.1,1.4,15,3.2
		c1.7,0.7,3.5,0.7,5.3,0.5c7.2-0.8,14.4-1.6,21.7-2.3c8.4-0.8,16.8-1.6,25.1-2.3c2.8-0.2,5.6-0.1,8.4-0.3c7.6-0.6,15.1-1.2,22.7-1.8
		c6.1-0.5,12.2-0.9,18.3-1.3c9.5-0.6,19.1-1.2,28.6-1.8c7.3-0.5,14.6-1,22-1.6c10.7-0.8,21.3-1.7,32-2.5c8-0.6,15.9-1,23.9-1.6
		c9.1-0.6,18.2-1.3,27.2-2c1.7-0.1,3.4-0.2,5.1-0.3c0.4,1.9,0.4,2.1-1.2,2.9c-3.5,2-4.9,4.3-4.6,7.8c1.1-1.6,2.1-3.1,3.2-4.6
		c0.1,0.2,0.2,0.2,0.2,0.3c0.4,4.4-0.1,5-4.5,5.8c-6.6,1.2-13.3,1.8-20.1,2.2c-7.7,0.4-15.5,0.9-23.2,1.4
		c-6.9,0.5-13.8,0.9-20.7,1.4c-2.8,0.2-5.6,0.4-8.3,0.7c-1.9,0.2-3.4,1.2-3.9,3.1c-0.6,2.2-0.9,4.4-1.2,6.7c-0.7,4.6-1.3,9.3-2,13.9
		c-0.8,5.3-1.7,10.6-2.5,15.9c-1,6-1.9,12.1-3,18.1c-0.9,5.2-1.6,10.5-2.8,15.6c-0.9,3.8-2.4,7.5-3.7,11.3c-0.3,0.9-0.6,1.7-0.9,2.6
		c0.7,0.1,1.3,0.2,1.9,0.3c0.9,0.2,1.6-0.1,2-0.8c0.6-1.1,1.6-1.2,2.7-1c1.1,0.2,2.3,0.5,3.4,0.9c3,1,5.9,1.7,8.5-1
		c1,3.5-1.2,5.8-3.6,6.3c-2.4,0.5-4.9,0.9-7.4,1.2c-5.4,0.8-10.8,1.5-16.2,2.3c-3.1,0.5-6.1,1-9.2,1.4c-1.8,0.2-3.1,1.1-4.1,2.5
		c-1.6,2.2-2.4,4.8-2,7.5c0.4,2.8,2.5,4.5,5.7,5.2c2.7,0.5,5.4,0.1,8.1-0.3c3.4-0.6,6.8-1.2,10.2-1.8c0.2,0,0.5,0,0.8,0
		c-1,1.2-2.3,1.4-3.6,1.7c-5,0.8-10,1.6-15,2.5c-1,0.2-2,0.6-2.9,1c-0.3,0.1-0.5,0.5-0.5,0.8c0,0.2,0.3,0.5,0.6,0.6
		c0.7,0.3,1.5,0.5,2.5,0.8c-2.2,1.2-4.3,1.8-6.4,2.2c-4.2,0.8-8.1-0.3-12.2-1.1c-5.2-0.9-10.5-1.8-15.8-2.5
		c-2.9-0.4-5.6,0.7-8.3,1.5c-0.7,0.2-1.4,0.4-2.1,0.6c-2.3,0.5-4-0.6-4.2-3c-0.1-1.2-0.5-1.7-1.7-1.9c-8.1-1.4-16.3-3-24.4-4.4
		c-6.7-1.2-13.4-2.2-20.1-3.3c-6.7-1.1-13.4-2.1-20-3.2c-2.8-0.4-5.6-0.9-8.4-1.3c-0.3,0-0.6-0.1-0.8-0.1
		c-5.1,0.8-10.3,1.2-15.3,2.5c-3.4,0.9-6.8,1.6-10.2,2.6c-1.6,0.4-3.3,0.3-4.8,0.7c-2,0.5-4,1.4-6,2c-0.9,0.2-1.9,0-2.8,0
		c0-1.4,0-2.6,0-3.8c1.2-0.2,2.4-0.4,3.9-0.7c-2.2-2-4.3-3.8-6.5-5.8c0,4,0,7.7,0,11.5c1,0,1.9,0,3.1,0c-0.5,2-0.9,3.8-1.4,5.6
		c-0.2,0.8-0.1,1.3,0.8,1.7c0.9,0.3,1.7,0.8,2.6,1.3c0.2,0.1,0.5,0.5,0.4,0.7c0,0.3-0.3,0.8-0.5,0.8c-4,0.8-8.1,2.2-12.2,0
		c0.2-0.9,0.5-1.5,1.6-1.8c2.6-0.8,3.7-2.7,3.4-5.4c-0.2-2.1-0.6-4.1-0.6-6.2c0-2.7,0.2-5.5,0.3-8.2c0-0.9,0.1-1.8,0.1-2.8
		c-0.1-1.8-1.1-3-3-3.4c-2.8-0.6-5.6-1-8.3-1.4c-5.6-0.9-11.2-1.8-16.9-2.7c-7.3-1.3-14.5-2.7-21.8-4c-5-0.9-10.1-1.9-15.2-2.5
		c-2.5-0.3-5.2,0.2-7.7,0.5c-3.4,0.3-6.7,0.9-10.1,1c-4.3,0.2-8.5,1.3-12.7,2.3C-91.8,127.1-96.8,128.3-102,129.6z M172.5,104.8
		c-1.3,0.4-2.2,0.7-3.2,0.9c-0.3,0.1-0.6,0-0.8-0.2c-0.1-0.1-0.1-0.6,0-0.7c0.5-0.4,1.1-0.9,1.6-0.9c2.6,0,3.9-1.5,4.7-3.7
		c0.5-1.3,0.7-2.8,1.3-4.1c2.8-6.4,5-13.1,6.4-20c1.5-7.4,2.7-14.9,4.1-22.3c0.2-1.4,0.5-2.8,0.4-4.1c-0.2-2-0.9-3.9-1.2-5.9
		c-0.2-0.9-0.5-1.1-1.3-1.1c-2.4,0.2-4.9,0.3-7.3,0.5c-5.4,0.5-10.9,1-16.3,1.5c-5.9,0.5-11.7,1.2-17.6,1.6
		c-5.3,0.4-10.7,0.6-16,0.9c-4.1,0.2-8.2,0.4-12.3,0.6c-3.9,0.2-7.7,0.6-11.6,0.9c-3.3,0.3-6.5,0.5-9.8,0.8
		c-4.3,0.4-8.5,0.8-12.8,1.1c-4.5,0.4-8.9,0.7-13.4,1C61,52.1,54.8,52.6,48.6,53c-1.7,0.1-3.4,0.1-5.1,0.3c-1.9,0.2-2.2,0.8-1.8,2.7
		c0.3,1.3,0.5,2.5,0.7,3.8c-7.3,1-8.8,1.4-9.9,2.8c3.3-0.7,7,1.3,9.8-2.1c0.2,1.7,0.3,3.2,0.5,4.7c0,0.3-0.2,0.5-0.3,0.8
		c-0.2-0.2-0.5-0.3-0.6-0.5c-0.7-1.5-1.8-2.3-3.4-2.1c-1.4,0.1-2.7,0.6-4.1,1c0.8,2.7,1.5,5.3,2.2,7.9c3.3,11.4,6.6,22.8,9.8,34.2
		c0.3,1.1,0.9,2,1.9,2.5c1.2,0.6,2.5,1.2,3.8,1.8c-0.5,0.3-1.1,0.5-1.6,0.4c-0.6,0-1.2-0.2-1.9-0.4c-6.3-1.3-12.5-2.8-18.8-3.9
		c-8.7-1.6-17.4-3-26.2-4.4c-4.9-0.8-9.8-1.1-14.7-0.8c-0.3,1.1-0.1,1.5,1.1,1.8c0.9,0.2,1.8,0.4,2.7,0.5c8.4,1.4,16.9,2.7,25.3,4.1
		c6.6,1.1,13.2,2.3,19.7,3.5c6.5,1.2,12.9,2.3,19.4,3.5c6.3,1.1,12.7,2.1,19.1,3.2c5.1,0.9,10.2,1.7,15.3,1.3c0.9-0.1,1.7,0,2.5,0
		c0.4-1.7-0.8-1.5-1.5-1.6c-4.7-0.8-9.4-1.6-14.2-2.3c-6.3-1-12.6-2-18.9-3c-1.9-0.3-3.6-1-4.5-3.1c1.2,0.3,2.3,0.7,3.4,0.9
		c6.2,1.1,12.4,2.1,18.6,3.1c4.5,0.7,9,1.6,13.4,2.3c3.6,0.6,7.3,0.9,10.9,1.6c6.1,1.2,12.1,2.9,18.3,3.6c2,0.2,4,0.6,6-0.1
		c0.2-1-0.1-1.5-1.1-1.6c-1.6-0.2-3.3-0.6-4.9-0.9c-6.1-1.1-12.3-2.2-18.4-3.3c-5.7-1-11.4-2-17.2-3c-5.8-1-11.7-2-17.5-3
		c-3.3-0.6-6.6-1.2-10-1.9c-1-0.2-1.8-0.1-2,1.4c-0.9-1.5-1.6-2.8-2.4-4.1c0.6,0,0.9,0,1.3,0c4.1,0.6,8.2,1.1,12.3,1.7
		c5.8,0.9,11.5,2,17.3,3.1c8.5,1.6,17,3.2,25.5,5c5.5,1.1,10.9,1.3,16.3-0.2c1.5-0.4,3.2-0.5,4.8-0.4c2.3,0.2,4.6,0.6,7,0.9
		c2.1,0.3,4.1,0.9,5.5,2.6c0.5,0.6,0.9,0.5,1.4,0c0.9-1,1.5-0.9,2.3,0.2c1.6,2.1,4.1,2.3,6.3,3.7c-0.3-1.3-0.5-2.3-0.7-3.1
		c1.6,0.4,3.2,1.1,4.9,1.3c3,0.4,6,0.6,9.1,0.8c1.7,0.1,2.5-0.5,3.1-2.2c0.3-0.8,0.6-1.6,0.9-2.5
		C170.2,111.9,171.3,108.5,172.5,104.8z M119.3,124.9c17.3,3.9,34.7,6.7,52.3,8.2c-1.3-1.4-2.9-2.3-4.7-2.5c-3.2-0.4-6.3-0.7-9.5-1
		c-2.1-0.2-4.2-0.6-6.3-1.9c1-0.1,1.8-0.2,2.6-0.3c2.9-0.4,5.9-0.6,8.8-1.2c2.6-0.5,3.3-1.5,3.5-4.3c-0.2,0.1-0.5,0.2-0.6,0.3
		c-2.7,1.5-5.7,2.3-8.7,2c-4.1-0.4-8.1-1.3-12.1-1.9c-2.3-0.3-4.6-0.6-6.9-0.8c0.5,1.7,1.6,2.5,3,2.9c1,0.2,2,0.3,2.9,0.5
		c1.1,0.2,2.2,0.6,2.9,2c-9-1.3-17.8-2.5-26.6-3.7C119.6,123.7,119.5,124.2,119.3,124.9z M215.3,31c0,0.1,0.1,0.3,0.1,0.4
		c0.4,0.1,0.9,0.2,1.3,0.2c1.6,0,3.3,0.1,4.9,0c5.1-0.2,10.1-0.4,15.2-0.7c2.9-0.2,5.9-0.6,8.8-0.9c2-0.2,3.2,0.7,3.5,2.7
		c0.1,0.8,0.5,1.5,1.4,1.5c0.9,0.1,1.7,0,2.6,0c-0.1-1.8-0.2-3.3-0.2-5c6.5-0.6,12.8-1.2,19.4-1.9c-0.5,1.6-0.9,3-1.4,4.5
		c1.6,0.3,3.1,0.6,4.6,0.9c1,0.2,1.6-0.4,1.7-1.4c0.2-1.2,0.3-2.5,0.5-3.7c0.1-0.3,0.3-0.8,0.4-0.9c1.7-0.2,3.5-0.3,5.2-0.5
		c-1.1,0.7-2.2,1.1-3.3,1.4c-0.6,0.2-0.8,0.5-0.8,1.1c-0.1,2.1,1.4,3.2,2.6,4.6c3.3-1.9,4.2-5.3,5.7-8.4c-2.2,1.3-4.3,0.8-6.4,0.2
		c-0.8-0.2-1.7-0.4-2.5-0.3c-4.4,0.3-8.8,0.7-13.1,1.1c-8,0.8-16,1.6-24,2.3c-8,0.7-16.1,1.1-24.1,1.8C216.7,30.3,216,30.8,215.3,31
		z M-13.5,95.4c-15.6-2.7-31-5.3-46.5-8c-0.2,0.5-0.3,0.9-0.5,1.3c2.9,2.3,6.3,3,9.7,3.4c2.7,0.3,5.5,0.4,8.2,0.9
		c3.2,0.5,6.3,1.4,9.4,2.1c2.5,0.5,5.1,1,7.8,1.4c-1.6,1.6-3.5,1.5-5.4,1.2c-1.6-0.2-3.2-0.5-4.8-0.6c-1.1,0-2.1,0.6-2.8,1.7
		c5.5,0.4,10.8,0.7,16.3,1.1c-0.4-1.1-0.8-2-1.2-3.1c3.3,0,6.4,0,9.5,0C-13.7,96.4-13.6,95.9-13.5,95.4z M-77.5,72.4
		c-2.2,5-4.5,9.9-6.7,15c4.9,0.5,9.7,1,14.5,1.4C-68.5,82-72,74.4-77.5,72.4z M-1.4,128.4c-0.7-0.9-1.3-2.1-2.7-2.4
		c-1.4-0.2-2.8-0.5-4.2-0.7c-8.8-1.5-17.6-3-26.4-4.5c-1.9-0.3-3.8-0.9-5.5,0.8c0.8,1,1.4,2.2,2.8,2.4c10.5,1.8,21,3.7,31.4,5.5
		C-4.3,129.9-2.7,130.2-1.4,128.4z M69.6,140.9c0.7,1.1,1.5,1.7,2.9,1.9c2.3,0.3,4.6,0.8,6.9,1.2c8.5,1.5,16.9,3,25.4,4.4
		c0.3,0,0.7,0,0.8-0.2c1-1.2,0.5-3-0.9-3.5c-0.5-0.2-1-0.3-1.5-0.4c-9.8-1.6-19.7-3.1-29.5-4.7C72.1,139.3,70.7,139.4,69.6,140.9z
		 M148.3,152.8c0-0.1,0-0.2,0.1-0.4c-2.5-0.6-4.9-1.2-7.4-1.7c-2.1-0.4-4.2-0.6-6.3-1c-1.2-0.2-1.9-1-2-2.3c-0.1-1.1,0-2.2-0.3-3.2
		c-0.2-0.9-0.7-1.7-1.3-2.5c-0.1-0.2-0.7-0.2-1.1-0.1c-0.2,0.1-0.5,0.6-0.5,0.8c0.2,1,0.4,2,0.8,3c0.5,1.3,1.2,2.5,1.9,3.9
		c-5.2-0.8-10.1-1.6-15-2.3c-1,2.6-0.3,3.6,2.2,4.1c8.2,1.4,16.5,2.9,24.7,4.2c1.3,0.2,2.6,0.8,4,0.1c-0.7-0.6-1.3-1.2-1.9-1.8
		C147.1,153.2,147.7,153,148.3,152.8z M93.5,39.3c-2.3,0.2-4.5,0.3-6.8,0.5c-5.2,0.3-10.4,0.7-15.5,1c-5.3,0.4-10.6,0.8-15.9,1.2
		c-1.6,0.1-3.1,0.2-4.6,0.5c-1.2,0.2-2.5,1.7-2.6,2.9c-0.1,1.1,1.1,1.8,2.1,1.4c2.2-0.9,4.3-2.2,6.5-2.5c6.8-0.8,13.7-1,20.5-1.6
		c6-0.5,12-1,18-1.5c0.3,0,0.7-0.4,0.8-0.7c0.2-0.6-0.1-1-0.7-1.1C94.7,39.3,94.1,39.3,93.5,39.3z M175.8,133c0.1,0,0.2,0,0.4-0.1
		c-0.1-2.8,1.1-5.1,2.5-7.3c1.1-1.7,2.2-3.4,3.1-5.2c0.6-1.3,1.1-2.6,1.4-4c0.3-1.2-0.5-2.1-1.6-2.6c-1.1-0.6-1.9-0.4-2.7,0.6
		c-0.2,0.3-0.5,0.4-0.7,0.7c-1.8,1.5-2.7,3.3-1.5,5.7c-2.2,0.9-3.9,2.3-5.2,4.2c-1.1,1.6-1.2,2.4,0.1,3.8
		C172.9,130.2,174.4,131.5,175.8,133z M187.1,129.9c1.7-0.5,3.4-1,4.3-2.4c2.5-3.9,4.7-7.8,7-11.8c0.6-1,0.7-2.3,0-3.5
		c-0.9-1.6-2.3-1.9-3.6-0.7c-0.6,0.6-1.2,1.2-1.8,1.8c-2.2,2.5-3.3,5.5-4,8.7C188.3,124.6,187.7,127.2,187.1,129.9z M166.3,127.9
		c9-9.9,12.3-21.7,12.2-34.8C174.4,104.7,170.4,116.3,166.3,127.9z M115.2,39.8c14.9-1.2,29.7-2.3,44.5-3.4c0-0.7-0.1-1.2-0.1-1.9
		c-14.8,1.1-29.7,2.3-44.5,3.4C115.2,38.6,115.2,39.1,115.2,39.8z M198.3,70.7c-0.8,0.1-1.5,0.1-2.1,0.2c-2.6,0.6-3.3,1.5-3.4,4.1
		c0,1.4-0.3,2.8-0.5,4.2c-0.4,2.8-0.9,5.6-1.3,8.4c0.2,0,0.3,0.1,0.5,0.1C196,83.1,197.5,77.1,198.3,70.7z M203.7,53.9
		c-0.6,2.5-1.4,4.8-1.8,7.3c-0.5,3.3,0.9,5.4,3.9,6.2c1-2.9,2.1-5.9,2.1-9.1C207.9,55.8,206.7,54.5,203.7,53.9z M183.2,112.3
		c1-3,2.2-6,2.1-9.2c-0.1-2.3-1.7-4.1-4.2-4.5c-0.6,3.4-1.3,6.9-1.8,10.3c-0.2,1.6,0.5,2.5,2.1,3C182,112.1,182.5,112.2,183.2,112.3
		z M188.1,56.4c-0.6,3-1.1,6.1-1.7,9.1c-0.5,2.6,0.4,4,2.9,4.5c0.7,0.1,1,0,1.2-0.7c0.5-2,1.2-4,1.6-6
		C192.9,59.6,191.4,57.1,188.1,56.4z M188.1,84.5c0.7-3.5,1.4-6.9,1.9-10.3c0.3-2-1.6-3.6-3.6-3.4c-0.2,0-0.6,0.3-0.6,0.5
		c-0.6,3.2-1.2,6.5-1.7,9.7c-0.2,1.5,0.6,2.4,2,2.9C186.7,84.2,187.3,84.3,188.1,84.5z M201.7,67.9c-1,3-2.2,5.9-2.3,9.1
		c-0.1,2.5,1.6,4.2,4,4.3c1.2-2.8,2.2-5.7,2-8.9C205.3,70.2,204,68.7,201.7,67.9z M198.8,109.7c1-3,2.3-5.9,2.2-9.1
		c-0.1-2.3-1.5-3.8-4-4.3c-0.6,2.2-1.5,4.3-1.9,6.6C194.3,106.4,195.6,108.7,198.8,109.7z M190.5,42.4c-0.1,0.6-0.3,1.1-0.3,1.6
		c-0.5,3-1.1,5.9-1.5,8.9c-0.2,1.6,0.3,2.1,1.9,2.5c0.4,0.1,0.9,0.3,1.3,0.3c0.3,0,0.8-0.3,0.9-0.5c0.7-2.2,1.4-4.5,1.8-6.8
		C195,45.4,193.5,43.3,190.5,42.4z M183.5,84.7c-0.2,0.7-0.4,1.5-0.5,2.3c-0.5,2.7-1,5.5-1.3,8.2c-0.1,0.7,0.5,1.7,1.1,2.1
		c0.8,0.6,1.9,0.8,2.9,1.1c0.6-3.3,1.1-6.3,1.7-9.3C188.1,86.4,186.2,84.7,183.5,84.7z M199.3,82.1c-1,3.1-2.2,6-2,9.3
		c0.1,2.3,1.4,3.8,3.8,4.3c1.1-2.8,2.1-5.6,2-8.7C202.9,84.7,201.7,82.9,199.3,82.1z M208.5,53.7c0.1-0.4,0.2-0.7,0.3-1
		c0.5-3,1-6,1.5-8.9c0.3-1.9,0.2-1.9-1.6-2.2c-0.2,0-0.3,0-0.5,0c-1.7-0.1-2.3,0.3-2.7,2c-0.4,1.6-0.6,3.3-0.9,4.9
		c-0.7,3.3-0.1,4.3,3.6,5.2C208.2,53.6,208.3,53.6,208.5,53.7z M19.3,103.3c0,0.1,0,0.3,0,0.4c8.1,1.4,16.2,2.9,24.4,4.3
		c0.1-0.1,0.1-0.2,0.2-0.3c-0.7-0.5-1.4-1.1-2.2-1.5c-6-2.7-12.3-3.8-18.8-3.7C21.6,102.6,20.5,103,19.3,103.3z M179.1,33
		c4.7,2.4,29.2,0.4,32.4-2.2C200.5,31.6,189.8,32.3,179.1,33z M166.4,137.2c-0.8,0.6-1.5,1.1-2.2,1.6c-2.7,2-5.2,4.2-8.4,5.4
		c-3,1.1-3.5,3.8-1.2,6.3c0.5-1,1-2,1.4-3c0.4-0.9,1-1.5,2.2-1.5c1.6,0.1,2.9-0.7,4.1-1.8c0.8-0.8,1.6-1.7,2.5-2.4
		C166.1,140.6,166.1,139,166.4,137.2z M195.2,63.6c3.9,0.6,5.4-0.9,5.5-3.7c0-0.1,0.1-0.2,0.1-0.4c0-1.6,0-3.2,0-4.9
		C195.9,55.8,194.7,57.7,195.2,63.6z M-13.4,122.2c0,0.2,0.1,0.3,0.1,0.5c6.9,0.9,13.8,1.8,20.6,2.7c0.7-1.5-0.4-1.5-1-1.7
		c-5.4-1.7-10.9-2.4-16.5-2.2C-11.3,121.5-12.4,121.9-13.4,122.2z M14.1,132.6c0.1-0.1,0.2-0.1,0.4-0.2c0.1-0.5,0.5-1.3,0.3-1.6
		c-0.7-0.8-1.5-1.7-2.4-1.9c-3.2-0.7-6.4-1.2-9.6-1.7c-0.8-0.1-1.5,0-2,0.8c0.1,0.3,0.2,0.7,0.4,1c0.7,1.8,0.7,1.8,2.6,1.8
		c1.7,0,3.4,0,5,0C10.7,130.7,12.7,130.5,14.1,132.6z M191.9,106.8c-2,0.5-3.7,1.2-4.5,3.1c-1.2,2.7-0.7,5.4-0.6,8.4
		C190.6,113.4,192.6,110.4,191.9,106.8z M29.8,133.3c-4.9-1-9.6-1.9-14.5-2.9c0.5,0.8,0.8,1.5,1.3,2.2c0.3,0.4,0.7,0.8,1.1,0.8
		c3.9,0.6,7.8,1.1,11.8,1.7C29.6,134.4,29.7,133.9,29.8,133.3z M194.5,90.4c-0.2,0-0.3,0.1-0.5,0.1c-1.5,4.2-2.9,8.4-4.3,12.6
		c-0.1,0.3,0.2,0.9,0.5,1c0.7,0.3,2.7-0.9,2.8-1.8c0.6-3.6,1.2-7.3,1.8-11C194.9,91.1,194.6,90.7,194.5,90.4z M30.8,56
		c1,1.4,1.7,2.4,2.5,3.3c0.7,0.9,1.8,1,2.6,0.6c0.6-0.3,1.3-1.1,1.5-1.8c0.4-1.2,0.5-2.5,0.8-4c-1.8,0.3-3.5,0.5-5.3,0.9
		C32.2,55.1,31.6,55.6,30.8,56z M163,158.4c0-1.1,0-2.1,0-3.1c0-0.2-0.3-0.6-0.5-0.7c-1.8-0.3-3.7-0.7-5.5-0.8
		c-0.6,0-1.7,0.7-1.8,1.3c-0.1,0.6,0.7,1.4,1.1,2c0.1,0.2,0.5,0.2,0.8,0.3C159,157.7,160.9,158.1,163,158.4z M114.3,149.5
		c0.3-2.3-0.1-3.3-1.8-3.7c-1.5-0.3-3.2-0.3-4.7-0.3c-0.2,0-0.7,0.5-0.6,0.7c0,1.8,1.1,3.1,3,3.3
		C111.5,149.6,112.9,149.5,114.3,149.5z M-51,120.7c1.9,1.3,4.5,2.2,6,2.2c2.4,0.1,3.6-1.4,3.1-3.8C-44.9,119.6-47.8,120.1-51,120.7
		z M126,120.1c0.8,1.1,1.8,1.9,3,2.2c2.5,0.6,4.9,1.1,7.4,1.7C134.7,120.6,131.5,119.4,126,120.1z M265.3,34.9c1.8,0,3.5,0,5.4,0
		c-0.5-2.4-0.9-4.8-3.1-6.3c-1,1.1-1.6,2.4-1.3,3.9C266.6,33.5,266.4,34.4,265.3,34.9z M-10.1,97.6c0.3,0.1,0.5,0.2,0.7,0.2
		c3.7,0.6,7.3,1.2,11,1.8c1.1,0.2,1.2-0.4,1.1-1.4c-4.1-0.7-8.2-1.4-12.3-2.2C-9.9,96.6-10,97-10.1,97.6z M191.6,36.5
		c-1.8,2.7-0.7,4.7,3.1,5.6C196.3,39.2,195.6,37.7,191.6,36.5z M-90.6,115c1.9-0.4,3.8-0.8,5.6-1.3c0.6-0.2,1.6,0.2,1.6-0.8
		c0-0.2-1-0.6-1.6-0.7c-1.9-0.3-3.7-0.6-5.7-0.9C-90.6,112.6-90.6,113.7-90.6,115z M185.9,133.4c0,0.1-0.1,0.3-0.1,0.4
		c0.3,0.2,0.6,0.5,0.9,0.5c0.5,0,0.9-0.1,1.4-0.2c4.3-0.7,8.6-1.5,12.9-2.2c0.7-0.1,1-0.4,0.6-1.2
		C196.4,131.7,191.2,132.5,185.9,133.4z M-104,111.6c0,0.1-0.1,0.1-0.1,0.2c1.2,1.7,2.4,3.4,3.7,5.1c0.2,0.2,0.5,0.4,0.8,0.3
		c0.8-0.1,1.6-0.2,2.3-0.4c0.3-0.1,0.5-0.5,0.6-0.7c0.1-0.2-0.1-0.6-0.3-0.7C-99.3,114.1-101.7,112.8-104,111.6z M146.3,144.9
		c-1,0-2-0.1-2.9,0.1c-0.4,0.1-1,0.9-1,1.3c0.1,1.1,0.5,2.3,0.8,3.6c0.6-1,1-1.7,1.5-2.4c0.6,0.7,1,1.3,1.6,2.1
		C146.3,147.9,146.3,146.4,146.3,144.9z M128.2,141.7c-4.2,0.4-4.9,1.2-3.5,3.7C127.8,145.4,129,144.9,128.2,141.7z M104.4,122.7
		c3.1,0.6,6.1,1.2,9.3,1.8C110.4,121.1,107.1,120.4,104.4,122.7z M197.4,46.4c1.3,1.7,1.8,2.1,2.7,1.7c0.7-0.3,1.5-0.6,2-1.2
		c0.3-0.3,0.3-1.3,0.1-1.6c-1.2-1.3-2.2-1.2-3.5,0C198.4,45.8,197.9,46.1,197.4,46.4z M-99.3,109.9c1,3.7,2.3,4.8,6.7,1.9
		C-94.8,111.2-96.9,110.6-99.3,109.9z M103.7,40.5c3-0.4,5.9-0.7,8.8-1.1c0-0.1,0-0.2,0-0.3c-2.9,0-5.9,0-8.9,0
		C103.7,39.6,103.7,40,103.7,40.5z M200.7,129.6c-1.5-0.6-4.8,0.2-5.8,1.4C196.9,130.5,198.7,130.1,200.7,129.6z"/>
	<path d="M-15.4,88.2c-0.4,1.2-1.1,1.2-2.1,1c-5.6-1-11.3-1.8-16.9-2.7c-4.7-0.7-9.4-1.4-14.2-2.1c-0.1-2.4,2.2-1.8,2.8-2.7
		c0.5,0.4,0.7,0.8,1.1,0.9c1.7,0.6,3.4,1.1,5.1,1.7c0.9,0.3,1.4,0.3,1.8-0.9c-1.1-1-2.2-2-3.3-3.1c-2-1.9-4.2-3.8-4.6-6.8
		c-0.4-2.8-0.5-5.6-0.6-8.5c0-0.3,0.7-0.7,1.2-1.2c1.1,1.8,2.1,3.4,3.1,5c-0.1,0.1-0.1,0.1-0.2,0.2c-0.6-0.4-1.2-0.8-1.9-1.2
		c-0.7,1.5-0.4,3-0.1,4.4c0.9,4.5,4.8,9.4,9,11.5c1.7-4-0.8-6.8-2.4-10c0.8,0.6,1.7,1.1,2.7,1.8c0-2.6,0-4.9,0-7.3
		c0-0.9,0.3-1.3,1.2-1.5c0.8,1.1,1.6,2.3,2.4,3.6c-0.7,0.2-1.4,0.4-2,0.6c-0.5,3.9,1.2,6.8,3.6,9.5c0.7,0.8,1.5,1.6,2.1,2.4
		c2.2,2.6,4.9,4.3,8.2,4.9c0.3,0.1,1,0,1-0.1c0.1-0.4,0.2-0.9,0-1.3c-1.2-1.9-2.5-3.8-3.5-5.8C-19.7,83.4-17.6,85.8-15.4,88.2z"/>
	<path d="M204.6,138.9c0.4,1.7,0.7,3.2,1.1,4.8c-2.2,0.5-4.3,1-6.5,1.5c-2.3,0.5-4.7,0.9-7,1.4c-1.2,0.2-2.2,0-3.2-0.8
		c-1.3-1.1-1.4-1.1-2.7,0c-0.4,0.3-0.9,0.7-1.4,1.1c-0.2-1.1-0.4-2-0.5-2.9c-0.2-1.5,0.3-2.3,1.8-2.6c2.6-0.5,5.2-1,7.9-1.4
		C197.5,139.5,201,139.2,204.6,138.9z"/>
	<path d="M190.3,155.3c7.9-1.3,15.7-2.7,23.7-4c0.1,0.5,0.2,0.8,0.3,1.4c-8,1.1-16,2.1-23.9,3.1
		C190.4,155.7,190.3,155.5,190.3,155.3z"/>
	<path d="M212.1,149.3c-4.1,0.3-8.2,0.7-12.3,1c0-0.1,0-0.2,0-0.2c2.6-0.5,5.2-1,7.8-1.5c1.1-0.2,2.1-0.4,3.2-0.6
		C212,147.7,212.1,147.7,212.1,149.3z"/>
</g>
</svg>
