<?xml version="1.0" encoding="utf-8"?>
<!-- Generator: Adobe Illustrator 16.0.0, SVG Export Plug-In . SVG Version: 6.00 Build 0)  -->
<!DOCTYPE svg PUBLIC "-//W3C//DTD SVG 1.1//EN" "http://www.w3.org/Graphics/SVG/1.1/DTD/svg11.dtd">
<svg version="1.1" id="Layer_1" xmlns="http://www.w3.org/2000/svg" xmlns:xlink="http://www.w3.org/1999/xlink" x="0px" y="0px"
	  viewBox="0 0 24.998 14.178" enable-background="new 0 0 24.998 14.178" xml:space="preserve">
<g>
	<g>
		<path d="M5.572,7.588c-1.177,0-2.135,0.981-2.135,2.188s0.958,2.188,2.135,2.188c1.177,0,2.134-0.981,2.134-2.188
			S6.749,7.588,5.572,7.588z M19.405,7.588c-1.177,0-2.134,0.981-2.134,2.188s0.957,2.188,2.134,2.188s2.134-0.981,2.134-2.188
			S20.582,7.588,19.405,7.588z M24.593,7.145c-0.009,0-0.019,0.001-0.027,0.001V5.612c0-0.584-0.283-1.127-0.758-1.451l-0.63-0.431
			l-0.891-1.824c-0.289-0.596-0.873-0.965-1.521-0.965h-4.387c-0.224,0-0.404,0.186-0.404,0.415v1.801h-0.92v-3.13
			C15.055,0.013,15.067,0,15.082,0L0.405,0.056c-0.173,0-0.327,0.112-0.383,0.279c-0.056,0.168-0.003,0.354,0.133,0.463L5.86,5.383
			C5.765,5.377,5.669,5.372,5.572,5.372c-2.369,0-4.296,1.976-4.296,4.403s1.927,4.402,4.296,4.402c1.927,0,3.561-1.307,4.104-3.101
			h5.625c0.543,1.794,2.178,3.101,4.104,3.101c2.368,0,4.296-1.975,4.296-4.402c0-0.01-0.001-0.019-0.001-0.028h0.028
			c0.699,0,1.27-0.583,1.27-1.301V7.56C24.998,7.33,24.816,7.145,24.593,7.145z M5.572,13.348c-1.922,0-3.485-1.603-3.485-3.572
			S3.65,6.203,5.572,6.203c1.921,0,3.485,1.603,3.485,3.572S7.494,13.348,5.572,13.348z M15.135,10.246H9.843
			c0.016-0.155,0.025-0.312,0.025-0.471c0-0.466-0.071-0.915-0.203-1.337c0.374,0.273,0.827,0.423,1.287,0.423h4.251
			c-0.061,0.295-0.094,0.601-0.094,0.914C15.109,9.935,15.118,10.091,15.135,10.246z M15.055,8.03V3.987h0.92v3.142
			c-0.204,0.276-0.377,0.579-0.513,0.901H15.055z M19.405,13.348c-1.922,0-3.485-1.603-3.485-3.572s1.563-3.572,3.485-3.572
			s3.485,1.603,3.485,3.572S21.327,13.348,19.405,13.348z M24.188,8.446c0,0.26-0.206,0.471-0.459,0.471h-0.109
			c-0.064-0.329-0.164-0.644-0.295-0.941h0.836c0.01,0,0.018-0.001,0.027-0.002V8.446z"/>
	</g>
</g>
</svg>
