<?xml version="1.0" encoding="utf-8"?>
<!-- Generator: Adobe Illustrator 21.0.2, SVG Export Plug-In . SVG Version: 6.00 Build 0)  -->
<svg version="1.1" id="Layer_1" xmlns="http://www.w3.org/2000/svg" xmlns:xlink="http://www.w3.org/1999/xlink" x="0px" y="0px"
	 viewBox="0 0 512 200" style="enable-background:new 0 0 512 200;" xml:space="preserve">
<style type="text/css">
	.st0{fill:none;}
</style>
<g id="g4139">
	<path id="path4141" class="st0" d="M387.7,170.8c-1.2,0.6-2.3,1.7-3.5,2c-6.6,1.2-13.2,2.2-19.8,3.3c-1.6,0.2-3.1,1-4.5,1.5
		c0,0.4,0,0.9,0,1.2c1.3,0.4,2.6,0.7,4,1.1c-5.7,2.9-11.6,3.7-18,2.3c-8.1-1.7-16.1-3.2-24.3-4c-3.4-0.4-7.1,1-10.5,2
		c-4.9,1.6-7.2,0.2-7.3-5c-5.9-1.2-11.7-2.6-17.7-3.5c-18.9-3.2-37.9-6.1-56.7-9.2c-5.7-1-11.4-1.8-17.1-2.7
		c-1.1-0.1-2.3,0.6-3.4,0.7c-5.4,0.7-10.6,1.2-16,2.1c-1.5,0.2-2.7,1.5-4,1.6c-4.3,0.2-8.7,2.4-12.3,2.3c-4.8-0.2-7.8,4-12.6,2.6
		c0-1.3,0-2.9,0-4.5c2-0.2,3.8-0.6,4.9-0.7c-2.6-2.2-5.3-4.6-8.3-7.3c0,5.3,0,9.8,0,14.4c1.6,0,2.9,0,3.9,0c-0.7,2.8-1.3,5.5-2,8.2
		c2,1,3.5,1.7,5.1,2.6c-0.1,0.5-0.2,1-0.5,1.5c-4.9,0.9-9.9,2.8-15.3,0c0.5-1,0.7-1.8,1.1-1.8c5.7-1.3,5.3-5,4.6-9.8
		c-0.7-5.4-0.2-11,0.1-16.5c0.2-4-1.3-5.6-5.1-6.2c-13.4-2.1-26.7-4.3-40.2-6.6c-11.4-2-22.7-4.8-34.1-6.1
		c-5.7-0.6-11.6,1.2-17.5,1.7c-3.2,0.4-6.5,0.1-9.6,0.6c-3.9,0.6-7.7,1.7-11.6,2.7c-5.7,1.3-11.4,2.8-17.3,4.3c0-1.8,0-3.1,0-4.6
		c2.1-0.4,4.2-0.9,6.1-1.2c0-0.2,0.1-0.5,0.1-0.7c-1-0.4-2-0.7-3.1-1c-2.1-0.4-3.9-0.7-3.9-3.5c0-0.5-1.1-1.1-1.7-1.6
		c-0.5,0.6-1.3,1.3-1.3,2c-0.1,3.3-0.4,6.7,0.1,10c0.1,1.1,2.2,1.8,3.7,2.9c-0.5,1.7-1.2,4.2-2,6.4c2,1.3,3.7,2.4,5.4,3.5
		c-0.1,0.6-0.4,1.2-0.5,1.8c-4.9,0.2-9.8,0.5-15.9,0.7c1.2-2.2,1.6-3.5,2.1-3.5c5.3-0.7,4.5-4.4,4.4-8.2c-0.2-6.4,0-12.8,0-19.2
		c0-6.7,2.3-9.4,9-10.3c0.9-0.1,1.7-0.1,3.1-0.2c0-6.8-0.1-13.4,0-20.2c0-3.5,2.6-4.6,6.1-3.8c5.6,1.3,11.5,1.8,17.2,3.1
		c4.6,1,9,2.4,13.7,3.3c9.9,1.8,19.8,3.3,29.9,5c-2.1-4.8-5.9-4.9-10-5c-2.1,0-4-1-6.1-1.2c-12.2-1.7-24.4-3.2-36.8-4.9
		c-1.6-0.2-3.1-0.6-3.4-0.6C41.7,88,45,81.9,48.7,75.3c-5.3,0.9-10.3,1.6-15.1,2.4c-0.1-0.7-0.2-1.3-0.4-2.1
		c3.2-0.6,6.4-1.3,9.4-1.8c6.8-1.1,7.3-1.8,4.2-7.8c2.3,0.7,4.3,1.7,6.2,1.8c2.2,0.1,4.4-0.5,7.1-0.9c-0.5,1.1-1,2-1.8,4
		c6.4-0.7,12-1.5,17.6-2.1c0,0.5,0.1,1,0.1,1.5c-3.2,0.5-6.5,0.9-9.5,1.6c-6,1.3-6.6,2.6-3.4,7.6c1.2,2,2.1,4.3,3.8,5.6
		c1.8,1.5,4.8,3.3,6.7,2.8c5.1-1.2,8.9-0.2,13.1,2.9c2.7,2,6.5,2.7,9.8,3.4c7.7,1.6,15.5,3.2,23.3,4c3.8,0.4,7.6-1,11.5-1.3
		c1.1-0.1,2.3,0.4,3.3,0.9c5.7,2.9,11.6,6.8,18.3,4.5c7.5-2.6,14.3-0.4,21.3,1c1,0.1,1.7,0.9,3.4,1.7c-3.2,0.2-5.4,0.4-7.6,0.5
		c0,0.5-0.1,0.9-0.1,1.3c4.9,1,9.9,2,14.8,2.9c3.8,0.7,7.5,1.3,11.2,1.7c0.6,0,2.2-1.7,2.1-2.4c-1-4.3-2.2-8.6-3.3-12.7
		c-2.4-9-5-18.1-7.5-27c-2.2,0-4,0-6-0.1c-0.1,0-0.2-1.5-0.1-1.5c1.1-0.4,2.3-0.6,4.5-1.1c-1.1-2.4-2.3-4.9-4-8.6
		c0.2-0.2,1.6-1.5,3.2-2.9c-3.7-0.5-6.8-1.1-3.5-5.7c0.6-0.7-1.1-3.1-1.3-4.6c-0.2-1.5-0.7-3.9,0.1-4.5c4-2.9,8.2-5.7,12.6-7.9
		c1.6-0.9,4-0.1,6-0.2c2.4-0.1,4.8-0.7,7.2,0.6c2.3,1.3,4.9,2.1,7.3,2.9c1.6,0.5,3.2,1.2,4.8,1.1c7.9-0.7,15.9-1.8,23.8-2.6
		c12.5-1.2,25-2.3,37.5-3.4c2-0.1,3.9,0.1,6,0c15.3-1.2,30.5-2.6,45.8-3.7s30.7-1.8,45.9-2.9c19.3-1.3,38.5-2.9,57.8-4.4
		c14.4-1.1,28.8-2,43.2-2.9c9.6-0.7,19.3-1.5,29.1-2.2c1.3-0.1,2.7,0,5.1,0c-5.3,3.9-12.6,4.2-12.1,13.4c2-2.7,3.2-4.6,4.3-6.2
		c0.4,6.5,0.4,6.7-6.4,7.9c-5.4,1-10.7,1.7-16.2,2.1c-14.2,1-28.5,1.8-42.8,2.7c-9.3,0.6-18.4,1.3-27.7,2.1
		c-4.2,0.2-5.7,2.6-6.4,7.8c-1.1,8.9-2.4,17.7-3.9,26.5c-2.9,18.6-5.9,37.1-9.3,55.7c-1.1,5.6-3.8,11-5.7,16.7
		c0.6,0.1,2.1,0.2,3.5,0.4c0.1,0.2,0.2,0.5,0.4,0.9c-1.6,0.6-3.3,1.1-4.9,1.7c0,0.2,0.1,0.5,0.1,0.6c3.1-0.7,6-1.5,7.6-1.8
		c-0.7-0.1-2.1-0.5-3.4-0.7c0.9-1,1.7-1.8,2.6-2.8c5.7-1.1,11.2,5.4,16.9-0.4c1,4.8-1.6,7.6-6.8,8.3c-12.9,1.8-25.9,3.5-38.8,5.7
		c-1.8,0.4-4,2.4-4.9,4.3c-1.8,3.9-2.7,8.9,0.7,12c2.3,2.1,6.7,2.7,10,2.4C375.2,173.1,381.4,171.8,387.7,170.8L387.7,170.8z
		 M494.7,19c-2.2,0.7-4.5,1.6-6.7,2.3c0.1,1.1-0.1,2.2,0.4,2.9c0.7,1.3,1.8,2.4,2.8,3.7c1.1-0.9,2.3-1.6,3.1-2.8
		c1.3-2.1,2.4-4.4,4-7.5c-1.7,0.6-2.7,1-3.7,1.3c-2.4-0.5-5-1.6-7.5-1.5c-17.5,1.5-34.9,3.3-52.5,4.9c-7.6,0.6-15,1-22.6,1.5
		c-0.9,0-1.6,0.7-2.3,1.1c8.6,0.5,16.7,0.1,24.9-0.5c4.4-0.2,8.7-1.1,13.1-1.3c1.2,0,3.5,1.3,3.5,2c-0.4,4.4,2.4,3.2,4.8,3.3
		c-0.1-2.3-0.2-4.4-0.4-6.1c8.3-0.9,16.2-1.6,23.9-2.3c-0.7,2.3-1.2,3.9-1.7,5.5c2.3,0.5,5,1.7,6.7,1c1.1-0.5,1-4,1.6-7.1
		C488.2,19.6,491.5,19.2,494.7,19z M213.2,120c1.3,0.6,2.7,1.5,4.2,1.7c10.3,1.8,20.6,3.2,30.9,5.3c9.3,2,18.9,2,28.2,4.6
		c6.2,1.8,12.8,2.4,19.3,3.4c1.3,0.2,2.9-0.2,4.4-0.4c0-0.5,0-1-0.1-1.5c-1.5-0.4-2.8-0.7-4.3-1c-14.4-2.6-28.7-5.1-43.1-7.6
		c-11.7-2.1-23.5-4.2-35.2-6C216.2,118.3,213.5,116.1,213.2,120c-1-1.7-2-3.4-3.5-5.9c9.5,1.5,18,2.4,26.3,3.9
		c14.7,2.7,29.3,5.5,44,8.4c5.4,1.1,10.7,1.5,16.2,0.1c2.9-0.7,6.5-2,9-1c5,1.7,11.2-0.4,15.1,4.8c0.1,0.1,0.6,0.1,0.7,0
		c2.8-3.4,3.5,0.7,5.1,1.3c1.7,0.7,3.4,1.5,5.9,2.7c-0.6-2.3-0.7-3.1-1.1-4.4c1.7,1,2.7,2,3.8,2.1c4.6,0.6,9.3,1,13.9,1.3
		c1,0,2.7-0.6,2.9-1.5c2-5.3,3.5-10.7,5.5-16.9c-2.2,0.6-3.4,1-4.6,1.3c-0.2-0.4-0.5-0.9-0.7-1.2c0.9-0.6,1.8-1.7,2.7-1.6
		c3.4,0.2,4.5-2.1,5.5-4.5c0.6-1.3,0.7-2.9,1.3-4.4c7.9-17.6,10.4-36.4,13.4-55.2c0.2-1.3-0.1-2.7-0.4-4c-0.4-1.8-0.9-3.7-1.5-6.2
		c-1.3,0-3.4-0.1-5.5,0c-16,1.5-32,3.1-48,4.4c-11.7,1-23.3,1.2-35.1,2c-15,1.1-29.9,2.4-44.9,3.7c-12,1-23.8,2.1-35.8,2.7
		c-6.7,0.4-6.7-0.1-5.4,6.1c0.1,0.7,0.1,1.5,0.2,2.3c-4.4,0-8.8,0.4-12.6,3.1c4.2-1.1,9.4,2,12.5-3.2c0.2,2.4,0.5,4.8,0.6,7.2
		c-0.5,0.1-1,0.4-1.5,0.5c-1.7-5.7-5.1-3.4-8.8-2.3c5,17.6,9.9,35.1,15,52.4c0.2,1,1.8,1.8,2.9,2.4s2.3,0.7,4.3,1.3
		c-1.2,0.7-1.7,1.1-2,1c-6.6-1.3-13.2-2.9-19.8-4.3c-8.6-1.7-17.1-3.3-25.8-4.8c-6.5-1.1-13.1-2-19.7-2.7c-3.5-0.4-7.2-0.1-10.7-0.1
		c0,0.5-0.1,1.1-0.1,1.6c2.4,0.5,4.9,1,7.5,1.5c10,1.6,20.2,3.1,30.3,4.8c12,2.1,23.9,4.4,35.9,6.5c13.8,2.4,27.5,4.9,41.3,7
		c4.3,0.6,8.8,0.1,13.2,0.1c0-0.4,0-0.7,0-1.2c-1.5-0.2-2.9-0.6-4.4-0.9c-10.9-1.8-22-3.2-32.7-5.5
		C220.6,124.2,215.2,125.3,213.2,120z M293.1,137.3c-0.1,0.7-0.2,1.5-0.4,2.2c21.1,4.8,42.4,8.2,64,10.3c-7.5-6.6-18.1-1.6-25.8-6.8
		c17.6-1.6,17.6-1.6,18.7-6.8c-11.6,6.7-22.8-0.6-34.9-0.4c2.4,5.5,8.9,1.5,11.2,6.5C314.7,140.5,304,138.9,293.1,137.3z
		 M130.1,105.2c0-0.6,0.1-1.1,0.1-1.7c-18.9-3.3-37.7-6.5-56.7-9.8c-0.2,0.5-0.4,1-0.6,1.6c1.5,0.9,2.9,2,4.5,2.4
		c7.9,2.7,16.4,1.6,24.4,4.2c4.5,1.5,9.4,2,14.2,2.9c-5.4,5.3-11.2-2.7-16.2,2.8c6.5,0.5,12.9,0.9,19.9,1.3c-0.9-2-1.1-2.7-1.6-3.8
		C122.5,105.2,126.3,105.2,130.1,105.2z M44.1,93.6c6.5,0.6,12.1,1.1,17.6,1.7c1.6-7.8-2.8-17.2-9.4-19.9
		C49.6,81.4,46.9,87.4,44.1,93.6z M142.6,145.6c0.5-0.4,1.5-1,2.4-1.7c-0.9-1-1.6-2.7-2.7-2.8c-13.8-2.6-27.6-4.9-41.5-7.1
		c-1-0.1-2.2,0.9-3.3,1.3c0.9,1,1.6,2.6,2.7,2.8C114.2,140.7,128,143.1,142.6,145.6z M275.6,168.3c1.7-3.7,0-4.6-2.7-5
		c-9.9-1.6-19.8-3.4-29.7-5c-2.9-0.5-6-0.9-8.9-1c-0.9,0-1.8,1.1-2.7,1.7c0.9,0.7,1.6,2,2.4,2.1C247.9,163.7,261.7,166,275.6,168.3z
		 M290.1,166.4c-1.2,3.7,0.2,4.5,2.8,4.9c11.2,1.8,22.4,3.9,33.6,5.7c0.4,0.1,0.7-0.1,1.5-0.4c-1-0.9-1.7-1.6-2.6-2.3
		c1.2-0.4,2-0.6,2.7-0.9c-3.7-1.3-7.5-2-11.1-2.7c-2.6-0.5-5.9-0.2-7.3-1.7c-1.3-1.3-0.7-4.8-1.2-7.1c-0.1-0.9-1-1.6-1.7-2.2
		c-0.2-0.2-1.5,0.2-1.5,0.5c0,1,0,2.1,0.4,2.9c0.7,1.7,1.6,3.3,3.1,6.1C301.4,168.2,295.8,167.2,290.1,166.4z M264.2,37
		c0-0.5,0-1.1,0-1.6c-0.6-0.1-1.3-0.5-2-0.4c-16.9,1.2-33.7,2.3-50.4,3.5c-1.3,0.1-2.9,0.1-4,0.7c-1,0.6-1.7,2-2.1,3.2
		c-0.1,0.5,0.9,2,1.3,1.8c1-0.1,2-0.9,2.9-1.2c1.8-0.9,3.7-2.1,5.6-2.2c9.6-0.9,19.4-1.3,29.1-2.1C251,38.3,257.6,37.6,264.2,37z
		 M361.8,149.4c0.4-2.3,0.2-3.9,1-5.1c1.7-3.3,3.9-6.5,5.7-9.8c3.3-5.9,2.6-8.2-1.8-9.2c-2.7,2.7-6.5,4.9-3.8,9
		c-3.2,0.6-8.6,6-7.5,8.1C356.9,145.1,359.7,147.2,361.8,149.4z M365.1,100.2c-5,14.4-10.1,28.8-15.1,43.2
		C360.2,131.7,364.8,118.4,365.1,100.2z M386.2,122c-8.4,6.1-8.4,15.1-10.9,23.6c2.1-0.7,4.4-1.7,5.6-3.4c2.4-3.4,4.5-7.1,6.6-10.7
		C390.6,126.1,389.9,123.3,386.2,122z M341.9,31.3c0-0.7-0.1-1.5-0.1-2.2c-18.1,1.3-36.3,2.8-54.4,4.2c0,0.7,0.1,1.5,0.1,2.2
		C305.7,34.1,323.8,32.6,341.9,31.3z M170.4,113.5c9.8,1.7,19.5,3.5,30,5.4C198,114.3,174,109.8,170.4,113.5z M388.9,73.3
		c-3.9,0.4-6.7,1-6.5,5.7c0.1,2.4-0.9,5-1.2,7.6c-0.4,2.3-0.6,4.8-1,7.8C384.6,91.3,388.5,81.2,388.9,73.3z M376.5,55.7
		c-0.7,3.9-1.1,7.6-2,11c-1,4.2,1,5.4,4.5,5.7C383,60.7,382.6,58.2,376.5,55.7z M376.5,90c0.7-3.7,1.1-7.1,2-10.5
		c1.1-4.2-0.7-5.9-4.5-6.2C370.6,87.5,370.6,88.7,376.5,90z M390.3,87.2c-4,10.9-3.5,15,2,16.6C396.2,94.6,395.7,89.1,390.3,87.2z
		 M389.5,120.8c4-10.6,3.5-14.3-1.8-16.4C383.5,113.6,384.1,119.2,389.5,120.8z M368.1,107.3c-0.7,3.8-1.1,7.5-2,10.9
		c-1,4.2,1,5.4,4.5,5.7C374.5,113.1,374.1,109.6,368.1,107.3z M365.2,27.4c5.6,2.6,32.9,0.9,40.2-2.7
		C391.4,25.5,378.6,26.4,365.2,27.4z M393.3,69.9c-4,11.6-3.7,14.9,2,16.5C399.1,77.5,398.6,71.8,393.3,69.9z M398.2,69.3
		c3.9-11.5,3.4-14.9-2.2-16.5C392.1,63,392.5,67.4,398.2,69.3z M379.6,38.7c-3.1,15.4-3.9,15.3,2.3,16.4
		C385.8,45.2,385.3,40.5,379.6,38.7z M373.7,107c0.6-3.8,1-7.2,1.8-10.5c1.1-4.3-1-5.6-4.5-6.2C367.9,105.4,367.4,105.3,373.7,107z
		 M403.9,38.3c-2.9-0.7-5.6-1.6-6.2,2c-1.5,9-3.2,10.4,3.8,12.2C402.3,47.7,403,43,403.9,38.3z M335.4,170.9
		c0.6-1.2,1.1-2.6,1.8-3.8c0.5-0.7,1.2-1.8,1.7-1.8c4.9,0.4,7-3.7,9.9-6.1c0.7-0.6,0.6-2.1,1.2-4.4c-5,3.4-8.6,6.8-12.7,8.4
		C332.3,164.9,333.9,167.6,335.4,170.9z M155.7,140c0.1-0.4,0.2-0.9,0.4-1.2c-4.6-2.6-23.1-5-25.8-2.2
		C138.8,137.7,147.3,138.9,155.7,140z M148.9,142.2c-0.4,0.4-0.7,0.6-1.1,1c0.6,1.1,1,3.2,1.7,3.3c2.4,0.4,5,0.1,7.6,0.1
		c1.5,0,3.1-0.2,4.4,0.1c1,0.2,1.8,1.3,2.7,2.1c0.2-0.6,1-1.6,0.9-1.8c-0.7-1-1.7-2.2-2.7-2.4C157.8,143.5,153.3,142.9,148.9,142.2z
		 M391.9,53.6c-6.7,2.7-7.2,3.5-6.7,11C391.4,65,392.4,63.4,391.9,53.6z M375.1,131.4c2.6-4.4,6.8-8.1,6.2-14
		C375.6,118.9,374.3,121.7,375.1,131.4z M182.8,151.7c0.1-0.6,0.2-1.2,0.4-1.8c-5.5-1.1-11-2.2-17.5-3.5c1.1,1.5,1.7,3.3,2.7,3.5
		C173.2,150.6,177.9,151.1,182.8,151.7z M345.8,180.3c0.1-1.6,0.1-2.9,0.2-4.3c-2.7-0.5-5-1.1-7.3-1.2c-0.9,0-2.3,1.1-2.3,1.7
		c0,0.9,1,2.3,1.7,2.4C340.4,179.6,343,179.8,345.8,180.3z M277.7,164.8c0.1,4.3,2.3,5.3,8.8,4.6
		C286.9,165.3,285.5,164.7,277.7,164.8z M378.5,113.1c0.2,0.4,0.4,0.9,0.6,1.2c1.1-0.5,3.2-0.9,3.3-1.6c1.1-4.9,1.8-9.9,2.6-14.9
		c-0.4-0.1-0.7-0.1-1.1-0.2C382,102.7,380.2,108,378.5,113.1z M477.6,29.5c-0.5-1.8-0.7-3.4-1.5-4.6c-0.6-1.1-1.6-2.1-2.4-3.1
		c-0.6,1.2-1.7,2.4-1.6,3.5c0.6,2.9,0.1,4.5-3.7,4.2C471.7,29.5,474.5,29.5,477.6,29.5z M193.6,53c-3.3,0.5-5.6,1-7.9,1.3
		c-0.2,0.5-0.6,0.9-0.9,1.3c1.3,1.6,2.7,4.3,4.2,4.5C193.7,60.6,191.9,56.1,193.6,53z M95.7,132.4c-3.7,0.6-7,1.2-11.2,2
		C92.2,138.5,95.9,137.9,95.7,132.4z M300.7,133.5c3.7,4.6,8.4,2.7,12.9,5.1C310.3,132.7,305.8,133.6,300.7,133.5z M149.7,108.6
		c0.1-0.5,0.2-1.1,0.2-1.6c-5-0.9-10.1-1.7-15.1-2.7c-0.1,0.6-0.2,1.2-0.4,1.8C139.7,107,144.7,107.9,149.7,108.6z M393.3,147.8
		c0-0.4,0-0.7,0-1.1c-6.5,1.1-12.8,2.2-19.3,3.3c0.1,0.4,0.1,0.7,0.2,1.1C380.6,150,386.9,148.9,393.3,147.8z M384.6,38.4
		c2.3-4.4-0.1-5.7-3.8-6.8C378.5,36.1,381.4,37.2,384.6,38.4z M45.2,125.3c0-0.4,0-0.6,0-1c-2.9-0.5-5.9-1-8.9-1.5
		c0,1.6,0,2.8,0,4.4C39.4,126.6,42.4,126,45.2,125.3z M33.7,123.6c-2.6-0.7-5.1-1.5-8.1-2.3C27.3,126.1,28.4,126.6,33.7,123.6z
		 M323.5,166.7c0.5,0.6,0.9,1.2,2,2.8c0-2.7,0-4.2,0-5.7c-5.3-0.4-5.6,0.1-3.8,5.9C322.7,168.3,323.2,167.5,323.5,166.7z M394.3,44
		c0-0.5,0-1-0.1-1.5c-1-0.5-2.2-1.6-2.9-1.3c-1.2,0.5-2.1,1.8-3.2,2.8c0.9,0.6,1.7,2,2.4,1.8C391.8,45.7,393,44.7,394.3,44z
		 M28.4,129.4c0.1-0.4,0.2-0.7,0.4-1.2c-2.8-1.5-5.7-3.1-9.3-5c2.1,2.8,3.4,4.8,5,7C25.6,130,27,129.6,28.4,129.4z M303.4,160
		c-2.6,0.7-6.5-0.6-4.4,4.6C301.4,164.1,304.7,164.9,303.4,160z M274.3,136.8c4.2,0.9,7.9,1.6,11.6,2.3
		C282.4,136.5,279.1,133.2,274.3,136.8z M284.4,35c0-0.1,0-0.2-0.1-0.4c-3.7,0-7.3,0-11,0c0,0.6,0.1,1.1,0.1,1.7
		C277.2,35.8,280.9,35.3,284.4,35z"/>
	<path id="path4143" class="st0" d="M100.1,76.7c1.1,0.7,2.1,1.5,4,2.8c0-4.2,0-7.2,0-10.3c0.5-0.2,0.9-0.4,1.3-0.6
		c1.1,1.6,2.1,3.2,3.2,4.6c-1,0.2-2.7,0.6-2.6,0.7c0.4,2.4,0.4,5.4,1.6,7.3c2.4,3.8,5.5,7.3,8.9,10.3c2,1.7,5.1,2.1,7.7,3.2
		c0.2-0.4,0.4-0.9,0.6-1.2c-2.1-3.2-4.2-6.4-6.4-9.5c3.2,3.5,6.4,7.2,9.5,10.7c-0.4,0.5-0.7,1-1.1,1.5c-13.1-3.3-26.6-3.4-39.7-6.4
		c0-0.5,0.1-1,0.1-1.5c1.3-0.6,2.7-1.2,4-1.8c-0.1,0.4-0.2,0.7-0.4,1.1c2.8,1,5.7,1.8,8.6,2.8c0.4-0.5,0.6-1,1-1.3
		c-3.2-3.3-7.3-6.1-9.2-10c-1.7-3.8-1.1-8.7-1.5-13.2c0.6-0.1,1.1-0.4,1.7-0.5c1.3,2.2,2.7,4.4,4,6.6c-1-0.7-1.8-1.3-2.9-2.1
		c-1.3,6.6,3.5,15,11,19.3C105.7,84.3,102.2,80.8,100.1,76.7z"/>
	<path id="path4145" class="st0" d="M375.9,163.7c-0.9,0.7-2.1,1.7-3.3,2.7c-1.2-6.2-1-6.6,4.9-7.5c3.3-0.5,6.5-1.1,9.8-1.5
		c3.1-0.4,6.1-0.5,9.5-0.9c0.4,1.8,0.7,3.5,1.2,5.9c-6.1,1.3-11.8,2.8-17.7,3.7C379.1,166.4,377.6,164.7,375.9,163.7z"/>
	<path id="path4147" class="st0" d="M118.4,84.1c2.1,3.2,4.2,6.4,6.4,9.5c-0.2,0.4-0.4,0.9-0.6,1.2c-2.6-1-5.7-1.5-7.7-3.2
		c-3.4-2.9-6.4-6.5-8.9-10.3c-1.3-2-1.2-4.9-1.6-7.3c0-0.1,1.7-0.5,2.6-0.7C111.9,77,115.2,80.5,118.4,84.1z"/>
	<path id="path4149" class="st0" d="M100.1,76.7c2.1,3.9,5.6,7.6,3.5,12.7c-7.5-4.3-12.3-12.7-11-19.3c1,0.7,2,1.5,2.9,2.1
		C97.1,73.8,98.5,75.3,100.1,76.7z"/>
	<path id="path4151" class="st0" d="M379.2,176.6c9.6-1.6,19.4-3.3,29.1-4.9c0.1,0.6,0.1,1.1,0.2,1.7c-9.9,1.3-19.8,2.6-29.6,3.9
		C379.1,177.1,379.2,176.9,379.2,176.6z"/>
	<path id="path4153" class="st0" d="M387.8,170.8c6-1.1,12-2.3,18-3.4c0.1,0.6,0.1,1.3,0.2,2C400,169.8,393.9,170.3,387.8,170.8
		C387.7,170.8,387.8,170.8,387.8,170.8z"/>
	<path id="path4155" class="st0" d="M198.7,60.4c0-0.7,0-1.6-0.2-2.3c-1.3-6.2-1.3-5.7,5.4-6.1c12-0.6,23.9-1.8,35.8-2.7
		c15-1.2,29.9-2.6,44.9-3.7c11.7-0.9,23.5-1.1,35.1-2c16-1.2,32-2.9,48-4.4c2.1-0.2,4.2,0,5.5,0c0.6,2.4,1.1,4.3,1.5,6.2
		c0.2,1.3,0.6,2.8,0.4,4c-3.1,18.7-5.5,37.6-13.4,55.2c-0.6,1.3-0.7,2.9-1.3,4.4c-1,2.4-2.2,4.8-5.5,4.5c-0.9-0.1-1.8,1.1-2.7,1.6
		c0.2,0.4,0.5,0.9,0.7,1.2c1.2-0.4,2.3-0.6,4.6-1.3c-2,6.1-3.7,11.5-5.5,16.9c-0.2,0.7-2,1.5-2.9,1.5c-4.6-0.2-9.3-0.7-13.9-1.3
		c-1.1-0.1-2.1-1.1-3.8-2.1c0.4,1.3,0.5,2.2,1.1,4.4c-2.6-1.1-4.2-2-5.9-2.7c-1.7-0.6-2.4-4.8-5.1-1.3c-0.1,0.1-0.6,0.1-0.7,0
		c-3.9-5.1-10.1-3.1-15.1-4.8c-2.6-0.9-6.1,0.2-9,1c-5.5,1.3-10.9,1-16.2-0.1c-14.7-2.8-29.3-5.7-44-8.4c-8.3-1.5-16.7-2.6-26.3-3.9
		c1.5,2.4,2.4,4.2,3.5,5.9l0,0c2,5.4,7.3,4.3,11.1,5.1c10.7,2.3,21.9,3.8,32.7,5.5c1.5,0.2,2.9,0.5,4.4,0.9c0,0.4,0,0.7,0,1.2
		c-4.4,0-8.9,0.5-13.2-0.1c-13.8-2.1-27.6-4.5-41.3-7c-12-2.1-23.9-4.4-35.9-6.5c-10-1.7-20.2-3.2-30.3-4.8c-2.4-0.4-5-1-7.5-1.5
		c0-0.5,0.1-1.1,0.1-1.6c3.5,0,7.2-0.2,10.7,0.1c6.6,0.6,13.2,1.6,19.7,2.7c8.6,1.5,17.2,3.1,25.8,4.8c6.6,1.3,13.2,2.8,19.8,4.3
		c0.2,0.1,0.7-0.4,2-1c-2-0.6-3.2-0.9-4.3-1.3c-1.1-0.6-2.7-1.5-2.9-2.4c-5.1-17.3-10-34.8-15-52.4c3.7-1.1,7.1-3.4,8.8,2.3
		c0.5-0.1,1-0.4,1.5-0.5c-0.2-2.4-0.5-4.8-0.6-7.2L198.7,60.4z"/>
	<path id="path4157" class="st0" d="M293.1,137.3c10.7,1.6,21.5,3.1,32.7,4.6c-2.3-5-8.8-1-11.2-6.5c12.1-0.2,23.3,7.2,34.9,0.4
		c-1,5.4-1,5.4-18.7,6.8c7.7,5.3,18.3,0.2,25.8,6.8c-21.6-2.1-42.9-5.6-64-10.3C292.9,138.8,293,138,293.1,137.3z"/>
	<path id="path4159" class="st0" d="M213.2,120L213.2,120c0.2-3.9,2.9-1.7,4.3-1.6c11.7,1.8,23.5,3.9,35.2,6
		c14.4,2.6,28.7,5,43.1,7.6c1.5,0.2,2.8,0.6,4.3,1c0,0.5,0,1,0.1,1.5c-1.5,0.1-2.9,0.6-4.4,0.4c-6.5-1-13.1-1.6-19.3-3.4
		c-9.3-2.7-18.8-2.7-28.2-4.6c-10.3-2.2-20.6-3.5-30.9-5.3C215.9,121.4,214.6,120.6,213.2,120z"/>
	<path id="path4161" class="st0" d="M494.7,19c-3.2,0.2-6.5,0.6-8.6,0.7c-0.6,3.1-0.5,6.6-1.6,7.1c-1.7,0.7-4.4-0.5-6.7-1
		c0.5-1.6,1-3.2,1.7-5.5c-7.7,0.7-15.5,1.5-23.9,2.3c0.1,1.7,0.2,3.7,0.4,6.1c-2.4-0.1-5.1,1-4.8-3.3c0-0.6-2.3-2.1-3.5-2
		c-4.4,0.2-8.7,1-13.1,1.3c-8.2,0.6-16.5,0.9-24.9,0.5c0.7-0.4,1.6-1.1,2.3-1.1c7.6-0.5,15.1-0.7,22.6-1.5
		c17.5-1.6,34.9-3.4,52.5-4.9c2.4-0.2,5,1,7.5,1.5L494.7,19z"/>
	<path id="path4163" class="st0" d="M130.1,105.2c-3.8,0-7.6,0-11.8,0c0.5,1.1,0.7,1.8,1.6,3.8c-7.1-0.5-13.6-1-19.9-1.3
		c5-5.5,10.9,2.4,16.2-2.8c-4.8-1-9.6-1.5-14.2-2.9c-7.9-2.6-16.5-1.3-24.4-4.2c-1.6-0.6-3.1-1.6-4.5-2.4c0.2-0.5,0.4-1,0.6-1.6
		c18.9,3.3,37.7,6.5,56.7,9.8C130.2,104.1,130.1,104.6,130.1,105.2z"/>
	<path id="path4165" class="st0" d="M44.1,93.6c2.8-6.2,5.5-12.2,8.2-18.2c6.7,2.6,11,12.1,9.4,19.9C56,94.8,50.5,94.2,44.1,93.6z"
		/>
	<path id="path4167" class="st0" d="M142.6,145.6c-14.7-2.6-28.5-4.9-42.3-7.5c-1-0.2-1.8-1.8-2.7-2.8c1.1-0.5,2.3-1.5,3.3-1.3
		c13.8,2.2,27.7,4.6,41.5,7.1c1,0.2,1.8,1.8,2.7,2.8C144.1,144.6,143.1,145.3,142.6,145.6z"/>
	<path id="path4169" class="st0" d="M275.6,168.3c-13.9-2.4-27.7-4.8-41.4-7.2c-1-0.1-1.7-1.3-2.4-2.1c0.9-0.6,1.8-1.7,2.7-1.7
		c2.9,0.1,6,0.5,8.9,1c9.9,1.6,19.8,3.3,29.7,5C275.6,163.8,277.4,164.7,275.6,168.3z"/>
	<path id="path4171" class="st0" d="M290.1,166.4c5.7,1,11.4,1.8,18.6,2.9c-1.5-2.8-2.3-4.4-3.1-6.1c-0.4-0.9-0.4-2-0.4-2.9
		c0-0.2,1.2-0.6,1.5-0.5c0.7,0.6,1.5,1.3,1.7,2.2c0.5,2.4-0.1,5.7,1.2,7.1c1.6,1.5,4.9,1.2,7.3,1.7c3.7,0.6,7.5,1.2,11.1,2.7
		c-0.7,0.2-1.5,0.5-2.7,0.9c0.9,0.9,1.6,1.5,2.6,2.3c-0.7,0.1-1.1,0.4-1.5,0.4c-11.2-2-22.4-3.9-33.6-5.7
		C290.3,170.9,288.8,170,290.1,166.4z"/>
	<path id="path4173" class="st0" d="M264.2,37c-6.6,0.6-13.1,1.2-19.7,1.7c-9.6,0.7-19.4,1.2-29.1,2.1c-2,0.1-3.7,1.5-5.6,2.2
		c-1,0.4-2,1.1-2.9,1.2c-0.4,0-1.5-1.5-1.3-1.8c0.4-1.2,1.1-2.6,2.1-3.2c1.1-0.6,2.7-0.6,4-0.7c16.9-1.2,33.6-2.4,50.4-3.5
		c0.6,0,1.3,0.2,2,0.4C264,35.9,264,36.4,264.2,37z"/>
	<path id="path4175" class="st0" d="M361.8,149.4c-2.1-2.2-5-4.2-6.4-7c-1-2.1,4.3-7.5,7.5-8.1c-2.7-4.2,1-6.4,3.8-9
		c4.4,0.9,5.1,3.3,1.8,9.2c-1.8,3.3-4,6.4-5.7,9.8C362.1,145.4,362.2,147,361.8,149.4z"/>
	<path id="path4177" class="st0" d="M365.1,100.2c-0.2,18.2-4.9,31.5-15.1,43.2C354.9,129,360.1,114.6,365.1,100.2z"/>
	<path id="path4179" class="st0" d="M386.2,122c3.7,1.2,4.4,4,1.3,9.4c-2.1,3.7-4.2,7.3-6.6,10.7c-1.2,1.7-3.5,2.7-5.6,3.4
		C377.8,137.2,377.8,128,386.2,122z"/>
	<path id="path4181" class="st0" d="M341.9,31.3c-18.1,1.3-36.2,2.8-54.2,4.2c0-0.7-0.1-1.5-0.1-2.2c18.1-1.3,36.3-2.8,54.4-4.2
		C341.7,29.8,341.9,30.6,341.9,31.3z"/>
	<path id="path4183" class="st0" d="M170.4,113.5c3.7-3.5,27.5,0.9,30,5.4C189.9,116.9,180.1,115.2,170.4,113.5z"/>
	<path id="path4185" class="st0" d="M388.9,73.3c-0.5,7.9-4.3,18-8.6,21c0.4-3.1,0.6-5.4,1-7.8c0.4-2.6,1.3-5.1,1.2-7.6
		C382.2,74.3,385,73.7,388.9,73.3z"/>
	<path id="path4187" class="st0" d="M376.5,55.7c6.1,2.4,6.5,5.1,2.6,16.7c-3.5-0.4-5.5-1.6-4.5-5.7
		C375.4,63.2,375.8,59.6,376.5,55.7z"/>
	<path id="path4189" class="st0" d="M376.5,90c-6-1.3-6-2.4-2.6-16.7c3.9,0.4,5.6,2.1,4.5,6.2C377.8,82.8,377.3,86.4,376.5,90z"/>
	<path id="path4191" class="st0" d="M390.3,87.2c5.3,2,5.7,7.3,2,16.6C386.9,102.1,386.4,98,390.3,87.2z"/>
	<path id="path4193" class="st0" d="M389.5,120.8c-5.5-1.6-6.1-7.2-1.8-16.4C393.2,106.5,393.5,110.2,389.5,120.8z"/>
	<path id="path4195" class="st0" d="M368.1,107.3c6,2.2,6.4,5.7,2.4,16.7c-3.5-0.4-5.5-1.6-4.5-5.7
		C366.9,114.7,367.4,111.2,368.1,107.3z"/>
	<path id="path4197" class="st0" d="M365.2,27.4c13.4-1,26.1-1.8,40.2-2.7C398,28.1,370.8,29.9,365.2,27.4z"/>
	<path id="path4199" class="st0" d="M393.3,69.9c5.4,2,5.9,7.5,2,16.5C389.6,84.9,389.1,81.5,393.3,69.9z"/>
	<path id="path4201" class="st0" d="M398.2,69.3c-5.6-1.8-6.1-6.2-2.2-16.5C401.7,54.4,402.1,57.8,398.2,69.3z"/>
	<path id="path4203" class="st0" d="M379.6,38.7c5.6,1.8,6.2,6.5,2.3,16.4C375.7,54,376.5,54,379.6,38.7z"/>
	<path id="path4205" class="st0" d="M373.7,107c-6.5-1.7-5.9-1.6-2.7-16.7c3.5,0.6,5.6,2,4.5,6.2C374.7,99.8,374.3,103.2,373.7,107z
		"/>
	<path id="path4207" class="st0" d="M403.9,38.3c-0.9,4.8-1.6,9.4-2.4,14.2c-7-1.8-5.3-3.2-3.8-12.2C398.3,36.7,401,37.4,403.9,38.3
		z"/>
	<path id="path4209" class="st0" d="M335.4,170.9c-1.6-3.4-3.1-6,2-7.8c4.2-1.5,7.7-5,12.7-8.4c-0.6,2.3-0.5,3.8-1.2,4.4
		c-2.9,2.4-5,6.6-9.9,6.1c-0.5,0-1.3,1.1-1.7,1.8C336.6,168.3,336,169.7,335.4,170.9z"/>
	<path id="path4211" class="st0" d="M155.7,140c-8.4-1.1-17-2.2-25.4-3.4c2.6-2.8,21.1-0.5,25.8,2.2
		C155.9,139.1,155.8,139.6,155.7,140z"/>
	<path id="path4213" class="st0" d="M148.9,142.2c4.5,0.7,9,1.3,13.4,2.3c1.1,0.2,2,1.5,2.7,2.4c0.2,0.2-0.5,1.2-0.9,1.8
		c-0.9-0.7-1.7-1.8-2.7-2.1c-1.3-0.4-2.9-0.1-4.4-0.1c-2.6,0-5.1,0.2-7.6-0.1c-0.7-0.1-1.2-2.2-1.7-3.3
		C148.1,142.8,148.5,142.6,148.9,142.2z"/>
	<path id="path4215" class="st0" d="M391.9,53.6c0.5,9.8-0.5,11.4-6.7,11C384.8,57.1,385.2,56.3,391.9,53.6z"/>
	<path id="path4217" class="st0" d="M494.5,19.1c1-0.4,1.8-0.7,3.7-1.3c-1.6,3.1-2.7,5.4-4,7.5c-0.7,1.1-2.1,1.8-3.1,2.8
		c-1-1.2-2.1-2.3-2.8-3.7c-0.4-0.7-0.2-1.8-0.4-2.9c2.3-0.7,4.5-1.6,6.7-2.3C494.7,19,494.5,19.1,494.5,19.1z"/>
	<path id="path4219" class="st0" d="M375.1,131.4c-0.9-9.8,0.5-12.6,6.2-14C381.9,123.4,377.8,127.1,375.1,131.4z"/>
	<path id="path4221" class="st0" d="M182.8,151.7c-4.9-0.6-9.6-1-14.5-2c-1-0.1-1.6-2.1-2.7-3.5c6.5,1.3,12,2.4,17.5,3.5
		C183.1,150.5,182.9,151.1,182.8,151.7z"/>
	<path id="path4223" class="st0" d="M345.8,180.3c-2.8-0.5-5.4-0.6-7.8-1.3c-0.9-0.2-1.7-1.7-1.7-2.4c0-0.6,1.6-1.7,2.3-1.7
		c2.3,0.1,4.8,0.7,7.3,1.2C345.9,177.4,345.8,178.6,345.8,180.3z"/>
	<path id="path4225" class="st0" d="M277.7,164.8c7.9-0.2,9.2,0.5,8.8,4.6C279.9,170.2,277.8,169.1,277.7,164.8z"/>
	<path id="path4227" class="st0" d="M378.5,113.1c1.8-5.3,3.5-10.4,5.4-15.6c0.4,0.1,0.7,0.1,1.1,0.2c-0.9,5-1.5,10-2.6,14.9
		c-0.1,0.7-2.2,1.1-3.3,1.6C378.9,114,378.6,113.6,378.5,113.1z"/>
	<path id="path4229" class="st0" d="M477.6,29.5c-3.1,0-5.7,0-9,0c3.8,0.4,4.3-1.2,3.7-4.2c-0.2-1,1-2.3,1.6-3.5
		c0.9,1,1.8,1.8,2.4,3.1C476.7,26,476.9,27.6,477.6,29.5z"/>
	<path id="path4231" class="st0" d="M193.6,53c-1.7,3.2,0.1,7.6-4.6,7.1c-1.6-0.1-2.8-2.9-4.2-4.5c0.2-0.5,0.6-0.9,0.9-1.3
		C187.9,53.9,190.3,53.5,193.6,53z"/>
	<path id="path4233" class="st0" d="M95.7,132.4c0.1,5.4-3.5,6-11.2,2C88.8,133.6,92.1,133.2,95.7,132.4z"/>
	<path id="path4235" class="st0" d="M300.7,133.5c5.1,0.1,9.6-0.9,12.9,5.1C309.1,136.2,304.4,138.2,300.7,133.5z"/>
	<path id="path4237" class="st0" d="M149.7,108.6c-5-0.9-10.1-1.6-15.1-2.4c0.1-0.6,0.2-1.2,0.4-1.8c5,0.9,10.1,1.7,15.1,2.7
		C150,107.5,149.8,108.1,149.7,108.6z"/>
	<path id="path4239" class="st0" d="M393.3,147.8c-6.4,1.1-12.7,2.2-19.2,3.3c-0.1-0.4-0.1-0.7-0.2-1.1c6.5-1.1,12.8-2.2,19.3-3.3
		C393.3,147.1,393.3,147.5,393.3,147.8z"/>
	<path id="path4241" class="st0" d="M384.6,38.4c-3.2-1.2-6.2-2.3-3.8-6.8C384.5,32.6,386.9,34,384.6,38.4z"/>
	<path id="path4243" class="st0" d="M198.6,60.2c-3.1,5.1-8.3,2.1-12.5,3.2c3.8-2.7,8.1-3.1,12.6-3.1
		C198.7,60.4,198.6,60.2,198.6,60.2z"/>
	<path id="path4245" class="st0" d="M45.2,125.3c-2.8,0.6-5.7,1.3-8.9,2c0-1.6,0-2.8,0-4.4c3.1,0.5,6,1,8.9,1.5
		C45.2,124.7,45.2,125,45.2,125.3z"/>
	<path id="path4247" class="st0" d="M33.7,123.6c-5.3,2.9-6.4,2.6-8.1-2.3C28.5,122,31.1,122.8,33.7,123.6z"/>
	<path id="path4249" class="st0" d="M323.5,166.7c-0.4,0.7-0.9,1.6-1.7,3.1c-1.8-5.9-1.5-6.2,3.8-5.9c0,1.5,0,3.1,0,5.7
		C324.5,168.1,324,167.5,323.5,166.7z"/>
	<path id="path4251" class="st0" d="M394.3,44c-1.2,0.6-2.4,1.7-3.7,1.8c-0.7,0.1-1.6-1.2-2.4-1.8c1-1,2-2.3,3.2-2.8
		c0.6-0.2,2,0.9,2.9,1.3C394.1,43,394.1,43.5,394.3,44z"/>
	<path id="path4253" class="st0" d="M28.4,129.4c-1.5,0.2-2.9,0.6-3.9,0.7c-1.6-2.2-2.9-4.2-5-7c3.7,2,6.5,3.4,9.3,5
		C28.7,128.6,28.5,129,28.4,129.4z"/>
	<path id="path4255" class="st0" d="M303.4,160c1.2,5-2.1,4-4.4,4.6C297,159.4,300.8,160.6,303.4,160z"/>
	<path id="path4257" class="st0" d="M274.3,136.8c4.8-3.7,8.2-0.2,11.6,2.3C282.1,138.3,278.5,137.6,274.3,136.8z"/>
	<path id="path4259" class="st0" d="M284.4,35c-3.7,0.5-7.3,0.9-10.9,1.3c0-0.6-0.1-1.1-0.1-1.7c3.7,0,7.3,0,11,0
		C284.4,34.7,284.4,34.8,284.4,35z"/>
</g>
</svg>
