<svg xmlns="http://www.w3.org/2000/svg" xmlns:xlink="http://www.w3.org/1999/xlink" version="1.1" x="0px" y="0px" viewBox="0 0 128 160" enable-background="new 0 0 128 128" xml:space="preserve"><g><path fill="#000000" d="M1,21.6v94.9h8.6V127h15.6v-10.4h77.5V127h15.6v-10.4h8.6V21.6H1z M22.3,101.4h-5.1v-8.6h5.1V101.4z    M32.8,101.4h-5.1v-8.6h5.1V101.4z"/><path fill="#000000" d="M1,1v15.6h126V1H1z M84.8,11.9H43.2c-1.8,0-3.2-1.4-3.2-3.2c0-1.8,1.4-3.2,3.2-3.2h41.6   c1.8,0,3.2,1.4,3.2,3.2C88,10.4,86.5,11.9,84.8,11.9z"/></g><text x="0" y="143" fill="#000000" font-size="5px" font-weight="bold" font-family="'Helvetica Neue', Helvetica, Arial-Unicode, Arial, Sans-serif">Created by Vectors Market</text><text x="0" y="148" fill="#000000" font-size="5px" font-weight="bold" font-family="'Helvetica Neue', Helvetica, Arial-Unicode, Arial, Sans-serif">from the Noun Project</text></svg>