<?xml version="1.0" encoding="UTF-8" standalone="no"?>
<!-- Created with Inkscape (http://www.inkscape.org/) -->

<svg
   xmlns:dc="http://purl.org/dc/elements/1.1/"
   xmlns:cc="http://creativecommons.org/ns#"
   xmlns:rdf="http://www.w3.org/1999/02/22-rdf-syntax-ns#"
   xmlns:svg="http://www.w3.org/2000/svg"
   xmlns="http://www.w3.org/2000/svg"
   xmlns:sodipodi="http://sodipodi.sourceforge.net/DTD/sodipodi-0.dtd"
   xmlns:inkscape="http://www.inkscape.org/namespaces/inkscape"
   width="75"
   height="45"
   viewBox="0 0 75.000001 45.000001"
   id="svg4152"
   version="1.1"
   inkscape:version="0.91 r13725"
   sodipodi:docname="trucks.svg">
  <defs
     id="defs4154" />
  <sodipodi:namedview
     id="base"
     pagecolor="#ffffff"
     bordercolor="#666666"
     borderopacity="1.0"
     inkscape:pageopacity="0.0"
     inkscape:pageshadow="2"
     inkscape:zoom="11.92"
     inkscape:cx="37.5"
     inkscape:cy="22.5"
     inkscape:document-units="px"
     inkscape:current-layer="layer1"
     showgrid="false"
     units="px"
     inkscape:window-width="1366"
     inkscape:window-height="705"
     inkscape:window-x="-8"
     inkscape:window-y="-8"
     inkscape:window-maximized="1" />
  <metadata
     id="metadata4157">
    <rdf:RDF>
      <cc:Work
         rdf:about="">
        <dc:format>image/svg+xml</dc:format>
        <dc:type
           rdf:resource="http://purl.org/dc/dcmitype/StillImage" />
        <dc:title></dc:title>
      </cc:Work>
    </rdf:RDF>
  </metadata>
  <g
     inkscape:label="Layer 1"
     inkscape:groupmode="layer"
     id="layer1"
     transform="translate(0,-1007.3622)">
    <path
       class="st0"
       d="m 68.721184,1041.1509 -2.7,0.7 -28.8,-6.8 c 6.3,-10.6 2.7,-22.1 -7.1,-26.3 -2,-0.9 -3.9,-1.1 -5.1,-1.2 -0.6,0 -0.2,0 -6.9,0.2 -2.1,0.1 -2,0.1 -2.3,0.1 -2.2,0.1 -4.4,0.8 -6.2999999,1.8 -10.4,5.6 -12.7,20.9 -4.2,28.7 l 0.5,6 6.1999999,4.8 7.4,-1.8 0.1,0 4.6,2.8 7.189933,-3.8617 24.610067,4.9617 c 1.2,0.7 2.6,0.8 3.9,0.4 l 7.2,-2.2 c 1.8,-0.6 3.2,-2.1 3.4,-4 l 0.5,-3.7 z m -46.9,-30 4.1,-0.1 0,3.3 -4.1,0.3 z m -8.8,33.7 c -1.9,0 -3.3999999,-1.5 -3.3999999,-3.4 0,-1.9 1.4999999,-3.4 3.3999999,-3.4 1.9,0 3.4,1.5 3.4,3.4 0.1,1.8 -1.5,3.4 -3.4,3.4 z m 43.3,-0.7 -2,2.5 c 0,0 -30.1,-6.6 -33.8,-8.6 -3.9,-2.1 -7,-5.9 -6.2,-12 0.8,-6.2 5.9,-10.6 11.3,-9.9 5.3,0.7 9.2,5.8 8.3,12.5 -0.4,2.9 -1.7,5.3 -3.4,7.1 l 32.9,6.7 z"
       id="path12"
       inkscape:connector-curvature="0"
       style="fill:none;stroke:#ffffff;stroke-opacity:1"
       sodipodi:nodetypes="ccccccccccccccccccccccccccssscsccccccccc" />
  </g>
</svg>
