<?xml version="1.0" encoding="utf-8"?>
<!-- Generator: Adobe Illustrator 16.0.0, SVG Export Plug-In . SVG Version: 6.00 Build 0)  -->
<!DOCTYPE svg PUBLIC "-//W3C//DTD SVG 1.1//EN" "http://www.w3.org/Graphics/SVG/1.1/DTD/svg11.dtd">
<svg version="1.1" id="Layer_1" xmlns="http://www.w3.org/2000/svg" xmlns:xlink="http://www.w3.org/1999/xlink" x="0px" y="0px"
	  viewBox="0 0 39 23" enable-background="new 0 0 39 23" xml:space="preserve">
<g>
	<g>
		<path d="M8.694,12.9c-1.836,0-3.33,1.504-3.33,3.353s1.494,3.353,3.33,3.353s3.33-1.504,3.33-3.353S10.53,12.9,8.694,12.9z
			 M8.694,18.332c-1.139,0-2.066-0.934-2.066-2.079s0.927-2.079,2.066-2.079c1.139,0,2.065,0.934,2.065,2.079
			S9.833,18.332,8.694,18.332z M30.276,12.9c-1.837,0-3.33,1.504-3.33,3.353s1.493,3.353,3.33,3.353c1.836,0,3.33-1.504,3.33-3.353
			S32.112,12.9,30.276,12.9z M30.276,18.332c-1.139,0-2.064-0.934-2.064-2.079s0.927-2.079,2.064-2.079
			c1.139,0,2.064,0.934,2.064,2.079S31.415,18.332,30.276,18.332z M38.37,12.223c-0.015,0-0.027,0-0.041,0.002v-2.35
			c0-0.896-0.443-1.728-1.185-2.225l-0.981-0.66l-1.39-2.796c-0.453-0.912-1.362-1.478-2.375-1.478h-6.844
			c-0.349,0-0.632,0.285-0.632,0.637v2.758h-1.432V1.315c0-0.023,0.018-0.042,0.041-0.042h11.467c0.349,0,0.631-0.285,0.631-0.637
			C35.629,0.284,35.346,0,34.999,0H23.532c-0.721,0-1.308,0.59-1.308,1.315v0.042H0.632c-0.27,0-0.51,0.172-0.598,0.429
			c-0.087,0.257-0.004,0.542,0.208,0.71l8.901,7.027c-0.149-0.01-0.298-0.017-0.449-0.017c-3.696,0-6.703,3.027-6.703,6.747
			S4.998,23,8.694,23c3.006,0,5.556-2.003,6.403-4.753h8.776C24.72,20.997,27.269,23,30.276,23c3.696,0,6.702-3.027,6.702-6.747
			c0-0.015-0.001-0.028-0.001-0.042h0.044c1.092,0,1.979-0.896,1.979-1.995v-1.358C39,12.507,38.717,12.223,38.37,12.223z
			 M26.187,3.989h6.211c1.37,0,1.604,2.011,1.604,2.011h-5v1h5l2.44,1.709c0.39,0.261,0.619,0.696,0.619,1.166v2.348H35.67
			c-0.008,0-0.016,0-0.022,0c-1.224-1.647-3.176-2.717-5.372-2.717c-1.538,0-2.956,0.525-4.089,1.406V3.989z M2.463,2.631h19.761
			V13.58h-5.138c-0.487,0-0.967-0.168-1.35-0.471L2.463,2.631z M8.694,21.727c-2.999,0-5.438-2.455-5.438-5.474
			s2.439-5.474,5.438-5.474c2.998,0,5.438,2.456,5.438,5.474S11.692,21.727,8.694,21.727z M23.613,16.975h-8.256
			c0.025-0.236,0.039-0.479,0.039-0.722c0-0.714-0.112-1.401-0.317-2.049c0.583,0.419,1.29,0.647,2.007,0.647h6.634
			c-0.097,0.453-0.146,0.92-0.146,1.4C23.575,16.496,23.586,16.736,23.613,16.975z M23.491,13.58V7.384h1.432v4.796
			c0,0.006,0.002,0.012,0.002,0.019c-0.318,0.425-0.588,0.889-0.801,1.383L23.491,13.58L23.491,13.58z M30.276,21.727
			c-2.999,0-5.438-2.455-5.438-5.474s2.438-5.474,5.438-5.474c2.998,0,5.438,2.456,5.438,5.474S33.274,21.727,30.276,21.727z
			 M37.737,14.216c0,0.397-0.32,0.722-0.716,0.722h-0.172c-0.101-0.504-0.255-0.985-0.459-1.442h1.305
			c0.015,0,0.027-0.001,0.042-0.002V14.216z"/>
	</g>
</g>
</svg>
