<?xml version="1.0" encoding="UTF-8" standalone="no"?>
<svg
   xmlns:dc="http://purl.org/dc/elements/1.1/"
   xmlns:cc="http://creativecommons.org/ns#"
   xmlns:rdf="http://www.w3.org/1999/02/22-rdf-syntax-ns#"
   xmlns:svg="http://www.w3.org/2000/svg"
   xmlns="http://www.w3.org/2000/svg"
   xmlns:sodipodi="http://sodipodi.sourceforge.net/DTD/sodipodi-0.dtd"
   xmlns:inkscape="http://www.inkscape.org/namespaces/inkscape"
   width="160"
   height="100"
   viewBox="0 0 160 100"
   id="svg2"
   version="1.1"
   style="shape-rendering:crispEdges"
   inkscape:version="0.91 r13725"
   sodipodi:docname="trucks.svg">
  <sodipodi:namedview
     pagecolor="#ffffff"
     bordercolor="#666666"
     borderopacity="1"
     objecttolerance="10"
     gridtolerance="10"
     guidetolerance="10"
     inkscape:pageopacity="0"
     inkscape:pageshadow="2"
     inkscape:window-width="1366"
     inkscape:window-height="705"
     id="namedview7"
     showgrid="false"
     inkscape:zoom="1.90625"
     inkscape:cx="10.229508"
     inkscape:cy="50"
     inkscape:window-x="-8"
     inkscape:window-y="-8"
     inkscape:window-maximized="1"
     inkscape:current-layer="svg2" />
  <defs
     id="defs4" />
  <metadata
     id="metadata7">
    <rdf:RDF>
      <cc:Work
         rdf:about="">
        <dc:format>image/svg+xml</dc:format>
        <dc:type
           rdf:resource="http://purl.org/dc/dcmitype/StillImage" />
        <dc:title />
      </cc:Work>
    </rdf:RDF>
  </metadata>
  <g
     style="stroke:#000000;stroke-width:3.07113242;stroke-miterlimit:4;stroke-dasharray:none;stroke-opacity:1"
     id="layer1"
     transform="matrix(0.98020847,0,0,0.97347994,3.1621256,-924.46995)">
    <path
       class="st0"
       d="m 154.71506,1027.8218 -6.06156,1.5632 -64.656585,-15.185 c 14.14363,-23.67009 6.061557,-49.35035 -15.939645,-58.72898 -4.490038,-2.00972 -8.75558,-2.45644 -11.449603,-2.6799 -1.347013,0 -0.449004,0 -15.490638,0.44672 -4.714546,0.22265 -4.490043,0.22265 -5.16355,0.22265 -4.939044,0.22265 -9.878089,1.78606 -14.143627,4.01924 -23.3482119,12.50504 -28.511759,46.67087 -9.429085,64.08857 l 1.12251,13.3985 13.919126,10.7184 16.613152,-4.0196 0.224478,0 10.327095,6.253 16.141545,-8.6236 55.250097,11.0794 c 2.69403,1.5634 5.83706,1.7865 8.75559,0.8934 l 16.16414,-4.9126 c 4.04104,-1.3398 7.18407,-4.6896 7.63307,-8.9319 l 1.12251,-8.2626 z m -105.291459,-66.99139 9.204583,-0.22265 0,7.36911 -9.204583,0.66977 z m -19.756179,75.25329 c -4.265538,0 -7.633068,-3.3493 -7.633068,-7.5922 0,-4.2429 3.36753,-7.5921 7.633068,-7.5921 4.265541,0 7.63307,3.3492 7.63307,7.5921 0.224519,4.0197 -3.367529,7.5922 -7.63307,7.5922 z m 97.209388,-1.5628 -4.49005,5.5827 c 0,0 -67.575107,-14.7383 -75.881685,-19.2042 -8.755582,-4.6896 -15.715143,-13.1754 -13.919125,-26.79697 1.796014,-13.84459 13.245619,-23.67013 25.368728,-22.10673 11.89861,1.5628 20.654189,12.95156 18.633668,27.91304 -0.898005,6.47546 -3.816531,11.83506 -7.633067,15.85426 l 68.255381,16.4084 z"
       id="path12"
       style="fill:none;stroke:#000000;stroke-width:3.07113242;stroke-miterlimit:4;stroke-dasharray:none;stroke-opacity:1"
       inkscape:connector-curvature="0" />
  </g>
</svg>
