<?xml version="1.0" encoding="utf-8"?>
<!-- Generator: Adobe Illustrator 16.0.0, SVG Export Plug-In . SVG Version: 6.00 Build 0)  -->
<!DOCTYPE svg PUBLIC "-//W3C//DTD SVG 1.1//EN" "http://www.w3.org/Graphics/SVG/1.1/DTD/svg11.dtd">
<svg version="1.1" id="Layer_1" xmlns="http://www.w3.org/2000/svg" xmlns:xlink="http://www.w3.org/1999/xlink" x="0px" y="0px"
	  viewBox="0 0 49 49" enable-background="new 0 0 49 49" xml:space="preserve">
<g>
	<g>
		<path fill-rule="evenodd" clip-rule="evenodd" d="M24.504,15.688c-4.917,0-8.813,4-8.813,8.844c0,4.852,3.896,8.843,8.813,8.843
			s8.814-3.909,8.814-8.843C33.318,19.598,29.332,15.688,24.504,15.688z M30.537,27.562l-5.938-1.76l0.238-0.793l-0.802,0.104
			L23.3,19.391l1.552-0.201l0.656,5.117l5.516,1.633L30.537,27.562z M24.5,0C10.969,0,0,10.969,0,24.5C0,38.031,10.969,49,24.5,49
			C38.031,49,49,38.031,49,24.5C49,10.969,38.031,0,24.5,0z M24.504,34.99c-3.431-0.154-5.76-1.694-5.642-1.619
			C15.928,31.519,14,28.263,14,24.54C14,18.762,18.656,14,24.504,14c5.367,0,9.736,3.942,10.415,9.13L35,24.827
			C34.854,30.557,30.159,35.244,24.504,34.99z"/>
	</g>
</g>
</svg>
