<?xml version="1.0" encoding="utf-8"?>
<!-- Generator: Adobe Illustrator 21.0.2, SVG Export Plug-In . SVG Version: 6.00 Build 0)  -->
<svg version="1.1" id="Layer_1" xmlns="http://www.w3.org/2000/svg" xmlns:xlink="http://www.w3.org/1999/xlink" x="0px" y="0px"
	 viewBox="0 0 162 121" style="enable-background:new 0 0 162 121;" xml:space="preserve">
<style type="text/css">
	.st0{fill:none;}
</style>
<g>
	<g>
		<path d="M72.9,0.5c0.4,0,0.8,0,1.3,0c2.2,0.9,4.4,1.8,6.6,2.6c0.4,0.1,0.8,0.2,1.2,0.3c1.7,0.3,3.4,0.7,5.1,0.9
			c0.6,0.1,1.3,0.1,1.7-0.1c1.3-0.6,2.4-1.4,3.7-2.1c1.6-0.8,3.3,0.3,3.4,2.1c0,1.5,0.1,3.1,0,4.7c0,1,0.3,1.6,1.2,2.1
			c4.8,2.7,9.6,5.5,14.4,8.3c5,2.9,10,5.8,14.9,8.6c0.6,1.8-2.1,2.7-1,4.4c0.2,0,0.4,0.1,0.6,0.2c0.5-1.3,0.9-2.6,1.4-4.1
			c1.8,1.1,3.6,2.1,5.4,3.1c-2.8,2.9-5.3,5.6-7.9,8.3c-7.3,7.6-14.7,15.2-22.1,22.8c-0.2,0.2-0.4,0.4-0.6,0.5
			c-0.5,0.4-1,0.9-1.5,1.3c1.3,0.3,1.2,0.2,2.3-1.1c1.2-1.5,2.6-2.8,4-4.2c6.1-6.3,12.1-12.6,18.2-18.9c0.8-0.9,1.5-0.9,2.4-0.3
			c1.2,0.8,2.5,1.5,3.8,2.2c0.5,0.3,1.1,0.3,1.7,0.3c0-0.2,0.1-0.3,0.1-0.5c-2-1.2-4-2.4-6.2-3.6c2.1-2.2,4.1-4.4,6.1-6.5
			c3.5,2.1,6.9,2.8,10.3,0c0,0,0.1,0,0.1-0.1c1.8-0.9,3.6,0.1,3.6,2.1c0,2-0.1,4,0,5.9c0,0.6,0.3,1.4,0.7,1.7
			c4.6,3.1,6,7.7,6.2,12.9c0,1-0.3,1.5-1.1,1.9c-5.8,2.8-11.5,5.8-17.2,8.7c-0.3,0.1-0.6,0.4-0.8,0.4c-1.2-0.3-1.4,0.5-1.8,1.3
			c0.1,0.1,0.2,0.3,0.3,0.4c6.8-3.5,13.7-7,20.7-10.6c-0.1,1.2,0,2.1-0.2,3.1c-0.7,5.2-2.3,10.1-4.7,14.7c-4.2,8-9.7,15-17.9,19.2
			c-5.9,3.1-11.9,5.8-17.8,8.8c-3.1,1.5-6,1.9-8.9-0.4c-0.3-0.3-1.2-0.2-1.6,0c-2.5,1.4-4.9,2.9-7.5,4.4c-0.5,0.3-1.5,0.5-2,0.3
			c-1.3-0.5-2.6-1.4-3.8-2.1c-1-0.6-0.9-1.2,0-1.7c0.8-0.5,1.5-1,2.8-1.7c-3.7-2.3-7-4.4-10.3-6.4c-1.3-0.8-2.7,0-2.7,1.7
			c0,0.4,0,0.8,0,1.1c-0.2,1.1-2.1,2.1-3,1.6c-1.6-1-3.3-0.1-3.4,1.8c0,0.8,0,1.6,0,2.3c0.1,0.9-0.3,1.4-1,1.8
			c-2.4,1.4-4.8,2.8-7.2,4.4c-2,1.3-3.8,1.7-6.1,0.1c-3.9-2.6-8.1-4.8-12.1-7.1c-1.2-0.7-2.4-1.4-3.6-2.1c-0.1,0.1-0.3,0.2-0.4,0.3
			c0.4,0.8,0.9,1.5,1.3,2.3c-0.5,0.1-1.2,0.3-1.8,0.5c-0.1,0.1-0.2,0.3-0.3,0.4c0.6,0.5,1.2,1.3,2,1.5c1,0.3,1.1,2.9,2.8,1.1
			c0,0,0.5,0.4,0.6,0.5c-0.6,0.5-1.1,1-1.6,1.5c0-0.3,0-0.7-0.1-0.8c-1.7-1.1-3.4-2.1-5.1-3.2c-0.9-0.7-1.3-0.3-1.8,0.3
			c0.3,0.3,0.5,0.5,0.6,0.7c-1,0.5-1.8,0.9-2.7,1.4c-0.1-0.3-0.2-0.7-0.3-0.8c-1.5-0.5-1.6-0.6-1.9-2.6c1.3,1.7,2.8,1.9,4.1,0.6
			c0.3-0.4-0.2-1.6-0.3-2.3c0.2,0.1,0.6,0.3,1.1,0.5c0.3-0.8,0.5-1.4,0.8-2.1c0.8,0.5,1.6,0.9,2.5,1.4c0.1-0.1,0.2-0.2,0.3-0.3
			c-0.2-0.5-0.2-1.2-0.5-1.4c-2.3-1.5-4.7-2.8-7.3-4.3c0,0.8,0,1.3,0,2.3c-0.3-0.6-0.6-0.9-0.5-1c0.6-1.5-0.5-1.9-1.5-2.4
			c-1.3-0.8-2.5-1.5-4.1-2.4c4.3-0.4,8.1-0.8,11.5-1.1c1.2,1.5,2.1,3,3.3,4.1c0.5,0.5,1.9,0.7,2.5,0.4c0.6-0.4,0.9-1.5,0.9-2.4
			c0-0.9-0.5-1.8-0.7-2.6c1.1-0.8,2.9,1.1,3.9-1.5c-1,0.1-1.6,0.2-2.3,0.3c-1.1,0.2-2.1,0.8-3.1-0.5c-0.5-0.7-1.9-1.2-2.7-1
			c-0.6,0.1-1,1.5-1.4,2.3c0,0.1-0.1,0.2-0.1,0.1c-3,0.4-5.9,0.7-8.8,1.1c-2.5,0.3-4.7,0.3-6.9-1.3c-2.1-1.5-4.4-2.6-6.6-3.9
			c-1.1-0.7-2.3-1.3-3.4-2c-0.1,0.1-0.3,0.2-0.3,0.3c0.3,0.8,0.7,1.5,1,2.3c-0.5,0.2-1.1,0.4-1.7,0.5c0,0.9,1.7,1,0.8,2.2
			c0.3,0.1,0.7,0.4,0.9,0.3c0.3-0.2,0.4-0.6,0.5-0.9c0.7,0.5,1,0.7,1.2,0.8c-0.6,0.4-1.1,0.7-1.6,1c-1.3-1-2.5-2.1-3.9-3.2
			c0.4,0,0.7,0,1.1,0c-0.4-0.8-0.8-1.4-1.2-2.2c1,0,1.7,0,2.4,0c0.5-1.2,0-1.7-1-2.2c-1.4-0.8-3.3-1.4-4-2.6c-1-1.6-1.7-1-2.7-0.4
			l0,0c0.5-0.6,1-1.3,1.5-1.8c-0.4-0.1-0.8-0.3-1.2-0.4c0.3-0.3,0.6-0.5,0.9-0.8c-0.5-0.2-0.8-0.3-0.8-0.3c0.3-0.5,0.6-1,0.6-1.5
			c0-3.4,0-6.9,0-10.3c0.1-2.5,0.4-5,0.6-7.5c0.2-2.4,1.2-4.1,3.6-5.1c2.8-1.1,5.3-3,7.9-4.4c0.4-0.2,1-0.4,1.4-0.2
			c3.5,1.8,7,3.5,10.4,5.5c2.1,1.2,4.1,2.8,6,4.2c0.7,0.5,1.2,1.3,2,2.1c0.4-0.2,1.2-0.6,1.9-0.6c0.8,0,1.5,0.5,2.3,0.8
			c-0.3-0.7-0.8-1.3-1.5-1.5c-0.8-0.3-1.9-0.1-2.7-0.5c-1.2-0.5-2.3-1.2-3.2-2.1c-0.3-0.3,0.2-1.4,0.3-2.2c0-0.4,0.1-0.8,0.2-1.1
			c-0.1,0-0.3-0.1-0.4-0.1c-0.4,0.9-0.8,1.8-1.2,2.7c-0.1,0-0.2-0.1-0.3-0.1c0-0.5,0-1,0-1.5c-1.9,1.1-2.8-0.6-4.2-1.4
			c1.7-1,3.3-1.8,4.7-2.8c0.5-0.3,1-0.9,1.3-1.5c1.3-4.1,2.6-8.3,3.9-12.4c0-0.1,0.1-0.2,0.2-0.3c0.4,0.2,0.8,0.4,1.2,0.6
			c0.3-0.5,0.5-0.9,0.5-1.2c-0.4-1.5-2.8-1.2-2.4-3.2c0.3,0.2,0.6,0.3,0.9,0.5c-0.2,0.2-0.3,0.4-0.4,0.5c2.1,1,4,0.4,6.2-0.8
			c-1.2-0.1-2.4,0-3.1-0.5c-0.7-0.5-0.8-1.6-1.1-2.3c1.1,0.2,2.2,0.8,2.8,0.5c1.8-0.9,1.6-2.6,1.1-4.4c0.1,0,0.3,0,0.4,0
			c0.2,1.1,0.4,2.3,0.7,3.8c0.5-0.6,1.1-1,1-1.3c-0.2-1.2-0.7-2.3-1.2-3.9c3.3-6.7,6.8-10.8,11.3-15.1c4,3,8,6,11.9,9.1
			c4,3.1,7.9,6.4,11.9,9.5c0.3,0.3,0.9,0.2,1.3,0.3c0.1-0.2,0.2-0.3,0.3-0.5C75,20.2,67,13.7,58.5,7.5c1.1-0.9,2-1.7,3-2.3
			C64.9,2.6,68.8,1,72.9,0.5z M44.8,60.9c-1-0.3-1.3,0-1.2,1.1c0.1,0.6-0.3,1.3-0.4,1.9c-0.2,0-0.4-0.1-0.5-0.1c0-0.2,0-0.4,0-0.6
			c0-0.3-0.1-0.5-0.1-0.6c-1.1-0.1-2.1-0.2-3.2-0.3c3-0.2,3.6-0.6,3.2-1.6c-1.7-0.3-3.1-0.5-4.6-0.8c-0.1,0.1-0.6,0.5-0.9,1
			c-0.4,0.7-0.6,1.5-0.8,2.3c-0.1,0.3,0.1,0.7,0,1c-0.6,1.3,0,2.1,1.1,2.7c2,1.1,4,1.1,6,0.2c0.8-0.4,1.1-1,0.7-1.9
			c-0.4,0-0.8,0-1.3-0.1C45.6,63.5,45.9,63,44.8,60.9c0.3-0.4,0.8-0.8,1-1.3c0.1-0.3,0-0.8-0.3-1.1c-0.1-0.2-0.7-0.2-0.9-0.1
			c-0.3,0.2-0.9,0.7-0.8,0.9C44,60,44.5,60.4,44.8,60.9z M84.3,57.5c1.1-0.5,1.8-0.9,2.6-1.2c0.3-0.1,0.6-0.1,0.8-0.3
			c0.9-0.7,1.8-1.5,2.6-2.3c0.2-0.2,0.3-0.5,0.5-0.8c1.8-1.8,3.7-3.5,5.4-5.4c0.4-0.5,0.4-1.2,1.2-1.3c0.3,0,0.5-0.4,0.6-0.6
			c0.4-0.8,0.6-1.7,1-2.5c0.6-1.2,0.4-2.5-0.6-3.3c-1.8-1.4-4.7-1.5-6.6-0.1c-1.3,1-2.5,2.1-3.6,3.3c-2.3,2.4-4.5,4.8-6.7,7.3
			c-1.2,1.3-1.9,3.1-0.9,4.5C81.5,55.9,83.1,56.5,84.3,57.5z M50.5,34.8c-0.3,0.5-0.6,0.8-0.6,1.3c0,1.6,1.7,3.2,3.6,3.4
			c2.4,0.2,4.3-0.9,6-2.5c0.2-0.1,0.4-0.4,0.4-0.5c-0.4-0.8,0.3-0.9,0.8-1.2c0.5-0.3,0.9-0.6,1.3-1c0.5-0.7,0.9-1.5,1.5-2.2
			c0.7-0.8,1.5-1.3,2.3-2c0.3-0.3,0.3-0.9,0.5-1.1c0.8-0.8,1.8-1.5,2.8-2.4c-0.6-0.4-0.9-0.5-1.2-0.8c1.6-0.8,1.6-2.7,0.1-3.7
			c-2-1.4-4.6-1.5-6.7,0c-1,0.8-1.9,1.8-2.8,2.7c-1,1-2.1,2.1-3.2,3.1c0.5,0.1,0.7,0.2,1,0.3c-0.5,0.2-1.2,0.1-1.4,0.3
			c-1.6,2-4,3.5-4.8,6.2C50.3,34.8,50.5,34.8,50.5,34.8z M69.3,30.8c-2.1,0-2.5,1.9-3.6,2.8c-1.2,1-2.1,2.3-3.2,3.6
			c0.3,0.1,0.6,0.2,0.9,0.2c-0.5,0.3-1.1,0.1-1.4,0.3c-0.7,0.7-1.3,1.5-1.7,2.4c-0.3,0.7-0.3,1.6-0.2,2.3c0.3,1.7,1.9,2.2,3.1,2.6
			c2.3,0.7,4.4-0.5,6-2.1c1-1,2.3-1.9,3-3.2c0.7-1.4,1.9-2.1,2.9-3.1c0.5-0.5,0.6-1.5,1.1-1.8c1.4-0.8,2.2-1.7,2.5-3.4
			c0.4-2,0.6-2.4-1-3.7c-0.3,0.2-0.6,0.4-1.2,0.7c0.4-0.5,0.5-0.7,0.7-1c-2.6-1.9-7,0.2-8.8,3.1C68.8,30.7,69.1,30.7,69.3,30.8z
			 M82.6,33.7c-0.1,0-0.2,0-0.3,0.1c-0.7,0.3-1.5,0.5-2.1,1c-0.6,0.5-0.9,1.4-1.4,2c-2.5,2.6-5,5.1-7.5,7.7c-1,1.1-1.7,2.8-0.9,4.1
			c0.6,1,1.9,1.9,3,2.3c1.1,0.4,2.6,0.5,3.5-0.8c0.1-0.2,0.4-0.3,0.6-0.3c1.5,0.3,1.9-1,2.6-1.8c0.3-0.3,0.5-0.7,0.9-1
			c0.7-0.7,1.7-1.3,2.1-2.1c0.3-0.7,0.6-0.9,1.2-1.3c0.8-0.5,1.5-1.3,1.9-2.1c0.3-0.6,0.5-0.9,1.1-1.3c0.7-0.4,1.2-1.3,1.7-2
			c0.2-0.3-0.2-0.8,0-1c1-1.1,0.5-2.1-0.2-2.9c-1-1.3-2.6-1.8-4.2-1.5C83.9,33,83.2,33.4,82.6,33.7z M91.7,58.1
			c-1.8,0.5-1.3,1.6-0.8,2.6c0.5,1.1,2.4,2,3.1,1.6c1-0.5,2.1-1.3,3.2-1.4c2.8-0.2,4.2-2.3,5.9-3.9c0.4-0.3,0.3-1.2,0.7-1.4
			c2.4-1,3.4-3.5,4.7-5.4c0.9-1.3,2.2-3.3-0.1-4.8c-0.3,0.2-0.7,0.3-1.2,0.6c0.3-0.5,0.5-0.7,0.7-1c-2-0.6-3.9-1.5-5.3,0.8
			c0-0.3,0.3-0.3,0.4-0.4c0.1-0.1,0.1-0.3,0.1-0.5c-0.1-0.1-0.3-0.2-0.3-0.3c-4.6,3.9-8.5,8.4-12.1,13.1c0.1,0.1,0.2,0.2,0.3,0.3
			C91.1,58.2,91.4,58.2,91.7,58.1z M57,98.7c-0.3-2.1-1.2-4-3.3-5.2c-1.6-0.9-3-0.2-3,1.7c0,2.5,1.1,4.4,3.2,5.7
			C55.6,101.9,57,101,57,98.7z M16.3,75.6c0-2.1-1.8-5-3.7-5.7c-1.3-0.5-2.4,0.1-2.6,1.5c-0.3,2.1,1.2,5,3.1,6.1
			C14.9,78.4,16.3,77.6,16.3,75.6z M102.6,65.3c-0.5,1.2-1,2.3-1.3,3.4c-0.1,0.3,0,1,0.1,1.1c1.8,1.1,3.6,2.1,5.4,3.1
			c1.8-1.3,0.5-4.6,3.8-4.7c-1-0.4-2-0.5-2.9-0.8c-0.5-0.2-1.4-0.5-1.5-1c-0.3-1-0.9-1-1.6-1C104,65.2,103.4,65.3,102.6,65.3z
			 M51.1,74.2c1.2-0.5,2.5-0.8,3.5-1.5c1.2-0.8,1.1-1.9,0-2.8c-1.7-1.5-5.6-1.5-7.3-0.1c-1.2,1-1.2,2.3,0.2,3.1
			C48.6,73.5,49.8,73.8,51.1,74.2z M30.7,62.6c1.2-0.5,2.5-0.8,3.6-1.5c1.3-0.8,1.3-2.1,0-3.1c-1.7-1.3-5.4-1.3-7.1,0
			c-1.2,1-1.3,2.3,0.1,3.1C28.2,61.8,29.4,62.1,30.7,62.6z M61.2,80.1c1.3-0.5,2.6-0.9,3.7-1.6c1.1-0.8,1-1.8,0-2.8
			c-1.7-1.5-5.7-1.5-7.5,0c-1.1,1-1.1,2.2,0.2,3C58.7,79.4,59.9,79.6,61.2,80.1z M20.5,50.9c-1.3,0.4-2.4,0.6-3.4,1.1
			c-1.5,0.8-1.5,2.3-0.2,3.3c1.7,1.3,5.4,1.3,7.1,0c1.2-1,1.2-2.3-0.1-3.1C22.9,51.6,21.7,51.4,20.5,50.9z M36.8,87.5
			c-0.4-2.8-1.4-4.8-3.7-6c-1.4-0.7-2.6,0-2.7,1.6c-0.2,2.6,1,4.6,3.1,5.9c0.6,0.4,1.7,0.4,2.3,0.1C36.3,88.9,36.5,88,36.8,87.5z
			 M26.5,81.9c-0.3-2.8-1.3-4.6-3.1-5.8c-0.6-0.4-1.7-0.5-2.3-0.3c-0.5,0.3-1,1.4-0.9,2.1c0.1,2.3,1.2,4.1,3.1,5.3
			c0.6,0.3,1.6,0.5,2.1,0.3C26,83.1,26.3,82.2,26.5,81.9z M70.1,88.6c-0.4-0.2-0.7-0.4-1-0.4c-1,0.3-1.8,0.1-2.7-0.3
			c-0.6-0.3-2.2,0-2.3,0.4c-0.5,1.1-0.5,2.4-0.5,3.7c0,0.1,0.4,0.3,0.6,0.5c0.3,0.3,0.6,0.5,0.8,0.5c-0.1,1-0.3,1.7-0.4,2.6
			c0.8-0.5,1.2-0.8,1.9-1.2C66.4,92,67.9,90.1,70.1,88.6z M66.6,84.3c-3.2-0.2-4.7,2-5.9,4.3c-0.9,1.8-1.4,3.6-0.1,5.7
			c0.2-1.5,0.4-2.9,0.6-4.2c0.1,0,0.2,0,0.3,0c0.1,0.3,0.2,0.6,0.3,1c1.3-1.7,1.3-1.7,0.1-2.6c0.8-1,1.7-2.1,2.7-3.3
			c0.1,0.8,0.2,1.4,0.3,1.9c0.1,0,0.3,0,0.4,0c0.2-0.7,0.5-1.4,0.7-2.1c-0.1-0.1-0.3-0.1-0.4-0.2C65.8,84.7,66.2,84.5,66.6,84.3z
			 M87.2,78.6c-1.9,1.1-3.8,2.1-5.5,3.2c-0.3,0.2-0.3,1-0.3,1.6c0.5,0,1,0.2,1.3,0c1.5-0.8,2.9-1.6,4.4-2.5
			C88.1,80.3,88.1,79.6,87.2,78.6z M112.8,93.8c-0.1,0.1-0.3,0.3-0.4,0.4c0.7,2.7,3.7,2.6,5.6,4.1c0-0.8-0.1-1.5-0.6-1.8
			C115.9,95.5,114.3,94.7,112.8,93.8z M39.5,39.7c-0.1,0-0.3,0-0.4-0.1c-0.7,2.4-1.4,4.9-2.1,7.3c0.1,0.1,0.3,0.2,0.4,0.3
			c0.3-0.3,0.8-0.5,0.9-0.8c0.4-1,0.6-2.1,0.9-3.1c0.2-0.7,0.4-1.5,0.7-2.2c0.1,0,0.2,0,0.3,0C39.9,40.7,39.7,40.2,39.5,39.7z
			 M115,90.7c1.8,1.9,4.8,3.3,6,2.7C118.8,92.6,117.3,90.9,115,90.7z M70.4,91.6c0.1-0.3,0.1-0.5,0.2-0.8c-0.4-0.1-0.8-0.3-1.2-0.4
			c-0.7-0.1-2,1.8-1.9,2.8c0,0.2,0.3,0.4,0.5,0.6C68.8,93.1,69.6,92.4,70.4,91.6z M68.1,95.3c1.6,0.1,2.5-0.9,3.1-2.2
			c0.6-1.3,0.6-2.1-0.2-2.9C71.3,92.6,70.1,94.2,68.1,95.3z M70.6,6.6c0.1-0.1,0.2-0.3,0.3-0.4c-1.7-1-3.4-1.9-5.2-2.9
			c-0.1,0.1-0.1,0.2-0.2,0.3C67.2,4.6,68.9,5.6,70.6,6.6z M94.1,4.3c-0.3-0.2-0.5-0.3-0.7-0.5c-0.5,0.8-1,1.5-1.4,2.3
			c0.2,0.1,0.4,0.3,0.6,0.4C93.1,5.8,93.6,5,94.1,4.3z M80.1,83.7c0.3-0.1,0.5-0.2,0.8-0.3c-0.3-0.8-0.6-1.7-0.9-2.6
			c-0.2,0-0.4,0.1-0.6,0.2C79.6,82,79.8,82.9,80.1,83.7z"/>
		<path class="st0" d="M84.3,57.5c-1.3-0.9-2.8-1.5-3.6-2.7c-1-1.5-0.3-3.2,0.9-4.5c2.2-2.5,4.4-4.9,6.7-7.3
			c1.1-1.2,2.3-2.3,3.6-3.3c1.9-1.4,4.9-1.3,6.6,0.1c1,0.8,1.2,2.2,0.6,3.3c-0.4,0.8-0.7,1.7-1,2.5c-0.1,0.3-0.4,0.6-0.6,0.6
			c-0.8,0.1-0.8,0.8-1.2,1.3c-1.6,1.9-3.6,3.6-5.4,5.4c-0.2,0.2-0.3,0.6-0.5,0.8c-0.8,0.8-1.7,1.5-2.6,2.3c-0.2,0.2-0.5,0.2-0.8,0.3
			C86.2,56.6,85.4,56.9,84.3,57.5z"/>
		<path class="st0" d="M50.5,34.8c0.1,0-0.2,0-0.5-0.1c0.8-2.7,3.1-4.1,4.8-6.2c0.2-0.3,0.9-0.1,1.4-0.3c-0.3-0.1-0.5-0.1-1-0.3
			c1.1-1.1,2.1-2.1,3.2-3.1c0.9-0.9,1.8-2,2.8-2.7c2.1-1.5,4.7-1.4,6.7,0c1.5,1,1.5,2.9-0.1,3.7c0.3,0.2,0.6,0.4,1.2,0.8
			c-1,0.8-1.9,1.5-2.8,2.4c-0.3,0.3-0.3,0.9-0.5,1.1c-0.7,0.7-1.6,1.3-2.3,2c-0.6,0.6-1,1.5-1.5,2.2c-0.3,0.4-0.8,0.7-1.3,1
			s-1.2,0.3-0.8,1.2c0,0.1-0.2,0.3-0.4,0.5c-1.7,1.5-3.6,2.7-6,2.5c-1.9-0.1-3.6-1.8-3.6-3.4C49.9,35.7,50.2,35.3,50.5,34.8z"/>
		<path class="st0" d="M69.3,30.8c-0.3,0-0.5-0.1-0.8-0.2c1.7-2.8,6.2-4.9,8.8-3.1c-0.2,0.2-0.3,0.5-0.7,1c0.6-0.3,0.9-0.5,1.2-0.7
			c1.5,1.3,1.3,1.7,1,3.7c-0.3,1.7-1.1,2.6-2.5,3.4c-0.5,0.3-0.6,1.3-1.1,1.8c-1,1-2.2,1.7-2.9,3.1c-0.6,1.3-2,2.1-3,3.2
			c-1.5,1.5-3.6,2.8-6,2.1c-1.3-0.4-2.9-0.9-3.1-2.6c-0.1-0.8-0.1-1.6,0.2-2.3c0.4-0.9,1-1.7,1.7-2.4c0.2-0.3,0.9-0.1,1.4-0.3
			c-0.3-0.1-0.5-0.1-0.9-0.2c1.1-1.3,2-2.6,3.2-3.6C66.8,32.7,67.2,30.7,69.3,30.8z"/>
		<path class="st0" d="M82.6,33.7c0.6-0.3,1.3-0.8,1.9-0.9c1.6-0.3,3.1,0.3,4.2,1.5c0.7,0.8,1.2,1.9,0.2,2.9c-0.2,0.2,0.2,0.8,0,1
			c-0.5,0.7-1,1.6-1.7,2c-0.6,0.3-0.8,0.7-1.1,1.3c-0.4,0.8-1.1,1.6-1.9,2.1c-0.6,0.4-0.9,0.6-1.2,1.3c-0.4,0.8-1.3,1.4-2.1,2.1
			c-0.3,0.3-0.6,0.7-0.9,1c-0.7,0.8-1.1,2.1-2.6,1.8c-0.2,0-0.5,0.1-0.6,0.3c-0.9,1.4-2.4,1.2-3.5,0.8c-1.2-0.4-2.4-1.3-3-2.3
			c-0.8-1.4-0.1-3,0.9-4.1c2.4-2.6,5-5.1,7.5-7.7c0.5-0.6,0.8-1.5,1.4-2c0.6-0.5,1.4-0.7,2.1-1C82.4,33.8,82.5,33.7,82.6,33.7z"/>
		<path class="st0" d="M91.7,58.1c-0.3,0-0.6,0.1-0.9,0.1c-0.1-0.1-0.2-0.2-0.3-0.3c3.6-4.7,7.6-9.2,12.1-13.1
			c0.1,0.1,0.3,0.2,0.3,0.3c0,0.2,0,0.4-0.1,0.5c-0.1,0.1-0.3,0.1-0.4,0.4c1.5-2.3,3.4-1.4,5.3-0.8c-0.3,0.3-0.4,0.6-0.7,1
			c0.5-0.3,0.9-0.5,1.2-0.6c2.4,1.5,1.1,3.5,0.1,4.8c-1.4,1.9-2.3,4.3-4.7,5.4c-0.4,0.2-0.3,1-0.7,1.4c-1.8,1.6-3.1,3.8-5.9,3.9
			c-1.1,0-2.2,0.8-3.2,1.4c-0.7,0.4-2.6-0.5-3.1-1.6C90.4,59.8,89.9,58.7,91.7,58.1z M104.4,49.8c0.6,0.4,1.2,0.7,1.8,1
			c0.2-0.6,0.3-1,0.5-1.8c-0.5,0.4-0.8,0.6-1.4,0.9c0.2-0.5,0.3-0.8,0.4-1.1c-0.1-0.1-0.2-0.1-0.3-0.2
			C105.1,49,104.8,49.4,104.4,49.8z"/>
		<path class="st0" d="M44.8,60.9c1.1,2.1,0.9,2.6-1.9,4.2c0.5,0,0.9,0,1.3,0.1c0.5,0.9,0.2,1.5-0.7,1.9c-2,0.9-4.1,0.9-6-0.2
			c-1-0.6-1.7-1.4-1.1-2.7c0.1-0.3-0.1-0.7,0-1c0.2-0.8,0.5-1.6,0.8-2.3c0.3-0.5,0.8-0.8,0.9-1c1.5,0.3,2.9,0.5,4.6,0.8
			c0.5,1-0.3,1.4-3.2,1.6c1,0.1,2.1,0.2,3.2,0.3c0,0.2,0.1,0.4,0.1,0.6c0,0.2,0,0.4,0,0.6c0.2,0,0.4,0.1,0.5,0.1
			c0.1-0.6,0.5-1.3,0.4-1.9C43.5,60.9,43.8,60.7,44.8,60.9L44.8,60.9z"/>
		<path class="st0" d="M57,98.7c0,2.3-1.4,3.2-3.1,2.2c-2.1-1.3-3.2-3.2-3.2-5.7c0-1.8,1.4-2.6,3-1.7C55.8,94.7,56.7,96.7,57,98.7z"
			/>
		<path class="st0" d="M16.3,75.6c0,2-1.4,2.8-3.1,1.8c-1.9-1-3.4-4-3.1-6.1c0.2-1.5,1.2-2.1,2.6-1.5C14.5,70.6,16.4,73.4,16.3,75.6
			z"/>
		<path class="st0" d="M102.6,65.3c0.8,0,1.4,0,2,0c0.7,0,1.4,0,1.6,1c0.1,0.4,0.9,0.8,1.5,1c0.9,0.3,1.9,0.4,2.9,0.8
			c-3.3,0.1-2,3.4-3.8,4.7c-1.7-1-3.6-2-5.4-3.1c-0.2-0.1-0.3-0.8-0.1-1.1C101.7,67.5,102.2,66.4,102.6,65.3z M105,69.3
			c0,0.3,0,0.5,0,0.7c0.6,0,1.3,0,1.9,0C106.3,69.3,105.7,68.1,105,69.3z"/>
		<path class="st0" d="M51.1,74.2c-1.3-0.5-2.6-0.7-3.6-1.3c-1.3-0.8-1.3-2.1-0.2-3.1c1.8-1.5,5.7-1.4,7.3,0.1c1.1,1,1.2,2.1,0,2.8
			C53.6,73.4,52.3,73.7,51.1,74.2z M48.6,71.4c0.9,1.1,1.9,1.6,3.2,1c0.2-0.1,0.3-0.5,0.3-0.4C51,71.9,49.9,71.7,48.6,71.4z"/>
		<path class="st0" d="M30.7,62.6c-1.3-0.5-2.5-0.8-3.5-1.4c-1.3-0.8-1.3-2.1-0.1-3.1c1.7-1.3,5.4-1.3,7.1,0c1.3,1,1.4,2.2,0,3.1
			C33.1,61.7,31.8,62.1,30.7,62.6z M31.7,60.9c0-0.2,0-0.3,0-0.5c-0.5,0-1,0.1-1.5,0c-0.5-0.1-0.9-0.3-1.3-0.5
			c-0.1,0.3-0.1,0.5-0.2,0.7C29.7,60.7,30.7,60.8,31.7,60.9z"/>
		<path class="st0" d="M61.2,80.1c-1.3-0.5-2.6-0.8-3.6-1.4c-1.3-0.8-1.3-2-0.2-3c1.7-1.5,5.8-1.5,7.5,0c1,0.9,1.1,2,0,2.8
			C63.8,79.3,62.5,79.6,61.2,80.1z M62.3,78c-1-0.3-2.1-0.5-3.4-0.8C60.1,78.7,61.1,78.8,62.3,78z"/>
		<path class="st0" d="M20.5,50.9c1.2,0.4,2.4,0.7,3.5,1.3c1.3,0.8,1.3,2.1,0.1,3.1c-1.7,1.4-5.4,1.4-7.1,0c-1.3-1-1.3-2.5,0.2-3.3
			C18.1,51.5,19.3,51.3,20.5,50.9z M18.9,54c0,0.2-0.1,0.3-0.2,0.5c1.6,0.9,2.6,0.8,3-0.2c-0.5,0.1-1,0.3-1.5,0.2
			C19.7,54.5,19.3,54.2,18.9,54z"/>
		<path class="st0" d="M36.8,87.5c-0.3,0.4-0.5,1.4-1,1.6c-0.6,0.3-1.7,0.3-2.3-0.1c-2.1-1.3-3.3-3.3-3.1-5.9
			c0.1-1.6,1.3-2.3,2.7-1.6C35.4,82.7,36.4,84.8,36.8,87.5z M32.4,83.4c0.3,1.3,2.6,1,1.9,2.9c0.3-0.3,0.6-0.7,0.5-0.9
			C34.4,84.3,33.8,83.4,32.4,83.4z"/>
		<path class="st0" d="M26.5,81.9c-0.2,0.3-0.5,1.3-1.1,1.6c-0.5,0.3-1.5,0.1-2.1-0.3c-2-1.2-3-3.1-3.1-5.3c0-0.7,0.4-1.8,0.9-2.1
			c0.5-0.3,1.7-0.1,2.3,0.3C25.3,77.3,26.3,79.1,26.5,81.9z M23.9,80.3c0.1,0.1,0.2,0.2,0.3,0.3c0.2-0.3,0.5-0.8,0.5-1
			c-0.4-1.1-1-2.1-2.3-2C22.1,79,24.9,78.6,23.9,80.3z"/>
		<path class="st0" d="M70.1,88.6c-2.3,1.5-3.7,3.4-3.7,5.8c-0.7,0.4-1.1,0.7-1.9,1.2c0.1-0.9,0.2-1.6,0.4-2.6
			c-0.1-0.1-0.4-0.3-0.8-0.5c-0.2-0.2-0.6-0.3-0.6-0.5c0.1-1.3,0.1-2.6,0.5-3.7c0.2-0.4,1.7-0.6,2.3-0.4c0.9,0.4,1.7,0.5,2.7,0.3
			C69.4,88.2,69.8,88.4,70.1,88.6z"/>
		<path class="st0" d="M66.6,84.3c-0.4,0.2-0.8,0.5-1.1,0.7c0.1,0.1,0.3,0.1,0.4,0.2c-0.2,0.7-0.5,1.4-0.7,2.1c-0.1,0-0.3,0-0.4,0
			c-0.1-0.5-0.1-1.1-0.3-1.9c-1,1.2-1.8,2.3-2.7,3.3c1.2,0.9,1.2,0.9-0.1,2.6c-0.1-0.4-0.2-0.7-0.3-1c-0.1,0-0.2,0-0.3,0
			c-0.2,1.3-0.4,2.7-0.6,4.2c-1.3-2.1-0.8-4,0.1-5.7C61.9,86.2,63.4,84.1,66.6,84.3z"/>
		<path class="st0" d="M87.2,78.6c0.9,1,0.8,1.7-0.2,2.3c-1.4,0.8-2.8,1.7-4.4,2.5c-0.3,0.2-0.9,0-1.3,0c0.1-0.5,0-1.4,0.3-1.6
			C83.5,80.7,85.3,79.7,87.2,78.6z"/>
		<path class="st0" d="M112.8,93.8c1.5,0.9,3.1,1.7,4.6,2.7c0.5,0.3,0.6,1.1,0.6,1.8c-1.8-1.5-4.9-1.4-5.6-4.1
			C112.5,94.1,112.6,94,112.8,93.8z"/>
		<path class="st0" d="M39.5,39.7c0.2,0.5,0.4,1,0.6,1.4c-0.1,0-0.2,0-0.3,0c-0.2,0.7-0.5,1.4-0.7,2.2c-0.3,1-0.5,2.1-0.9,3.1
			c-0.1,0.3-0.6,0.5-0.9,0.8c-0.1-0.1-0.3-0.2-0.4-0.3c0.7-2.4,1.4-4.9,2.1-7.3C39.3,39.7,39.4,39.7,39.5,39.7z"/>
		<path class="st0" d="M115,90.7c2.3,0.1,3.9,1.9,6,2.7C119.7,94,116.7,92.7,115,90.7z"/>
		<path class="st0" d="M70.4,91.6c-0.8,0.7-1.5,1.5-2.3,2.2c-0.2-0.2-0.5-0.4-0.5-0.6c-0.1-1,1.2-2.8,1.9-2.8c0.4,0,0.8,0.3,1.2,0.4
			C70.5,91.1,70.4,91.4,70.4,91.6z"/>
		<path class="st0" d="M68.1,95.3c2-1.1,3.1-2.7,2.9-5.2c0.8,0.9,0.8,1.6,0.2,2.9C70.6,94.4,69.8,95.4,68.1,95.3z"/>
		<path class="st0" d="M44.8,60.9c-0.3-0.5-0.8-0.9-1-1.5c-0.1-0.2,0.5-0.7,0.8-0.9c0.2-0.1,0.8-0.1,0.9,0.1
			c0.2,0.3,0.4,0.8,0.3,1.1C45.6,60.1,45.1,60.5,44.8,60.9C44.8,60.9,44.8,60.9,44.8,60.9z"/>
		<path class="st0" d="M70.6,6.6c-1.7-1-3.4-2-5.1-3c0.1-0.1,0.1-0.2,0.2-0.3c1.7,1,3.4,1.9,5.2,2.9C70.8,6.3,70.7,6.4,70.6,6.6z"/>
		<path class="st0" d="M94.1,4.3c-0.5,0.8-1,1.5-1.5,2.3c-0.2-0.1-0.4-0.3-0.6-0.4c0.5-0.8,1-1.5,1.4-2.3
			C93.7,3.9,93.9,4.1,94.1,4.3z"/>
		<path class="st0" d="M80.1,83.7c-0.2-0.9-0.5-1.7-0.7-2.6c0.2,0,0.4-0.1,0.6-0.2c0.3,0.8,0.6,1.7,0.9,2.6
			C80.6,83.6,80.3,83.6,80.1,83.7z"/>
		<path d="M69.7,120.8c-0.3-0.9-0.5-1.5-0.5-1.8c1.1-0.2,2.4-0.1,3.5-0.6c1.3-0.6,1.8-2,1-3.8c1.6,1.7,1.8,3.4,0.8,4.9
			C73.3,121.3,72,121.6,69.7,120.8z"/>
		<path d="M28.7,99.7c-0.4,0-1.1,0-2.1,0c-0.2,0.2-0.6,0.7-1.1,1.3c-0.8-1.2-1.5-2.4-2.3-3.5c0.1-0.1,0.1-0.2,0.2-0.3
			c0.6,0.5,1.3,1,2,1.5c0.3,0.2,0.7,0.3,1.1,0.3c0.1,0,0.3-0.6,0.4-0.9c0.3,0,0.8,0,1.3,0c-0.3-1-0.6-2-0.8-2.7
			c0.3,0.2,0.8,0.5,1.7,1c-0.1-0.8-0.1-1.2-0.2-1.6c0.1,0,0.2-0.1,0.3-0.1c0.1,0.4,0.4,0.9,0.3,1.3c-0.3,1,0,1.8,1,2.3
			c-0.1,0.1-0.2,0.2-0.3,0.3C30,98.5,29.6,98.3,29,98C28.9,98.4,28.8,99,28.7,99.7z"/>
		<path d="M48.8,111.3c-0.6,0.2-1.6,0.5-3.1,1.1c-0.5-0.8-1.4-2-2.2-3.2c0.1-0.1,0.1-0.1,0.2-0.2c1,0.6,1.9,1.3,2.8,1.8
			c2-0.7,2.5-2.4,2.9-4.1c0.1,0,0.3,0,0.4-0.1c0,0.8,0.2,1.5,0,2.3C49.7,109.6,49.2,110.2,48.8,111.3z"/>
		<path d="M6,79.6c-0.8,1.5-0.8,3.1,0,4.6c-1.5,0.3-2.8,0.2-3.7-1.1c-0.3-0.4,0.1-1.1,0.3-1.6c0.1,0.7,0.3,1.3,0.4,2
			c0.1,0,0.2,0,0.2,0c0.1-1,0.3-2.1,0.4-3.4c0.2,1.4,0.4,2.5,0.5,3.6C4.9,82.1,5.4,80.9,6,79.6C6,79.7,6,79.6,6,79.6z"/>
		<path d="M104.4,49.8c0.4-0.5,0.7-0.8,1-1.1c0.1,0.1,0.2,0.1,0.3,0.2c-0.1,0.3-0.2,0.5-0.4,1.1c0.5-0.3,0.8-0.5,1.4-0.9
			c-0.2,0.8-0.3,1.2-0.5,1.8C105.6,50.5,105,50.2,104.4,49.8z"/>
		<path d="M105,69.3c0.8-1.1,1.3,0,2,0.7c-0.6,0-1.3,0-1.9,0C105,69.7,105,69.5,105,69.3z"/>
		<path d="M48.6,71.4c1.3,0.3,2.3,0.5,3.5,0.7c0,0-0.1,0.3-0.3,0.4C50.5,73,49.6,72.5,48.6,71.4z"/>
		<path d="M31.7,60.9c-1-0.1-2-0.2-3-0.3c0.1-0.3,0.1-0.5,0.2-0.7c0.5,0.2,0.9,0.4,1.3,0.5c0.5,0.1,1,0,1.5,0
			C31.8,60.6,31.7,60.7,31.7,60.9z"/>
		<path d="M62.3,78c-1.2,0.8-2.1,0.6-3.4-0.8C60.2,77.6,61.2,77.8,62.3,78z"/>
		<path d="M18.9,54c0.5,0.2,0.9,0.5,1.3,0.5c0.5,0,1-0.1,1.5-0.2c-0.4,1-1.4,1.1-3,0.2C18.7,54.3,18.8,54.2,18.9,54z"/>
		<path d="M32.4,83.4c1.4,0,2.1,0.9,2.4,2c0.1,0.3-0.3,0.6-0.5,0.9C34.9,84.4,32.6,84.7,32.4,83.4z"/>
		<path d="M23.9,80.3c1-1.8-1.8-1.4-1.5-2.7c1.3,0,1.9,0.9,2.3,2c0.1,0.3-0.3,0.7-0.5,1C24.1,80.5,24,80.4,23.9,80.3z"/>
	</g>
</g>
</svg>
