<?xml version="1.0" encoding="utf-8"?>
<!-- Generator: Adobe Illustrator 21.0.2, SVG Export Plug-In . SVG Version: 6.00 Build 0)  -->
<svg version="1.1" id="Layer_1" xmlns="http://www.w3.org/2000/svg" xmlns:xlink="http://www.w3.org/1999/xlink" x="0px" y="0px"
	 viewBox="0 0 279 211" style="enable-background:new 0 0 279 211;" xml:space="preserve">
<style type="text/css">
	.st0{fill:none;stroke:#000000;stroke-miterlimit:10;}
</style>
<g>
	<path class="st0" d="M0,150.4c0.9-1.1,1.7-2.2,2.7-3.4c-0.6-0.2-1.4-0.6-2.3-0.9c0.6-0.4,1.1-0.7,1.9-1.2c-0.9-0.3-1.4-0.6-1.5-0.6
		c0.4-1.2,1-2.2,1-3.2c-0.1-8.1-0.6-16.1-0.2-24.2c0.2-5.2,1.9-10.4,3-15.4c0.1-0.6,0.9-1,1.4-1.3c5.8-3.2,11.6-6.2,17.3-9.6
		c2.3-1.3,4-1.7,6.4-0.1c3.7,2.4,7.3,5.4,11.5,6.6c7,2.1,11.8,7.3,17.7,10.8c1.2,0.7,2,2.1,3.4,3.7c2.1-0.1,5.2-3.5,7.7,1.1
		c0.1-2.8-0.8-3.6-3.5-3.7c-3.2-0.1-5.8-1.2-8.3-2.9c-1.9-1.3-2.7-2.7-1.7-4.9c0.4-0.9,0.6-2,0.9-3c-0.3-0.2-0.6-0.2-0.9-0.4
		c-0.7,1.7-1.5,3.4-2.2,5.1c-0.2,0-0.3-0.1-0.6-0.1c0-0.9,0-1.7,0-2.9c-3.5,2-5.2-1.1-8.1-2.6c3.2-1.9,6.1-3.5,8.8-5.2
		c1-0.6,2.1-1.6,2.4-2.7c2.5-8,4.9-16,7.3-24.2c1,0.5,1.7,0.9,2.4,1.3c2.2-2.2,0.7-3.5-0.9-4.7c-1-0.8-2-1.8-2.9-2.7
		c0.3-0.3,0.7-0.6,1-0.9c0.4,0.6,0.7,1.2,1.3,2.1c0.9,0.2,2.5,0.6,4.7,1.1c1.4-0.6,3.4-1.6,6.1-2.8c-3.6-0.8-9.2,0.6-7.7-5.1
		c1.8,0.2,4,1.3,5.3,0.6c3-1.7,2.8-4.8,1.7-7.9c0.3,0,0.6-0.1,0.9-0.1c0.4,2.1,0.7,4,1.3,6.8c0.9-0.9,1.8-1.4,2-2.1
		c0.7-2.7-0.4-4.8-2.8-6.2C81.9,33.2,89,23.4,98.5,14.7c15.6,11.9,31.3,23.9,47,35.8c0.3-0.4,0.6-0.9,0.9-1.3c-1-0.6-2.1-1.3-3-1.9
		c-1.3-0.9-2.6-1.8-3.8-2.8c-13.1-10-26.2-19.9-39.3-29.9c-0.2-0.2-0.6-0.2-1.3-0.6c10.6-8.5,21.3-15.9,34.8-11.5
		c6.3,2.1,12.6,4,19,5.5c1.2,0.3,2.7,0.2,3.8-0.2c2-0.9,3.7-2.2,5.6-3.2c4-2.2,7.3-0.3,7.3,4.3c0,2.7,0.2,5.4,0,8
		c-0.2,2.1,0.8,3.3,2.6,4.4c17.8,10.2,35.5,20.5,53.2,30.7c0.6,0.4,1.3,0.9,2.1,1.3c-1.1,2.6-2.1,5.1-3.2,7.7c0.3,0.2,0.7,0.3,1,0.4
		c3.6-1.1,1-5.3,3.8-7.3c2.9,1.7,6.2,3.6,9.8,5.6c-20.3,20.8-39.7,41.9-60,62.2c1.7,0.3,3.2,0.9,3.7-1.7c0.3-1.4,2-2.6,3.2-3.8
		c12.9-13.4,25.8-26.7,38.6-40.1c1.9-2,3.3-2.1,5.5-0.6c2.1,1.5,4.3,2.8,6.6,4c0.9,0.5,2.1,0.5,3.1,0.7c0.1-0.3,0.2-0.6,0.3-0.9
		c-3.7-2.2-7.5-4.4-11.6-6.9c3.9-4.1,7.7-8.1,11.1-11.9c3.8,1.2,7.3,2.4,10.8,3.5c0.8,0.2,1.9,0,2.8-0.4c2.1-1,4-2.2,5.9-3.3
		c3.9-2.1,7.2-0.2,7.3,4.1c0.1,3.6,0,7.1-0.2,10.7c-0.1,1.7,0.2,2.8,1.8,4c8.8,6,11.1,15,11.1,25c0,0.7-0.9,1.7-1.7,2.1
		c-11.1,5.7-22.2,11.2-33.3,16.8c-1.6,0.8-4.3,0-4.5,3.2c1.3,0.2,2.8,1.3,3.7-1.1c0.2-0.4,0.9-0.6,1.5-0.9
		c10.9-5.5,21.8-11,32.7-16.5c0.4-0.2,0.9-0.3,1.6-0.6c0,6.8-1.4,13.1-3.5,19.3c-5.3,15.8-13.7,29.7-26.2,40.9
		c-3.5,3.2-7.3,6.2-11.5,8.3c-12.2,6.3-24.7,12.1-37.1,18.2c-5,2.4-9.6,2.5-14.1-0.9c-1.7-1.3-3.2-1.3-5-0.1
		c-4.3,2.7-8.6,5.1-12.9,7.8c-1.8,1.2-3.4,1.2-5.2,0c-1.9-1.3-3.9-2.3-5.8-3.4c-1.9-1.1-2.1-2.2-0.1-3.4c1.4-0.8,2.8-1.7,4.3-2.6
		c-5.5-6.1-12.6-9.2-19.4-13c-1.9-1.1-4.4,0.9-4.3,3.6s-0.8,4.2-3.2,4.9c-0.9,0.2-2.1,0.2-2.8-0.2c-2.6-1.4-6.5,0.2-6,3.2
		c1.1,6.3-2.2,9.2-7.3,11.5c-4.3,2.1-8.4,4.6-12.4,7.2c-1.8,1.2-3.1,0.6-4.6-0.2c-10-5.8-20.1-11.6-30.2-17.4
		c-0.8-0.5-1.7-0.9-2.5-1.3c-0.2,0.2-0.5,0.3-0.6,0.6c0.8,1.4,1.6,2.8,2.4,4.3c-0.9,0.2-2.2,0.6-4.5,1.2c1.9,1.6,3.4,2.8,4.7,4
		c0.6,0.6,0.9,1.5,1.6,2c0.5,0.3,1.3,0.3,1.9,0.3c0.9-0.1,1.7-0.4,2.5,0c-1,0.9-2,1.8-2.6,2.4c-2-1.7-3.9-3.6-6.1-5.1
		c-2.2-1.4-4.5-3.6-7.7-1.7c0.6,0.6,0.9,1.1,1.3,1.5c-1.7,0.9-3.2,1.7-5,2.6c-1.7-1.6-3.3-3.2-5.1-4.9c0.2-0.3,0.5-0.6,0.8-0.9
		c1.4,0.9,2.8,1.8,4.3,2.7c1.3-0.9,3.3-1.3,3.8-2.5c0.4-1-0.8-2.8-1.2-4c0.5,0.2,1.3,0.7,2.4,1.3c0.1-1,0-1.9,0.3-2.5
		c0.2-0.6,0.8-0.9,1.3-1.4c1.3,0.7,2.8,1.6,4.3,2.4c0.2-0.1,0.5-0.2,0.7-0.3c-0.2-0.9-0.2-2.4-0.9-2.8c-4.3-2.8-8.9-5.2-13.7-8.1
		c0,1.5,0,2.4,0,3.3c-0.2,0.2-0.5,0.4-0.7,0.6c-0.2-0.5-0.6-0.9-0.5-1.3c1.1-3.2-1.2-4-3.3-5.1c-2.2-1.2-4.3-2.5-7.3-4.3
		c8-0.8,15.2-1.5,22-2.1c1.7,2.5,3.1,4.8,4.7,6.8c1.5,1.7,3.6,3.2,6,1.7c2.2-1.4,2.1-3.8,1.3-6.1c-0.4-1.1-0.7-2.2-1.1-3.4
		c2-1.7,5.4,2,7-1.8c-1.3-1.1-2.3-1.7-4.2-0.6c-1.7,0.9-4,1.7-5.6-0.9c-0.5-0.9-1.7-1.3-2.7-1.7c-2.8-1.3-4.3-0.2-5.4,4.4
		c-7.6,0.9-15.2,1.8-22.8,2.6c-0.9,0.1-1.9-0.4-2.7-0.8c-7.7-4.3-15.3-8.8-23.7-12.8c0.6,1.4,1.2,2.8,1.9,4.4c-0.8,0.2-2,0.6-3.3,1
		c-0.1,1.7,3.2,2.2,1.7,4.4c0.9-0.1,1.9-0.2,2.8-0.3c0-0.2,0-0.5,0-0.6c0.6,0.4,1.3,0.8,1.9,1.2c-0.9,0.6-2,1.2-3.2,1.9
		c-2.1-1.8-4.6-3.8-7-5.8c0.5,0,1,0,2.1,0c-0.8-1.4-1.4-2.6-2.4-4.3c1.7-0.1,3-0.2,4.6-0.2c0.9-1.7,0.2-2.9-1.7-3.9
		c-2.1-1-4.1-2.3-6.2-3.6c-0.6-0.4-1.7-0.8-1.8-1.4C3.7,147.6,1.8,149.2,0,150.4C0,150.3,0,150.4,0,150.4z M73.2,115.1
		c-1.8-0.6-2.5,0-2.2,2.1c0.2,1.2-0.5,2.4-0.7,3.6c-0.3-0.1-0.7-0.2-1-0.2c0-0.4,0.1-0.7,0.1-1.1c-0.1-0.5-0.2-0.9-0.2-1.2
		c-2.1-0.2-4-0.3-6-0.5c5.6-0.4,6.9-1.2,6-3c-3.2-0.6-5.8-1-8.6-1.5c-0.2,0.2-1.2,0.9-1.7,1.8c-0.7,1.3-1.1,2.8-1.6,4.3
		c-0.2,0.6,0.2,1.3,0,1.8c-1.1,2.4,0.1,4,2.1,5.1c3.7,2.1,7.5,2.1,11.4,0.4c1.6-0.7,2.1-2,1.3-3.6c-0.7-0.1-1.4-0.1-2.4-0.2
		C74.8,120,75.2,119,73.2,115.1c0.6-0.8,1.5-1.5,1.9-2.4c0.2-0.6-0.1-1.5-0.5-2.1c-0.2-0.3-1.3-0.4-1.7-0.2
		c-0.6,0.4-1.7,1.3-1.6,1.7C71.7,113.4,72.5,114.1,73.2,115.1z M149,108.2c2.6-1.3,5.8-2.4,8.4-4.4c2.1-1.7,3.6-4,5.6-5.8
		c2.2-2.1,4.3-4.5,6.3-6.8c0.5-0.6,0.9-1.3,1.3-1.9c0.4-0.6,0.8-1.2,1.3-1.7c1.2-1.3,2.6-2.5,3.7-4c0.4-0.6-0.2-1.7,0.2-2.4
		c1.7-2.4,0.5-4.4-1.1-6c-2.8-2.8-9.1-3.2-12.2-0.7c-2.6,2-5,4.3-7.2,6.6c-4.3,4.5-8.5,9.1-12.6,13.7c-2.1,2.4-3.2,5.4-1.8,8.4
		C142.2,106.2,145.4,107.1,149,108.2z M83.9,65.8c-0.5,1-1,1.8-1.1,2.6c-0.1,3.4,2.9,4.6,5.1,5.5c1.9,0.8,4.5,0.1,6.8-0.2
		c0.9-0.1,1.7-0.6,2.4-1.1c1.5-1.2,3.6-2.2,4.2-3.7c0.4-1.1,0.9-1.5,1.6-2.1c1.4-1.3,2.8-2.5,4.2-3.9c0.8-0.8,1.5-1.7,2.2-2.4
		c1.3-1.3,2.5-2.7,3.7-4.1c0.4-0.5,0.3-1.3,0.8-1.7c1.6-1.5,3.2-2.8,5.1-4.4c-1.3-0.6-1.7-0.9-2.4-1.2c3.2-1.5,3.2-5.1,0.3-7.1
		c-3.7-2.6-8.8-2.8-12.6,0c-1.9,1.3-3.4,3.3-5.1,5c-2.1,2-4.2,3.9-6.4,5.9c0.9,0.4,1.3,0.6,2.5,1c-3.8-0.2-10.2,6.6-12,11.9
		C83.6,65.8,84.1,65.9,83.9,65.8z M108.2,70.7c0,0.2,0,0.2-0.1,0.4c-0.9,0.1-2-0.2-2.5,0.2c-1,0.7-1.9,1.8-2.4,2.9
		c-0.4,0.9-0.2,2.1-0.3,3.2c-0.2,1-0.9,2.1-0.7,3.2c0.6,3.1,3.5,4,5.8,4.7c4.4,1.3,8.4-0.9,11.3-3.8c1.9-1.9,4.4-3.6,5.6-6
		c1.3-2.6,3.8-3.7,5.5-5.8c0.9-1,1.1-2.9,2.1-3.5c2.7-1.5,4.1-3.2,4.7-6.5c0.8-3.8,1.2-4.5-1.7-7c-0.6,0.3-1.2,0.7-2.4,1.4
		c0.8-1,1.1-1.4,1.4-1.8c-4.7-3.5-13,0.2-16.5,5.7c0.5,0.2,0.9,0.4,0.9,0.3c-0.9,0.6-2.1,1-2.9,1.8c-3.2,3.2-6.2,6.6-9.5,10.2
		C107.2,70.4,107.7,70.5,108.2,70.7z M144.5,64.5c-0.2-0.2-0.3-0.5-0.5-0.7c-1.4,0.7-3,1.2-4.2,2.2c-1,0.9-1.5,2.5-2.4,3.6
		c-4.5,4.7-9.2,9.2-13.7,14.1c-2.2,2.4-3.6,5.5-1.9,8.8c0.6,1.3,2.5,1.7,3.7,2.8c2.2,1.9,5.9,1.9,8-0.1c0.4-0.4,1.1-1,1.5-0.9
		c2.9,0.6,3.6-1.9,5-3.5c0.6-0.6,1-1.3,1.6-1.9c1.3-1.3,2.7-2.5,4-3.9c0.8-0.8,1.4-1.6,2.1-2.4c1.3-1.6,2.4-3.2,3.7-4.7
		c0.3-0.5,0.6-1.3,1-1.3c4.4-1.2,3.8-5.4,4.8-8.4c0.8-2.4-2.4-5.1-5.8-6C148.2,61.4,145.9,62.2,144.5,64.5z M183.2,85.3
		c-0.3-0.2-0.6-0.6-0.9-0.8c-8.5,7.5-16,15.9-22.8,24.8c0.2,0.2,0.4,0.4,0.6,0.6c0.6-0.1,1-0.2,2-0.3c-3,1.8-3.5,3.9-1.2,6
		c1.3,1.2,2.7,3.3,5.2,2.1c2-0.9,4-2.5,6-2.6c5.4-0.3,7.9-4.3,11.2-7.4c0.7-0.6,0.6-2.3,1.3-2.6c4.6-2.1,6.5-6.5,8.9-10.1
		c3.2-5,2.8-6-0.2-9.2c-0.7,0.3-1.3,0.6-2.4,1.2c0.6-0.9,0.9-1.3,1.3-2c-3.7-1.1-7.3-2.7-9.9,1.6C182.6,86.3,182.9,85.8,183.2,85.3z
		 M84.1,179.4c0.6,5.1,2.4,8.8,6.2,11c3.2,1.9,6,0.3,5.8-3.5c-0.2-4.4-2.1-8-5.9-10.3c-1.1-0.7-3.1-1-4.1-0.5
		C84.9,176.9,84.5,178.6,84.1,179.4z M7.3,135.1c0.5,5,2.2,8.5,5.6,10.7c1.2,0.8,3.5,1.3,4.5,0.6c1.1-0.6,1.9-2.8,1.8-4.2
		c-0.2-4.1-2.3-7.5-5.8-9.7c-1.1-0.7-3-1-4-0.6C8.3,132.6,7.8,134.3,7.3,135.1z M182.2,123.4c-0.8,2.1-1.7,4-2.4,6.1
		c-0.2,0.7-0.2,2,0.3,2.2c3.4,2.1,6.9,4,10.5,6.2c1.3-3.2,2.4-5.9,3.5-8.5c1.1-0.1,2.1-0.2,3.1-0.3c0-0.3,0.1-0.6,0.1-0.9
		c-1.8-0.3-3.7-0.6-5.5-1.1c-1-0.3-2.5-0.9-2.7-1.6c-0.3-2.1-1.7-2.1-3.2-2.2C184.8,123.2,183.6,123.3,182.2,123.4z M46.7,107.1
		c-2.5,0.9-4.8,1.4-6.8,2.5c-1.9,1.1-2.7,3.2-0.9,5c4,4.1,11.4,4,15.3-0.2c1.4-1.6,1-3.4-0.6-4.3C51.5,108.9,49.1,108.1,46.7,107.1z
		 M84.9,140.1c2.2-0.8,4.4-1.2,6.3-2.3c2.8-1.7,2.8-4.2,0.2-6.1c-3.2-2.4-9.9-2.4-13.2,0c-2.6,1.9-2.6,4.7,0.2,6.2
		C80.4,138.8,82.6,139.3,84.9,140.1z M104.2,151.3c2.4-0.9,4.8-1.5,6.8-2.8c2.3-1.5,2.1-3.6,0.1-5.4c-3.2-2.8-10.6-2.8-13.8-0.2
		c-2.3,1.9-2.3,4.3,0.2,5.8C99.5,149.9,101.8,150.4,104.2,151.3z M27.4,96.3c-2.2,0.6-4.3,0.9-6.1,1.9c-3.2,1.6-3.2,4.5-0.4,6.6
		c3.2,2.3,9.6,2.3,13-0.1c2.5-1.8,2.6-4.7-0.2-6.2C31.8,97.4,29.6,96.9,27.4,96.3z M57.9,164.2c-0.6-4.2-2.5-8.1-6.9-10.2
		c-2.7-1.3-4.8-0.1-5.1,3c-0.5,4.1,2.4,9.5,6.1,11.4C55.3,170,58,168.4,57.9,164.2z M38.7,154.4c-0.5-5.1-2.4-8.6-6-10.9
		c-1.1-0.7-3.2-1.1-4-0.6c-1.1,0.6-2,2.5-2,3.9c0.1,4.3,2.1,7.8,5.8,10.1c1.1,0.7,3.2,1,4.3,0.6C37.8,157,38.3,155.2,38.7,154.4z
		 M114.1,178.1c0.1-4.6,2.7-8.1,7-10.8c-0.9-0.3-1.7-0.9-2.1-0.7c-1.7,0.7-3.2,0-4.7-0.5c-1.3-0.4-4.1-0.1-4.4,0.6
		c-0.9,2.1-0.9,4.6-1.1,7c0,0.2,0.7,0.6,1.1,0.9c0.6,0.5,1.3,0.9,1.4,1c-0.2,1.7-0.5,3.2-0.7,4.9C112,179.5,112.8,179,114.1,178.1z
		 M114.3,159c-5.2-0.4-8.1,2.8-10.2,6.6c-2.1,3.8-3.8,7.7-0.9,12.5c0.4-3.1,0.8-5.6,1.2-8.9c0.5,1.5,0.7,2.1,0.9,2.8
		c0.7-1.6,4.2-2.9,0-4.5c1.7-2.2,3.3-4.1,5.1-6.4c0.2,1.6,0.4,2.6,0.6,3.6c0.2,0,0.6,0,0.8,0c0.4-1.3,0.9-2.7,1.3-4
		c-0.2-0.1-0.6-0.2-0.8-0.3C112.9,159.9,113.6,159.5,114.3,159z M153.2,148.4c-3.3,1.9-6.5,3.7-9.6,5.5c-0.2,0.2-0.7,0.2-0.7,0.5
		c-0.3,1-0.6,2-0.8,3c0.8,0.1,1.8,0.5,2.4,0.2c2.8-1.4,5.5-3.1,8.2-4.7C154.7,151.8,155,150.4,153.2,148.4z M201.2,177
		c-0.5,3.3,2.8,6,10.7,9c-0.8-1.7-1-3.2-1.8-3.8C207.4,180.4,204.4,178.9,201.2,177z M62.7,74.1c-1.6,5.4-2.9,10-4.3,14.5
		c0.2,0.2,0.5,0.3,0.7,0.5c0.6-0.5,1.4-0.9,1.7-1.5c0.7-1.8,1.1-3.7,1.7-5.6c0.4-1.6,0.9-3.1,1.4-5.3C63.8,76.6,63.5,75.8,62.7,74.1
		z M217.2,177.3c-5.4-4.2-9.6-6.2-11.9-5.5C209,173.5,211.8,177.1,217.2,177.3z M121.8,172.5c-1.2-0.9-1.9-1.8-2.3-1.7
		c-2.4,0.7-3,2.9-3.4,5c-0.1,0.4,0.7,0.9,1,1.3C118.6,175.7,120,174.3,121.8,172.5z M116.4,180c3.5,0.3,5.1-1.4,6.2-3.4
		c1.1-2,2.2-4.1,0.4-6.4C123.2,174.8,120.9,177.8,116.4,180z M112.8,6.3c-0.2,0.2-0.3,0.4-0.5,0.6c3.2,1.9,6.4,3.7,9.6,5.6
		c0.2-0.2,0.3-0.5,0.5-0.8C119.2,10,116,8.2,112.8,6.3z M139.7,158.1c0.5-0.2,1-0.3,1.5-0.4c-0.6-1.6-1-3.2-1.6-4.8
		c-0.4,0.1-0.8,0.2-1.2,0.3C138.9,154.8,139.3,156.4,139.7,158.1z M166.3,8.1c-0.5-0.3-0.9-0.6-1.4-0.9c-0.9,1.5-1.7,3-2.6,4.4
		c0.4,0.2,0.8,0.5,1.1,0.7C164.4,11,165.4,9.6,166.3,8.1z"/>
	<path class="st0" d="M149,108.2c-3.6-1.1-6.8-2-8.2-4.8c-1.4-3-0.3-6,1.8-8.4c4.1-4.7,8.3-9.2,12.6-13.7c2.3-2.4,4.7-4.7,7.2-6.6
		c3.2-2.4,9.4-2,12.2,0.7c1.7,1.6,2.8,3.6,1.1,6c-0.4,0.6,0.2,1.8-0.2,2.4c-1.1,1.4-2.4,2.6-3.7,4c-0.5,0.5-0.8,1.1-1.3,1.7
		s-0.8,1.3-1.3,1.9c-2.1,2.3-4.1,4.7-6.3,6.8c-2,1.9-3.6,4.2-5.6,5.8C154.9,105.8,151.6,106.9,149,108.2z"/>
	<path class="st0" d="M83.9,65.8c0.2,0-0.3-0.1-0.7-0.2c1.8-5.3,8.2-12,12-11.9c-1.1-0.5-1.6-0.6-2.5-1c2.2-2.1,4.3-4,6.4-5.9
		c1.7-1.7,3.2-3.6,5.1-5c3.9-2.8,8.9-2.7,12.6,0c2.8,2,2.8,5.5-0.3,7.1c0.6,0.3,1.1,0.6,2.4,1.2c-1.8,1.6-3.5,3-5.1,4.4
		c-0.4,0.4-0.4,1.2-0.8,1.7c-1.2,1.4-2.4,2.8-3.7,4.1c-0.7,0.8-1.4,1.7-2.2,2.4c-1.3,1.3-2.8,2.6-4.2,3.9c-0.7,0.6-1.2,1-1.6,2.1
		c-0.6,1.6-2.7,2.6-4.2,3.7c-0.7,0.6-1.6,1-2.4,1.1c-2.3,0.2-4.9,0.9-6.8,0.2c-2.2-0.9-5.2-2.1-5.1-5.5
		C82.9,67.6,83.4,66.8,83.9,65.8z"/>
	<path class="st0" d="M108.2,70.7c-0.6-0.2-1-0.2-1.7-0.4c3.2-3.6,6.3-7,9.5-10.2c0.8-0.8,2-1.3,2.9-1.8c0.1,0-0.4-0.2-0.9-0.3
		c3.5-5.5,11.8-9.2,16.5-5.7c-0.3,0.4-0.6,0.9-1.4,1.8c1.2-0.7,1.7-1,2.4-1.4c2.9,2.4,2.5,3.2,1.7,7c-0.6,3.2-2.1,5-4.7,6.5
		c-1,0.6-1.3,2.4-2.1,3.5c-1.7,2.1-4.1,3.2-5.5,5.8c-1.2,2.4-3.7,4.1-5.6,6c-2.9,2.9-6.9,5.2-11.3,3.8c-2.3-0.7-5.2-1.6-5.8-4.7
		c-0.2-0.9,0.6-2.1,0.7-3.2c0.2-1-0.1-2.2,0.3-3.2c0.6-1.1,1.4-2.2,2.4-2.9c0.6-0.5,1.7-0.2,2.5-0.2
		C108.2,70.9,108.2,70.8,108.2,70.7z"/>
	<path class="st0" d="M144.5,64.5c1.3-2.4,3.6-3.2,6.9-2.4c3.4,0.9,6.6,3.6,5.8,6c-1,2.9-0.4,7.2-4.8,8.4c-0.5,0.1-0.7,0.9-1,1.3
		c-1.3,1.6-2.4,3.2-3.7,4.7c-0.7,0.9-1.3,1.7-2.1,2.4c-1.3,1.3-2.7,2.5-4,3.9c-0.6,0.6-1,1.3-1.6,1.9c-1.3,1.5-2.1,4-5,3.5
		c-0.4-0.1-1.1,0.6-1.5,0.9c-2.1,2-5.7,2-8,0.1c-1.2-1-3.1-1.5-3.7-2.8c-1.7-3.2-0.3-6.4,1.9-8.8c4.4-4.8,9.2-9.3,13.7-14.1
		c1-1,1.4-2.7,2.4-3.6c1.2-1,2.8-1.5,4.2-2.2C144.2,64.1,144.4,64.3,144.5,64.5z"/>
	<path class="st0" d="M183.2,85.3c-0.3,0.5-0.6,0.9-0.9,1.4c2.6-4.3,6.2-2.7,9.9-1.6c-0.5,0.6-0.7,1.1-1.3,2c1-0.5,1.7-0.8,2.4-1.2
		c2.9,3.2,3.5,4.2,0.2,9.2c-2.4,3.7-4.3,8.1-8.9,10.1c-0.7,0.3-0.6,2-1.3,2.6c-3.3,3-5.9,7.1-11.2,7.4c-2.1,0.1-4,1.7-6,2.6
		c-2.5,1.2-4-0.9-5.2-2.1c-2.3-2.1-1.8-4.1,1.2-6c-0.9,0.2-1.4,0.2-2,0.3c-0.2-0.2-0.4-0.4-0.6-0.6c6.9-8.9,14.4-17.3,22.8-24.8
		C182.6,84.8,182.9,85.1,183.2,85.3z M188.1,92.5c-0.2-0.2-0.4-0.3-0.6-0.5c-0.6,0.6-1.1,1.3-1.8,2.1c1.3,0.7,2.3,1.3,3.4,2
		c0.3-1.2,0.5-2,0.8-3.2c-1,0.6-1.7,1-2.7,1.7C187.7,93.4,187.9,93,188.1,92.5z"/>
	<path class="st0" d="M73.1,115c2.1,4,1.7,5-3.6,8c0.9,0.1,1.7,0.1,2.4,0.2c0.9,1.7,0.4,2.9-1.3,3.6c-3.8,1.7-7.7,1.7-11.4-0.4
		c-2-1.1-3.2-2.7-2.1-5.1c0.2-0.5-0.2-1.3,0-1.8c0.4-1.5,0.9-3,1.6-4.3c0.5-0.9,1.4-1.6,1.7-1.8c2.8,0.5,5.5,0.9,8.6,1.5
		c0.9,1.8-0.5,2.6-6,3c1.9,0.2,3.9,0.3,6,0.5c0.1,0.3,0.2,0.7,0.2,1.2c0,0.4,0,0.7-0.1,1.1c0.3,0.1,0.7,0.2,1,0.2
		c0.2-1.2,0.9-2.4,0.7-3.6C70.7,115.1,71.4,114.5,73.1,115L73.1,115z"/>
	<path class="st0" d="M84.1,179.4c0.5-0.8,0.9-2.5,2.1-3.2c1-0.6,3-0.2,4.1,0.5c3.8,2.3,5.8,5.8,5.9,10.3c0.2,3.7-2.6,5.4-5.8,3.5
		C86.4,188.2,84.6,184.5,84.1,179.4z"/>
	<path class="st0" d="M7.3,135.1c0.5-0.7,0.9-2.5,2.1-3.1c1-0.6,2.9-0.2,4,0.6c3.6,2.2,5.6,5.6,5.8,9.7c0.1,1.4-0.7,3.6-1.8,4.2
		c-1.1,0.6-3.3,0.2-4.5-0.6C9.6,143.5,7.8,140.1,7.3,135.1z"/>
	<path class="st0" d="M182.2,123.4c1.4-0.1,2.5-0.2,3.7-0.2c1.5,0.1,2.9,0,3.2,2.2c0.1,0.6,1.7,1.3,2.7,1.6c1.7,0.6,3.6,0.7,5.5,1.1
		c0,0.3-0.1,0.6-0.1,0.9c-0.9,0.1-2,0.2-3.1,0.3c-1.1,2.7-2.1,5.4-3.5,8.5c-3.6-2.1-7.1-4-10.5-6.2c-0.4-0.2-0.5-1.6-0.3-2.2
		C180.5,127.4,181.4,125.4,182.2,123.4z M186.3,132c1.6,0.1,2.8,0.2,4,0.2C187.8,129.6,187.8,129.6,186.3,132z"/>
	<path class="st0" d="M46.7,107.1c2.4,1,4.8,1.7,7,3c1.6,0.9,2.1,2.8,0.6,4.3c-4,4.3-11.3,4.3-15.3,0.2c-1.7-1.8-0.9-3.9,0.9-5
		C41.9,108.5,44.2,108,46.7,107.1z M48.6,115c0-0.3,0-0.6,0-0.9c-1.8-0.3-3.6-0.6-5.5-0.9c-0.1,0.4-0.1,0.8-0.2,1.3
		C44.8,114.5,46.7,114.8,48.6,115z"/>
	<path class="st0" d="M84.9,140.1c-2.3-0.8-4.6-1.3-6.5-2.3c-2.8-1.6-2.8-4.3-0.2-6.2c3.2-2.4,10-2.4,13.2,0c2.6,2,2.7,4.5-0.2,6.1
		C89.4,138.9,87.2,139.3,84.9,140.1z M87.3,136.2c-2.4-0.5-4.5-0.9-6.5-1.3c-0.1,0.2-0.2,0.5-0.2,0.7c1.6,0.6,3.2,1.3,4.7,1.5
		C86,137.3,86.8,136.4,87.3,136.2z"/>
	<path class="st0" d="M104.2,151.3c-2.4-0.9-4.7-1.4-6.7-2.5c-2.5-1.5-2.5-3.9-0.2-5.8c3.2-2.8,10.7-2.7,13.8,0.2
		c2.1,1.8,2.2,3.9-0.1,5.4C109,149.7,106.6,150.3,104.2,151.3z M100,146c2.1,2.6,4.5,2.9,6,1.3C104.1,146.9,102.2,146.5,100,146z"/>
	<path class="st0" d="M27.4,96.3c2.1,0.7,4.4,1.1,6.3,2.1c2.8,1.5,2.7,4.3,0.2,6.2c-3.3,2.3-9.7,2.4-13,0.1c-2.8-2.1-2.8-5,0.4-6.6
		C23.1,97.2,25.2,96.9,27.4,96.3z M29.6,102.8c-1.9-0.2-3.7-0.3-5.5-0.5C26.9,104.5,28.4,104.4,29.6,102.8z"/>
	<path class="st0" d="M57.9,164.2c0.1,4.1-2.6,5.8-5.9,4.1c-3.6-1.9-6.5-7.2-6.1-11.4c0.3-3.1,2.4-4.3,5.1-3
		C55.5,156.2,57.3,160.1,57.9,164.2z M49.9,157.6c0.7,2.3,4.7,2,3.8,5.5c0.5-0.6,0.9-1.5,0.7-2.1C53.5,159.1,52.3,157.4,49.9,157.6z
		"/>
	<path class="st0" d="M38.7,154.4c-0.4,0.7-0.9,2.5-2,3.1c-1.1,0.6-3.2,0.2-4.3-0.6c-3.6-2.3-5.6-5.8-5.8-10.1c0-1.3,0.9-3.2,2-3.9
		c0.9-0.6,3-0.2,4,0.6C36.3,145.8,38.2,149.3,38.7,154.4z M34.2,152.3c0.4-0.6,1-1.3,1-1.9c-0.2-2.1-2.4-3.8-4.3-3.6
		C30.5,149.2,35.5,148.4,34.2,152.3z"/>
	<path class="st0" d="M114.1,178.1c-1.3,0.9-2.1,1.4-3.6,2.4c0.2-1.7,0.5-3.2,0.7-4.9c-0.2-0.2-0.9-0.6-1.4-1
		c-0.4-0.3-1.2-0.6-1.1-0.9c0.2-2.4,0.2-4.9,1.1-7c0.3-0.8,3.1-1.1,4.4-0.6c1.6,0.5,3,1.2,4.7,0.5c0.5-0.2,1.2,0.4,2.1,0.7
		C116.8,170,114.2,173.6,114.1,178.1z"/>
	<path class="st0" d="M114.3,159c-0.7,0.4-1.4,0.9-2.1,1.3c0.2,0.1,0.6,0.2,0.8,0.3c-0.4,1.3-0.9,2.7-1.3,4c-0.2,0-0.6,0-0.8,0
		c-0.2-1-0.3-2.1-0.6-3.6c-1.8,2.2-3.4,4.2-5.1,6.4c4.3,1.5,0.7,2.9,0,4.5c-0.2-0.6-0.4-1.3-0.9-2.8c-0.5,3.4-0.8,5.9-1.2,8.9
		c-2.8-4.7-1.2-8.7,0.9-12.5C106.3,161.8,109.1,158.6,114.3,159z"/>
	<path class="st0" d="M153.2,148.4c1.8,2,1.5,3.4-0.5,4.5c-2.7,1.6-5.5,3.2-8.2,4.7c-0.6,0.3-1.6-0.1-2.4-0.2c0.2-1,0.5-2.1,0.8-3
		c0.1-0.2,0.5-0.3,0.7-0.5C146.7,152.2,149.9,150.3,153.2,148.4z"/>
	<path class="st0" d="M201.2,177c3.2,1.8,6.2,3.4,8.9,5.2c0.8,0.6,1,2.1,1.8,3.8C204,183,200.8,180.3,201.2,177z"/>
	<path class="st0" d="M62.7,74.1c0.8,1.7,1.1,2.5,1.2,2.7c-0.6,2.2-1,3.7-1.4,5.3c-0.6,1.9-0.9,3.8-1.7,5.6c-0.2,0.6-1.1,1-1.7,1.5
		c-0.2-0.2-0.5-0.3-0.7-0.5C59.8,84,61.2,79.5,62.7,74.1z"/>
	<path class="st0" d="M217.2,177.3c-5.3-0.2-8.1-3.7-11.9-5.5C207.6,171.1,211.8,173.1,217.2,177.3z"/>
	<path class="st0" d="M121.8,172.5c-1.8,1.8-3.2,3.2-4.7,4.7c-0.4-0.5-1.1-0.9-1-1.3c0.4-2.1,1-4.3,3.4-5
		C119.9,170.7,120.7,171.6,121.8,172.5z"/>
	<path class="st0" d="M116.4,180c4.5-2.2,6.8-5.3,6.6-9.9c1.8,2.3,0.7,4.4-0.4,6.4C121.4,178.6,119.9,180.4,116.4,180z"/>
	<path class="st0" d="M73.2,115.1c-0.6-0.9-1.5-1.7-1.8-2.8c-0.2-0.4,0.9-1.3,1.6-1.7c0.4-0.2,1.5-0.2,1.7,0.2
		c0.4,0.6,0.7,1.5,0.5,2.1C74.7,113.6,73.8,114.3,73.2,115.1C73.1,115,73.2,115.1,73.2,115.1z"/>
	<path class="st0" d="M112.8,6.3c3.2,1.8,6.3,3.6,9.6,5.5c-0.2,0.2-0.3,0.5-0.5,0.8c-3.2-1.9-6.4-3.7-9.6-5.6
		C112.5,6.8,112.7,6.5,112.8,6.3z"/>
	<path class="st0" d="M139.7,158.1c-0.4-1.7-0.8-3.3-1.2-4.9c0.4-0.1,0.8-0.2,1.2-0.3c0.6,1.6,1,3.2,1.6,4.8
		C140.7,157.8,140.2,157.9,139.7,158.1z"/>
	<path class="st0" d="M166.3,8.1c-0.9,1.4-1.9,2.8-2.8,4.3c-0.4-0.2-0.8-0.5-1.1-0.7c0.9-1.5,1.7-3,2.6-4.4
		C165.4,7.6,165.9,7.9,166.3,8.1z"/>
	<path class="st0" d="M188.1,92.5c-0.2,0.5-0.4,0.9-0.9,2c1-0.6,1.6-1,2.7-1.7c-0.3,1.3-0.6,2.1-0.8,3.2c-1.1-0.6-2.1-1.3-3.4-2
		c0.7-0.8,1.3-1.4,1.8-2.1C187.7,92.2,187.9,92.3,188.1,92.5z"/>
	<path class="st0" d="M186.3,132c1.5-2.4,1.5-2.4,4,0.2C189.1,132.1,187.9,132.1,186.3,132z"/>
	<path class="st0" d="M48.6,115c-1.9-0.2-3.8-0.4-5.7-0.6c0.1-0.4,0.1-0.8,0.2-1.3c1.8,0.3,3.6,0.6,5.5,0.9
		C48.5,114.4,48.5,114.7,48.6,115z"/>
	<path class="st0" d="M87.3,136.2c-0.6,0.3-1.3,1.1-2,0.9c-1.7-0.3-3.2-1-4.7-1.5c0.1-0.2,0.2-0.5,0.2-0.7
		C82.8,135.3,84.9,135.7,87.3,136.2z"/>
	<path class="st0" d="M100,146c2.3,0.5,4.2,0.9,6,1.3C104.5,148.9,102.1,148.6,100,146z"/>
	<path class="st0" d="M29.6,102.8c-1.1,1.6-2.7,1.7-5.5-0.5C25.8,102.5,27.7,102.7,29.6,102.8z"/>
	<path class="st0" d="M49.9,157.6c2.5-0.2,3.6,1.5,4.5,3.3c0.2,0.6-0.2,1.4-0.7,2.1C54.5,159.5,50.6,159.9,49.9,157.6z"/>
	<path class="st0" d="M34.2,152.3c1.3-3.9-3.8-3.2-3.2-5.5c1.9-0.2,4.1,1.5,4.3,3.6C35.3,151,34.6,151.7,34.2,152.3z"/>
</g>
</svg>
