<?xml version="1.0" encoding="utf-8"?>
<!-- Generator: Adobe Illustrator 21.0.2, SVG Export Plug-In . SVG Version: 6.00 Build 0)  -->
<svg version="1.1" id="Layer_1" xmlns="http://www.w3.org/2000/svg" xmlns:xlink="http://www.w3.org/1999/xlink" x="0px" y="0px"
	 viewBox="0 0 512 512" style="enable-background:new 0 0 512 512;" xml:space="preserve">
<style type="text/css">
	.st0{fill:#FFFFFF;}
</style>
<g>
	<path d="M203.8,377.9c-5-3-9.1-5.5-13.2-8c-0.3,0.4-0.6,0.8-0.9,1.3c3.3,2.2,6.5,4.4,9.8,6.6c-0.2,0.4-0.4,0.8-0.7,1.2
		c-2.5-1.3-5-2.6-7.4-3.9c-2.8,1.7-5.6,3.3-8.4,5c-3.2,1.8-4.5,1.4-6-2c-0.5-1-1.1-1.9-1.8-2.8c-0.5-0.8-1.1-1.6-1.9-2.7
		c1.1-0.4,2.1-0.8,3-1.1c-0.4,0-0.7-0.1-1.1-0.1c-0.2-1.7-0.3-3.5-0.5-5.9c-1.8-1.1-4.2-2.6-6.7-3.9c-0.5-0.3-1.5-0.2-2,0.1
		c-2.5,1.4-5,2.7-7.3,4.4c-2.7,1.9-4.3,1-5.7-1.5c-1-1.8-2-3.7-3.2-5.7c0.8-0.4,1.7-0.8,3.5-1.7c-5.4-0.5-2.8-3-2.1-5.2
		c-2.4-1.4-4.8-2.8-7.2-4c-0.7-0.3-1.8-0.2-2.5,0.2c-2.8,1.4-5.4,3.1-8.3,4.4c-0.9,0.4-2.6,0.4-3.3-0.2c-3.7-3.2-5-9.7-3-14.3
		c-1.4-0.9-2.9-1.7-4.3-2.6c-1.4-0.8-2.8-1.6-3.5-2.1c-3.8,2-7,3.9-10.5,5.4c-0.9,0.4-2.9-0.4-3.6-1.3c-1.6-1.9-2.7-4.3-4.1-6.7
		c0.9-0.3,1.8-0.6,3.3-1.2c-4.5-1.1-2.1-3.4-1.4-5.6c-5.9-3.4-11.5-6.7-17.3-9.8c-1.3-0.7-3.1-0.5-4.7-0.6c-4.1-0.2-6.4-2.6-6.3-6.7
		c0.1-6.5,4.7-12,12.1-14.1c0-8.9,0.5-17.9-0.2-26.8c-0.3-3.3-4.7-5.9-3.2-10.2c0-0.1-0.6-0.4-0.9-0.7c-4.3-3.2-4.9-5.4-2.8-10.1
		c2.4-5.3,5.8-7.3,10.2-7c2.3,0.2,4.8-0.7,6.9-1.8c6.4-3.4,12.5-7.2,18.9-10.7c1.2-0.7,3.4-0.7,4.6-0.1c5.1,2.7,10,5.6,14.9,8.6
		c2.5,1.6,4.7,1.8,7.3,0.3c3.9-2.3,7.9-4.3,11.7-6.7c1-0.6,2-1.9,2.4-3.1c3-9.2,5.8-18.5,8.9-27.7c0.8-2.4-0.5-3.1-2-4.1
		c-3.5-2.1-4.8-5.7-2.8-9.7c1.4-2.8,4-4.7,7.7-3.4c0.7,0.2,1.4,0.1,2.3,0.2c-0.2-2.1-0.5-4-0.4-6c0.1-4.3,3.5-7.3,7.7-6.5
		c3,0.6,4.2-0.4,5.4-2.9c6.2-12.8,14.7-24,25.2-33.6c8.4-7.7,17.8-14.1,29.3-16.6c7.8-1.7,15.3-1.1,22.4,3.1
		c2.4,1.4,5.2,1.9,7.9,2.6c2.4,0.6,5.1,0.4,7.3,1.5c4.3,2.2,7.6,0.6,11-1.7c1.5-1,2.9-1.9,4.5-2.7c4.2-1.9,8.1,0.6,8.2,5.2
		c0.1,3.7-0.3,7.5,0.1,11.2c0.2,1.7,1.2,4,2.6,4.8c28.7,16.6,57.4,33.1,86.2,49.4c4.2,2.4,9.1,3.8,13.7,5.4c0.9,0.3,2.2-0.3,3.1-0.7
		c2.7-1.4,5.2-2.9,7.9-4.3c4.5-2.4,8.7,0,8.8,5.1c0.1,4.6-0.2,9.2-0.1,13.9c0.1,1.5,0.6,3.6,1.7,4.4c10.1,6.7,13.8,16.7,14.6,28.1
		c1.4,21.2-5.6,40.2-16.3,58.1c-11.1,18.6-26.1,32.8-46.2,41.7c-12.4,5.5-24.5,11.6-36.6,17.6c-6.3,3.1-12.2,3-17.9-1.3
		c-2.1-1.6-3.8-1.5-6-0.1c-5.5,3.5-11.1,6.6-16.6,10.1c-2.2,1.4-4.1,1.4-6.2,0c-2.1-1.3-4.4-2.3-6.5-3.7c-1.2-0.8-2-2-3-3
		c1-0.9,1.8-1.9,2.9-2.7c1.4-1,2.9-1.8,4.4-2.7c-6.9-7.5-15.7-11.5-23.9-16.3c-2.8-1.6-6.2,0.6-5.9,4c0.4,3.8-1.5,5.6-4.5,6.7
		c-0.8,0.3-1.9,0.3-2.6-0.1c-4.3-2.3-8.5-0.3-8,4.5c0.7,6.3-1.3,10.3-7.4,12.6c-2.9,1.1-5.4,3.1-7.9,4.5c5.1,4.5,10.2,8.7,15,13.2
		c1.5,1.3,2.7,2.9,3.7,4.7c1.9,3.3,2.2,6.7-0.2,10.2c-2.4,3.5-6.1,4.8-9.5,3.3c-8-3.7-15.7-8.2-23.5-12.3c0.3-0.6,0.6-1.2,0.9-1.8
		c4.2,2.4,8.4,4.7,12.7,7.1c0.2-0.3,0.5-0.6,0.7-1c-0.7-0.7-1.3-1.5-2.1-2c-1.6-1-3.3-1.9-4.9-2.8c-5.1-3.1-10.1-6.4-15.3-9.4
		C205.6,377.9,204.1,377.9,203.8,377.9z M210.2,374.3c2.7,1.8,5.4,3.6,8.1,5.5c0.3-0.5,0.6-1.1,0.9-1.6
		C216.1,376.9,213.1,375.6,210.2,374.3c-1.2-0.9-2.2-2-3.4-2.7c-5.8-3.4-11.7-6.7-17.6-10.1c-0.3,0.5-0.5,1-0.8,1.5
		C195.6,366.8,202.9,370.5,210.2,374.3z M234,170.2c-0.9-2.5-0.4-6.1-4.8-4c-0.3,0.1-1.1-0.4-1.5-0.9c-3.2-3.5-5.2-3.5-8.3-0.1
		c-0.5,0.5-1.2,1-1.8,1c-3.7,0-4.6,0.8-5.3,4.2c-0.2,1.1-1.7,2.4-2.8,2.6c-2.9,0.6-4.4,2-4.6,5c-0.1,1-1.3,2.5-2.1,2.7
		c-3.3,0.5-4.9,2.2-5.1,5.6c-0.1,0.9-1.4,2.4-2.3,2.5c-3,0.5-4.5,1.5-3.2,4.8c0.3,0.7-0.2,2.3-0.8,2.5c-3.7,1.8-1.4,3.6-0.4,5.6
		c3.9-1.5,5-0.8,4.8,3.3c0.7,0,1.5,0,2.2,0c2.4,0,5.2,0.8,5.4-3.2c0-0.2,1.7-0.5,2.7-0.6c1.1-0.1,2.7,0.5,3.2,0
		c0.9-1.1,1.3-2.7,1.9-4.1c0.4-0.9,1.2-2.5,1.3-2.5c3.6,1.2,4.5-2.2,6.5-3.6c-1.5-3.9-1.2-4.2,2.6-4.5c0.8,0,1.5-0.6,2.2-1
		c3.4-1.8,0.8-5.1,2.1-7.2c-4.4-2.9-8.6-5.7-13.6-9c1.9-0.9,3.8-2.5,4.7-2.1c4.7,2.4,9.1,5.3,13.6,8c-0.6,1.6-1.1,2.8-1.5,3.9
		c0.2,0.1,0.4,0.2,0.7,0.3c1.1-1.3,2.1-2.6,3.1-3.8C229.9,172.4,230,172,234,170.2z M258.3,184.1c-0.7-2.6-0.8-5.5-4.7-4
		c-0.5,0.2-1.4-0.4-1.8-0.9c-2.6-3.2-5.3-3.2-7.9-0.3c-0.5,0.6-1.7,1.2-2.4,1.1c-3.5-0.7-4.3,1.5-5.1,4.2c-0.3,1-1.2,2.4-2,2.5
		c-3.6,0.5-5.1,2.3-5.4,5.8c-0.1,0.9-1.5,2.1-2.5,2.3c-2.8,0.6-4.5,2-4.4,4.8c0.1,2.1-0.7,2.8-2.7,3.1c-2.7,0.4-4.9,1.4-3,4.9
		c0.3,0.6-0.4,2.1-1.1,2.7c-2.2,1.8-1.7,3.5-0.2,5.3c4.1-1.3,4.3-1.1,5.2,3.4c2.1,0,4.1,0,6.3,0c0.5-3,0.9-5.8,4.9-3.2
		c0.4,0.2,3.7-2.3,3.7-3.6c-0.1-4,0.2-4.6,4.5-3.1c1-2.1,4.9-3.1,2.3-6.6c0.9-0.6,1.7-1.3,2.7-1.8c1.4-0.7,3.5-0.8,4.1-1.8
		c1-1.9,1.1-4.4,1.6-6.4c-4.6-2.9-8.9-5.7-13.5-8.6c1-1.9,2.2-3.8,4.8-2.3c4.4,2.5,8.7,5.2,13,7.8c-0.6,1.5-1.1,2.6-1.5,3.6
		c0.2,0.2,0.4,0.3,0.7,0.5c1-1.2,2.1-2.5,3-3.6C254.3,186.1,254.4,186,258.3,184.1z M281.2,194.3c-2.4-0.7-4.3-0.7-5.1-1.6
		c-2.3-2.8-4.9-3-7.5-0.3c-0.7,0.7-1.9,1.6-2.7,1.5c-3.7-0.5-4.6,1.6-5.4,4.5c-0.3,0.9-1.6,1.5-2.5,2.3c-1.5,1.5-3.8,2.8-4.3,4.5
		c-0.5,2-0.6,2.9-2.9,3.4c-2.7,0.5-4.9,1.9-4.8,5.4c0,0.8-1.4,2.2-2.3,2.4c-3.1,0.7-4,2.1-3.2,5.2c0.2,0.7-0.1,2-0.6,2.2
		c-4,2-1.5,4.1-0.4,6.2c3.1-1.1,2.9-1,4.6,1.8c0.5,0.9,2.3,1.5,3.4,1.4c1.3,0,3.5-0.8,3.6-1.6c0.5-2.8,1.7-2.9,3.9-2
		c2.1,0.9,5-1.8,4.4-4c-0.8-2.9,0.1-3.6,2.9-3.3c2.5,0.3,4.9-2.4,4-4.9c-1-2.8,0.7-2.7,2.6-3c1.3-0.2,3.2-0.6,3.6-1.5
		c1-2.1,1.3-4.5,1.8-6.6c-4.6-3-8.8-5.9-13.2-8.8c1.1-2,2.1-3.8,4.6-2.4c4.4,2.5,8.7,5.2,13.1,7.8c-0.6,1.5-1,2.6-1.4,3.8
		c0.3,0.1,0.6,0.3,0.9,0.4c0.7-1.4,2.4-3.7,2-4.1c-2.8-3.2-0.2-4.2,2.2-5.4C282,196.2,281.4,194.8,281.2,194.3z M305.4,208.3
		c-2.3-0.5-4.2-0.4-5-1.2c-2.8-3.1-5.2-3.3-7.9-0.1c-0.5,0.6-1.5,1.1-2.1,1c-3.7-0.6-5,1.2-5.3,4.6c-0.1,0.9-1.6,2.4-2.6,2.5
		c-3.3,0.4-4.7,1.9-4.8,5.2c0,0.8-1,2.4-1.6,2.4c-4.2,0-5.3,2.6-5.8,6.1c-0.1,0.8-1.4,1.8-2.4,2c-2.6,0.6-4.3,1.4-3.2,4.6
		c0.3,0.8-0.1,2.5-0.7,2.8c-3.6,2-1.2,3.7-0.1,5.5c4-1.8,4.7-1.4,5.1,3.2c2.2,0,4.4,0,6.7,0c0.8-1.9,0.4-5.7,4.3-2.8
		c0.4,0.3,2.2-0.8,2.9-1.6c0.7-0.7,1.2-2.1,1-3c-0.6-2.8,0.1-3.8,2.7-3.3c2.9,0.5,5.2-1.8,4.5-4.7c-0.6-2.4,0.6-3.8,2.6-2.9
		c3,1.2,3.9-1.2,4.5-2.6c0.7-1.7,1-5,0-5.8c-3.8-3.1-8.2-5.5-12.3-8.1c1.6-3.2,2.3-3.7,4.5-2.5c4.4,2.5,8.8,5.1,13.1,7.7
		c-0.5,1.5-1,2.6-1.4,3.8c0.2,0.1,0.5,0.2,0.7,0.3c1-1.2,1.9-2.4,3-3.9c-3.2-2.4-2.8-4.2,1.3-5.1
		C306.3,210.5,305.6,208.9,305.4,208.3z M329.5,222.4c-2.2-0.6-4.1-0.5-4.9-1.3c-2.8-3-5-3.1-7.9-0.1c-0.6,0.6-1.7,1-2.5,0.9
		c-3.2-0.4-4.6,1.2-5.2,4.1c-0.2,1-1.2,2.4-2.1,2.6c-3.2,0.6-4.5,2.5-5.1,5.5c-0.2,1-1.3,2.4-2.2,2.6c-3,0.7-4.8,1.9-4.6,5.3
		c0,0.8-1,2.2-1.7,2.4c-2.9,0.7-5.8,0.8-3.8,5.4c1,2.4-4.7,3.9-1.9,7.2c0.2,0.2,0.4,0.3,0.6,0.4c4.1-1.2,4.5-0.9,4.7,2.1
		c5-1.7,10.1-3.4,15.3-5.2c-0.9-2.8,0-4.6,2.4-4.2c2.8,0.6,5.7-1.8,4.9-4.4c-0.7-2.7,0.5-2.6,2.5-3.1c1.8-0.4,4-1.7,4.7-3.2
		c0.7-1.5,0.5-4.7-0.6-5.6c-3.7-3.1-7.9-5.5-12.1-8.3c1.3-2.6,3-3.6,5.8-1.7c3.3,2.2,6.8,4.1,10.1,6.4c0.8,0.6,1.2,1.9,1.8,2.9
		c2.5-1.6-2.1-7,4.1-7.1C330.6,224.3,329.9,222.9,329.5,222.4z M107.7,291.4c-0.4-4.5-2.6-8.8-7.3-11.6c-3.5-2.1-6.5-0.4-6.3,3.5
		c0.3,5.4,2.7,9.8,7.5,12.6C105.2,298.1,107.7,296.4,107.7,291.4z M156.1,321.4c0.1-5.8-2.7-11.2-6.5-13.2c-1.4-0.7-3.8-1.4-4.7-0.7
		c-1.2,0.8-2.1,3.2-2,4.7c0.4,4.7,2.6,8.6,6.5,11.3c1.3,0.9,3.5,1.5,4.7,1C155.3,324,155.8,321.9,156.1,321.4z M131.9,306.2
		c0.1-4.6-3-10-6.8-12.2c-3.8-2.1-6.5-0.7-6.4,3.6c0.1,5.3,2.6,9.3,6.9,12.1C129.2,312.2,131.8,310.6,131.9,306.2z M204.9,348.6
		c-1-5.9-2.8-10.4-7.7-12.9c-3.3-1.7-5.7-0.2-5.7,3.6c0,5.1,2.3,9.2,6.3,12.1c1.3,0.9,3.7,1.5,5.1,1
		C204,351.9,204.4,349.6,204.9,348.6z M265,311.8c4.4-2.5,8.7-4.9,12.7-7.5c0.8-0.5,0.8-2.2,1.1-3.4c-1.1,0-2.3-0.4-3.1,0
		c-3.4,1.8-6.7,3.9-10.1,5.7C263.1,307.8,263.1,309.3,265,311.8z M177.3,327.1c0.2,0.9,0.3,1.3,0.5,1.7c1,2.5,1.5,5.3-1.4,6.5
		c-2.9,1.2-4.5-1.3-5.9-3.4c-0.8-1.2-1.4-2.6-2.1-4c-0.3,0.2-0.6,0.4-0.9,0.6c1.2,4,3.2,7.6,7.2,9.6c2,1,4.2,1.2,5.4-1.4
		C181.3,334.1,180.2,329.7,177.3,327.1z M239.4,390c-5.8-3.4-11.7-6.8-18.2-10.6C223,384.3,234.9,391.4,239.4,390z M351.7,346.6
		c-0.6-1.8-0.7-3.5-1.5-4c-3.6-2.4-7.4-4.4-11.2-6.6C338.3,339.8,341.6,342.5,351.7,346.6z M371.9,205c3.8,4.3,12.9,8.7,15.5,7.4
		C380.7,207.2,374.1,204.1,371.9,205z M239.4,385.8c-1.8-5.4-7.3-8.8-14-8.4c3,2.6,6.3,4.8,9.7,6.8
		C236.3,385,237.7,385.2,239.4,385.8z M163.4,205.4c-2,6.8-3.7,12.6-5.5,18.4c0.4,0.1,0.7,0.3,1.1,0.4c3.1-2.1,3.3-5.6,4-9
		c0.4-1.9,1-3.7,1.5-5.6c0.2,0,0.5,0.1,0.7,0.1C164.9,208.7,164.4,207.6,163.4,205.4z M176.5,324.4c-2.3-2-4.2-4.4-7.4-3
		c-1,0.4-1.2,2.5-1.8,3.8C170.7,325,173.3,324.8,176.5,324.4z M357.2,336.1c0.2-0.4,0.4-0.9,0.6-1.3c-4.4-2.3-8.8-4.7-13.2-7
		c-0.3,0.5-0.5,1-0.8,1.4C348.3,331.5,352.2,335,357.2,336.1z M132,330.1c0.2-0.4,0.4-0.8,0.7-1.2c-5.4-3.1-10.9-6.3-16.3-9.4
		c-0.2,0.4-0.4,0.7-0.6,1.1C121.1,323.8,126.6,327,132,330.1z M141.3,341.6c0.9,3.8,9.4,8.4,12.2,7
		C149.5,346.3,145.6,344,141.3,341.6z M157,266.7c0.6,4.1,3.3,4.8,6.1,5.6C163.7,267.5,160,267.9,157,266.7z M226.7,119.6
		c-0.2,0.3-0.3,0.5-0.5,0.8c4,2.4,8.1,4.7,12.1,7.1c0.2-0.3,0.4-0.6,0.5-0.9C234.8,124.3,230.7,122,226.7,119.6z M173.5,352.4
		c-0.3,0.4-0.5,0.8-0.8,1.1c3.9,2.2,7.7,4.3,11.6,6.5c0.2-0.4,0.4-0.7,0.6-1.1C181.1,356.8,177.3,354.6,173.5,352.4z M140.1,333.1
		c-0.2,0.3-0.5,0.7-0.7,1c3.4,2,6.8,4.1,10.2,6.1c0.2-0.4,0.4-0.8,0.7-1.1C146.8,337.1,143.5,335.1,140.1,333.1z M91.2,314.8
		c0.3-0.5,0.6-1,0.9-1.5c-2.7-1.6-5.4-3.1-8.1-4.7c-0.3,0.5-0.5,0.9-0.8,1.4C85.9,311.6,88.6,313.2,91.2,314.8z M162.4,261.5
		c-0.1,0.4-0.3,0.8-0.4,1.1c1.4,0.5,2.8,1.2,4.3,1.6c0.3,0.1,0.9-0.8,1.4-1.3c-1.2-0.5-2.3-1-3.5-1.4
		C163.6,261.4,163,261.5,162.4,261.5z M179.6,363.2c-1.6-1.9-2.7-3.3-4.4-5.3C174.5,362.1,175.8,363.3,179.6,363.2z M156.5,235.8
		c-0.5-0.1-1-0.3-1.5-0.4c-0.7,2.5-1.4,5.1-2.1,7.6c0.5,0.1,0.9,0.3,1.4,0.4C155,240.8,155.8,238.3,156.5,235.8z M294.4,122
		c-0.6-0.4-1.1-0.8-1.7-1.2c-1.1,1.9-2.2,3.7-3.3,5.6c0.5,0.3,1,0.6,1.4,0.9C292.1,125.6,293.3,123.8,294.4,122z"/>
	<path class="st0" d="M234,170.2c-4,1.8-4.1,2.2-1.3,5.5c-1,1.2-2.1,2.5-3.1,3.8c-0.2-0.1-0.4-0.2-0.7-0.3c0.4-1.1,0.9-2.3,1.5-3.9
		c-4.5-2.7-8.9-5.6-13.6-8c-0.9-0.4-2.8,1.2-4.7,2.1c5.1,3.3,9.2,6.1,13.6,9c-1.3,2.1,1.3,5.4-2.1,7.2c-0.7,0.4-1.5,1-2.2,1
		c-3.8,0.2-4.1,0.6-2.6,4.5c-2,1.4-2.8,4.8-6.5,3.6c-0.2-0.1-0.9,1.6-1.3,2.5c-0.6,1.4-0.9,3-1.9,4.1c-0.5,0.5-2.1-0.1-3.2,0
		c-0.9,0.1-2.6,0.3-2.7,0.6c-0.2,3.9-3,3.1-5.4,3.2c-0.7,0-1.5,0-2.2,0c0.2-4.1-0.9-4.8-4.8-3.3c-1.1-1.9-3.3-3.7,0.4-5.6
		c0.6-0.3,1-1.9,0.8-2.5c-1.3-3.3,0.2-4.3,3.2-4.8c0.9-0.2,2.2-1.6,2.3-2.5c0.3-3.3,1.8-5,5.1-5.6c0.9-0.1,2.1-1.7,2.1-2.7
		c0.2-3.1,1.7-4.4,4.6-5c1.1-0.2,2.6-1.5,2.8-2.6c0.7-3.4,1.6-4.2,5.3-4.2c0.6,0,1.4-0.5,1.8-1c3.1-3.4,5.1-3.3,8.3,0.1
		c0.4,0.4,1.2,1,1.5,0.9C233.6,164.1,233.1,167.7,234,170.2z M215.3,183.3c0-0.6,0-1.2,0.1-1.9c-1.4-1-3.1-2.9-4.3-2.7
		c-1.6,0.3-3.4,2.1-4.1,3.7c-0.3,0.7,2,3.6,3.1,3.5C211.9,185.9,213.6,184.3,215.3,183.3z"/>
	<path class="st0" d="M258.3,184.1c-3.9,1.9-4,2.1-1.3,5.7c-1,1.2-2,2.4-3,3.6c-0.2-0.2-0.4-0.3-0.7-0.5c0.5-1.1,0.9-2.2,1.5-3.6
		c-4.4-2.6-8.6-5.4-13-7.8c-2.6-1.4-3.7,0.5-4.8,2.3c4.6,2.9,8.9,5.7,13.5,8.6c-0.4,2-0.6,4.5-1.6,6.4c-0.6,1-2.7,1.2-4.1,1.8
		c-1,0.5-1.8,1.2-2.7,1.8c2.5,3.5-1.3,4.5-2.3,6.6c-4.3-1.4-4.6-0.9-4.5,3.1c0,1.2-3.3,3.8-3.7,3.6c-4-2.6-4.4,0.2-4.9,3.2
		c-2.2,0-4.2,0-6.3,0c-0.8-4.5-1.1-4.7-5.2-3.4c-1.5-1.8-2-3.5,0.2-5.3c0.7-0.6,1.4-2.1,1.1-2.7c-1.9-3.5,0.3-4.5,3-4.9
		c2-0.3,2.8-1,2.7-3.1c-0.1-2.8,1.6-4.2,4.4-4.8c1-0.2,2.4-1.4,2.5-2.3c0.3-3.5,1.8-5.4,5.4-5.8c0.8-0.1,1.7-1.5,2-2.5
		c0.8-2.7,1.6-4.9,5.1-4.2c0.7,0.1,1.8-0.5,2.4-1.1c2.6-2.9,5.2-2.9,7.9,0.3c0.4,0.5,1.4,1.1,1.8,0.9
		C257.5,178.6,257.6,181.5,258.3,184.1z M234.5,201.7c2.2-2.4,4.5-3.8,4.5-5.2c0-1.4-2.3-3.8-3.7-3.9c-1.4,0-3.5,2.1-4,3.6
		C230.9,197.4,232.9,199.2,234.5,201.7z"/>
	<path class="st0" d="M281.2,194.3c0.2,0.5,0.9,1.9,1.6,3.5c-2.4,1.2-5.1,2.2-2.2,5.4c0.4,0.4-1.3,2.7-2,4.1
		c-0.3-0.1-0.6-0.3-0.9-0.4c0.4-1.1,0.9-2.3,1.4-3.8c-4.4-2.6-8.7-5.3-13.1-7.8c-2.5-1.4-3.5,0.4-4.6,2.4c4.4,2.9,8.6,5.7,13.2,8.8
		c-0.5,2.1-0.8,4.6-1.8,6.6c-0.4,0.9-2.3,1.3-3.6,1.5c-1.9,0.2-3.6,0.2-2.6,3c0.8,2.4-1.5,5.2-4,4.9c-2.8-0.4-3.7,0.4-2.9,3.3
		c0.6,2.2-2.3,4.9-4.4,4c-2.3-0.9-3.4-0.8-3.9,2c-0.2,0.8-2.4,1.5-3.6,1.6c-1.1,0-2.9-0.6-3.4-1.4c-1.7-2.8-1.5-2.9-4.6-1.8
		c-1.1-2.1-3.7-4.2,0.4-6.2c0.5-0.2,0.7-1.5,0.6-2.2c-0.8-3.1,0.1-4.5,3.2-5.2c0.9-0.2,2.3-1.6,2.3-2.4c-0.2-3.5,2.1-4.9,4.8-5.4
		c2.2-0.4,2.4-1.4,2.9-3.4c0.4-1.7,2.7-3,4.3-4.5c0.8-0.8,2.2-1.4,2.5-2.3c0.8-2.9,1.7-5.1,5.4-4.5c0.8,0.1,2-0.8,2.7-1.5
		c2.6-2.7,5.2-2.5,7.5,0.3C276.9,193.6,278.8,193.6,281.2,194.3z M264,211c0-0.6,0-1.2,0-1.7c-1.5-0.9-3.2-2.7-4.5-2.5
		c-1.5,0.2-2.9,2.2-4.3,3.4c1.2,1.4,2.5,3.9,3.6,3.9C260.6,214,262.3,212.1,264,211z"/>
	<path class="st0" d="M305.4,208.3c0.3,0.7,0.9,2.2,1.6,4c-4.1,0.9-4.5,2.7-1.3,5.1c-1.1,1.4-2.1,2.6-3,3.9
		c-0.2-0.1-0.5-0.2-0.7-0.3c0.4-1.1,0.8-2.3,1.4-3.8c-4.3-2.6-8.6-5.2-13.1-7.7c-2.2-1.2-2.9-0.7-4.5,2.5c4.2,2.7,8.5,5,12.3,8.1
		c1,0.8,0.7,4.1,0,5.8c-0.6,1.4-1.5,3.7-4.5,2.6c-2.1-0.8-3.2,0.6-2.6,2.9c0.7,2.9-1.5,5.2-4.5,4.7c-2.6-0.5-3.3,0.5-2.7,3.3
		c0.2,0.9-0.4,2.3-1,3c-0.7,0.8-2.5,1.9-2.9,1.6c-3.9-2.9-3.5,0.8-4.3,2.8c-2.3,0-4.5,0-6.7,0c-0.4-4.5-1-4.9-5.1-3.2
		c-1.1-1.9-3.5-3.5,0.1-5.5c0.6-0.3,1-2,0.7-2.8c-1.1-3.2,0.6-4,3.2-4.6c0.9-0.2,2.3-1.2,2.4-2c0.5-3.6,1.6-6.1,5.8-6.1
		c0.6,0,1.6-1.5,1.6-2.4c0.1-3.3,1.5-4.8,4.8-5.2c1-0.1,2.4-1.5,2.6-2.5c0.4-3.4,1.6-5.2,5.3-4.6c0.7,0.1,1.6-0.4,2.1-1
		c2.7-3.2,5.1-3,7.9,0.1C301.2,207.9,303.1,207.8,305.4,208.3z M288.2,224.9c0-0.6,0-1.2-0.1-1.9c-1.5-0.8-3-2.3-4.6-2.4
		c-2.3-0.1-4.3,1.5-3.7,4c0.3,1.3,2.5,3.2,3.6,3.1C285.2,227.7,286.7,226,288.2,224.9z"/>
	<path class="st0" d="M329.5,222.4c0.3,0.6,1.1,1.9,2.1,3.8c-6.2,0.1-1.5,5.5-4.1,7.1c-0.6-1-0.9-2.3-1.8-2.9
		c-3.3-2.2-6.8-4.2-10.1-6.4c-2.8-1.8-4.5-0.9-5.8,1.7c4.2,2.8,8.5,5.2,12.1,8.3c1.1,0.9,1.3,4.1,0.6,5.6c-0.7,1.5-2.9,2.8-4.7,3.2
		c-2,0.5-3.3,0.4-2.5,3.1c0.7,2.6-2.2,5-4.9,4.4c-2.3-0.5-3.3,1.4-2.4,4.2c-5.2,1.7-10.3,3.5-15.3,5.2c-0.2-3.1-0.7-3.3-4.7-2.1
		c-0.2-0.1-0.4-0.3-0.6-0.4c-2.9-3.4,2.9-4.9,1.9-7.2c-2-4.5,0.8-4.7,3.8-5.4c0.8-0.2,1.8-1.6,1.7-2.4c-0.2-3.4,1.6-4.7,4.6-5.3
		c0.9-0.2,2-1.6,2.2-2.6c0.6-3,2-4.9,5.1-5.5c0.9-0.2,1.9-1.6,2.1-2.6c0.6-3,2-4.5,5.2-4.1c0.8,0.1,1.9-0.3,2.5-0.9
		c3-3,5.1-2.9,7.9,0.1C325.5,221.9,327.3,221.8,329.5,222.4z M307.8,243.7c1.9-2.5,3.9-4,4-5.6c0-1.2-2.6-3.5-3.8-3.3
		c-1.5,0.2-3.6,2.2-3.9,3.8C303.8,239.7,306,241.3,307.8,243.7z"/>
	<path class="st0" d="M107.7,291.4c0,5-2.5,6.6-6,4.6c-4.8-2.8-7.2-7.2-7.5-12.6c-0.2-4,2.8-5.6,6.3-3.5
		C105.1,282.6,107.3,286.9,107.7,291.4z M105.3,291.1c0.1-4.8-2.7-8.7-5.5-8.8c-2.5-0.1-3.2,1.5-3.3,3.6c-0.1,3.3,3.2,8,5.9,7.6
		C103.7,293.3,104.8,291.6,105.3,291.1z"/>
	<path class="st0" d="M156.1,321.4c-0.3,0.5-0.8,2.6-2,3.1c-1.2,0.5-3.4-0.1-4.7-1c-3.9-2.6-6.2-6.6-6.5-11.3
		c-0.1-1.6,0.8-3.9,2-4.7c1-0.7,3.3,0,4.7,0.7C153.4,310.2,156.1,315.6,156.1,321.4z M154.1,319.2c0-4.6-3.4-9.4-5.9-8.9
		c-1.3,0.2-3,2.2-3.2,3.6c-0.5,3.2,3.3,7.9,5.9,7.5C152.3,321.2,153.5,319.7,154.1,319.2z"/>
	<path class="st0" d="M131.9,306.2c-0.1,4.4-2.7,5.9-6.4,3.5c-4.3-2.8-6.8-6.9-6.9-12.1c-0.1-4.3,2.6-5.7,6.4-3.6
		C128.9,296.2,131.9,301.7,131.9,306.2z M129.9,305.2c0.1-4.5-3.3-9.2-5.9-8.9c-1.3,0.2-2.9,2.1-3.2,3.5c-0.6,3.2,2.9,7.8,5.7,7.5
		C128,307.2,129.2,305.7,129.9,305.2z"/>
	<path class="st0" d="M204.9,348.6c-0.5,1-0.9,3.3-2.1,3.7c-1.4,0.5-3.7,0-5.1-1c-4-2.9-6.3-7-6.3-12.1c0-3.7,2.4-5.2,5.7-3.6
		C202.1,338.2,203.9,342.7,204.9,348.6z M202.7,347.1c0.1-4.6-3.3-8.8-6.1-8.8c-2.4,0-3.2,1.6-3.2,3.7c0,3.3,3.5,7.9,6,7.5
		C200.9,349.3,202.1,347.6,202.7,347.1z"/>
	<path class="st0" d="M265,311.8c-1.8-2.5-1.8-3.9,0.6-5.2c3.4-1.8,6.7-3.9,10.1-5.7c0.8-0.4,2.1,0,3.1,0c-0.4,1.2-0.3,2.9-1.1,3.4
		C273.6,306.9,269.4,309.2,265,311.8z"/>
	<path class="st0" d="M177.3,327.1c2.8,2.6,4,7.1,2.8,9.7c-1.2,2.6-3.5,2.4-5.4,1.4c-4-2-6-5.6-7.2-9.6c0.3-0.2,0.6-0.4,0.9-0.6
		c0.7,1.3,1.3,2.7,2.1,4c1.4,2.1,3,4.6,5.9,3.4c2.9-1.2,2.4-4,1.4-6.5C177.6,328.4,177.6,327.9,177.3,327.1z"/>
	<path class="st0" d="M239.4,390c-4.5,1.4-16.4-5.7-18.2-10.6C227.8,383.2,233.6,386.6,239.4,390z"/>
	<path class="st0" d="M351.7,346.6c-10-4.1-13.4-6.8-12.7-10.6c3.8,2.2,7.6,4.2,11.2,6.6C351,343.1,351,344.8,351.7,346.6z"/>
	<path class="st0" d="M371.9,205c2.2-0.9,8.8,2.3,15.5,7.4C384.8,213.7,375.6,209.3,371.9,205z"/>
	<path class="st0" d="M239.4,385.8c-1.7-0.6-3.1-0.8-4.3-1.5c-3.4-2-6.7-4.3-9.7-6.8C232.1,377,237.6,380.4,239.4,385.8z"/>
	<path class="st0" d="M163.4,205.4c0.9,2.2,1.4,3.3,1.9,4.4c-0.2,0-0.5-0.1-0.7-0.1c-0.5,1.9-1.2,3.7-1.5,5.6c-0.7,3.4-0.8,6.9-4,9
		c-0.4-0.1-0.7-0.3-1.1-0.4C159.7,218,161.4,212.2,163.4,205.4z"/>
	<path class="st0" d="M210.1,374.3c-7.3-3.8-14.5-7.6-21.8-11.4c0.3-0.5,0.5-1,0.8-1.5c5.9,3.3,11.8,6.7,17.6,10.1
		C208,372.3,209,373.4,210.1,374.3C210.1,374.3,210.1,374.3,210.1,374.3z"/>
	<path class="st0" d="M176.5,324.4c-3.2,0.3-5.8,0.6-9.2,0.9c0.6-1.4,0.9-3.4,1.8-3.8C172.3,320.1,174.2,322.4,176.5,324.4z"/>
	<path class="st0" d="M357.2,336.1c-5-1.2-8.9-4.6-13.4-6.9c0.3-0.5,0.5-1,0.8-1.4c4.4,2.3,8.8,4.7,13.2,7
		C357.6,335.2,357.4,335.7,357.2,336.1z"/>
	<path class="st0" d="M132,330.1c-5.4-3.2-10.9-6.3-16.3-9.5c0.2-0.4,0.4-0.7,0.6-1.1c5.4,3.1,10.9,6.3,16.3,9.4
		C132.5,329.3,132.2,329.7,132,330.1z"/>
	<path class="st0" d="M141.3,341.6c4.2,2.4,8.2,4.7,12.2,7C150.7,350,142.3,345.3,141.3,341.6z"/>
	<path class="st0" d="M157,266.7c3,1.2,6.7,0.8,6.1,5.6C160.3,271.5,157.6,270.8,157,266.7z"/>
	<path class="st0" d="M226.7,119.6c4.1,2.3,8.1,4.7,12.2,7c-0.2,0.3-0.4,0.6-0.5,0.9c-4-2.4-8.1-4.7-12.1-7.1
		C226.3,120.2,226.5,119.9,226.7,119.6z"/>
	<path class="st0" d="M173.5,352.4c3.8,2.2,7.6,4.4,11.4,6.6c-0.2,0.4-0.4,0.7-0.6,1.1c-3.9-2.2-7.7-4.3-11.6-6.5
		C173,353.2,173.2,352.8,173.5,352.4z"/>
	<path class="st0" d="M140.1,333.1c3.4,2,6.8,4,10.2,6c-0.2,0.4-0.4,0.8-0.7,1.1c-3.4-2-6.8-4.1-10.2-6.1
		C139.6,333.8,139.8,333.5,140.1,333.1z"/>
	<path class="st0" d="M91.2,314.8c-2.7-1.6-5.4-3.2-8-4.8c0.3-0.5,0.5-0.9,0.8-1.4c2.7,1.6,5.4,3.1,8.1,4.7
		C91.8,313.8,91.5,314.3,91.2,314.8z"/>
	<path class="st0" d="M162.4,261.5c0.6,0,1.2-0.1,1.7,0c1.2,0.4,2.3,0.9,3.5,1.4c-0.5,0.5-1,1.4-1.4,1.3c-1.5-0.4-2.9-1-4.3-1.6
		C162.1,262.3,162.3,261.9,162.4,261.5z"/>
	<path class="st0" d="M179.6,363.2c-3.8,0.1-5.2-1.1-4.4-5.3C176.9,359.9,178.1,361.2,179.6,363.2z"/>
	<path class="st0" d="M156.5,235.8c-0.7,2.5-1.5,5.1-2.2,7.6c-0.5-0.1-0.9-0.3-1.4-0.4c0.7-2.5,1.4-5.1,2.1-7.6
		C155.5,235.5,156,235.6,156.5,235.8z"/>
	<path class="st0" d="M210.1,374.3c3,1.3,6,2.6,9,3.8c-0.3,0.5-0.6,1.1-0.9,1.6C215.5,378,212.8,376.1,210.1,374.3
		C210.1,374.3,210.1,374.3,210.1,374.3z"/>
	<path class="st0" d="M294.4,122c-1.2,1.8-2.4,3.6-3.5,5.3c-0.5-0.3-1-0.6-1.4-0.9c1.1-1.9,2.2-3.7,3.3-5.6
		C293.3,121.2,293.9,121.6,294.4,122z"/>
	<path d="M215.3,183.3c-1.7,1-3.4,2.6-5.2,2.7c-1.1,0-3.4-2.8-3.1-3.5c0.7-1.6,2.5-3.4,4.1-3.7c1.2-0.2,2.8,1.7,4.3,2.7
		C215.4,182,215.3,182.7,215.3,183.3z"/>
	<path d="M234.5,201.7c-1.6-2.6-3.5-4.3-3.2-5.4c0.5-1.6,2.6-3.7,4-3.6c1.3,0,3.6,2.5,3.7,3.9C239,197.9,236.7,199.3,234.5,201.7z"
		/>
	<path d="M264,211c-1.7,1.1-3.4,3-5.2,3c-1.2,0-2.4-2.5-3.6-3.9c1.4-1.2,2.7-3.2,4.3-3.4c1.4-0.2,3,1.6,4.5,2.5
		C264,209.8,264,210.4,264,211z"/>
	<path d="M288.2,224.9c-1.6,1.1-3.1,2.8-4.7,2.9c-1.2,0.1-3.3-1.8-3.6-3.1c-0.6-2.5,1.4-4.1,3.7-4c1.6,0.1,3.1,1.5,4.6,2.4
		C288.2,223.7,288.2,224.3,288.2,224.9z"/>
	<path d="M307.8,243.7c-1.9-2.4-4.1-4-3.8-5.1c0.4-1.6,2.4-3.6,3.9-3.8c1.2-0.2,3.8,2.2,3.8,3.3
		C311.7,239.7,309.7,241.2,307.8,243.7z"/>
	<path d="M105.3,291.1c-0.5,0.4-1.6,2.2-3,2.4c-2.6,0.4-6-4.3-5.9-7.6c0.1-2.1,0.8-3.7,3.3-3.6C102.6,282.4,105.4,286.3,105.3,291.1
		z"/>
	<path d="M154.1,319.2c-0.7,0.5-1.9,2-3.3,2.2c-2.6,0.3-6.4-4.4-5.9-7.5c0.2-1.4,1.9-3.3,3.2-3.6
		C150.8,309.9,154.2,314.6,154.1,319.2z"/>
	<path d="M129.9,305.2c-0.7,0.5-1.9,2-3.3,2.2c-2.8,0.3-6.3-4.3-5.7-7.5c0.3-1.4,1.9-3.3,3.2-3.5C126.6,295.9,130,300.7,129.9,305.2
		z"/>
	<path d="M202.7,347.1c-0.6,0.5-1.8,2.2-3.2,2.4c-2.6,0.4-6-4.2-6-7.5c0-2.1,0.8-3.7,3.2-3.7C199.4,338.3,202.8,342.5,202.7,347.1z"
		/>
</g>
</svg>
