<?xml version="1.0" encoding="utf-8"?>
<svg xmlns="http://www.w3.org/2000/svg"
	xmlns:xlink="http://www.w3.org/1999/xlink"
	width="20px" height="20px" viewBox="0 0 20 20">
<path fillRule="evenodd" d="M 18.93-0.03C 18.93-0.03 0.68-0.03 0.68-0.03 0.32-0.03 0.02 0.26 0.02 0.63 0.02 0.63 0.02 3.89 0.02 3.89 0.02 4.26 0.32 4.55 0.68 4.55 0.68 4.55 1.5 4.55 1.5 4.55 1.5 4.55 7.52 11.63 7.52 11.63 7.52 11.63 7.52 19.14 7.52 19.14 7.52 19.38 7.65 19.61 7.86 19.72 7.96 19.77 8.07 19.8 8.18 19.8 8.3 19.8 8.43 19.76 8.54 19.69 8.54 19.69 11.8 17.51 11.8 17.51 11.99 17.39 12.1 17.19 12.1 16.97 12.1 16.97 12.1 11.63 12.1 11.63 12.1 11.63 18.12 4.55 18.12 4.55 18.12 4.55 18.93 4.55 18.93 4.55 19.29 4.55 19.59 4.26 19.59 3.89 19.59 3.89 19.59 0.63 19.59 0.63 19.59 0.26 19.29-0.03 18.93-0.03ZM 10.94 10.96C 10.83 11.08 10.78 11.23 10.78 11.39 10.78 11.39 10.78 16.61 10.78 16.61 10.78 16.61 8.83 17.91 8.83 17.91 8.83 17.91 8.83 11.39 8.83 11.39 8.83 11.23 8.78 11.08 8.68 10.96 8.68 10.96 3.23 4.55 3.23 4.55 3.23 4.55 16.39 4.55 16.39 4.55 16.39 4.55 10.94 10.96 10.94 10.96ZM 18.27 3.23C 18.27 3.23 1.34 3.23 1.34 3.23 1.34 3.23 1.34 1.29 1.34 1.29 1.34 1.29 18.27 1.29 18.27 1.29 18.27 1.29 18.27 3.23 18.27 3.23Z" fill="rgb(0,57,69)"/></svg>