<?xml version="1.0" encoding="utf-8"?>
<!-- Generator: Adobe Illustrator 16.0.0, SVG Export Plug-In . SVG Version: 6.00 Build 0)  -->
<!DOCTYPE svg PUBLIC "-//W3C//DTD SVG 1.1//EN" "http://www.w3.org/Graphics/SVG/1.1/DTD/svg11.dtd">
<svg version="1.1" id="Layer_1" xmlns="http://www.w3.org/2000/svg" xmlns:xlink="http://www.w3.org/1999/xlink" x="0px" y="0px"
	 width="39.001px" height="23px" viewBox="0 0 39.001 23" enable-background="new 0 0 39.001 23" xml:space="preserve">
<g>
	<g>
		<path d="M8.694,12.9c-1.836,0-3.33,1.504-3.33,3.353s1.494,3.353,3.33,3.353c1.836,0,3.33-1.504,3.33-3.353S10.53,12.9,8.694,12.9
			z M8.694,18.332c-1.139,0-2.066-0.933-2.066-2.079s0.927-2.079,2.066-2.079c1.139,0,2.065,0.933,2.065,2.079
			S9.833,18.332,8.694,18.332z M30.276,12.9c-1.837,0-3.33,1.504-3.33,3.353s1.493,3.353,3.33,3.353c1.836,0,3.33-1.504,3.33-3.353
			S32.112,12.9,30.276,12.9z M30.276,18.332c-1.139,0-2.065-0.933-2.065-2.079s0.927-2.079,2.065-2.079s2.065,0.933,2.065,2.079
			S31.415,18.332,30.276,18.332z M38.369,12.222c-0.014,0-0.027,0.001-0.041,0.002V9.875c0-0.896-0.443-1.728-1.184-2.225
			l-0.982-0.66l-1.389-2.796c-0.453-0.912-1.363-1.478-2.375-1.478h-6.844c-0.349,0-0.632,0.285-0.632,0.637v2.758H23.49V1.315
			c0-0.023,0.019-0.042,0.041-0.042h11.467c0.349,0,0.632-0.285,0.632-0.637S35.346,0,34.998,0H23.531
			c-0.72,0-1.307,0.59-1.307,1.315v0.042H0.632c-0.27,0-0.51,0.172-0.598,0.429C-0.053,2.043,0.03,2.328,0.242,2.496l8.901,7.027
			c-0.149-0.01-0.298-0.017-0.449-0.017c-3.696,0-6.703,3.027-6.703,6.747S4.998,23,8.694,23c3.006,0,5.556-2.003,6.403-4.753h8.776
			C24.72,20.997,27.269,23,30.276,23c3.696,0,6.702-3.027,6.702-6.747c0-0.015-0.001-0.028-0.001-0.042h0.044
			c1.092,0,1.98-0.896,1.98-1.995v-1.358C39.001,12.507,38.718,12.222,38.369,12.222z M26.187,3.989h6.211
			c1.37,0,1.604,2.011,1.604,2.011h-5v1h5l2.441,1.709c0.389,0.261,0.619,0.696,0.619,1.166v2.347h-1.391
			c-0.008,0-0.016,0.001-0.023,0.001c-1.223-1.648-3.176-2.717-5.372-2.717c-1.538,0-2.956,0.525-4.089,1.406V3.989z M2.463,2.631
			h19.761V13.58h-5.138c-0.487,0-0.967-0.168-1.35-0.471L2.463,2.631z M8.694,21.727c-2.999,0-5.438-2.455-5.438-5.474
			s2.439-5.474,5.438-5.474c2.998,0,5.438,2.456,5.438,5.474S11.692,21.727,8.694,21.727z M23.613,16.975h-8.256
			c0.025-0.237,0.039-0.479,0.039-0.722c0-0.714-0.112-1.402-0.317-2.049c0.583,0.419,1.29,0.648,2.007,0.648h6.634
			c-0.096,0.452-0.146,0.92-0.146,1.4C23.574,16.496,23.587,16.737,23.613,16.975z M23.49,13.58V7.384h1.433v4.796
			c0,0.006,0.001,0.012,0.001,0.018c-0.318,0.425-0.588,0.889-0.8,1.383H23.49z M30.276,21.727c-2.999,0-5.438-2.455-5.438-5.474
			s2.438-5.474,5.438-5.474c2.998,0,5.438,2.456,5.438,5.474S33.274,21.727,30.276,21.727z M37.737,14.216
			c0,0.397-0.321,0.722-0.716,0.722h-0.172c-0.1-0.504-0.255-0.986-0.459-1.443h1.305c0.014,0,0.027-0.001,0.042-0.002V14.216z"/>
	</g>
</g>
</svg>
